G04 #@! TF.GenerationSoftware,KiCad,Pcbnew,(5.1.4)-1*
G04 #@! TF.CreationDate,2020-08-27T05:36:11+02:00*
G04 #@! TF.ProjectId,transmitter,7472616e-736d-4697-9474-65722e6b6963,v1.0*
G04 #@! TF.SameCoordinates,Original*
G04 #@! TF.FileFunction,Copper,L2,Bot*
G04 #@! TF.FilePolarity,Positive*
%FSLAX46Y46*%
G04 Gerber Fmt 4.6, Leading zero omitted, Abs format (unit mm)*
G04 Created by KiCad (PCBNEW (5.1.4)-1) date 2020-08-27 05:36:11*
%MOMM*%
%LPD*%
G04 APERTURE LIST*
%ADD10R,1.600000X1.600000*%
%ADD11O,1.600000X1.600000*%
%ADD12O,1.700000X1.700000*%
%ADD13R,1.700000X1.700000*%
%ADD14C,1.600000*%
%ADD15C,1.200000*%
%ADD16R,2.200000X2.200000*%
%ADD17O,2.200000X2.200000*%
%ADD18R,1.524000X1.524000*%
%ADD19C,1.524000*%
%ADD20C,1.500000*%
%ADD21C,0.500000*%
%ADD22C,0.254000*%
G04 APERTURE END LIST*
D10*
X221424500Y-38354000D03*
D11*
X229044500Y-71374000D03*
X221424500Y-40894000D03*
X229044500Y-68834000D03*
X221424500Y-43434000D03*
X229044500Y-66294000D03*
X221424500Y-45974000D03*
X229044500Y-63754000D03*
X221424500Y-48514000D03*
X229044500Y-61214000D03*
X221424500Y-51054000D03*
X229044500Y-58674000D03*
X221424500Y-53594000D03*
X229044500Y-56134000D03*
X221424500Y-56134000D03*
X229044500Y-53594000D03*
X221424500Y-58674000D03*
X229044500Y-51054000D03*
X221424500Y-61214000D03*
X229044500Y-48514000D03*
X221424500Y-63754000D03*
X229044500Y-45974000D03*
X221424500Y-66294000D03*
X229044500Y-43434000D03*
X221424500Y-68834000D03*
X229044500Y-40894000D03*
X221424500Y-71374000D03*
X229044500Y-38354000D03*
D12*
X262699500Y-37655500D03*
X260159500Y-37655500D03*
X257619500Y-37655500D03*
X255079500Y-37655500D03*
X252539500Y-37655500D03*
D13*
X249999500Y-37655500D03*
D12*
X262699500Y-41592500D03*
X260159500Y-41592500D03*
X257619500Y-41592500D03*
X255079500Y-41592500D03*
X252539500Y-41592500D03*
D13*
X249999500Y-41592500D03*
D12*
X214947500Y-76708000D03*
X214947500Y-74168000D03*
X214947500Y-71628000D03*
D13*
X214947500Y-69088000D03*
D12*
X217297000Y-51054000D03*
D13*
X217297000Y-48514000D03*
X228473000Y-75501500D03*
D14*
X210058000Y-61658500D03*
X207558000Y-61658500D03*
X207748500Y-58166000D03*
X210248500Y-58166000D03*
D15*
X213233000Y-31115000D03*
X211233000Y-31115000D03*
D10*
X240538000Y-46672500D03*
D14*
X240538000Y-44172500D03*
X240855500Y-54062000D03*
D10*
X240855500Y-51562000D03*
X231838500Y-31115000D03*
D14*
X231838500Y-28615000D03*
X247269000Y-24043000D03*
D10*
X247269000Y-26543000D03*
X224917000Y-27813000D03*
D11*
X217297000Y-27813000D03*
D16*
X256921000Y-31623000D03*
D17*
X246761000Y-31623000D03*
D13*
X212471000Y-48514000D03*
D12*
X212471000Y-45974000D03*
X212471000Y-43434000D03*
X212471000Y-40894000D03*
X212471000Y-38354000D03*
X212471000Y-35814000D03*
D13*
X241744500Y-25971500D03*
D12*
X239204500Y-25971500D03*
X232537000Y-39179500D03*
X232537000Y-41719500D03*
X232537000Y-44259500D03*
X232537000Y-46799500D03*
X232537000Y-49339500D03*
D13*
X232537000Y-51879500D03*
X243332000Y-37592000D03*
D14*
X217297000Y-31369000D03*
D11*
X224917000Y-31369000D03*
D18*
X237109000Y-61087000D03*
D19*
X239649000Y-61087000D03*
X237109000Y-63627000D03*
X239649000Y-63627000D03*
X237109000Y-66167000D03*
X239649000Y-66167000D03*
X237109000Y-68707000D03*
X239649000Y-68707000D03*
D13*
X246951500Y-52197000D03*
D12*
X246951500Y-49657000D03*
X246951500Y-47117000D03*
X238125000Y-31623000D03*
X240665000Y-31623000D03*
D13*
X243205000Y-31623000D03*
D20*
X215328500Y-57594500D03*
X215328500Y-62494500D03*
D21*
X216609000Y-61214000D02*
X221424500Y-61214000D01*
X215328500Y-62494500D02*
X216609000Y-61214000D01*
X210894000Y-62494500D02*
X210058000Y-61658500D01*
X215328500Y-62494500D02*
X210894000Y-62494500D01*
X220345000Y-57594500D02*
X221424500Y-58674000D01*
X215328500Y-57594500D02*
X220345000Y-57594500D01*
X210820000Y-57594500D02*
X210248500Y-58166000D01*
X215328500Y-57594500D02*
X210820000Y-57594500D01*
X217962000Y-31369000D02*
X217297000Y-31369000D01*
X221424500Y-35496500D02*
X217297000Y-31369000D01*
X221424500Y-38354000D02*
X221424500Y-35496500D01*
X217297000Y-31369000D02*
X217297000Y-27813000D01*
X217043000Y-31115000D02*
X217297000Y-31369000D01*
X213233000Y-31115000D02*
X217043000Y-31115000D01*
X226504500Y-58674000D02*
X229044500Y-58674000D01*
X221424500Y-53594000D02*
X226504500Y-58674000D01*
X249936000Y-37719000D02*
X249999500Y-37655500D01*
X252539500Y-37655500D02*
X255079500Y-37655500D01*
X257619500Y-37655500D02*
X260159500Y-37655500D01*
X260159500Y-37655500D02*
X262699500Y-37655500D01*
X255079500Y-37655500D02*
X257619500Y-37655500D01*
X249999500Y-37655500D02*
X252539500Y-37655500D01*
X246824500Y-46990000D02*
X246951500Y-47117000D01*
X246507000Y-46672500D02*
X246951500Y-47117000D01*
X240538000Y-46672500D02*
X246507000Y-46672500D01*
X206946500Y-40957500D02*
X206883000Y-40894000D01*
X206883000Y-40894000D02*
X206883000Y-30988000D01*
X243332000Y-36242000D02*
X243332000Y-37592000D01*
X256921000Y-31623000D02*
X256921000Y-33223000D01*
X255727000Y-34417000D02*
X245173500Y-34417000D01*
X245173500Y-34417000D02*
X243713000Y-35877500D01*
X256921000Y-33223000D02*
X255727000Y-34417000D01*
X243713000Y-35877500D02*
X243696500Y-35877500D01*
X243696500Y-35877500D02*
X243332000Y-36242000D01*
X246951500Y-43053000D02*
X246951500Y-47117000D01*
X243332000Y-37592000D02*
X243332000Y-39433500D01*
X243332000Y-39433500D02*
X246951500Y-43053000D01*
X241982000Y-37592000D02*
X238045000Y-33655000D01*
X243332000Y-37592000D02*
X241982000Y-37592000D01*
X249936000Y-37592000D02*
X249999500Y-37655500D01*
X243332000Y-37592000D02*
X249936000Y-37592000D01*
X227203000Y-33655000D02*
X224917000Y-31369000D01*
X238045000Y-33655000D02*
X227203000Y-33655000D01*
X224917000Y-31369000D02*
X224917000Y-27813000D01*
X206883000Y-49944502D02*
X206883000Y-40894000D01*
X210532498Y-53594000D02*
X206883000Y-49944502D01*
X221424500Y-53594000D02*
X210532498Y-53594000D01*
X224917000Y-27813000D02*
X224917000Y-26035000D01*
X224917000Y-26035000D02*
X223520000Y-24638000D01*
X213233000Y-24638000D02*
X210058000Y-27813000D01*
X223520000Y-24638000D02*
X213233000Y-24638000D01*
X206883000Y-30988000D02*
X210058000Y-27813000D01*
X210058000Y-27813000D02*
X210392250Y-27478750D01*
X211268919Y-40894000D02*
X206883000Y-40894000D01*
X212471000Y-40894000D02*
X211268919Y-40894000D01*
X239649000Y-61087000D02*
X244030500Y-61087000D01*
X244030500Y-61087000D02*
X250571000Y-54546500D01*
X250571000Y-52074419D02*
X250571000Y-54546500D01*
X248153581Y-49657000D02*
X250571000Y-52074419D01*
X246951500Y-49657000D02*
X248153581Y-49657000D01*
X240855500Y-50262000D02*
X240855500Y-51562000D01*
X241460500Y-49657000D02*
X240855500Y-50262000D01*
X246951500Y-49657000D02*
X241460500Y-49657000D01*
X239204500Y-30543500D02*
X238125000Y-31623000D01*
X239204500Y-25971500D02*
X239204500Y-30543500D01*
X237617000Y-31115000D02*
X238125000Y-31623000D01*
X231838500Y-31115000D02*
X237617000Y-31115000D01*
X243205000Y-31623000D02*
X246761000Y-31623000D01*
X243205000Y-30273000D02*
X243205000Y-31623000D01*
X243205000Y-29307000D02*
X243205000Y-30273000D01*
X245969000Y-26543000D02*
X243205000Y-29307000D01*
X247269000Y-26543000D02*
X245969000Y-26543000D01*
X215011000Y-43434000D02*
X212471000Y-45974000D01*
X221424500Y-43434000D02*
X215011000Y-43434000D01*
X215011000Y-40894000D02*
X212471000Y-43434000D01*
X221424500Y-40894000D02*
X215011000Y-40894000D01*
X221424500Y-48514000D02*
X217297000Y-48514000D01*
X231711500Y-38354000D02*
X232537000Y-39179500D01*
X229044500Y-38354000D02*
X231711500Y-38354000D01*
X231711500Y-40894000D02*
X232537000Y-41719500D01*
X229044500Y-40894000D02*
X231711500Y-40894000D01*
X231711500Y-43434000D02*
X232537000Y-44259500D01*
X229044500Y-43434000D02*
X231711500Y-43434000D01*
X231711500Y-45974000D02*
X232537000Y-46799500D01*
X229044500Y-45974000D02*
X231711500Y-45974000D01*
X231711500Y-48514000D02*
X232537000Y-49339500D01*
X229044500Y-48514000D02*
X231711500Y-48514000D01*
X231711500Y-51054000D02*
X232537000Y-51879500D01*
X229044500Y-51054000D02*
X231711500Y-51054000D01*
X216090500Y-69088000D02*
X214947500Y-69088000D01*
X221424500Y-63754000D02*
X216090500Y-69088000D01*
X216090500Y-71628000D02*
X214947500Y-71628000D01*
X221424500Y-66294000D02*
X216090500Y-71628000D01*
X220281500Y-68834000D02*
X214947500Y-74168000D01*
X221424500Y-68834000D02*
X220281500Y-68834000D01*
X243524010Y-67502010D02*
X239649000Y-63627000D01*
X243524010Y-71626490D02*
X243524010Y-67502010D01*
X242379500Y-72771000D02*
X243524010Y-71626490D01*
X229044500Y-68834000D02*
X232981500Y-72771000D01*
X232981500Y-72771000D02*
X242379500Y-72771000D01*
X234378500Y-71628000D02*
X241236500Y-71628000D01*
X229044500Y-66294000D02*
X234378500Y-71628000D01*
X242824000Y-68264370D02*
X242824000Y-70040500D01*
X240726630Y-66167000D02*
X242824000Y-68264370D01*
X239649000Y-66167000D02*
X240726630Y-66167000D01*
X241236500Y-71628000D02*
X242824000Y-70040500D01*
X233997500Y-68707000D02*
X237109000Y-68707000D01*
X229044500Y-63754000D02*
X233997500Y-68707000D01*
X233997500Y-66167000D02*
X237109000Y-66167000D01*
X229044500Y-61214000D02*
X233997500Y-66167000D01*
X234950000Y-63627000D02*
X237109000Y-63627000D01*
X234124500Y-62801500D02*
X234950000Y-63627000D01*
X234124500Y-54817000D02*
X234124500Y-62801500D01*
X232537000Y-51879500D02*
X232537000Y-53229500D01*
X232537000Y-53229500D02*
X234124500Y-54817000D01*
X229044500Y-74930000D02*
X228473000Y-75501500D01*
X229044500Y-71374000D02*
X229044500Y-74930000D01*
X221424500Y-51054000D02*
X217297000Y-51054000D01*
X220281500Y-71374000D02*
X214947500Y-76708000D01*
X221424500Y-71374000D02*
X220281500Y-71374000D01*
D22*
G36*
X264262001Y-79922179D02*
G01*
X203860000Y-79984321D01*
X203860000Y-75090872D01*
X205473500Y-75090872D01*
X205473500Y-75531128D01*
X205559390Y-75962925D01*
X205727869Y-76369669D01*
X205972462Y-76735729D01*
X206283771Y-77047038D01*
X206649831Y-77291631D01*
X207056575Y-77460110D01*
X207488372Y-77546000D01*
X207928628Y-77546000D01*
X208360425Y-77460110D01*
X208767169Y-77291631D01*
X209133229Y-77047038D01*
X209444538Y-76735729D01*
X209689131Y-76369669D01*
X209857610Y-75962925D01*
X209943500Y-75531128D01*
X209943500Y-75090872D01*
X209857610Y-74659075D01*
X209689131Y-74252331D01*
X209444538Y-73886271D01*
X209133229Y-73574962D01*
X208767169Y-73330369D01*
X208360425Y-73161890D01*
X207928628Y-73076000D01*
X207488372Y-73076000D01*
X207056575Y-73161890D01*
X206649831Y-73330369D01*
X206283771Y-73574962D01*
X205972462Y-73886271D01*
X205727869Y-74252331D01*
X205559390Y-74659075D01*
X205473500Y-75090872D01*
X203860000Y-75090872D01*
X203860000Y-62651202D01*
X206744903Y-62651202D01*
X206816486Y-62895171D01*
X207071996Y-63016071D01*
X207346184Y-63084800D01*
X207628512Y-63098717D01*
X207908130Y-63057287D01*
X208174292Y-62962103D01*
X208299514Y-62895171D01*
X208371097Y-62651202D01*
X207558000Y-61838105D01*
X206744903Y-62651202D01*
X203860000Y-62651202D01*
X203860000Y-61729012D01*
X206117783Y-61729012D01*
X206159213Y-62008630D01*
X206254397Y-62274792D01*
X206321329Y-62400014D01*
X206565298Y-62471597D01*
X207378395Y-61658500D01*
X206565298Y-60845403D01*
X206321329Y-60916986D01*
X206200429Y-61172496D01*
X206131700Y-61446684D01*
X206117783Y-61729012D01*
X203860000Y-61729012D01*
X203860000Y-60665798D01*
X206744903Y-60665798D01*
X207558000Y-61478895D01*
X208371097Y-60665798D01*
X208299514Y-60421829D01*
X208044004Y-60300929D01*
X207769816Y-60232200D01*
X207487488Y-60218283D01*
X207207870Y-60259713D01*
X206941708Y-60354897D01*
X206816486Y-60421829D01*
X206744903Y-60665798D01*
X203860000Y-60665798D01*
X203860000Y-59158702D01*
X206935403Y-59158702D01*
X207006986Y-59402671D01*
X207262496Y-59523571D01*
X207536684Y-59592300D01*
X207819012Y-59606217D01*
X208098630Y-59564787D01*
X208364792Y-59469603D01*
X208490014Y-59402671D01*
X208561597Y-59158702D01*
X207748500Y-58345605D01*
X206935403Y-59158702D01*
X203860000Y-59158702D01*
X203860000Y-58236512D01*
X206308283Y-58236512D01*
X206349713Y-58516130D01*
X206444897Y-58782292D01*
X206511829Y-58907514D01*
X206755798Y-58979097D01*
X207568895Y-58166000D01*
X206755798Y-57352903D01*
X206511829Y-57424486D01*
X206390929Y-57679996D01*
X206322200Y-57954184D01*
X206308283Y-58236512D01*
X203860000Y-58236512D01*
X203860000Y-57173298D01*
X206935403Y-57173298D01*
X207748500Y-57986395D01*
X208561597Y-57173298D01*
X208490014Y-56929329D01*
X208234504Y-56808429D01*
X207960316Y-56739700D01*
X207677988Y-56725783D01*
X207398370Y-56767213D01*
X207132208Y-56862397D01*
X207006986Y-56929329D01*
X206935403Y-57173298D01*
X203860000Y-57173298D01*
X203860000Y-40894000D01*
X205993718Y-40894000D01*
X205998001Y-40937487D01*
X205998000Y-49901033D01*
X205993719Y-49944502D01*
X205998000Y-49987971D01*
X205998000Y-49987978D01*
X206006956Y-50078910D01*
X206010805Y-50117992D01*
X206024980Y-50164719D01*
X206061411Y-50284814D01*
X206143589Y-50438560D01*
X206254183Y-50573319D01*
X206287956Y-50601036D01*
X209875968Y-54189049D01*
X209903681Y-54222817D01*
X209937449Y-54250530D01*
X209937451Y-54250532D01*
X210038439Y-54333411D01*
X210192184Y-54415589D01*
X210359008Y-54466195D01*
X210489021Y-54479000D01*
X210489029Y-54479000D01*
X210532498Y-54483281D01*
X210575967Y-54479000D01*
X220294422Y-54479000D01*
X220404892Y-54613608D01*
X220623399Y-54792932D01*
X220761182Y-54866579D01*
X220569369Y-54981615D01*
X220360981Y-55170586D01*
X220193463Y-55396580D01*
X220073254Y-55650913D01*
X220032596Y-55784961D01*
X220154585Y-56007000D01*
X221297500Y-56007000D01*
X221297500Y-55987000D01*
X221551500Y-55987000D01*
X221551500Y-56007000D01*
X221571500Y-56007000D01*
X221571500Y-56261000D01*
X221551500Y-56261000D01*
X221551500Y-56281000D01*
X221297500Y-56281000D01*
X221297500Y-56261000D01*
X220154585Y-56261000D01*
X220032596Y-56483039D01*
X220073254Y-56617087D01*
X220116932Y-56709500D01*
X216402185Y-56709500D01*
X216211386Y-56518701D01*
X215984543Y-56367129D01*
X215732489Y-56262725D01*
X215464911Y-56209500D01*
X215192089Y-56209500D01*
X214924511Y-56262725D01*
X214672457Y-56367129D01*
X214445614Y-56518701D01*
X214254815Y-56709500D01*
X210863466Y-56709500D01*
X210819999Y-56705219D01*
X210776533Y-56709500D01*
X210776523Y-56709500D01*
X210646510Y-56722305D01*
X210527546Y-56758393D01*
X210389835Y-56731000D01*
X210107165Y-56731000D01*
X209829926Y-56786147D01*
X209568773Y-56894320D01*
X209333741Y-57051363D01*
X209133863Y-57251241D01*
X208999808Y-57451869D01*
X208985171Y-57424486D01*
X208741202Y-57352903D01*
X207928105Y-58166000D01*
X208741202Y-58979097D01*
X208985171Y-58907514D01*
X208998824Y-58878659D01*
X209133863Y-59080759D01*
X209333741Y-59280637D01*
X209568773Y-59437680D01*
X209829926Y-59545853D01*
X210107165Y-59601000D01*
X210389835Y-59601000D01*
X210667074Y-59545853D01*
X210928227Y-59437680D01*
X211163259Y-59280637D01*
X211363137Y-59080759D01*
X211520180Y-58845727D01*
X211628353Y-58584574D01*
X211649254Y-58479500D01*
X214254815Y-58479500D01*
X214445614Y-58670299D01*
X214672457Y-58821871D01*
X214924511Y-58926275D01*
X215192089Y-58979500D01*
X215464911Y-58979500D01*
X215732489Y-58926275D01*
X215984543Y-58821871D01*
X216211386Y-58670299D01*
X216402185Y-58479500D01*
X219978422Y-58479500D01*
X219999625Y-58500704D01*
X219982557Y-58674000D01*
X220010264Y-58955309D01*
X220092318Y-59225808D01*
X220225568Y-59475101D01*
X220404892Y-59693608D01*
X220623399Y-59872932D01*
X220756358Y-59944000D01*
X220623399Y-60015068D01*
X220404892Y-60194392D01*
X220294422Y-60329000D01*
X216652465Y-60329000D01*
X216608999Y-60324719D01*
X216565533Y-60329000D01*
X216565523Y-60329000D01*
X216435510Y-60341805D01*
X216268687Y-60392411D01*
X216114941Y-60474589D01*
X216114939Y-60474590D01*
X216114940Y-60474590D01*
X216013953Y-60557468D01*
X216013951Y-60557470D01*
X215980183Y-60585183D01*
X215952470Y-60618951D01*
X215461921Y-61109500D01*
X215192089Y-61109500D01*
X214924511Y-61162725D01*
X214672457Y-61267129D01*
X214445614Y-61418701D01*
X214254815Y-61609500D01*
X211493000Y-61609500D01*
X211493000Y-61517165D01*
X211437853Y-61239926D01*
X211329680Y-60978773D01*
X211172637Y-60743741D01*
X210972759Y-60543863D01*
X210737727Y-60386820D01*
X210476574Y-60278647D01*
X210199335Y-60223500D01*
X209916665Y-60223500D01*
X209639426Y-60278647D01*
X209378273Y-60386820D01*
X209143241Y-60543863D01*
X208943363Y-60743741D01*
X208809308Y-60944369D01*
X208794671Y-60916986D01*
X208550702Y-60845403D01*
X207737605Y-61658500D01*
X208550702Y-62471597D01*
X208794671Y-62400014D01*
X208808324Y-62371159D01*
X208943363Y-62573259D01*
X209143241Y-62773137D01*
X209378273Y-62930180D01*
X209639426Y-63038353D01*
X209916665Y-63093500D01*
X210199335Y-63093500D01*
X210234438Y-63086517D01*
X210237470Y-63089549D01*
X210265183Y-63123317D01*
X210298951Y-63151030D01*
X210298953Y-63151032D01*
X210399941Y-63233911D01*
X210553686Y-63316089D01*
X210720510Y-63366695D01*
X210850523Y-63379500D01*
X210850531Y-63379500D01*
X210894000Y-63383781D01*
X210937469Y-63379500D01*
X214254815Y-63379500D01*
X214445614Y-63570299D01*
X214672457Y-63721871D01*
X214924511Y-63826275D01*
X215192089Y-63879500D01*
X215464911Y-63879500D01*
X215732489Y-63826275D01*
X215984543Y-63721871D01*
X216211386Y-63570299D01*
X216404299Y-63377386D01*
X216555871Y-63150543D01*
X216660275Y-62898489D01*
X216713500Y-62630911D01*
X216713500Y-62361079D01*
X216975579Y-62099000D01*
X220294422Y-62099000D01*
X220404892Y-62233608D01*
X220623399Y-62412932D01*
X220756358Y-62484000D01*
X220623399Y-62555068D01*
X220404892Y-62734392D01*
X220225568Y-62952899D01*
X220092318Y-63202192D01*
X220010264Y-63472691D01*
X219982557Y-63754000D01*
X219999625Y-63927296D01*
X216189049Y-67737873D01*
X216151994Y-67707463D01*
X216041680Y-67648498D01*
X215921982Y-67612188D01*
X215797500Y-67599928D01*
X214097500Y-67599928D01*
X213973018Y-67612188D01*
X213853320Y-67648498D01*
X213743006Y-67707463D01*
X213646315Y-67786815D01*
X213566963Y-67883506D01*
X213507998Y-67993820D01*
X213471688Y-68113518D01*
X213459428Y-68238000D01*
X213459428Y-69938000D01*
X213471688Y-70062482D01*
X213507998Y-70182180D01*
X213566963Y-70292494D01*
X213646315Y-70389185D01*
X213743006Y-70468537D01*
X213853320Y-70527502D01*
X213922187Y-70548393D01*
X213892366Y-70572866D01*
X213706794Y-70798986D01*
X213568901Y-71056966D01*
X213483987Y-71336889D01*
X213455315Y-71628000D01*
X213483987Y-71919111D01*
X213568901Y-72199034D01*
X213706794Y-72457014D01*
X213892366Y-72683134D01*
X214118486Y-72868706D01*
X214173291Y-72898000D01*
X214118486Y-72927294D01*
X213892366Y-73112866D01*
X213706794Y-73338986D01*
X213568901Y-73596966D01*
X213483987Y-73876889D01*
X213455315Y-74168000D01*
X213483987Y-74459111D01*
X213568901Y-74739034D01*
X213706794Y-74997014D01*
X213892366Y-75223134D01*
X214118486Y-75408706D01*
X214173291Y-75438000D01*
X214118486Y-75467294D01*
X213892366Y-75652866D01*
X213706794Y-75878986D01*
X213568901Y-76136966D01*
X213483987Y-76416889D01*
X213455315Y-76708000D01*
X213483987Y-76999111D01*
X213568901Y-77279034D01*
X213706794Y-77537014D01*
X213892366Y-77763134D01*
X214118486Y-77948706D01*
X214376466Y-78086599D01*
X214656389Y-78171513D01*
X214874550Y-78193000D01*
X215020450Y-78193000D01*
X215238611Y-78171513D01*
X215518534Y-78086599D01*
X215776514Y-77948706D01*
X216002634Y-77763134D01*
X216188206Y-77537014D01*
X216326099Y-77279034D01*
X216411013Y-76999111D01*
X216439685Y-76708000D01*
X216418112Y-76488966D01*
X220464529Y-72442550D01*
X220623399Y-72572932D01*
X220872692Y-72706182D01*
X221143191Y-72788236D01*
X221354008Y-72809000D01*
X221494992Y-72809000D01*
X221705809Y-72788236D01*
X221976308Y-72706182D01*
X222225601Y-72572932D01*
X222444108Y-72393608D01*
X222623432Y-72175101D01*
X222756682Y-71925808D01*
X222838736Y-71655309D01*
X222866443Y-71374000D01*
X222838736Y-71092691D01*
X222756682Y-70822192D01*
X222623432Y-70572899D01*
X222444108Y-70354392D01*
X222225601Y-70175068D01*
X222092642Y-70104000D01*
X222225601Y-70032932D01*
X222444108Y-69853608D01*
X222623432Y-69635101D01*
X222756682Y-69385808D01*
X222838736Y-69115309D01*
X222866443Y-68834000D01*
X222838736Y-68552691D01*
X222756682Y-68282192D01*
X222623432Y-68032899D01*
X222444108Y-67814392D01*
X222225601Y-67635068D01*
X222092642Y-67564000D01*
X222225601Y-67492932D01*
X222444108Y-67313608D01*
X222623432Y-67095101D01*
X222756682Y-66845808D01*
X222838736Y-66575309D01*
X222866443Y-66294000D01*
X222838736Y-66012691D01*
X222756682Y-65742192D01*
X222623432Y-65492899D01*
X222444108Y-65274392D01*
X222225601Y-65095068D01*
X222092642Y-65024000D01*
X222225601Y-64952932D01*
X222444108Y-64773608D01*
X222623432Y-64555101D01*
X222756682Y-64305808D01*
X222838736Y-64035309D01*
X222866443Y-63754000D01*
X222838736Y-63472691D01*
X222756682Y-63202192D01*
X222623432Y-62952899D01*
X222444108Y-62734392D01*
X222225601Y-62555068D01*
X222092642Y-62484000D01*
X222225601Y-62412932D01*
X222444108Y-62233608D01*
X222623432Y-62015101D01*
X222756682Y-61765808D01*
X222838736Y-61495309D01*
X222866443Y-61214000D01*
X222838736Y-60932691D01*
X222756682Y-60662192D01*
X222623432Y-60412899D01*
X222444108Y-60194392D01*
X222225601Y-60015068D01*
X222092642Y-59944000D01*
X222225601Y-59872932D01*
X222444108Y-59693608D01*
X222623432Y-59475101D01*
X222756682Y-59225808D01*
X222838736Y-58955309D01*
X222866443Y-58674000D01*
X222838736Y-58392691D01*
X222756682Y-58122192D01*
X222623432Y-57872899D01*
X222444108Y-57654392D01*
X222225601Y-57475068D01*
X222087818Y-57401421D01*
X222279631Y-57286385D01*
X222488019Y-57097414D01*
X222655537Y-56871420D01*
X222775746Y-56617087D01*
X222816404Y-56483039D01*
X222694416Y-56261002D01*
X222839924Y-56261002D01*
X225847970Y-59269049D01*
X225875683Y-59302817D01*
X225909451Y-59330530D01*
X225909453Y-59330532D01*
X225997354Y-59402671D01*
X226010441Y-59413411D01*
X226164187Y-59495589D01*
X226331010Y-59546195D01*
X226461023Y-59559000D01*
X226461031Y-59559000D01*
X226504500Y-59563281D01*
X226547969Y-59559000D01*
X227914422Y-59559000D01*
X228024892Y-59693608D01*
X228243399Y-59872932D01*
X228376358Y-59944000D01*
X228243399Y-60015068D01*
X228024892Y-60194392D01*
X227845568Y-60412899D01*
X227712318Y-60662192D01*
X227630264Y-60932691D01*
X227602557Y-61214000D01*
X227630264Y-61495309D01*
X227712318Y-61765808D01*
X227845568Y-62015101D01*
X228024892Y-62233608D01*
X228243399Y-62412932D01*
X228376358Y-62484000D01*
X228243399Y-62555068D01*
X228024892Y-62734392D01*
X227845568Y-62952899D01*
X227712318Y-63202192D01*
X227630264Y-63472691D01*
X227602557Y-63754000D01*
X227630264Y-64035309D01*
X227712318Y-64305808D01*
X227845568Y-64555101D01*
X228024892Y-64773608D01*
X228243399Y-64952932D01*
X228376358Y-65024000D01*
X228243399Y-65095068D01*
X228024892Y-65274392D01*
X227845568Y-65492899D01*
X227712318Y-65742192D01*
X227630264Y-66012691D01*
X227602557Y-66294000D01*
X227630264Y-66575309D01*
X227712318Y-66845808D01*
X227845568Y-67095101D01*
X228024892Y-67313608D01*
X228243399Y-67492932D01*
X228376358Y-67564000D01*
X228243399Y-67635068D01*
X228024892Y-67814392D01*
X227845568Y-68032899D01*
X227712318Y-68282192D01*
X227630264Y-68552691D01*
X227602557Y-68834000D01*
X227630264Y-69115309D01*
X227712318Y-69385808D01*
X227845568Y-69635101D01*
X228024892Y-69853608D01*
X228243399Y-70032932D01*
X228376358Y-70104000D01*
X228243399Y-70175068D01*
X228024892Y-70354392D01*
X227845568Y-70572899D01*
X227712318Y-70822192D01*
X227630264Y-71092691D01*
X227602557Y-71374000D01*
X227630264Y-71655309D01*
X227712318Y-71925808D01*
X227845568Y-72175101D01*
X228024892Y-72393608D01*
X228159500Y-72504078D01*
X228159501Y-74013428D01*
X227623000Y-74013428D01*
X227498518Y-74025688D01*
X227378820Y-74061998D01*
X227268506Y-74120963D01*
X227171815Y-74200315D01*
X227092463Y-74297006D01*
X227033498Y-74407320D01*
X226997188Y-74527018D01*
X226984928Y-74651500D01*
X226984928Y-76351500D01*
X226997188Y-76475982D01*
X227033498Y-76595680D01*
X227092463Y-76705994D01*
X227171815Y-76802685D01*
X227268506Y-76882037D01*
X227378820Y-76941002D01*
X227498518Y-76977312D01*
X227623000Y-76989572D01*
X229323000Y-76989572D01*
X229447482Y-76977312D01*
X229567180Y-76941002D01*
X229677494Y-76882037D01*
X229774185Y-76802685D01*
X229853537Y-76705994D01*
X229912502Y-76595680D01*
X229948812Y-76475982D01*
X229953894Y-76424372D01*
X258369000Y-76424372D01*
X258369000Y-76864628D01*
X258454890Y-77296425D01*
X258623369Y-77703169D01*
X258867962Y-78069229D01*
X259179271Y-78380538D01*
X259545331Y-78625131D01*
X259952075Y-78793610D01*
X260383872Y-78879500D01*
X260824128Y-78879500D01*
X261255925Y-78793610D01*
X261662669Y-78625131D01*
X262028729Y-78380538D01*
X262340038Y-78069229D01*
X262584631Y-77703169D01*
X262753110Y-77296425D01*
X262839000Y-76864628D01*
X262839000Y-76424372D01*
X262753110Y-75992575D01*
X262584631Y-75585831D01*
X262340038Y-75219771D01*
X262028729Y-74908462D01*
X261662669Y-74663869D01*
X261255925Y-74495390D01*
X260824128Y-74409500D01*
X260383872Y-74409500D01*
X259952075Y-74495390D01*
X259545331Y-74663869D01*
X259179271Y-74908462D01*
X258867962Y-75219771D01*
X258623369Y-75585831D01*
X258454890Y-75992575D01*
X258369000Y-76424372D01*
X229953894Y-76424372D01*
X229961072Y-76351500D01*
X229961072Y-74651500D01*
X229948812Y-74527018D01*
X229929500Y-74463355D01*
X229929500Y-72504078D01*
X230064108Y-72393608D01*
X230243432Y-72175101D01*
X230376682Y-71925808D01*
X230458736Y-71655309D01*
X230472678Y-71513756D01*
X232324970Y-73366049D01*
X232352683Y-73399817D01*
X232386451Y-73427530D01*
X232386453Y-73427532D01*
X232487440Y-73510410D01*
X232487441Y-73510411D01*
X232641187Y-73592589D01*
X232808010Y-73643195D01*
X232938023Y-73656000D01*
X232938031Y-73656000D01*
X232981500Y-73660281D01*
X233024969Y-73656000D01*
X242336031Y-73656000D01*
X242379500Y-73660281D01*
X242422969Y-73656000D01*
X242422977Y-73656000D01*
X242552990Y-73643195D01*
X242719813Y-73592589D01*
X242873559Y-73510411D01*
X243008317Y-73399817D01*
X243036034Y-73366044D01*
X244119060Y-72283019D01*
X244152827Y-72255307D01*
X244199010Y-72199034D01*
X244263421Y-72120549D01*
X244345599Y-71966804D01*
X244396205Y-71799980D01*
X244404642Y-71714313D01*
X244409010Y-71669967D01*
X244409010Y-71669959D01*
X244413291Y-71626490D01*
X244409010Y-71583021D01*
X244409010Y-67545479D01*
X244413291Y-67502010D01*
X244409010Y-67458541D01*
X244409010Y-67458533D01*
X244396205Y-67328520D01*
X244345599Y-67161697D01*
X244263421Y-67007951D01*
X244152827Y-66873193D01*
X244119059Y-66845480D01*
X241044701Y-63771123D01*
X241046000Y-63764592D01*
X241046000Y-63489408D01*
X240992314Y-63219510D01*
X240887005Y-62965273D01*
X240734120Y-62736465D01*
X240539535Y-62541880D01*
X240310727Y-62388995D01*
X240233485Y-62357000D01*
X240310727Y-62325005D01*
X240539535Y-62172120D01*
X240734120Y-61977535D01*
X240737818Y-61972000D01*
X243987031Y-61972000D01*
X244030500Y-61976281D01*
X244073969Y-61972000D01*
X244073977Y-61972000D01*
X244203990Y-61959195D01*
X244370813Y-61908589D01*
X244524559Y-61826411D01*
X244659317Y-61715817D01*
X244687034Y-61682044D01*
X251166049Y-55203030D01*
X251199817Y-55175317D01*
X251249818Y-55114392D01*
X251310411Y-55040559D01*
X251371546Y-54926182D01*
X251392589Y-54886813D01*
X251443195Y-54719990D01*
X251456000Y-54589977D01*
X251456000Y-54589969D01*
X251460281Y-54546500D01*
X251456000Y-54503031D01*
X251456000Y-52117888D01*
X251460281Y-52074419D01*
X251456000Y-52030950D01*
X251456000Y-52030942D01*
X251443195Y-51900929D01*
X251392589Y-51734106D01*
X251310411Y-51580360D01*
X251199817Y-51445602D01*
X251166050Y-51417890D01*
X248810115Y-49061956D01*
X248782398Y-49028183D01*
X248647640Y-48917589D01*
X248493894Y-48835411D01*
X248327071Y-48784805D01*
X248197058Y-48772000D01*
X248197050Y-48772000D01*
X248153581Y-48767719D01*
X248143556Y-48768706D01*
X248006634Y-48601866D01*
X247780514Y-48416294D01*
X247725709Y-48387000D01*
X247780514Y-48357706D01*
X248006634Y-48172134D01*
X248192206Y-47946014D01*
X248330099Y-47688034D01*
X248415013Y-47408111D01*
X248443685Y-47117000D01*
X248415013Y-46825889D01*
X248330099Y-46545966D01*
X248192206Y-46287986D01*
X248006634Y-46061866D01*
X247836500Y-45922241D01*
X247836500Y-43096469D01*
X247840781Y-43053000D01*
X247836500Y-43009531D01*
X247836500Y-43009523D01*
X247823695Y-42879510D01*
X247818677Y-42862966D01*
X247801148Y-42805183D01*
X247773089Y-42712687D01*
X247690911Y-42558941D01*
X247595350Y-42442500D01*
X248511428Y-42442500D01*
X248523688Y-42566982D01*
X248559998Y-42686680D01*
X248618963Y-42796994D01*
X248698315Y-42893685D01*
X248795006Y-42973037D01*
X248905320Y-43032002D01*
X249025018Y-43068312D01*
X249149500Y-43080572D01*
X249713750Y-43077500D01*
X249872500Y-42918750D01*
X249872500Y-41719500D01*
X250126500Y-41719500D01*
X250126500Y-42918750D01*
X250285250Y-43077500D01*
X250849500Y-43080572D01*
X250973982Y-43068312D01*
X251093680Y-43032002D01*
X251203994Y-42973037D01*
X251300685Y-42893685D01*
X251380037Y-42796994D01*
X251439002Y-42686680D01*
X251463466Y-42606034D01*
X251539231Y-42690088D01*
X251772580Y-42864141D01*
X252035401Y-42989325D01*
X252182610Y-43033976D01*
X252412500Y-42912655D01*
X252412500Y-41719500D01*
X252666500Y-41719500D01*
X252666500Y-42912655D01*
X252896390Y-43033976D01*
X253043599Y-42989325D01*
X253306420Y-42864141D01*
X253539769Y-42690088D01*
X253734678Y-42473855D01*
X253809500Y-42348245D01*
X253884322Y-42473855D01*
X254079231Y-42690088D01*
X254312580Y-42864141D01*
X254575401Y-42989325D01*
X254722610Y-43033976D01*
X254952500Y-42912655D01*
X254952500Y-41719500D01*
X255206500Y-41719500D01*
X255206500Y-42912655D01*
X255436390Y-43033976D01*
X255583599Y-42989325D01*
X255846420Y-42864141D01*
X256079769Y-42690088D01*
X256274678Y-42473855D01*
X256349500Y-42348245D01*
X256424322Y-42473855D01*
X256619231Y-42690088D01*
X256852580Y-42864141D01*
X257115401Y-42989325D01*
X257262610Y-43033976D01*
X257492500Y-42912655D01*
X257492500Y-41719500D01*
X257746500Y-41719500D01*
X257746500Y-42912655D01*
X257976390Y-43033976D01*
X258123599Y-42989325D01*
X258386420Y-42864141D01*
X258619769Y-42690088D01*
X258814678Y-42473855D01*
X258889500Y-42348245D01*
X258964322Y-42473855D01*
X259159231Y-42690088D01*
X259392580Y-42864141D01*
X259655401Y-42989325D01*
X259802610Y-43033976D01*
X260032500Y-42912655D01*
X260032500Y-41719500D01*
X260286500Y-41719500D01*
X260286500Y-42912655D01*
X260516390Y-43033976D01*
X260663599Y-42989325D01*
X260926420Y-42864141D01*
X261159769Y-42690088D01*
X261354678Y-42473855D01*
X261429500Y-42348245D01*
X261504322Y-42473855D01*
X261699231Y-42690088D01*
X261932580Y-42864141D01*
X262195401Y-42989325D01*
X262342610Y-43033976D01*
X262572500Y-42912655D01*
X262572500Y-41719500D01*
X262826500Y-41719500D01*
X262826500Y-42912655D01*
X263056390Y-43033976D01*
X263203599Y-42989325D01*
X263466420Y-42864141D01*
X263699769Y-42690088D01*
X263894678Y-42473855D01*
X264043657Y-42223752D01*
X264140981Y-41949391D01*
X264020314Y-41719500D01*
X262826500Y-41719500D01*
X262572500Y-41719500D01*
X260286500Y-41719500D01*
X260032500Y-41719500D01*
X257746500Y-41719500D01*
X257492500Y-41719500D01*
X255206500Y-41719500D01*
X254952500Y-41719500D01*
X252666500Y-41719500D01*
X252412500Y-41719500D01*
X250126500Y-41719500D01*
X249872500Y-41719500D01*
X248673250Y-41719500D01*
X248514500Y-41878250D01*
X248511428Y-42442500D01*
X247595350Y-42442500D01*
X247580317Y-42424183D01*
X247546550Y-42396471D01*
X245892579Y-40742500D01*
X248511428Y-40742500D01*
X248514500Y-41306750D01*
X248673250Y-41465500D01*
X249872500Y-41465500D01*
X249872500Y-40266250D01*
X250126500Y-40266250D01*
X250126500Y-41465500D01*
X252412500Y-41465500D01*
X252412500Y-40272345D01*
X252666500Y-40272345D01*
X252666500Y-41465500D01*
X254952500Y-41465500D01*
X254952500Y-40272345D01*
X255206500Y-40272345D01*
X255206500Y-41465500D01*
X257492500Y-41465500D01*
X257492500Y-40272345D01*
X257746500Y-40272345D01*
X257746500Y-41465500D01*
X260032500Y-41465500D01*
X260032500Y-40272345D01*
X260286500Y-40272345D01*
X260286500Y-41465500D01*
X262572500Y-41465500D01*
X262572500Y-40272345D01*
X262826500Y-40272345D01*
X262826500Y-41465500D01*
X264020314Y-41465500D01*
X264140981Y-41235609D01*
X264043657Y-40961248D01*
X263894678Y-40711145D01*
X263699769Y-40494912D01*
X263466420Y-40320859D01*
X263203599Y-40195675D01*
X263056390Y-40151024D01*
X262826500Y-40272345D01*
X262572500Y-40272345D01*
X262342610Y-40151024D01*
X262195401Y-40195675D01*
X261932580Y-40320859D01*
X261699231Y-40494912D01*
X261504322Y-40711145D01*
X261429500Y-40836755D01*
X261354678Y-40711145D01*
X261159769Y-40494912D01*
X260926420Y-40320859D01*
X260663599Y-40195675D01*
X260516390Y-40151024D01*
X260286500Y-40272345D01*
X260032500Y-40272345D01*
X259802610Y-40151024D01*
X259655401Y-40195675D01*
X259392580Y-40320859D01*
X259159231Y-40494912D01*
X258964322Y-40711145D01*
X258889500Y-40836755D01*
X258814678Y-40711145D01*
X258619769Y-40494912D01*
X258386420Y-40320859D01*
X258123599Y-40195675D01*
X257976390Y-40151024D01*
X257746500Y-40272345D01*
X257492500Y-40272345D01*
X257262610Y-40151024D01*
X257115401Y-40195675D01*
X256852580Y-40320859D01*
X256619231Y-40494912D01*
X256424322Y-40711145D01*
X256349500Y-40836755D01*
X256274678Y-40711145D01*
X256079769Y-40494912D01*
X255846420Y-40320859D01*
X255583599Y-40195675D01*
X255436390Y-40151024D01*
X255206500Y-40272345D01*
X254952500Y-40272345D01*
X254722610Y-40151024D01*
X254575401Y-40195675D01*
X254312580Y-40320859D01*
X254079231Y-40494912D01*
X253884322Y-40711145D01*
X253809500Y-40836755D01*
X253734678Y-40711145D01*
X253539769Y-40494912D01*
X253306420Y-40320859D01*
X253043599Y-40195675D01*
X252896390Y-40151024D01*
X252666500Y-40272345D01*
X252412500Y-40272345D01*
X252182610Y-40151024D01*
X252035401Y-40195675D01*
X251772580Y-40320859D01*
X251539231Y-40494912D01*
X251463466Y-40578966D01*
X251439002Y-40498320D01*
X251380037Y-40388006D01*
X251300685Y-40291315D01*
X251203994Y-40211963D01*
X251093680Y-40152998D01*
X250973982Y-40116688D01*
X250849500Y-40104428D01*
X250285250Y-40107500D01*
X250126500Y-40266250D01*
X249872500Y-40266250D01*
X249713750Y-40107500D01*
X249149500Y-40104428D01*
X249025018Y-40116688D01*
X248905320Y-40152998D01*
X248795006Y-40211963D01*
X248698315Y-40291315D01*
X248618963Y-40388006D01*
X248559998Y-40498320D01*
X248523688Y-40618018D01*
X248511428Y-40742500D01*
X245892579Y-40742500D01*
X244225833Y-39075755D01*
X244306482Y-39067812D01*
X244426180Y-39031502D01*
X244536494Y-38972537D01*
X244633185Y-38893185D01*
X244712537Y-38796494D01*
X244771502Y-38686180D01*
X244807812Y-38566482D01*
X244816625Y-38477000D01*
X248511428Y-38477000D01*
X248511428Y-38505500D01*
X248523688Y-38629982D01*
X248559998Y-38749680D01*
X248618963Y-38859994D01*
X248698315Y-38956685D01*
X248795006Y-39036037D01*
X248905320Y-39095002D01*
X249025018Y-39131312D01*
X249149500Y-39143572D01*
X250849500Y-39143572D01*
X250973982Y-39131312D01*
X251093680Y-39095002D01*
X251203994Y-39036037D01*
X251300685Y-38956685D01*
X251380037Y-38859994D01*
X251439002Y-38749680D01*
X251459893Y-38680813D01*
X251484366Y-38710634D01*
X251710486Y-38896206D01*
X251968466Y-39034099D01*
X252248389Y-39119013D01*
X252466550Y-39140500D01*
X252612450Y-39140500D01*
X252830611Y-39119013D01*
X253110534Y-39034099D01*
X253368514Y-38896206D01*
X253594634Y-38710634D01*
X253734259Y-38540500D01*
X253884741Y-38540500D01*
X254024366Y-38710634D01*
X254250486Y-38896206D01*
X254508466Y-39034099D01*
X254788389Y-39119013D01*
X255006550Y-39140500D01*
X255152450Y-39140500D01*
X255370611Y-39119013D01*
X255650534Y-39034099D01*
X255908514Y-38896206D01*
X256134634Y-38710634D01*
X256274259Y-38540500D01*
X256424741Y-38540500D01*
X256564366Y-38710634D01*
X256790486Y-38896206D01*
X257048466Y-39034099D01*
X257328389Y-39119013D01*
X257546550Y-39140500D01*
X257692450Y-39140500D01*
X257910611Y-39119013D01*
X258190534Y-39034099D01*
X258448514Y-38896206D01*
X258674634Y-38710634D01*
X258814259Y-38540500D01*
X258964741Y-38540500D01*
X259104366Y-38710634D01*
X259330486Y-38896206D01*
X259588466Y-39034099D01*
X259868389Y-39119013D01*
X260086550Y-39140500D01*
X260232450Y-39140500D01*
X260450611Y-39119013D01*
X260730534Y-39034099D01*
X260988514Y-38896206D01*
X261214634Y-38710634D01*
X261354259Y-38540500D01*
X261504741Y-38540500D01*
X261644366Y-38710634D01*
X261870486Y-38896206D01*
X262128466Y-39034099D01*
X262408389Y-39119013D01*
X262626550Y-39140500D01*
X262772450Y-39140500D01*
X262990611Y-39119013D01*
X263270534Y-39034099D01*
X263528514Y-38896206D01*
X263754634Y-38710634D01*
X263940206Y-38484514D01*
X264078099Y-38226534D01*
X264163013Y-37946611D01*
X264191685Y-37655500D01*
X264163013Y-37364389D01*
X264078099Y-37084466D01*
X263940206Y-36826486D01*
X263754634Y-36600366D01*
X263528514Y-36414794D01*
X263270534Y-36276901D01*
X262990611Y-36191987D01*
X262772450Y-36170500D01*
X262626550Y-36170500D01*
X262408389Y-36191987D01*
X262128466Y-36276901D01*
X261870486Y-36414794D01*
X261644366Y-36600366D01*
X261504741Y-36770500D01*
X261354259Y-36770500D01*
X261214634Y-36600366D01*
X260988514Y-36414794D01*
X260730534Y-36276901D01*
X260450611Y-36191987D01*
X260232450Y-36170500D01*
X260086550Y-36170500D01*
X259868389Y-36191987D01*
X259588466Y-36276901D01*
X259330486Y-36414794D01*
X259104366Y-36600366D01*
X258964741Y-36770500D01*
X258814259Y-36770500D01*
X258674634Y-36600366D01*
X258448514Y-36414794D01*
X258190534Y-36276901D01*
X257910611Y-36191987D01*
X257692450Y-36170500D01*
X257546550Y-36170500D01*
X257328389Y-36191987D01*
X257048466Y-36276901D01*
X256790486Y-36414794D01*
X256564366Y-36600366D01*
X256424741Y-36770500D01*
X256274259Y-36770500D01*
X256134634Y-36600366D01*
X255908514Y-36414794D01*
X255650534Y-36276901D01*
X255370611Y-36191987D01*
X255152450Y-36170500D01*
X255006550Y-36170500D01*
X254788389Y-36191987D01*
X254508466Y-36276901D01*
X254250486Y-36414794D01*
X254024366Y-36600366D01*
X253884741Y-36770500D01*
X253734259Y-36770500D01*
X253594634Y-36600366D01*
X253368514Y-36414794D01*
X253110534Y-36276901D01*
X252830611Y-36191987D01*
X252612450Y-36170500D01*
X252466550Y-36170500D01*
X252248389Y-36191987D01*
X251968466Y-36276901D01*
X251710486Y-36414794D01*
X251484366Y-36600366D01*
X251459893Y-36630187D01*
X251439002Y-36561320D01*
X251380037Y-36451006D01*
X251300685Y-36354315D01*
X251203994Y-36274963D01*
X251093680Y-36215998D01*
X250973982Y-36179688D01*
X250849500Y-36167428D01*
X249149500Y-36167428D01*
X249025018Y-36179688D01*
X248905320Y-36215998D01*
X248795006Y-36274963D01*
X248698315Y-36354315D01*
X248618963Y-36451006D01*
X248559998Y-36561320D01*
X248523688Y-36681018D01*
X248521129Y-36707000D01*
X244816625Y-36707000D01*
X244807812Y-36617518D01*
X244771502Y-36497820D01*
X244712537Y-36387506D01*
X244633185Y-36290815D01*
X244588190Y-36253888D01*
X245540079Y-35302000D01*
X255683531Y-35302000D01*
X255727000Y-35306281D01*
X255770469Y-35302000D01*
X255770477Y-35302000D01*
X255900490Y-35289195D01*
X256067313Y-35238589D01*
X256221059Y-35156411D01*
X256355817Y-35045817D01*
X256383534Y-35012044D01*
X257516049Y-33879530D01*
X257549817Y-33851817D01*
X257660411Y-33717059D01*
X257742589Y-33563313D01*
X257793195Y-33396490D01*
X257796683Y-33361072D01*
X258021000Y-33361072D01*
X258145482Y-33348812D01*
X258265180Y-33312502D01*
X258375494Y-33253537D01*
X258472185Y-33174185D01*
X258551537Y-33077494D01*
X258610502Y-32967180D01*
X258646812Y-32847482D01*
X258659072Y-32723000D01*
X258659072Y-30523000D01*
X258646812Y-30398518D01*
X258610502Y-30278820D01*
X258551537Y-30168506D01*
X258472185Y-30071815D01*
X258375494Y-29992463D01*
X258265180Y-29933498D01*
X258145482Y-29897188D01*
X258021000Y-29884928D01*
X255821000Y-29884928D01*
X255696518Y-29897188D01*
X255576820Y-29933498D01*
X255466506Y-29992463D01*
X255369815Y-30071815D01*
X255290463Y-30168506D01*
X255231498Y-30278820D01*
X255195188Y-30398518D01*
X255182928Y-30523000D01*
X255182928Y-32723000D01*
X255195188Y-32847482D01*
X255231498Y-32967180D01*
X255290463Y-33077494D01*
X255369815Y-33174185D01*
X255466506Y-33253537D01*
X255576820Y-33312502D01*
X255579198Y-33313223D01*
X255360422Y-33532000D01*
X245216969Y-33532000D01*
X245173500Y-33527719D01*
X245130031Y-33532000D01*
X245130023Y-33532000D01*
X245000010Y-33544805D01*
X244833187Y-33595411D01*
X244721703Y-33655000D01*
X244679441Y-33677589D01*
X244578453Y-33760468D01*
X244578451Y-33760470D01*
X244544683Y-33788183D01*
X244516970Y-33821951D01*
X243193473Y-35145449D01*
X243067683Y-35248683D01*
X243039968Y-35282454D01*
X242736956Y-35585466D01*
X242703183Y-35613183D01*
X242592589Y-35747942D01*
X242510411Y-35901688D01*
X242459805Y-36068511D01*
X242456065Y-36106482D01*
X242357518Y-36116188D01*
X242237820Y-36152498D01*
X242127506Y-36211463D01*
X242030815Y-36290815D01*
X241986451Y-36344872D01*
X238701534Y-33059956D01*
X238673817Y-33026183D01*
X238657942Y-33013154D01*
X238696034Y-33001599D01*
X238954014Y-32863706D01*
X239180134Y-32678134D01*
X239365706Y-32452014D01*
X239400201Y-32387477D01*
X239469822Y-32504355D01*
X239664731Y-32720588D01*
X239898080Y-32894641D01*
X240160901Y-33019825D01*
X240308110Y-33064476D01*
X240538000Y-32943155D01*
X240538000Y-31750000D01*
X240518000Y-31750000D01*
X240518000Y-31496000D01*
X240538000Y-31496000D01*
X240538000Y-30302845D01*
X240792000Y-30302845D01*
X240792000Y-31496000D01*
X240812000Y-31496000D01*
X240812000Y-31750000D01*
X240792000Y-31750000D01*
X240792000Y-32943155D01*
X241021890Y-33064476D01*
X241169099Y-33019825D01*
X241431920Y-32894641D01*
X241665269Y-32720588D01*
X241741034Y-32636534D01*
X241765498Y-32717180D01*
X241824463Y-32827494D01*
X241903815Y-32924185D01*
X242000506Y-33003537D01*
X242110820Y-33062502D01*
X242230518Y-33098812D01*
X242355000Y-33111072D01*
X244055000Y-33111072D01*
X244179482Y-33098812D01*
X244299180Y-33062502D01*
X244409494Y-33003537D01*
X244506185Y-32924185D01*
X244585537Y-32827494D01*
X244644502Y-32717180D01*
X244680812Y-32597482D01*
X244689625Y-32508000D01*
X245266748Y-32508000D01*
X245311421Y-32591578D01*
X245528234Y-32855766D01*
X245792422Y-33072579D01*
X246093832Y-33233686D01*
X246420881Y-33332895D01*
X246675775Y-33358000D01*
X246846225Y-33358000D01*
X247101119Y-33332895D01*
X247428168Y-33233686D01*
X247729578Y-33072579D01*
X247993766Y-32855766D01*
X248210579Y-32591578D01*
X248371686Y-32290168D01*
X248470895Y-31963119D01*
X248504394Y-31623000D01*
X248470895Y-31282881D01*
X248371686Y-30955832D01*
X248210579Y-30654422D01*
X247993766Y-30390234D01*
X247729578Y-30173421D01*
X247428168Y-30012314D01*
X247101119Y-29913105D01*
X246846225Y-29888000D01*
X246675775Y-29888000D01*
X246420881Y-29913105D01*
X246093832Y-30012314D01*
X245792422Y-30173421D01*
X245528234Y-30390234D01*
X245311421Y-30654422D01*
X245266748Y-30738000D01*
X244689625Y-30738000D01*
X244680812Y-30648518D01*
X244644502Y-30528820D01*
X244585537Y-30418506D01*
X244506185Y-30321815D01*
X244409494Y-30242463D01*
X244299180Y-30183498D01*
X244179482Y-30147188D01*
X244090000Y-30138375D01*
X244090000Y-29673578D01*
X245995989Y-27767590D01*
X246017815Y-27794185D01*
X246114506Y-27873537D01*
X246224820Y-27932502D01*
X246344518Y-27968812D01*
X246469000Y-27981072D01*
X248069000Y-27981072D01*
X248193482Y-27968812D01*
X248313180Y-27932502D01*
X248423494Y-27873537D01*
X248520185Y-27794185D01*
X248599537Y-27697494D01*
X248658502Y-27587180D01*
X248694812Y-27467482D01*
X248707072Y-27343000D01*
X248707072Y-25743000D01*
X248694812Y-25618518D01*
X248658502Y-25498820D01*
X248599537Y-25388506D01*
X248520185Y-25291815D01*
X248423494Y-25212463D01*
X248313180Y-25153498D01*
X248193482Y-25117188D01*
X248069000Y-25104928D01*
X248061785Y-25104928D01*
X248082097Y-25035702D01*
X247269000Y-24222605D01*
X246455903Y-25035702D01*
X246476215Y-25104928D01*
X246469000Y-25104928D01*
X246344518Y-25117188D01*
X246224820Y-25153498D01*
X246114506Y-25212463D01*
X246017815Y-25291815D01*
X245938463Y-25388506D01*
X245879498Y-25498820D01*
X245843188Y-25618518D01*
X245838455Y-25666575D01*
X245795510Y-25670805D01*
X245628687Y-25721411D01*
X245474941Y-25803589D01*
X245474939Y-25803590D01*
X245474940Y-25803590D01*
X245373953Y-25886468D01*
X245373951Y-25886470D01*
X245340183Y-25914183D01*
X245312470Y-25947951D01*
X242609956Y-28650466D01*
X242576183Y-28678183D01*
X242465589Y-28812942D01*
X242383411Y-28966688D01*
X242353835Y-29064185D01*
X242332805Y-29133510D01*
X242331212Y-29149686D01*
X242320000Y-29263524D01*
X242320000Y-29263531D01*
X242315719Y-29307000D01*
X242320000Y-29350470D01*
X242320001Y-30138375D01*
X242230518Y-30147188D01*
X242110820Y-30183498D01*
X242000506Y-30242463D01*
X241903815Y-30321815D01*
X241824463Y-30418506D01*
X241765498Y-30528820D01*
X241741034Y-30609466D01*
X241665269Y-30525412D01*
X241431920Y-30351359D01*
X241169099Y-30226175D01*
X241021890Y-30181524D01*
X240792000Y-30302845D01*
X240538000Y-30302845D01*
X240308110Y-30181524D01*
X240160901Y-30226175D01*
X240089500Y-30260184D01*
X240089500Y-27166259D01*
X240259634Y-27026634D01*
X240284107Y-26996813D01*
X240304998Y-27065680D01*
X240363963Y-27175994D01*
X240443315Y-27272685D01*
X240540006Y-27352037D01*
X240650320Y-27411002D01*
X240770018Y-27447312D01*
X240894500Y-27459572D01*
X241458750Y-27456500D01*
X241617500Y-27297750D01*
X241617500Y-26098500D01*
X241871500Y-26098500D01*
X241871500Y-27297750D01*
X242030250Y-27456500D01*
X242594500Y-27459572D01*
X242718982Y-27447312D01*
X242838680Y-27411002D01*
X242948994Y-27352037D01*
X243045685Y-27272685D01*
X243125037Y-27175994D01*
X243184002Y-27065680D01*
X243220312Y-26945982D01*
X243232572Y-26821500D01*
X243229500Y-26257250D01*
X243070750Y-26098500D01*
X241871500Y-26098500D01*
X241617500Y-26098500D01*
X241597500Y-26098500D01*
X241597500Y-25844500D01*
X241617500Y-25844500D01*
X241617500Y-24645250D01*
X241871500Y-24645250D01*
X241871500Y-25844500D01*
X243070750Y-25844500D01*
X243229500Y-25685750D01*
X243232572Y-25121500D01*
X243220312Y-24997018D01*
X243184002Y-24877320D01*
X243125037Y-24767006D01*
X243045685Y-24670315D01*
X242948994Y-24590963D01*
X242838680Y-24531998D01*
X242718982Y-24495688D01*
X242594500Y-24483428D01*
X242030250Y-24486500D01*
X241871500Y-24645250D01*
X241617500Y-24645250D01*
X241458750Y-24486500D01*
X240894500Y-24483428D01*
X240770018Y-24495688D01*
X240650320Y-24531998D01*
X240540006Y-24590963D01*
X240443315Y-24670315D01*
X240363963Y-24767006D01*
X240304998Y-24877320D01*
X240284107Y-24946187D01*
X240259634Y-24916366D01*
X240033514Y-24730794D01*
X239775534Y-24592901D01*
X239495611Y-24507987D01*
X239277450Y-24486500D01*
X239131550Y-24486500D01*
X238913389Y-24507987D01*
X238633466Y-24592901D01*
X238375486Y-24730794D01*
X238149366Y-24916366D01*
X237963794Y-25142486D01*
X237825901Y-25400466D01*
X237740987Y-25680389D01*
X237712315Y-25971500D01*
X237740987Y-26262611D01*
X237825901Y-26542534D01*
X237963794Y-26800514D01*
X238149366Y-27026634D01*
X238319500Y-27166260D01*
X238319501Y-30149972D01*
X238197950Y-30138000D01*
X238052050Y-30138000D01*
X237833889Y-30159487D01*
X237614856Y-30225930D01*
X237573531Y-30230000D01*
X233268201Y-30230000D01*
X233264312Y-30190518D01*
X233228002Y-30070820D01*
X233169037Y-29960506D01*
X233089685Y-29863815D01*
X232992994Y-29784463D01*
X232882680Y-29725498D01*
X232762982Y-29689188D01*
X232638500Y-29676928D01*
X232631285Y-29676928D01*
X232651597Y-29607702D01*
X231838500Y-28794605D01*
X231025403Y-29607702D01*
X231045715Y-29676928D01*
X231038500Y-29676928D01*
X230914018Y-29689188D01*
X230794320Y-29725498D01*
X230684006Y-29784463D01*
X230587315Y-29863815D01*
X230507963Y-29960506D01*
X230448998Y-30070820D01*
X230412688Y-30190518D01*
X230400428Y-30315000D01*
X230400428Y-31915000D01*
X230412688Y-32039482D01*
X230448998Y-32159180D01*
X230507963Y-32269494D01*
X230587315Y-32366185D01*
X230684006Y-32445537D01*
X230794320Y-32504502D01*
X230914018Y-32540812D01*
X231038500Y-32553072D01*
X232638500Y-32553072D01*
X232762982Y-32540812D01*
X232882680Y-32504502D01*
X232992994Y-32445537D01*
X233089685Y-32366185D01*
X233169037Y-32269494D01*
X233228002Y-32159180D01*
X233264312Y-32039482D01*
X233268201Y-32000000D01*
X236687541Y-32000000D01*
X236746401Y-32194034D01*
X236884294Y-32452014D01*
X237069866Y-32678134D01*
X237181805Y-32770000D01*
X227569579Y-32770000D01*
X226341875Y-31542296D01*
X226358943Y-31369000D01*
X226331236Y-31087691D01*
X226249182Y-30817192D01*
X226115932Y-30567899D01*
X225936608Y-30349392D01*
X225802000Y-30238922D01*
X225802000Y-29242701D01*
X225841482Y-29238812D01*
X225961180Y-29202502D01*
X226071494Y-29143537D01*
X226168185Y-29064185D01*
X226247537Y-28967494D01*
X226306502Y-28857180D01*
X226342812Y-28737482D01*
X226347930Y-28685512D01*
X230398283Y-28685512D01*
X230439713Y-28965130D01*
X230534897Y-29231292D01*
X230601829Y-29356514D01*
X230845798Y-29428097D01*
X231658895Y-28615000D01*
X232018105Y-28615000D01*
X232831202Y-29428097D01*
X233075171Y-29356514D01*
X233196071Y-29101004D01*
X233264800Y-28826816D01*
X233278717Y-28544488D01*
X233237287Y-28264870D01*
X233142103Y-27998708D01*
X233075171Y-27873486D01*
X232831202Y-27801903D01*
X232018105Y-28615000D01*
X231658895Y-28615000D01*
X230845798Y-27801903D01*
X230601829Y-27873486D01*
X230480929Y-28128996D01*
X230412200Y-28403184D01*
X230398283Y-28685512D01*
X226347930Y-28685512D01*
X226355072Y-28613000D01*
X226355072Y-27622298D01*
X231025403Y-27622298D01*
X231838500Y-28435395D01*
X232651597Y-27622298D01*
X232580014Y-27378329D01*
X232324504Y-27257429D01*
X232050316Y-27188700D01*
X231767988Y-27174783D01*
X231488370Y-27216213D01*
X231222208Y-27311397D01*
X231096986Y-27378329D01*
X231025403Y-27622298D01*
X226355072Y-27622298D01*
X226355072Y-27013000D01*
X226342812Y-26888518D01*
X226306502Y-26768820D01*
X226247537Y-26658506D01*
X226168185Y-26561815D01*
X226071494Y-26482463D01*
X225961180Y-26423498D01*
X225841482Y-26387188D01*
X225802000Y-26383299D01*
X225802000Y-26078465D01*
X225806281Y-26034999D01*
X225802000Y-25991533D01*
X225802000Y-25991523D01*
X225789195Y-25861510D01*
X225738589Y-25694687D01*
X225656411Y-25540941D01*
X225604298Y-25477442D01*
X225573532Y-25439953D01*
X225573530Y-25439951D01*
X225545817Y-25406183D01*
X225512049Y-25378470D01*
X224247091Y-24113512D01*
X245828783Y-24113512D01*
X245870213Y-24393130D01*
X245965397Y-24659292D01*
X246032329Y-24784514D01*
X246276298Y-24856097D01*
X247089395Y-24043000D01*
X247448605Y-24043000D01*
X248261702Y-24856097D01*
X248505671Y-24784514D01*
X248626571Y-24529004D01*
X248695300Y-24254816D01*
X248709217Y-23972488D01*
X248667787Y-23692870D01*
X248572603Y-23426708D01*
X248505671Y-23301486D01*
X248261702Y-23229903D01*
X247448605Y-24043000D01*
X247089395Y-24043000D01*
X246276298Y-23229903D01*
X246032329Y-23301486D01*
X245911429Y-23556996D01*
X245842700Y-23831184D01*
X245828783Y-24113512D01*
X224247091Y-24113512D01*
X224176534Y-24042956D01*
X224148817Y-24009183D01*
X224014059Y-23898589D01*
X223860313Y-23816411D01*
X223693490Y-23765805D01*
X223563477Y-23753000D01*
X223563469Y-23753000D01*
X223520000Y-23748719D01*
X223476531Y-23753000D01*
X213276466Y-23753000D01*
X213232999Y-23748719D01*
X213189533Y-23753000D01*
X213189523Y-23753000D01*
X213059510Y-23765805D01*
X212892687Y-23816411D01*
X212738941Y-23898589D01*
X212738939Y-23898590D01*
X212738940Y-23898590D01*
X212637953Y-23981468D01*
X212637951Y-23981470D01*
X212604183Y-24009183D01*
X212576470Y-24042951D01*
X209462958Y-27156464D01*
X209462953Y-27156468D01*
X206287951Y-30331471D01*
X206254184Y-30359183D01*
X206226471Y-30392951D01*
X206226468Y-30392954D01*
X206143590Y-30493941D01*
X206061412Y-30647687D01*
X206010805Y-30814510D01*
X205993719Y-30988000D01*
X205998001Y-31031479D01*
X205998000Y-40850523D01*
X205993718Y-40894000D01*
X203860000Y-40894000D01*
X203860000Y-23084372D01*
X204838500Y-23084372D01*
X204838500Y-23524628D01*
X204924390Y-23956425D01*
X205092869Y-24363169D01*
X205337462Y-24729229D01*
X205648771Y-25040538D01*
X206014831Y-25285131D01*
X206421575Y-25453610D01*
X206853372Y-25539500D01*
X207293628Y-25539500D01*
X207725425Y-25453610D01*
X208132169Y-25285131D01*
X208498229Y-25040538D01*
X208809538Y-24729229D01*
X209054131Y-24363169D01*
X209222610Y-23956425D01*
X209308500Y-23524628D01*
X209308500Y-23084372D01*
X209301723Y-23050298D01*
X246455903Y-23050298D01*
X247269000Y-23863395D01*
X248082097Y-23050298D01*
X248036201Y-22893872D01*
X258686500Y-22893872D01*
X258686500Y-23334128D01*
X258772390Y-23765925D01*
X258940869Y-24172669D01*
X259185462Y-24538729D01*
X259496771Y-24850038D01*
X259862831Y-25094631D01*
X260269575Y-25263110D01*
X260701372Y-25349000D01*
X261141628Y-25349000D01*
X261573425Y-25263110D01*
X261980169Y-25094631D01*
X262346229Y-24850038D01*
X262657538Y-24538729D01*
X262902131Y-24172669D01*
X263070610Y-23765925D01*
X263156500Y-23334128D01*
X263156500Y-22893872D01*
X263070610Y-22462075D01*
X262902131Y-22055331D01*
X262657538Y-21689271D01*
X262346229Y-21377962D01*
X261980169Y-21133369D01*
X261573425Y-20964890D01*
X261141628Y-20879000D01*
X260701372Y-20879000D01*
X260269575Y-20964890D01*
X259862831Y-21133369D01*
X259496771Y-21377962D01*
X259185462Y-21689271D01*
X258940869Y-22055331D01*
X258772390Y-22462075D01*
X258686500Y-22893872D01*
X248036201Y-22893872D01*
X248010514Y-22806329D01*
X247755004Y-22685429D01*
X247480816Y-22616700D01*
X247198488Y-22602783D01*
X246918870Y-22644213D01*
X246652708Y-22739397D01*
X246527486Y-22806329D01*
X246455903Y-23050298D01*
X209301723Y-23050298D01*
X209222610Y-22652575D01*
X209054131Y-22245831D01*
X208809538Y-21879771D01*
X208498229Y-21568462D01*
X208132169Y-21323869D01*
X207725425Y-21155390D01*
X207293628Y-21069500D01*
X206853372Y-21069500D01*
X206421575Y-21155390D01*
X206014831Y-21323869D01*
X205648771Y-21568462D01*
X205337462Y-21879771D01*
X205092869Y-22245831D01*
X204924390Y-22652575D01*
X204838500Y-23084372D01*
X203860000Y-23084372D01*
X203860000Y-19837000D01*
X264262000Y-19837000D01*
X264262001Y-79922179D01*
X264262001Y-79922179D01*
G37*
X264262001Y-79922179D02*
X203860000Y-79984321D01*
X203860000Y-75090872D01*
X205473500Y-75090872D01*
X205473500Y-75531128D01*
X205559390Y-75962925D01*
X205727869Y-76369669D01*
X205972462Y-76735729D01*
X206283771Y-77047038D01*
X206649831Y-77291631D01*
X207056575Y-77460110D01*
X207488372Y-77546000D01*
X207928628Y-77546000D01*
X208360425Y-77460110D01*
X208767169Y-77291631D01*
X209133229Y-77047038D01*
X209444538Y-76735729D01*
X209689131Y-76369669D01*
X209857610Y-75962925D01*
X209943500Y-75531128D01*
X209943500Y-75090872D01*
X209857610Y-74659075D01*
X209689131Y-74252331D01*
X209444538Y-73886271D01*
X209133229Y-73574962D01*
X208767169Y-73330369D01*
X208360425Y-73161890D01*
X207928628Y-73076000D01*
X207488372Y-73076000D01*
X207056575Y-73161890D01*
X206649831Y-73330369D01*
X206283771Y-73574962D01*
X205972462Y-73886271D01*
X205727869Y-74252331D01*
X205559390Y-74659075D01*
X205473500Y-75090872D01*
X203860000Y-75090872D01*
X203860000Y-62651202D01*
X206744903Y-62651202D01*
X206816486Y-62895171D01*
X207071996Y-63016071D01*
X207346184Y-63084800D01*
X207628512Y-63098717D01*
X207908130Y-63057287D01*
X208174292Y-62962103D01*
X208299514Y-62895171D01*
X208371097Y-62651202D01*
X207558000Y-61838105D01*
X206744903Y-62651202D01*
X203860000Y-62651202D01*
X203860000Y-61729012D01*
X206117783Y-61729012D01*
X206159213Y-62008630D01*
X206254397Y-62274792D01*
X206321329Y-62400014D01*
X206565298Y-62471597D01*
X207378395Y-61658500D01*
X206565298Y-60845403D01*
X206321329Y-60916986D01*
X206200429Y-61172496D01*
X206131700Y-61446684D01*
X206117783Y-61729012D01*
X203860000Y-61729012D01*
X203860000Y-60665798D01*
X206744903Y-60665798D01*
X207558000Y-61478895D01*
X208371097Y-60665798D01*
X208299514Y-60421829D01*
X208044004Y-60300929D01*
X207769816Y-60232200D01*
X207487488Y-60218283D01*
X207207870Y-60259713D01*
X206941708Y-60354897D01*
X206816486Y-60421829D01*
X206744903Y-60665798D01*
X203860000Y-60665798D01*
X203860000Y-59158702D01*
X206935403Y-59158702D01*
X207006986Y-59402671D01*
X207262496Y-59523571D01*
X207536684Y-59592300D01*
X207819012Y-59606217D01*
X208098630Y-59564787D01*
X208364792Y-59469603D01*
X208490014Y-59402671D01*
X208561597Y-59158702D01*
X207748500Y-58345605D01*
X206935403Y-59158702D01*
X203860000Y-59158702D01*
X203860000Y-58236512D01*
X206308283Y-58236512D01*
X206349713Y-58516130D01*
X206444897Y-58782292D01*
X206511829Y-58907514D01*
X206755798Y-58979097D01*
X207568895Y-58166000D01*
X206755798Y-57352903D01*
X206511829Y-57424486D01*
X206390929Y-57679996D01*
X206322200Y-57954184D01*
X206308283Y-58236512D01*
X203860000Y-58236512D01*
X203860000Y-57173298D01*
X206935403Y-57173298D01*
X207748500Y-57986395D01*
X208561597Y-57173298D01*
X208490014Y-56929329D01*
X208234504Y-56808429D01*
X207960316Y-56739700D01*
X207677988Y-56725783D01*
X207398370Y-56767213D01*
X207132208Y-56862397D01*
X207006986Y-56929329D01*
X206935403Y-57173298D01*
X203860000Y-57173298D01*
X203860000Y-40894000D01*
X205993718Y-40894000D01*
X205998001Y-40937487D01*
X205998000Y-49901033D01*
X205993719Y-49944502D01*
X205998000Y-49987971D01*
X205998000Y-49987978D01*
X206006956Y-50078910D01*
X206010805Y-50117992D01*
X206024980Y-50164719D01*
X206061411Y-50284814D01*
X206143589Y-50438560D01*
X206254183Y-50573319D01*
X206287956Y-50601036D01*
X209875968Y-54189049D01*
X209903681Y-54222817D01*
X209937449Y-54250530D01*
X209937451Y-54250532D01*
X210038439Y-54333411D01*
X210192184Y-54415589D01*
X210359008Y-54466195D01*
X210489021Y-54479000D01*
X210489029Y-54479000D01*
X210532498Y-54483281D01*
X210575967Y-54479000D01*
X220294422Y-54479000D01*
X220404892Y-54613608D01*
X220623399Y-54792932D01*
X220761182Y-54866579D01*
X220569369Y-54981615D01*
X220360981Y-55170586D01*
X220193463Y-55396580D01*
X220073254Y-55650913D01*
X220032596Y-55784961D01*
X220154585Y-56007000D01*
X221297500Y-56007000D01*
X221297500Y-55987000D01*
X221551500Y-55987000D01*
X221551500Y-56007000D01*
X221571500Y-56007000D01*
X221571500Y-56261000D01*
X221551500Y-56261000D01*
X221551500Y-56281000D01*
X221297500Y-56281000D01*
X221297500Y-56261000D01*
X220154585Y-56261000D01*
X220032596Y-56483039D01*
X220073254Y-56617087D01*
X220116932Y-56709500D01*
X216402185Y-56709500D01*
X216211386Y-56518701D01*
X215984543Y-56367129D01*
X215732489Y-56262725D01*
X215464911Y-56209500D01*
X215192089Y-56209500D01*
X214924511Y-56262725D01*
X214672457Y-56367129D01*
X214445614Y-56518701D01*
X214254815Y-56709500D01*
X210863466Y-56709500D01*
X210819999Y-56705219D01*
X210776533Y-56709500D01*
X210776523Y-56709500D01*
X210646510Y-56722305D01*
X210527546Y-56758393D01*
X210389835Y-56731000D01*
X210107165Y-56731000D01*
X209829926Y-56786147D01*
X209568773Y-56894320D01*
X209333741Y-57051363D01*
X209133863Y-57251241D01*
X208999808Y-57451869D01*
X208985171Y-57424486D01*
X208741202Y-57352903D01*
X207928105Y-58166000D01*
X208741202Y-58979097D01*
X208985171Y-58907514D01*
X208998824Y-58878659D01*
X209133863Y-59080759D01*
X209333741Y-59280637D01*
X209568773Y-59437680D01*
X209829926Y-59545853D01*
X210107165Y-59601000D01*
X210389835Y-59601000D01*
X210667074Y-59545853D01*
X210928227Y-59437680D01*
X211163259Y-59280637D01*
X211363137Y-59080759D01*
X211520180Y-58845727D01*
X211628353Y-58584574D01*
X211649254Y-58479500D01*
X214254815Y-58479500D01*
X214445614Y-58670299D01*
X214672457Y-58821871D01*
X214924511Y-58926275D01*
X215192089Y-58979500D01*
X215464911Y-58979500D01*
X215732489Y-58926275D01*
X215984543Y-58821871D01*
X216211386Y-58670299D01*
X216402185Y-58479500D01*
X219978422Y-58479500D01*
X219999625Y-58500704D01*
X219982557Y-58674000D01*
X220010264Y-58955309D01*
X220092318Y-59225808D01*
X220225568Y-59475101D01*
X220404892Y-59693608D01*
X220623399Y-59872932D01*
X220756358Y-59944000D01*
X220623399Y-60015068D01*
X220404892Y-60194392D01*
X220294422Y-60329000D01*
X216652465Y-60329000D01*
X216608999Y-60324719D01*
X216565533Y-60329000D01*
X216565523Y-60329000D01*
X216435510Y-60341805D01*
X216268687Y-60392411D01*
X216114941Y-60474589D01*
X216114939Y-60474590D01*
X216114940Y-60474590D01*
X216013953Y-60557468D01*
X216013951Y-60557470D01*
X215980183Y-60585183D01*
X215952470Y-60618951D01*
X215461921Y-61109500D01*
X215192089Y-61109500D01*
X214924511Y-61162725D01*
X214672457Y-61267129D01*
X214445614Y-61418701D01*
X214254815Y-61609500D01*
X211493000Y-61609500D01*
X211493000Y-61517165D01*
X211437853Y-61239926D01*
X211329680Y-60978773D01*
X211172637Y-60743741D01*
X210972759Y-60543863D01*
X210737727Y-60386820D01*
X210476574Y-60278647D01*
X210199335Y-60223500D01*
X209916665Y-60223500D01*
X209639426Y-60278647D01*
X209378273Y-60386820D01*
X209143241Y-60543863D01*
X208943363Y-60743741D01*
X208809308Y-60944369D01*
X208794671Y-60916986D01*
X208550702Y-60845403D01*
X207737605Y-61658500D01*
X208550702Y-62471597D01*
X208794671Y-62400014D01*
X208808324Y-62371159D01*
X208943363Y-62573259D01*
X209143241Y-62773137D01*
X209378273Y-62930180D01*
X209639426Y-63038353D01*
X209916665Y-63093500D01*
X210199335Y-63093500D01*
X210234438Y-63086517D01*
X210237470Y-63089549D01*
X210265183Y-63123317D01*
X210298951Y-63151030D01*
X210298953Y-63151032D01*
X210399941Y-63233911D01*
X210553686Y-63316089D01*
X210720510Y-63366695D01*
X210850523Y-63379500D01*
X210850531Y-63379500D01*
X210894000Y-63383781D01*
X210937469Y-63379500D01*
X214254815Y-63379500D01*
X214445614Y-63570299D01*
X214672457Y-63721871D01*
X214924511Y-63826275D01*
X215192089Y-63879500D01*
X215464911Y-63879500D01*
X215732489Y-63826275D01*
X215984543Y-63721871D01*
X216211386Y-63570299D01*
X216404299Y-63377386D01*
X216555871Y-63150543D01*
X216660275Y-62898489D01*
X216713500Y-62630911D01*
X216713500Y-62361079D01*
X216975579Y-62099000D01*
X220294422Y-62099000D01*
X220404892Y-62233608D01*
X220623399Y-62412932D01*
X220756358Y-62484000D01*
X220623399Y-62555068D01*
X220404892Y-62734392D01*
X220225568Y-62952899D01*
X220092318Y-63202192D01*
X220010264Y-63472691D01*
X219982557Y-63754000D01*
X219999625Y-63927296D01*
X216189049Y-67737873D01*
X216151994Y-67707463D01*
X216041680Y-67648498D01*
X215921982Y-67612188D01*
X215797500Y-67599928D01*
X214097500Y-67599928D01*
X213973018Y-67612188D01*
X213853320Y-67648498D01*
X213743006Y-67707463D01*
X213646315Y-67786815D01*
X213566963Y-67883506D01*
X213507998Y-67993820D01*
X213471688Y-68113518D01*
X213459428Y-68238000D01*
X213459428Y-69938000D01*
X213471688Y-70062482D01*
X213507998Y-70182180D01*
X213566963Y-70292494D01*
X213646315Y-70389185D01*
X213743006Y-70468537D01*
X213853320Y-70527502D01*
X213922187Y-70548393D01*
X213892366Y-70572866D01*
X213706794Y-70798986D01*
X213568901Y-71056966D01*
X213483987Y-71336889D01*
X213455315Y-71628000D01*
X213483987Y-71919111D01*
X213568901Y-72199034D01*
X213706794Y-72457014D01*
X213892366Y-72683134D01*
X214118486Y-72868706D01*
X214173291Y-72898000D01*
X214118486Y-72927294D01*
X213892366Y-73112866D01*
X213706794Y-73338986D01*
X213568901Y-73596966D01*
X213483987Y-73876889D01*
X213455315Y-74168000D01*
X213483987Y-74459111D01*
X213568901Y-74739034D01*
X213706794Y-74997014D01*
X213892366Y-75223134D01*
X214118486Y-75408706D01*
X214173291Y-75438000D01*
X214118486Y-75467294D01*
X213892366Y-75652866D01*
X213706794Y-75878986D01*
X213568901Y-76136966D01*
X213483987Y-76416889D01*
X213455315Y-76708000D01*
X213483987Y-76999111D01*
X213568901Y-77279034D01*
X213706794Y-77537014D01*
X213892366Y-77763134D01*
X214118486Y-77948706D01*
X214376466Y-78086599D01*
X214656389Y-78171513D01*
X214874550Y-78193000D01*
X215020450Y-78193000D01*
X215238611Y-78171513D01*
X215518534Y-78086599D01*
X215776514Y-77948706D01*
X216002634Y-77763134D01*
X216188206Y-77537014D01*
X216326099Y-77279034D01*
X216411013Y-76999111D01*
X216439685Y-76708000D01*
X216418112Y-76488966D01*
X220464529Y-72442550D01*
X220623399Y-72572932D01*
X220872692Y-72706182D01*
X221143191Y-72788236D01*
X221354008Y-72809000D01*
X221494992Y-72809000D01*
X221705809Y-72788236D01*
X221976308Y-72706182D01*
X222225601Y-72572932D01*
X222444108Y-72393608D01*
X222623432Y-72175101D01*
X222756682Y-71925808D01*
X222838736Y-71655309D01*
X222866443Y-71374000D01*
X222838736Y-71092691D01*
X222756682Y-70822192D01*
X222623432Y-70572899D01*
X222444108Y-70354392D01*
X222225601Y-70175068D01*
X222092642Y-70104000D01*
X222225601Y-70032932D01*
X222444108Y-69853608D01*
X222623432Y-69635101D01*
X222756682Y-69385808D01*
X222838736Y-69115309D01*
X222866443Y-68834000D01*
X222838736Y-68552691D01*
X222756682Y-68282192D01*
X222623432Y-68032899D01*
X222444108Y-67814392D01*
X222225601Y-67635068D01*
X222092642Y-67564000D01*
X222225601Y-67492932D01*
X222444108Y-67313608D01*
X222623432Y-67095101D01*
X222756682Y-66845808D01*
X222838736Y-66575309D01*
X222866443Y-66294000D01*
X222838736Y-66012691D01*
X222756682Y-65742192D01*
X222623432Y-65492899D01*
X222444108Y-65274392D01*
X222225601Y-65095068D01*
X222092642Y-65024000D01*
X222225601Y-64952932D01*
X222444108Y-64773608D01*
X222623432Y-64555101D01*
X222756682Y-64305808D01*
X222838736Y-64035309D01*
X222866443Y-63754000D01*
X222838736Y-63472691D01*
X222756682Y-63202192D01*
X222623432Y-62952899D01*
X222444108Y-62734392D01*
X222225601Y-62555068D01*
X222092642Y-62484000D01*
X222225601Y-62412932D01*
X222444108Y-62233608D01*
X222623432Y-62015101D01*
X222756682Y-61765808D01*
X222838736Y-61495309D01*
X222866443Y-61214000D01*
X222838736Y-60932691D01*
X222756682Y-60662192D01*
X222623432Y-60412899D01*
X222444108Y-60194392D01*
X222225601Y-60015068D01*
X222092642Y-59944000D01*
X222225601Y-59872932D01*
X222444108Y-59693608D01*
X222623432Y-59475101D01*
X222756682Y-59225808D01*
X222838736Y-58955309D01*
X222866443Y-58674000D01*
X222838736Y-58392691D01*
X222756682Y-58122192D01*
X222623432Y-57872899D01*
X222444108Y-57654392D01*
X222225601Y-57475068D01*
X222087818Y-57401421D01*
X222279631Y-57286385D01*
X222488019Y-57097414D01*
X222655537Y-56871420D01*
X222775746Y-56617087D01*
X222816404Y-56483039D01*
X222694416Y-56261002D01*
X222839924Y-56261002D01*
X225847970Y-59269049D01*
X225875683Y-59302817D01*
X225909451Y-59330530D01*
X225909453Y-59330532D01*
X225997354Y-59402671D01*
X226010441Y-59413411D01*
X226164187Y-59495589D01*
X226331010Y-59546195D01*
X226461023Y-59559000D01*
X226461031Y-59559000D01*
X226504500Y-59563281D01*
X226547969Y-59559000D01*
X227914422Y-59559000D01*
X228024892Y-59693608D01*
X228243399Y-59872932D01*
X228376358Y-59944000D01*
X228243399Y-60015068D01*
X228024892Y-60194392D01*
X227845568Y-60412899D01*
X227712318Y-60662192D01*
X227630264Y-60932691D01*
X227602557Y-61214000D01*
X227630264Y-61495309D01*
X227712318Y-61765808D01*
X227845568Y-62015101D01*
X228024892Y-62233608D01*
X228243399Y-62412932D01*
X228376358Y-62484000D01*
X228243399Y-62555068D01*
X228024892Y-62734392D01*
X227845568Y-62952899D01*
X227712318Y-63202192D01*
X227630264Y-63472691D01*
X227602557Y-63754000D01*
X227630264Y-64035309D01*
X227712318Y-64305808D01*
X227845568Y-64555101D01*
X228024892Y-64773608D01*
X228243399Y-64952932D01*
X228376358Y-65024000D01*
X228243399Y-65095068D01*
X228024892Y-65274392D01*
X227845568Y-65492899D01*
X227712318Y-65742192D01*
X227630264Y-66012691D01*
X227602557Y-66294000D01*
X227630264Y-66575309D01*
X227712318Y-66845808D01*
X227845568Y-67095101D01*
X228024892Y-67313608D01*
X228243399Y-67492932D01*
X228376358Y-67564000D01*
X228243399Y-67635068D01*
X228024892Y-67814392D01*
X227845568Y-68032899D01*
X227712318Y-68282192D01*
X227630264Y-68552691D01*
X227602557Y-68834000D01*
X227630264Y-69115309D01*
X227712318Y-69385808D01*
X227845568Y-69635101D01*
X228024892Y-69853608D01*
X228243399Y-70032932D01*
X228376358Y-70104000D01*
X228243399Y-70175068D01*
X228024892Y-70354392D01*
X227845568Y-70572899D01*
X227712318Y-70822192D01*
X227630264Y-71092691D01*
X227602557Y-71374000D01*
X227630264Y-71655309D01*
X227712318Y-71925808D01*
X227845568Y-72175101D01*
X228024892Y-72393608D01*
X228159500Y-72504078D01*
X228159501Y-74013428D01*
X227623000Y-74013428D01*
X227498518Y-74025688D01*
X227378820Y-74061998D01*
X227268506Y-74120963D01*
X227171815Y-74200315D01*
X227092463Y-74297006D01*
X227033498Y-74407320D01*
X226997188Y-74527018D01*
X226984928Y-74651500D01*
X226984928Y-76351500D01*
X226997188Y-76475982D01*
X227033498Y-76595680D01*
X227092463Y-76705994D01*
X227171815Y-76802685D01*
X227268506Y-76882037D01*
X227378820Y-76941002D01*
X227498518Y-76977312D01*
X227623000Y-76989572D01*
X229323000Y-76989572D01*
X229447482Y-76977312D01*
X229567180Y-76941002D01*
X229677494Y-76882037D01*
X229774185Y-76802685D01*
X229853537Y-76705994D01*
X229912502Y-76595680D01*
X229948812Y-76475982D01*
X229953894Y-76424372D01*
X258369000Y-76424372D01*
X258369000Y-76864628D01*
X258454890Y-77296425D01*
X258623369Y-77703169D01*
X258867962Y-78069229D01*
X259179271Y-78380538D01*
X259545331Y-78625131D01*
X259952075Y-78793610D01*
X260383872Y-78879500D01*
X260824128Y-78879500D01*
X261255925Y-78793610D01*
X261662669Y-78625131D01*
X262028729Y-78380538D01*
X262340038Y-78069229D01*
X262584631Y-77703169D01*
X262753110Y-77296425D01*
X262839000Y-76864628D01*
X262839000Y-76424372D01*
X262753110Y-75992575D01*
X262584631Y-75585831D01*
X262340038Y-75219771D01*
X262028729Y-74908462D01*
X261662669Y-74663869D01*
X261255925Y-74495390D01*
X260824128Y-74409500D01*
X260383872Y-74409500D01*
X259952075Y-74495390D01*
X259545331Y-74663869D01*
X259179271Y-74908462D01*
X258867962Y-75219771D01*
X258623369Y-75585831D01*
X258454890Y-75992575D01*
X258369000Y-76424372D01*
X229953894Y-76424372D01*
X229961072Y-76351500D01*
X229961072Y-74651500D01*
X229948812Y-74527018D01*
X229929500Y-74463355D01*
X229929500Y-72504078D01*
X230064108Y-72393608D01*
X230243432Y-72175101D01*
X230376682Y-71925808D01*
X230458736Y-71655309D01*
X230472678Y-71513756D01*
X232324970Y-73366049D01*
X232352683Y-73399817D01*
X232386451Y-73427530D01*
X232386453Y-73427532D01*
X232487440Y-73510410D01*
X232487441Y-73510411D01*
X232641187Y-73592589D01*
X232808010Y-73643195D01*
X232938023Y-73656000D01*
X232938031Y-73656000D01*
X232981500Y-73660281D01*
X233024969Y-73656000D01*
X242336031Y-73656000D01*
X242379500Y-73660281D01*
X242422969Y-73656000D01*
X242422977Y-73656000D01*
X242552990Y-73643195D01*
X242719813Y-73592589D01*
X242873559Y-73510411D01*
X243008317Y-73399817D01*
X243036034Y-73366044D01*
X244119060Y-72283019D01*
X244152827Y-72255307D01*
X244199010Y-72199034D01*
X244263421Y-72120549D01*
X244345599Y-71966804D01*
X244396205Y-71799980D01*
X244404642Y-71714313D01*
X244409010Y-71669967D01*
X244409010Y-71669959D01*
X244413291Y-71626490D01*
X244409010Y-71583021D01*
X244409010Y-67545479D01*
X244413291Y-67502010D01*
X244409010Y-67458541D01*
X244409010Y-67458533D01*
X244396205Y-67328520D01*
X244345599Y-67161697D01*
X244263421Y-67007951D01*
X244152827Y-66873193D01*
X244119059Y-66845480D01*
X241044701Y-63771123D01*
X241046000Y-63764592D01*
X241046000Y-63489408D01*
X240992314Y-63219510D01*
X240887005Y-62965273D01*
X240734120Y-62736465D01*
X240539535Y-62541880D01*
X240310727Y-62388995D01*
X240233485Y-62357000D01*
X240310727Y-62325005D01*
X240539535Y-62172120D01*
X240734120Y-61977535D01*
X240737818Y-61972000D01*
X243987031Y-61972000D01*
X244030500Y-61976281D01*
X244073969Y-61972000D01*
X244073977Y-61972000D01*
X244203990Y-61959195D01*
X244370813Y-61908589D01*
X244524559Y-61826411D01*
X244659317Y-61715817D01*
X244687034Y-61682044D01*
X251166049Y-55203030D01*
X251199817Y-55175317D01*
X251249818Y-55114392D01*
X251310411Y-55040559D01*
X251371546Y-54926182D01*
X251392589Y-54886813D01*
X251443195Y-54719990D01*
X251456000Y-54589977D01*
X251456000Y-54589969D01*
X251460281Y-54546500D01*
X251456000Y-54503031D01*
X251456000Y-52117888D01*
X251460281Y-52074419D01*
X251456000Y-52030950D01*
X251456000Y-52030942D01*
X251443195Y-51900929D01*
X251392589Y-51734106D01*
X251310411Y-51580360D01*
X251199817Y-51445602D01*
X251166050Y-51417890D01*
X248810115Y-49061956D01*
X248782398Y-49028183D01*
X248647640Y-48917589D01*
X248493894Y-48835411D01*
X248327071Y-48784805D01*
X248197058Y-48772000D01*
X248197050Y-48772000D01*
X248153581Y-48767719D01*
X248143556Y-48768706D01*
X248006634Y-48601866D01*
X247780514Y-48416294D01*
X247725709Y-48387000D01*
X247780514Y-48357706D01*
X248006634Y-48172134D01*
X248192206Y-47946014D01*
X248330099Y-47688034D01*
X248415013Y-47408111D01*
X248443685Y-47117000D01*
X248415013Y-46825889D01*
X248330099Y-46545966D01*
X248192206Y-46287986D01*
X248006634Y-46061866D01*
X247836500Y-45922241D01*
X247836500Y-43096469D01*
X247840781Y-43053000D01*
X247836500Y-43009531D01*
X247836500Y-43009523D01*
X247823695Y-42879510D01*
X247818677Y-42862966D01*
X247801148Y-42805183D01*
X247773089Y-42712687D01*
X247690911Y-42558941D01*
X247595350Y-42442500D01*
X248511428Y-42442500D01*
X248523688Y-42566982D01*
X248559998Y-42686680D01*
X248618963Y-42796994D01*
X248698315Y-42893685D01*
X248795006Y-42973037D01*
X248905320Y-43032002D01*
X249025018Y-43068312D01*
X249149500Y-43080572D01*
X249713750Y-43077500D01*
X249872500Y-42918750D01*
X249872500Y-41719500D01*
X250126500Y-41719500D01*
X250126500Y-42918750D01*
X250285250Y-43077500D01*
X250849500Y-43080572D01*
X250973982Y-43068312D01*
X251093680Y-43032002D01*
X251203994Y-42973037D01*
X251300685Y-42893685D01*
X251380037Y-42796994D01*
X251439002Y-42686680D01*
X251463466Y-42606034D01*
X251539231Y-42690088D01*
X251772580Y-42864141D01*
X252035401Y-42989325D01*
X252182610Y-43033976D01*
X252412500Y-42912655D01*
X252412500Y-41719500D01*
X252666500Y-41719500D01*
X252666500Y-42912655D01*
X252896390Y-43033976D01*
X253043599Y-42989325D01*
X253306420Y-42864141D01*
X253539769Y-42690088D01*
X253734678Y-42473855D01*
X253809500Y-42348245D01*
X253884322Y-42473855D01*
X254079231Y-42690088D01*
X254312580Y-42864141D01*
X254575401Y-42989325D01*
X254722610Y-43033976D01*
X254952500Y-42912655D01*
X254952500Y-41719500D01*
X255206500Y-41719500D01*
X255206500Y-42912655D01*
X255436390Y-43033976D01*
X255583599Y-42989325D01*
X255846420Y-42864141D01*
X256079769Y-42690088D01*
X256274678Y-42473855D01*
X256349500Y-42348245D01*
X256424322Y-42473855D01*
X256619231Y-42690088D01*
X256852580Y-42864141D01*
X257115401Y-42989325D01*
X257262610Y-43033976D01*
X257492500Y-42912655D01*
X257492500Y-41719500D01*
X257746500Y-41719500D01*
X257746500Y-42912655D01*
X257976390Y-43033976D01*
X258123599Y-42989325D01*
X258386420Y-42864141D01*
X258619769Y-42690088D01*
X258814678Y-42473855D01*
X258889500Y-42348245D01*
X258964322Y-42473855D01*
X259159231Y-42690088D01*
X259392580Y-42864141D01*
X259655401Y-42989325D01*
X259802610Y-43033976D01*
X260032500Y-42912655D01*
X260032500Y-41719500D01*
X260286500Y-41719500D01*
X260286500Y-42912655D01*
X260516390Y-43033976D01*
X260663599Y-42989325D01*
X260926420Y-42864141D01*
X261159769Y-42690088D01*
X261354678Y-42473855D01*
X261429500Y-42348245D01*
X261504322Y-42473855D01*
X261699231Y-42690088D01*
X261932580Y-42864141D01*
X262195401Y-42989325D01*
X262342610Y-43033976D01*
X262572500Y-42912655D01*
X262572500Y-41719500D01*
X262826500Y-41719500D01*
X262826500Y-42912655D01*
X263056390Y-43033976D01*
X263203599Y-42989325D01*
X263466420Y-42864141D01*
X263699769Y-42690088D01*
X263894678Y-42473855D01*
X264043657Y-42223752D01*
X264140981Y-41949391D01*
X264020314Y-41719500D01*
X262826500Y-41719500D01*
X262572500Y-41719500D01*
X260286500Y-41719500D01*
X260032500Y-41719500D01*
X257746500Y-41719500D01*
X257492500Y-41719500D01*
X255206500Y-41719500D01*
X254952500Y-41719500D01*
X252666500Y-41719500D01*
X252412500Y-41719500D01*
X250126500Y-41719500D01*
X249872500Y-41719500D01*
X248673250Y-41719500D01*
X248514500Y-41878250D01*
X248511428Y-42442500D01*
X247595350Y-42442500D01*
X247580317Y-42424183D01*
X247546550Y-42396471D01*
X245892579Y-40742500D01*
X248511428Y-40742500D01*
X248514500Y-41306750D01*
X248673250Y-41465500D01*
X249872500Y-41465500D01*
X249872500Y-40266250D01*
X250126500Y-40266250D01*
X250126500Y-41465500D01*
X252412500Y-41465500D01*
X252412500Y-40272345D01*
X252666500Y-40272345D01*
X252666500Y-41465500D01*
X254952500Y-41465500D01*
X254952500Y-40272345D01*
X255206500Y-40272345D01*
X255206500Y-41465500D01*
X257492500Y-41465500D01*
X257492500Y-40272345D01*
X257746500Y-40272345D01*
X257746500Y-41465500D01*
X260032500Y-41465500D01*
X260032500Y-40272345D01*
X260286500Y-40272345D01*
X260286500Y-41465500D01*
X262572500Y-41465500D01*
X262572500Y-40272345D01*
X262826500Y-40272345D01*
X262826500Y-41465500D01*
X264020314Y-41465500D01*
X264140981Y-41235609D01*
X264043657Y-40961248D01*
X263894678Y-40711145D01*
X263699769Y-40494912D01*
X263466420Y-40320859D01*
X263203599Y-40195675D01*
X263056390Y-40151024D01*
X262826500Y-40272345D01*
X262572500Y-40272345D01*
X262342610Y-40151024D01*
X262195401Y-40195675D01*
X261932580Y-40320859D01*
X261699231Y-40494912D01*
X261504322Y-40711145D01*
X261429500Y-40836755D01*
X261354678Y-40711145D01*
X261159769Y-40494912D01*
X260926420Y-40320859D01*
X260663599Y-40195675D01*
X260516390Y-40151024D01*
X260286500Y-40272345D01*
X260032500Y-40272345D01*
X259802610Y-40151024D01*
X259655401Y-40195675D01*
X259392580Y-40320859D01*
X259159231Y-40494912D01*
X258964322Y-40711145D01*
X258889500Y-40836755D01*
X258814678Y-40711145D01*
X258619769Y-40494912D01*
X258386420Y-40320859D01*
X258123599Y-40195675D01*
X257976390Y-40151024D01*
X257746500Y-40272345D01*
X257492500Y-40272345D01*
X257262610Y-40151024D01*
X257115401Y-40195675D01*
X256852580Y-40320859D01*
X256619231Y-40494912D01*
X256424322Y-40711145D01*
X256349500Y-40836755D01*
X256274678Y-40711145D01*
X256079769Y-40494912D01*
X255846420Y-40320859D01*
X255583599Y-40195675D01*
X255436390Y-40151024D01*
X255206500Y-40272345D01*
X254952500Y-40272345D01*
X254722610Y-40151024D01*
X254575401Y-40195675D01*
X254312580Y-40320859D01*
X254079231Y-40494912D01*
X253884322Y-40711145D01*
X253809500Y-40836755D01*
X253734678Y-40711145D01*
X253539769Y-40494912D01*
X253306420Y-40320859D01*
X253043599Y-40195675D01*
X252896390Y-40151024D01*
X252666500Y-40272345D01*
X252412500Y-40272345D01*
X252182610Y-40151024D01*
X252035401Y-40195675D01*
X251772580Y-40320859D01*
X251539231Y-40494912D01*
X251463466Y-40578966D01*
X251439002Y-40498320D01*
X251380037Y-40388006D01*
X251300685Y-40291315D01*
X251203994Y-40211963D01*
X251093680Y-40152998D01*
X250973982Y-40116688D01*
X250849500Y-40104428D01*
X250285250Y-40107500D01*
X250126500Y-40266250D01*
X249872500Y-40266250D01*
X249713750Y-40107500D01*
X249149500Y-40104428D01*
X249025018Y-40116688D01*
X248905320Y-40152998D01*
X248795006Y-40211963D01*
X248698315Y-40291315D01*
X248618963Y-40388006D01*
X248559998Y-40498320D01*
X248523688Y-40618018D01*
X248511428Y-40742500D01*
X245892579Y-40742500D01*
X244225833Y-39075755D01*
X244306482Y-39067812D01*
X244426180Y-39031502D01*
X244536494Y-38972537D01*
X244633185Y-38893185D01*
X244712537Y-38796494D01*
X244771502Y-38686180D01*
X244807812Y-38566482D01*
X244816625Y-38477000D01*
X248511428Y-38477000D01*
X248511428Y-38505500D01*
X248523688Y-38629982D01*
X248559998Y-38749680D01*
X248618963Y-38859994D01*
X248698315Y-38956685D01*
X248795006Y-39036037D01*
X248905320Y-39095002D01*
X249025018Y-39131312D01*
X249149500Y-39143572D01*
X250849500Y-39143572D01*
X250973982Y-39131312D01*
X251093680Y-39095002D01*
X251203994Y-39036037D01*
X251300685Y-38956685D01*
X251380037Y-38859994D01*
X251439002Y-38749680D01*
X251459893Y-38680813D01*
X251484366Y-38710634D01*
X251710486Y-38896206D01*
X251968466Y-39034099D01*
X252248389Y-39119013D01*
X252466550Y-39140500D01*
X252612450Y-39140500D01*
X252830611Y-39119013D01*
X253110534Y-39034099D01*
X253368514Y-38896206D01*
X253594634Y-38710634D01*
X253734259Y-38540500D01*
X253884741Y-38540500D01*
X254024366Y-38710634D01*
X254250486Y-38896206D01*
X254508466Y-39034099D01*
X254788389Y-39119013D01*
X255006550Y-39140500D01*
X255152450Y-39140500D01*
X255370611Y-39119013D01*
X255650534Y-39034099D01*
X255908514Y-38896206D01*
X256134634Y-38710634D01*
X256274259Y-38540500D01*
X256424741Y-38540500D01*
X256564366Y-38710634D01*
X256790486Y-38896206D01*
X257048466Y-39034099D01*
X257328389Y-39119013D01*
X257546550Y-39140500D01*
X257692450Y-39140500D01*
X257910611Y-39119013D01*
X258190534Y-39034099D01*
X258448514Y-38896206D01*
X258674634Y-38710634D01*
X258814259Y-38540500D01*
X258964741Y-38540500D01*
X259104366Y-38710634D01*
X259330486Y-38896206D01*
X259588466Y-39034099D01*
X259868389Y-39119013D01*
X260086550Y-39140500D01*
X260232450Y-39140500D01*
X260450611Y-39119013D01*
X260730534Y-39034099D01*
X260988514Y-38896206D01*
X261214634Y-38710634D01*
X261354259Y-38540500D01*
X261504741Y-38540500D01*
X261644366Y-38710634D01*
X261870486Y-38896206D01*
X262128466Y-39034099D01*
X262408389Y-39119013D01*
X262626550Y-39140500D01*
X262772450Y-39140500D01*
X262990611Y-39119013D01*
X263270534Y-39034099D01*
X263528514Y-38896206D01*
X263754634Y-38710634D01*
X263940206Y-38484514D01*
X264078099Y-38226534D01*
X264163013Y-37946611D01*
X264191685Y-37655500D01*
X264163013Y-37364389D01*
X264078099Y-37084466D01*
X263940206Y-36826486D01*
X263754634Y-36600366D01*
X263528514Y-36414794D01*
X263270534Y-36276901D01*
X262990611Y-36191987D01*
X262772450Y-36170500D01*
X262626550Y-36170500D01*
X262408389Y-36191987D01*
X262128466Y-36276901D01*
X261870486Y-36414794D01*
X261644366Y-36600366D01*
X261504741Y-36770500D01*
X261354259Y-36770500D01*
X261214634Y-36600366D01*
X260988514Y-36414794D01*
X260730534Y-36276901D01*
X260450611Y-36191987D01*
X260232450Y-36170500D01*
X260086550Y-36170500D01*
X259868389Y-36191987D01*
X259588466Y-36276901D01*
X259330486Y-36414794D01*
X259104366Y-36600366D01*
X258964741Y-36770500D01*
X258814259Y-36770500D01*
X258674634Y-36600366D01*
X258448514Y-36414794D01*
X258190534Y-36276901D01*
X257910611Y-36191987D01*
X257692450Y-36170500D01*
X257546550Y-36170500D01*
X257328389Y-36191987D01*
X257048466Y-36276901D01*
X256790486Y-36414794D01*
X256564366Y-36600366D01*
X256424741Y-36770500D01*
X256274259Y-36770500D01*
X256134634Y-36600366D01*
X255908514Y-36414794D01*
X255650534Y-36276901D01*
X255370611Y-36191987D01*
X255152450Y-36170500D01*
X255006550Y-36170500D01*
X254788389Y-36191987D01*
X254508466Y-36276901D01*
X254250486Y-36414794D01*
X254024366Y-36600366D01*
X253884741Y-36770500D01*
X253734259Y-36770500D01*
X253594634Y-36600366D01*
X253368514Y-36414794D01*
X253110534Y-36276901D01*
X252830611Y-36191987D01*
X252612450Y-36170500D01*
X252466550Y-36170500D01*
X252248389Y-36191987D01*
X251968466Y-36276901D01*
X251710486Y-36414794D01*
X251484366Y-36600366D01*
X251459893Y-36630187D01*
X251439002Y-36561320D01*
X251380037Y-36451006D01*
X251300685Y-36354315D01*
X251203994Y-36274963D01*
X251093680Y-36215998D01*
X250973982Y-36179688D01*
X250849500Y-36167428D01*
X249149500Y-36167428D01*
X249025018Y-36179688D01*
X248905320Y-36215998D01*
X248795006Y-36274963D01*
X248698315Y-36354315D01*
X248618963Y-36451006D01*
X248559998Y-36561320D01*
X248523688Y-36681018D01*
X248521129Y-36707000D01*
X244816625Y-36707000D01*
X244807812Y-36617518D01*
X244771502Y-36497820D01*
X244712537Y-36387506D01*
X244633185Y-36290815D01*
X244588190Y-36253888D01*
X245540079Y-35302000D01*
X255683531Y-35302000D01*
X255727000Y-35306281D01*
X255770469Y-35302000D01*
X255770477Y-35302000D01*
X255900490Y-35289195D01*
X256067313Y-35238589D01*
X256221059Y-35156411D01*
X256355817Y-35045817D01*
X256383534Y-35012044D01*
X257516049Y-33879530D01*
X257549817Y-33851817D01*
X257660411Y-33717059D01*
X257742589Y-33563313D01*
X257793195Y-33396490D01*
X257796683Y-33361072D01*
X258021000Y-33361072D01*
X258145482Y-33348812D01*
X258265180Y-33312502D01*
X258375494Y-33253537D01*
X258472185Y-33174185D01*
X258551537Y-33077494D01*
X258610502Y-32967180D01*
X258646812Y-32847482D01*
X258659072Y-32723000D01*
X258659072Y-30523000D01*
X258646812Y-30398518D01*
X258610502Y-30278820D01*
X258551537Y-30168506D01*
X258472185Y-30071815D01*
X258375494Y-29992463D01*
X258265180Y-29933498D01*
X258145482Y-29897188D01*
X258021000Y-29884928D01*
X255821000Y-29884928D01*
X255696518Y-29897188D01*
X255576820Y-29933498D01*
X255466506Y-29992463D01*
X255369815Y-30071815D01*
X255290463Y-30168506D01*
X255231498Y-30278820D01*
X255195188Y-30398518D01*
X255182928Y-30523000D01*
X255182928Y-32723000D01*
X255195188Y-32847482D01*
X255231498Y-32967180D01*
X255290463Y-33077494D01*
X255369815Y-33174185D01*
X255466506Y-33253537D01*
X255576820Y-33312502D01*
X255579198Y-33313223D01*
X255360422Y-33532000D01*
X245216969Y-33532000D01*
X245173500Y-33527719D01*
X245130031Y-33532000D01*
X245130023Y-33532000D01*
X245000010Y-33544805D01*
X244833187Y-33595411D01*
X244721703Y-33655000D01*
X244679441Y-33677589D01*
X244578453Y-33760468D01*
X244578451Y-33760470D01*
X244544683Y-33788183D01*
X244516970Y-33821951D01*
X243193473Y-35145449D01*
X243067683Y-35248683D01*
X243039968Y-35282454D01*
X242736956Y-35585466D01*
X242703183Y-35613183D01*
X242592589Y-35747942D01*
X242510411Y-35901688D01*
X242459805Y-36068511D01*
X242456065Y-36106482D01*
X242357518Y-36116188D01*
X242237820Y-36152498D01*
X242127506Y-36211463D01*
X242030815Y-36290815D01*
X241986451Y-36344872D01*
X238701534Y-33059956D01*
X238673817Y-33026183D01*
X238657942Y-33013154D01*
X238696034Y-33001599D01*
X238954014Y-32863706D01*
X239180134Y-32678134D01*
X239365706Y-32452014D01*
X239400201Y-32387477D01*
X239469822Y-32504355D01*
X239664731Y-32720588D01*
X239898080Y-32894641D01*
X240160901Y-33019825D01*
X240308110Y-33064476D01*
X240538000Y-32943155D01*
X240538000Y-31750000D01*
X240518000Y-31750000D01*
X240518000Y-31496000D01*
X240538000Y-31496000D01*
X240538000Y-30302845D01*
X240792000Y-30302845D01*
X240792000Y-31496000D01*
X240812000Y-31496000D01*
X240812000Y-31750000D01*
X240792000Y-31750000D01*
X240792000Y-32943155D01*
X241021890Y-33064476D01*
X241169099Y-33019825D01*
X241431920Y-32894641D01*
X241665269Y-32720588D01*
X241741034Y-32636534D01*
X241765498Y-32717180D01*
X241824463Y-32827494D01*
X241903815Y-32924185D01*
X242000506Y-33003537D01*
X242110820Y-33062502D01*
X242230518Y-33098812D01*
X242355000Y-33111072D01*
X244055000Y-33111072D01*
X244179482Y-33098812D01*
X244299180Y-33062502D01*
X244409494Y-33003537D01*
X244506185Y-32924185D01*
X244585537Y-32827494D01*
X244644502Y-32717180D01*
X244680812Y-32597482D01*
X244689625Y-32508000D01*
X245266748Y-32508000D01*
X245311421Y-32591578D01*
X245528234Y-32855766D01*
X245792422Y-33072579D01*
X246093832Y-33233686D01*
X246420881Y-33332895D01*
X246675775Y-33358000D01*
X246846225Y-33358000D01*
X247101119Y-33332895D01*
X247428168Y-33233686D01*
X247729578Y-33072579D01*
X247993766Y-32855766D01*
X248210579Y-32591578D01*
X248371686Y-32290168D01*
X248470895Y-31963119D01*
X248504394Y-31623000D01*
X248470895Y-31282881D01*
X248371686Y-30955832D01*
X248210579Y-30654422D01*
X247993766Y-30390234D01*
X247729578Y-30173421D01*
X247428168Y-30012314D01*
X247101119Y-29913105D01*
X246846225Y-29888000D01*
X246675775Y-29888000D01*
X246420881Y-29913105D01*
X246093832Y-30012314D01*
X245792422Y-30173421D01*
X245528234Y-30390234D01*
X245311421Y-30654422D01*
X245266748Y-30738000D01*
X244689625Y-30738000D01*
X244680812Y-30648518D01*
X244644502Y-30528820D01*
X244585537Y-30418506D01*
X244506185Y-30321815D01*
X244409494Y-30242463D01*
X244299180Y-30183498D01*
X244179482Y-30147188D01*
X244090000Y-30138375D01*
X244090000Y-29673578D01*
X245995989Y-27767590D01*
X246017815Y-27794185D01*
X246114506Y-27873537D01*
X246224820Y-27932502D01*
X246344518Y-27968812D01*
X246469000Y-27981072D01*
X248069000Y-27981072D01*
X248193482Y-27968812D01*
X248313180Y-27932502D01*
X248423494Y-27873537D01*
X248520185Y-27794185D01*
X248599537Y-27697494D01*
X248658502Y-27587180D01*
X248694812Y-27467482D01*
X248707072Y-27343000D01*
X248707072Y-25743000D01*
X248694812Y-25618518D01*
X248658502Y-25498820D01*
X248599537Y-25388506D01*
X248520185Y-25291815D01*
X248423494Y-25212463D01*
X248313180Y-25153498D01*
X248193482Y-25117188D01*
X248069000Y-25104928D01*
X248061785Y-25104928D01*
X248082097Y-25035702D01*
X247269000Y-24222605D01*
X246455903Y-25035702D01*
X246476215Y-25104928D01*
X246469000Y-25104928D01*
X246344518Y-25117188D01*
X246224820Y-25153498D01*
X246114506Y-25212463D01*
X246017815Y-25291815D01*
X245938463Y-25388506D01*
X245879498Y-25498820D01*
X245843188Y-25618518D01*
X245838455Y-25666575D01*
X245795510Y-25670805D01*
X245628687Y-25721411D01*
X245474941Y-25803589D01*
X245474939Y-25803590D01*
X245474940Y-25803590D01*
X245373953Y-25886468D01*
X245373951Y-25886470D01*
X245340183Y-25914183D01*
X245312470Y-25947951D01*
X242609956Y-28650466D01*
X242576183Y-28678183D01*
X242465589Y-28812942D01*
X242383411Y-28966688D01*
X242353835Y-29064185D01*
X242332805Y-29133510D01*
X242331212Y-29149686D01*
X242320000Y-29263524D01*
X242320000Y-29263531D01*
X242315719Y-29307000D01*
X242320000Y-29350470D01*
X242320001Y-30138375D01*
X242230518Y-30147188D01*
X242110820Y-30183498D01*
X242000506Y-30242463D01*
X241903815Y-30321815D01*
X241824463Y-30418506D01*
X241765498Y-30528820D01*
X241741034Y-30609466D01*
X241665269Y-30525412D01*
X241431920Y-30351359D01*
X241169099Y-30226175D01*
X241021890Y-30181524D01*
X240792000Y-30302845D01*
X240538000Y-30302845D01*
X240308110Y-30181524D01*
X240160901Y-30226175D01*
X240089500Y-30260184D01*
X240089500Y-27166259D01*
X240259634Y-27026634D01*
X240284107Y-26996813D01*
X240304998Y-27065680D01*
X240363963Y-27175994D01*
X240443315Y-27272685D01*
X240540006Y-27352037D01*
X240650320Y-27411002D01*
X240770018Y-27447312D01*
X240894500Y-27459572D01*
X241458750Y-27456500D01*
X241617500Y-27297750D01*
X241617500Y-26098500D01*
X241871500Y-26098500D01*
X241871500Y-27297750D01*
X242030250Y-27456500D01*
X242594500Y-27459572D01*
X242718982Y-27447312D01*
X242838680Y-27411002D01*
X242948994Y-27352037D01*
X243045685Y-27272685D01*
X243125037Y-27175994D01*
X243184002Y-27065680D01*
X243220312Y-26945982D01*
X243232572Y-26821500D01*
X243229500Y-26257250D01*
X243070750Y-26098500D01*
X241871500Y-26098500D01*
X241617500Y-26098500D01*
X241597500Y-26098500D01*
X241597500Y-25844500D01*
X241617500Y-25844500D01*
X241617500Y-24645250D01*
X241871500Y-24645250D01*
X241871500Y-25844500D01*
X243070750Y-25844500D01*
X243229500Y-25685750D01*
X243232572Y-25121500D01*
X243220312Y-24997018D01*
X243184002Y-24877320D01*
X243125037Y-24767006D01*
X243045685Y-24670315D01*
X242948994Y-24590963D01*
X242838680Y-24531998D01*
X242718982Y-24495688D01*
X242594500Y-24483428D01*
X242030250Y-24486500D01*
X241871500Y-24645250D01*
X241617500Y-24645250D01*
X241458750Y-24486500D01*
X240894500Y-24483428D01*
X240770018Y-24495688D01*
X240650320Y-24531998D01*
X240540006Y-24590963D01*
X240443315Y-24670315D01*
X240363963Y-24767006D01*
X240304998Y-24877320D01*
X240284107Y-24946187D01*
X240259634Y-24916366D01*
X240033514Y-24730794D01*
X239775534Y-24592901D01*
X239495611Y-24507987D01*
X239277450Y-24486500D01*
X239131550Y-24486500D01*
X238913389Y-24507987D01*
X238633466Y-24592901D01*
X238375486Y-24730794D01*
X238149366Y-24916366D01*
X237963794Y-25142486D01*
X237825901Y-25400466D01*
X237740987Y-25680389D01*
X237712315Y-25971500D01*
X237740987Y-26262611D01*
X237825901Y-26542534D01*
X237963794Y-26800514D01*
X238149366Y-27026634D01*
X238319500Y-27166260D01*
X238319501Y-30149972D01*
X238197950Y-30138000D01*
X238052050Y-30138000D01*
X237833889Y-30159487D01*
X237614856Y-30225930D01*
X237573531Y-30230000D01*
X233268201Y-30230000D01*
X233264312Y-30190518D01*
X233228002Y-30070820D01*
X233169037Y-29960506D01*
X233089685Y-29863815D01*
X232992994Y-29784463D01*
X232882680Y-29725498D01*
X232762982Y-29689188D01*
X232638500Y-29676928D01*
X232631285Y-29676928D01*
X232651597Y-29607702D01*
X231838500Y-28794605D01*
X231025403Y-29607702D01*
X231045715Y-29676928D01*
X231038500Y-29676928D01*
X230914018Y-29689188D01*
X230794320Y-29725498D01*
X230684006Y-29784463D01*
X230587315Y-29863815D01*
X230507963Y-29960506D01*
X230448998Y-30070820D01*
X230412688Y-30190518D01*
X230400428Y-30315000D01*
X230400428Y-31915000D01*
X230412688Y-32039482D01*
X230448998Y-32159180D01*
X230507963Y-32269494D01*
X230587315Y-32366185D01*
X230684006Y-32445537D01*
X230794320Y-32504502D01*
X230914018Y-32540812D01*
X231038500Y-32553072D01*
X232638500Y-32553072D01*
X232762982Y-32540812D01*
X232882680Y-32504502D01*
X232992994Y-32445537D01*
X233089685Y-32366185D01*
X233169037Y-32269494D01*
X233228002Y-32159180D01*
X233264312Y-32039482D01*
X233268201Y-32000000D01*
X236687541Y-32000000D01*
X236746401Y-32194034D01*
X236884294Y-32452014D01*
X237069866Y-32678134D01*
X237181805Y-32770000D01*
X227569579Y-32770000D01*
X226341875Y-31542296D01*
X226358943Y-31369000D01*
X226331236Y-31087691D01*
X226249182Y-30817192D01*
X226115932Y-30567899D01*
X225936608Y-30349392D01*
X225802000Y-30238922D01*
X225802000Y-29242701D01*
X225841482Y-29238812D01*
X225961180Y-29202502D01*
X226071494Y-29143537D01*
X226168185Y-29064185D01*
X226247537Y-28967494D01*
X226306502Y-28857180D01*
X226342812Y-28737482D01*
X226347930Y-28685512D01*
X230398283Y-28685512D01*
X230439713Y-28965130D01*
X230534897Y-29231292D01*
X230601829Y-29356514D01*
X230845798Y-29428097D01*
X231658895Y-28615000D01*
X232018105Y-28615000D01*
X232831202Y-29428097D01*
X233075171Y-29356514D01*
X233196071Y-29101004D01*
X233264800Y-28826816D01*
X233278717Y-28544488D01*
X233237287Y-28264870D01*
X233142103Y-27998708D01*
X233075171Y-27873486D01*
X232831202Y-27801903D01*
X232018105Y-28615000D01*
X231658895Y-28615000D01*
X230845798Y-27801903D01*
X230601829Y-27873486D01*
X230480929Y-28128996D01*
X230412200Y-28403184D01*
X230398283Y-28685512D01*
X226347930Y-28685512D01*
X226355072Y-28613000D01*
X226355072Y-27622298D01*
X231025403Y-27622298D01*
X231838500Y-28435395D01*
X232651597Y-27622298D01*
X232580014Y-27378329D01*
X232324504Y-27257429D01*
X232050316Y-27188700D01*
X231767988Y-27174783D01*
X231488370Y-27216213D01*
X231222208Y-27311397D01*
X231096986Y-27378329D01*
X231025403Y-27622298D01*
X226355072Y-27622298D01*
X226355072Y-27013000D01*
X226342812Y-26888518D01*
X226306502Y-26768820D01*
X226247537Y-26658506D01*
X226168185Y-26561815D01*
X226071494Y-26482463D01*
X225961180Y-26423498D01*
X225841482Y-26387188D01*
X225802000Y-26383299D01*
X225802000Y-26078465D01*
X225806281Y-26034999D01*
X225802000Y-25991533D01*
X225802000Y-25991523D01*
X225789195Y-25861510D01*
X225738589Y-25694687D01*
X225656411Y-25540941D01*
X225604298Y-25477442D01*
X225573532Y-25439953D01*
X225573530Y-25439951D01*
X225545817Y-25406183D01*
X225512049Y-25378470D01*
X224247091Y-24113512D01*
X245828783Y-24113512D01*
X245870213Y-24393130D01*
X245965397Y-24659292D01*
X246032329Y-24784514D01*
X246276298Y-24856097D01*
X247089395Y-24043000D01*
X247448605Y-24043000D01*
X248261702Y-24856097D01*
X248505671Y-24784514D01*
X248626571Y-24529004D01*
X248695300Y-24254816D01*
X248709217Y-23972488D01*
X248667787Y-23692870D01*
X248572603Y-23426708D01*
X248505671Y-23301486D01*
X248261702Y-23229903D01*
X247448605Y-24043000D01*
X247089395Y-24043000D01*
X246276298Y-23229903D01*
X246032329Y-23301486D01*
X245911429Y-23556996D01*
X245842700Y-23831184D01*
X245828783Y-24113512D01*
X224247091Y-24113512D01*
X224176534Y-24042956D01*
X224148817Y-24009183D01*
X224014059Y-23898589D01*
X223860313Y-23816411D01*
X223693490Y-23765805D01*
X223563477Y-23753000D01*
X223563469Y-23753000D01*
X223520000Y-23748719D01*
X223476531Y-23753000D01*
X213276466Y-23753000D01*
X213232999Y-23748719D01*
X213189533Y-23753000D01*
X213189523Y-23753000D01*
X213059510Y-23765805D01*
X212892687Y-23816411D01*
X212738941Y-23898589D01*
X212738939Y-23898590D01*
X212738940Y-23898590D01*
X212637953Y-23981468D01*
X212637951Y-23981470D01*
X212604183Y-24009183D01*
X212576470Y-24042951D01*
X209462958Y-27156464D01*
X209462953Y-27156468D01*
X206287951Y-30331471D01*
X206254184Y-30359183D01*
X206226471Y-30392951D01*
X206226468Y-30392954D01*
X206143590Y-30493941D01*
X206061412Y-30647687D01*
X206010805Y-30814510D01*
X205993719Y-30988000D01*
X205998001Y-31031479D01*
X205998000Y-40850523D01*
X205993718Y-40894000D01*
X203860000Y-40894000D01*
X203860000Y-23084372D01*
X204838500Y-23084372D01*
X204838500Y-23524628D01*
X204924390Y-23956425D01*
X205092869Y-24363169D01*
X205337462Y-24729229D01*
X205648771Y-25040538D01*
X206014831Y-25285131D01*
X206421575Y-25453610D01*
X206853372Y-25539500D01*
X207293628Y-25539500D01*
X207725425Y-25453610D01*
X208132169Y-25285131D01*
X208498229Y-25040538D01*
X208809538Y-24729229D01*
X209054131Y-24363169D01*
X209222610Y-23956425D01*
X209308500Y-23524628D01*
X209308500Y-23084372D01*
X209301723Y-23050298D01*
X246455903Y-23050298D01*
X247269000Y-23863395D01*
X248082097Y-23050298D01*
X248036201Y-22893872D01*
X258686500Y-22893872D01*
X258686500Y-23334128D01*
X258772390Y-23765925D01*
X258940869Y-24172669D01*
X259185462Y-24538729D01*
X259496771Y-24850038D01*
X259862831Y-25094631D01*
X260269575Y-25263110D01*
X260701372Y-25349000D01*
X261141628Y-25349000D01*
X261573425Y-25263110D01*
X261980169Y-25094631D01*
X262346229Y-24850038D01*
X262657538Y-24538729D01*
X262902131Y-24172669D01*
X263070610Y-23765925D01*
X263156500Y-23334128D01*
X263156500Y-22893872D01*
X263070610Y-22462075D01*
X262902131Y-22055331D01*
X262657538Y-21689271D01*
X262346229Y-21377962D01*
X261980169Y-21133369D01*
X261573425Y-20964890D01*
X261141628Y-20879000D01*
X260701372Y-20879000D01*
X260269575Y-20964890D01*
X259862831Y-21133369D01*
X259496771Y-21377962D01*
X259185462Y-21689271D01*
X258940869Y-22055331D01*
X258772390Y-22462075D01*
X258686500Y-22893872D01*
X248036201Y-22893872D01*
X248010514Y-22806329D01*
X247755004Y-22685429D01*
X247480816Y-22616700D01*
X247198488Y-22602783D01*
X246918870Y-22644213D01*
X246652708Y-22739397D01*
X246527486Y-22806329D01*
X246455903Y-23050298D01*
X209301723Y-23050298D01*
X209222610Y-22652575D01*
X209054131Y-22245831D01*
X208809538Y-21879771D01*
X208498229Y-21568462D01*
X208132169Y-21323869D01*
X207725425Y-21155390D01*
X207293628Y-21069500D01*
X206853372Y-21069500D01*
X206421575Y-21155390D01*
X206014831Y-21323869D01*
X205648771Y-21568462D01*
X205337462Y-21879771D01*
X205092869Y-22245831D01*
X204924390Y-22652575D01*
X204838500Y-23084372D01*
X203860000Y-23084372D01*
X203860000Y-19837000D01*
X264262000Y-19837000D01*
X264262001Y-79922179D01*
G36*
X224015360Y-26384938D02*
G01*
X223992518Y-26387188D01*
X223872820Y-26423498D01*
X223762506Y-26482463D01*
X223665815Y-26561815D01*
X223586463Y-26658506D01*
X223527498Y-26768820D01*
X223491188Y-26888518D01*
X223478928Y-27013000D01*
X223478928Y-28613000D01*
X223491188Y-28737482D01*
X223527498Y-28857180D01*
X223586463Y-28967494D01*
X223665815Y-29064185D01*
X223762506Y-29143537D01*
X223872820Y-29202502D01*
X223992518Y-29238812D01*
X224032001Y-29242701D01*
X224032000Y-30238922D01*
X223897392Y-30349392D01*
X223718068Y-30567899D01*
X223584818Y-30817192D01*
X223502764Y-31087691D01*
X223475057Y-31369000D01*
X223502764Y-31650309D01*
X223584818Y-31920808D01*
X223718068Y-32170101D01*
X223897392Y-32388608D01*
X224115899Y-32567932D01*
X224365192Y-32701182D01*
X224635691Y-32783236D01*
X224846508Y-32804000D01*
X224987492Y-32804000D01*
X225090296Y-32793875D01*
X226546470Y-34250049D01*
X226574183Y-34283817D01*
X226607951Y-34311530D01*
X226607953Y-34311532D01*
X226679452Y-34370210D01*
X226708941Y-34394411D01*
X226862687Y-34476589D01*
X227029510Y-34527195D01*
X227159523Y-34540000D01*
X227159533Y-34540000D01*
X227202999Y-34544281D01*
X227246465Y-34540000D01*
X237678422Y-34540000D01*
X241325470Y-38187049D01*
X241353183Y-38220817D01*
X241386951Y-38248530D01*
X241386953Y-38248532D01*
X241430557Y-38284317D01*
X241487941Y-38331411D01*
X241641687Y-38413589D01*
X241808510Y-38464195D01*
X241846482Y-38467935D01*
X241856188Y-38566482D01*
X241892498Y-38686180D01*
X241951463Y-38796494D01*
X242030815Y-38893185D01*
X242127506Y-38972537D01*
X242237820Y-39031502D01*
X242357518Y-39067812D01*
X242447001Y-39076625D01*
X242447001Y-39390021D01*
X242442719Y-39433500D01*
X242459805Y-39606990D01*
X242510412Y-39773813D01*
X242592590Y-39927559D01*
X242675468Y-40028546D01*
X242675471Y-40028549D01*
X242703184Y-40062317D01*
X242736951Y-40090029D01*
X246066500Y-43419579D01*
X246066501Y-45787500D01*
X241967701Y-45787500D01*
X241963812Y-45748018D01*
X241927502Y-45628320D01*
X241868537Y-45518006D01*
X241789185Y-45421315D01*
X241692494Y-45341963D01*
X241582180Y-45282998D01*
X241462482Y-45246688D01*
X241338000Y-45234428D01*
X241330785Y-45234428D01*
X241351097Y-45165202D01*
X240538000Y-44352105D01*
X239724903Y-45165202D01*
X239745215Y-45234428D01*
X239738000Y-45234428D01*
X239613518Y-45246688D01*
X239493820Y-45282998D01*
X239383506Y-45341963D01*
X239286815Y-45421315D01*
X239207463Y-45518006D01*
X239148498Y-45628320D01*
X239112188Y-45748018D01*
X239099928Y-45872500D01*
X239099928Y-47472500D01*
X239112188Y-47596982D01*
X239148498Y-47716680D01*
X239207463Y-47826994D01*
X239286815Y-47923685D01*
X239383506Y-48003037D01*
X239493820Y-48062002D01*
X239613518Y-48098312D01*
X239738000Y-48110572D01*
X241338000Y-48110572D01*
X241462482Y-48098312D01*
X241582180Y-48062002D01*
X241692494Y-48003037D01*
X241789185Y-47923685D01*
X241868537Y-47826994D01*
X241927502Y-47716680D01*
X241963812Y-47596982D01*
X241967701Y-47557500D01*
X245533304Y-47557500D01*
X245572901Y-47688034D01*
X245710794Y-47946014D01*
X245896366Y-48172134D01*
X246122486Y-48357706D01*
X246177291Y-48387000D01*
X246122486Y-48416294D01*
X245896366Y-48601866D01*
X245756741Y-48772000D01*
X241503965Y-48772000D01*
X241460499Y-48767719D01*
X241417033Y-48772000D01*
X241417023Y-48772000D01*
X241287010Y-48784805D01*
X241120187Y-48835411D01*
X240966441Y-48917589D01*
X240966439Y-48917590D01*
X240966440Y-48917590D01*
X240865453Y-49000468D01*
X240865451Y-49000470D01*
X240831683Y-49028183D01*
X240803970Y-49061951D01*
X240260456Y-49605466D01*
X240226683Y-49633183D01*
X240116089Y-49767942D01*
X240033911Y-49921688D01*
X239983305Y-50088511D01*
X239979075Y-50131455D01*
X239931018Y-50136188D01*
X239811320Y-50172498D01*
X239701006Y-50231463D01*
X239604315Y-50310815D01*
X239524963Y-50407506D01*
X239465998Y-50517820D01*
X239429688Y-50637518D01*
X239417428Y-50762000D01*
X239417428Y-52362000D01*
X239429688Y-52486482D01*
X239465998Y-52606180D01*
X239524963Y-52716494D01*
X239604315Y-52813185D01*
X239701006Y-52892537D01*
X239811320Y-52951502D01*
X239931018Y-52987812D01*
X240055500Y-53000072D01*
X240062715Y-53000072D01*
X240042403Y-53069298D01*
X240855500Y-53882395D01*
X241668597Y-53069298D01*
X241662055Y-53047000D01*
X245463428Y-53047000D01*
X245475688Y-53171482D01*
X245511998Y-53291180D01*
X245570963Y-53401494D01*
X245650315Y-53498185D01*
X245747006Y-53577537D01*
X245857320Y-53636502D01*
X245977018Y-53672812D01*
X246101500Y-53685072D01*
X246665750Y-53682000D01*
X246824500Y-53523250D01*
X246824500Y-52324000D01*
X247078500Y-52324000D01*
X247078500Y-53523250D01*
X247237250Y-53682000D01*
X247801500Y-53685072D01*
X247925982Y-53672812D01*
X248045680Y-53636502D01*
X248155994Y-53577537D01*
X248252685Y-53498185D01*
X248332037Y-53401494D01*
X248391002Y-53291180D01*
X248427312Y-53171482D01*
X248439572Y-53047000D01*
X248436500Y-52482750D01*
X248277750Y-52324000D01*
X247078500Y-52324000D01*
X246824500Y-52324000D01*
X245625250Y-52324000D01*
X245466500Y-52482750D01*
X245463428Y-53047000D01*
X241662055Y-53047000D01*
X241648285Y-53000072D01*
X241655500Y-53000072D01*
X241779982Y-52987812D01*
X241899680Y-52951502D01*
X242009994Y-52892537D01*
X242106685Y-52813185D01*
X242186037Y-52716494D01*
X242245002Y-52606180D01*
X242281312Y-52486482D01*
X242293572Y-52362000D01*
X242293572Y-50762000D01*
X242281312Y-50637518D01*
X242252337Y-50542000D01*
X245756741Y-50542000D01*
X245896366Y-50712134D01*
X245926187Y-50736607D01*
X245857320Y-50757498D01*
X245747006Y-50816463D01*
X245650315Y-50895815D01*
X245570963Y-50992506D01*
X245511998Y-51102820D01*
X245475688Y-51222518D01*
X245463428Y-51347000D01*
X245466500Y-51911250D01*
X245625250Y-52070000D01*
X246824500Y-52070000D01*
X246824500Y-52050000D01*
X247078500Y-52050000D01*
X247078500Y-52070000D01*
X248277750Y-52070000D01*
X248436500Y-51911250D01*
X248439572Y-51347000D01*
X248427312Y-51222518D01*
X248409804Y-51164801D01*
X249686000Y-52440998D01*
X249686001Y-54179920D01*
X243663922Y-60202000D01*
X240737818Y-60202000D01*
X240734120Y-60196465D01*
X240539535Y-60001880D01*
X240310727Y-59848995D01*
X240056490Y-59743686D01*
X239786592Y-59690000D01*
X239511408Y-59690000D01*
X239241510Y-59743686D01*
X238987273Y-59848995D01*
X238758465Y-60001880D01*
X238563880Y-60196465D01*
X238505080Y-60284465D01*
X238496812Y-60200518D01*
X238460502Y-60080820D01*
X238401537Y-59970506D01*
X238322185Y-59873815D01*
X238225494Y-59794463D01*
X238115180Y-59735498D01*
X237995482Y-59699188D01*
X237871000Y-59686928D01*
X237394750Y-59690000D01*
X237236000Y-59848750D01*
X237236000Y-60960000D01*
X237256000Y-60960000D01*
X237256000Y-61214000D01*
X237236000Y-61214000D01*
X237236000Y-61234000D01*
X236982000Y-61234000D01*
X236982000Y-61214000D01*
X235870750Y-61214000D01*
X235712000Y-61372750D01*
X235708928Y-61849000D01*
X235721188Y-61973482D01*
X235757498Y-62093180D01*
X235816463Y-62203494D01*
X235895815Y-62300185D01*
X235992506Y-62379537D01*
X236102820Y-62438502D01*
X236222518Y-62474812D01*
X236306465Y-62483080D01*
X236218465Y-62541880D01*
X236023880Y-62736465D01*
X236020182Y-62742000D01*
X235316579Y-62742000D01*
X235009500Y-62434922D01*
X235009500Y-60325000D01*
X235708928Y-60325000D01*
X235712000Y-60801250D01*
X235870750Y-60960000D01*
X236982000Y-60960000D01*
X236982000Y-59848750D01*
X236823250Y-59690000D01*
X236347000Y-59686928D01*
X236222518Y-59699188D01*
X236102820Y-59735498D01*
X235992506Y-59794463D01*
X235895815Y-59873815D01*
X235816463Y-59970506D01*
X235757498Y-60080820D01*
X235721188Y-60200518D01*
X235708928Y-60325000D01*
X235009500Y-60325000D01*
X235009500Y-55054702D01*
X240042403Y-55054702D01*
X240113986Y-55298671D01*
X240369496Y-55419571D01*
X240643684Y-55488300D01*
X240926012Y-55502217D01*
X241205630Y-55460787D01*
X241471792Y-55365603D01*
X241597014Y-55298671D01*
X241668597Y-55054702D01*
X240855500Y-54241605D01*
X240042403Y-55054702D01*
X235009500Y-55054702D01*
X235009500Y-54860466D01*
X235013781Y-54816999D01*
X235009500Y-54773533D01*
X235009500Y-54773523D01*
X234996695Y-54643510D01*
X234946089Y-54476687D01*
X234863911Y-54322941D01*
X234753317Y-54188183D01*
X234719550Y-54160471D01*
X234691591Y-54132512D01*
X239415283Y-54132512D01*
X239456713Y-54412130D01*
X239551897Y-54678292D01*
X239618829Y-54803514D01*
X239862798Y-54875097D01*
X240675895Y-54062000D01*
X241035105Y-54062000D01*
X241848202Y-54875097D01*
X242092171Y-54803514D01*
X242213071Y-54548004D01*
X242281800Y-54273816D01*
X242295717Y-53991488D01*
X242254287Y-53711870D01*
X242159103Y-53445708D01*
X242092171Y-53320486D01*
X241848202Y-53248903D01*
X241035105Y-54062000D01*
X240675895Y-54062000D01*
X239862798Y-53248903D01*
X239618829Y-53320486D01*
X239497929Y-53575996D01*
X239429200Y-53850184D01*
X239415283Y-54132512D01*
X234691591Y-54132512D01*
X233784127Y-53225049D01*
X233838185Y-53180685D01*
X233917537Y-53083994D01*
X233976502Y-52973680D01*
X234012812Y-52853982D01*
X234025072Y-52729500D01*
X234025072Y-51029500D01*
X234012812Y-50905018D01*
X233976502Y-50785320D01*
X233917537Y-50675006D01*
X233838185Y-50578315D01*
X233741494Y-50498963D01*
X233631180Y-50439998D01*
X233562313Y-50419107D01*
X233592134Y-50394634D01*
X233777706Y-50168514D01*
X233915599Y-49910534D01*
X234000513Y-49630611D01*
X234029185Y-49339500D01*
X234000513Y-49048389D01*
X233915599Y-48768466D01*
X233777706Y-48510486D01*
X233592134Y-48284366D01*
X233366014Y-48098794D01*
X233311209Y-48069500D01*
X233366014Y-48040206D01*
X233592134Y-47854634D01*
X233777706Y-47628514D01*
X233915599Y-47370534D01*
X234000513Y-47090611D01*
X234029185Y-46799500D01*
X234000513Y-46508389D01*
X233915599Y-46228466D01*
X233777706Y-45970486D01*
X233592134Y-45744366D01*
X233366014Y-45558794D01*
X233311209Y-45529500D01*
X233366014Y-45500206D01*
X233592134Y-45314634D01*
X233777706Y-45088514D01*
X233915599Y-44830534D01*
X234000513Y-44550611D01*
X234029185Y-44259500D01*
X234027562Y-44243012D01*
X239097783Y-44243012D01*
X239139213Y-44522630D01*
X239234397Y-44788792D01*
X239301329Y-44914014D01*
X239545298Y-44985597D01*
X240358395Y-44172500D01*
X240717605Y-44172500D01*
X241530702Y-44985597D01*
X241774671Y-44914014D01*
X241895571Y-44658504D01*
X241964300Y-44384316D01*
X241978217Y-44101988D01*
X241936787Y-43822370D01*
X241841603Y-43556208D01*
X241774671Y-43430986D01*
X241530702Y-43359403D01*
X240717605Y-44172500D01*
X240358395Y-44172500D01*
X239545298Y-43359403D01*
X239301329Y-43430986D01*
X239180429Y-43686496D01*
X239111700Y-43960684D01*
X239097783Y-44243012D01*
X234027562Y-44243012D01*
X234000513Y-43968389D01*
X233915599Y-43688466D01*
X233777706Y-43430486D01*
X233592134Y-43204366D01*
X233562198Y-43179798D01*
X239724903Y-43179798D01*
X240538000Y-43992895D01*
X241351097Y-43179798D01*
X241279514Y-42935829D01*
X241024004Y-42814929D01*
X240749816Y-42746200D01*
X240467488Y-42732283D01*
X240187870Y-42773713D01*
X239921708Y-42868897D01*
X239796486Y-42935829D01*
X239724903Y-43179798D01*
X233562198Y-43179798D01*
X233366014Y-43018794D01*
X233311209Y-42989500D01*
X233366014Y-42960206D01*
X233592134Y-42774634D01*
X233777706Y-42548514D01*
X233915599Y-42290534D01*
X234000513Y-42010611D01*
X234029185Y-41719500D01*
X234000513Y-41428389D01*
X233915599Y-41148466D01*
X233777706Y-40890486D01*
X233592134Y-40664366D01*
X233366014Y-40478794D01*
X233311209Y-40449500D01*
X233366014Y-40420206D01*
X233592134Y-40234634D01*
X233777706Y-40008514D01*
X233915599Y-39750534D01*
X234000513Y-39470611D01*
X234029185Y-39179500D01*
X234000513Y-38888389D01*
X233915599Y-38608466D01*
X233777706Y-38350486D01*
X233592134Y-38124366D01*
X233366014Y-37938794D01*
X233108034Y-37800901D01*
X232828111Y-37715987D01*
X232609950Y-37694500D01*
X232464050Y-37694500D01*
X232320194Y-37708669D01*
X232205559Y-37614589D01*
X232051813Y-37532411D01*
X231884990Y-37481805D01*
X231754977Y-37469000D01*
X231754969Y-37469000D01*
X231711500Y-37464719D01*
X231668031Y-37469000D01*
X230174578Y-37469000D01*
X230064108Y-37334392D01*
X229845601Y-37155068D01*
X229596308Y-37021818D01*
X229325809Y-36939764D01*
X229114992Y-36919000D01*
X228974008Y-36919000D01*
X228763191Y-36939764D01*
X228492692Y-37021818D01*
X228243399Y-37155068D01*
X228024892Y-37334392D01*
X227845568Y-37552899D01*
X227712318Y-37802192D01*
X227630264Y-38072691D01*
X227602557Y-38354000D01*
X227630264Y-38635309D01*
X227712318Y-38905808D01*
X227845568Y-39155101D01*
X228024892Y-39373608D01*
X228243399Y-39552932D01*
X228376358Y-39624000D01*
X228243399Y-39695068D01*
X228024892Y-39874392D01*
X227845568Y-40092899D01*
X227712318Y-40342192D01*
X227630264Y-40612691D01*
X227602557Y-40894000D01*
X227630264Y-41175309D01*
X227712318Y-41445808D01*
X227845568Y-41695101D01*
X228024892Y-41913608D01*
X228243399Y-42092932D01*
X228376358Y-42164000D01*
X228243399Y-42235068D01*
X228024892Y-42414392D01*
X227845568Y-42632899D01*
X227712318Y-42882192D01*
X227630264Y-43152691D01*
X227602557Y-43434000D01*
X227630264Y-43715309D01*
X227712318Y-43985808D01*
X227845568Y-44235101D01*
X228024892Y-44453608D01*
X228243399Y-44632932D01*
X228376358Y-44704000D01*
X228243399Y-44775068D01*
X228024892Y-44954392D01*
X227845568Y-45172899D01*
X227712318Y-45422192D01*
X227630264Y-45692691D01*
X227602557Y-45974000D01*
X227630264Y-46255309D01*
X227712318Y-46525808D01*
X227845568Y-46775101D01*
X228024892Y-46993608D01*
X228243399Y-47172932D01*
X228376358Y-47244000D01*
X228243399Y-47315068D01*
X228024892Y-47494392D01*
X227845568Y-47712899D01*
X227712318Y-47962192D01*
X227630264Y-48232691D01*
X227602557Y-48514000D01*
X227630264Y-48795309D01*
X227712318Y-49065808D01*
X227845568Y-49315101D01*
X228024892Y-49533608D01*
X228243399Y-49712932D01*
X228376358Y-49784000D01*
X228243399Y-49855068D01*
X228024892Y-50034392D01*
X227845568Y-50252899D01*
X227712318Y-50502192D01*
X227630264Y-50772691D01*
X227602557Y-51054000D01*
X227630264Y-51335309D01*
X227712318Y-51605808D01*
X227845568Y-51855101D01*
X228024892Y-52073608D01*
X228243399Y-52252932D01*
X228381182Y-52326579D01*
X228189369Y-52441615D01*
X227980981Y-52630586D01*
X227813463Y-52856580D01*
X227693254Y-53110913D01*
X227652596Y-53244961D01*
X227774585Y-53467000D01*
X228917500Y-53467000D01*
X228917500Y-53447000D01*
X229171500Y-53447000D01*
X229171500Y-53467000D01*
X230314415Y-53467000D01*
X230436404Y-53244961D01*
X230395746Y-53110913D01*
X230275537Y-52856580D01*
X230108019Y-52630586D01*
X229899631Y-52441615D01*
X229707818Y-52326579D01*
X229845601Y-52252932D01*
X230064108Y-52073608D01*
X230174578Y-51939000D01*
X231048928Y-51939000D01*
X231048928Y-52729500D01*
X231061188Y-52853982D01*
X231097498Y-52973680D01*
X231156463Y-53083994D01*
X231235815Y-53180685D01*
X231332506Y-53260037D01*
X231442820Y-53319002D01*
X231562518Y-53355312D01*
X231661065Y-53365018D01*
X231664805Y-53402990D01*
X231715412Y-53569813D01*
X231797590Y-53723559D01*
X231880468Y-53824546D01*
X231880471Y-53824549D01*
X231908184Y-53858317D01*
X231941951Y-53886029D01*
X233239500Y-55183579D01*
X233239501Y-62758021D01*
X233235219Y-62801500D01*
X233252305Y-62974990D01*
X233302912Y-63141813D01*
X233385090Y-63295559D01*
X233467968Y-63396546D01*
X233467971Y-63396549D01*
X233495684Y-63430317D01*
X233529451Y-63458029D01*
X234293470Y-64222049D01*
X234321183Y-64255817D01*
X234354951Y-64283530D01*
X234354953Y-64283532D01*
X234426452Y-64342210D01*
X234455941Y-64366411D01*
X234609687Y-64448589D01*
X234776510Y-64499195D01*
X234906523Y-64512000D01*
X234906533Y-64512000D01*
X234949999Y-64516281D01*
X234993465Y-64512000D01*
X236020182Y-64512000D01*
X236023880Y-64517535D01*
X236218465Y-64712120D01*
X236447273Y-64865005D01*
X236524515Y-64897000D01*
X236447273Y-64928995D01*
X236218465Y-65081880D01*
X236023880Y-65276465D01*
X236020182Y-65282000D01*
X234364079Y-65282000D01*
X230469375Y-61387296D01*
X230486443Y-61214000D01*
X230458736Y-60932691D01*
X230376682Y-60662192D01*
X230243432Y-60412899D01*
X230064108Y-60194392D01*
X229845601Y-60015068D01*
X229712642Y-59944000D01*
X229845601Y-59872932D01*
X230064108Y-59693608D01*
X230243432Y-59475101D01*
X230376682Y-59225808D01*
X230458736Y-58955309D01*
X230486443Y-58674000D01*
X230458736Y-58392691D01*
X230376682Y-58122192D01*
X230243432Y-57872899D01*
X230064108Y-57654392D01*
X229845601Y-57475068D01*
X229712642Y-57404000D01*
X229845601Y-57332932D01*
X230064108Y-57153608D01*
X230243432Y-56935101D01*
X230376682Y-56685808D01*
X230458736Y-56415309D01*
X230486443Y-56134000D01*
X230458736Y-55852691D01*
X230376682Y-55582192D01*
X230243432Y-55332899D01*
X230064108Y-55114392D01*
X229845601Y-54935068D01*
X229707818Y-54861421D01*
X229899631Y-54746385D01*
X230108019Y-54557414D01*
X230275537Y-54331420D01*
X230395746Y-54077087D01*
X230436404Y-53943039D01*
X230314415Y-53721000D01*
X229171500Y-53721000D01*
X229171500Y-53741000D01*
X228917500Y-53741000D01*
X228917500Y-53721000D01*
X227774585Y-53721000D01*
X227652596Y-53943039D01*
X227693254Y-54077087D01*
X227813463Y-54331420D01*
X227980981Y-54557414D01*
X228189369Y-54746385D01*
X228381182Y-54861421D01*
X228243399Y-54935068D01*
X228024892Y-55114392D01*
X227845568Y-55332899D01*
X227712318Y-55582192D01*
X227630264Y-55852691D01*
X227602557Y-56134000D01*
X227630264Y-56415309D01*
X227712318Y-56685808D01*
X227845568Y-56935101D01*
X228024892Y-57153608D01*
X228243399Y-57332932D01*
X228376358Y-57404000D01*
X228243399Y-57475068D01*
X228024892Y-57654392D01*
X227914422Y-57789000D01*
X226871079Y-57789000D01*
X222849375Y-53767296D01*
X222866443Y-53594000D01*
X222838736Y-53312691D01*
X222756682Y-53042192D01*
X222623432Y-52792899D01*
X222444108Y-52574392D01*
X222225601Y-52395068D01*
X222092642Y-52324000D01*
X222225601Y-52252932D01*
X222444108Y-52073608D01*
X222623432Y-51855101D01*
X222756682Y-51605808D01*
X222838736Y-51335309D01*
X222866443Y-51054000D01*
X222838736Y-50772691D01*
X222756682Y-50502192D01*
X222623432Y-50252899D01*
X222444108Y-50034392D01*
X222225601Y-49855068D01*
X222092642Y-49784000D01*
X222225601Y-49712932D01*
X222444108Y-49533608D01*
X222623432Y-49315101D01*
X222756682Y-49065808D01*
X222838736Y-48795309D01*
X222866443Y-48514000D01*
X222838736Y-48232691D01*
X222756682Y-47962192D01*
X222623432Y-47712899D01*
X222444108Y-47494392D01*
X222225601Y-47315068D01*
X222092642Y-47244000D01*
X222225601Y-47172932D01*
X222444108Y-46993608D01*
X222623432Y-46775101D01*
X222756682Y-46525808D01*
X222838736Y-46255309D01*
X222866443Y-45974000D01*
X222838736Y-45692691D01*
X222756682Y-45422192D01*
X222623432Y-45172899D01*
X222444108Y-44954392D01*
X222225601Y-44775068D01*
X222092642Y-44704000D01*
X222225601Y-44632932D01*
X222444108Y-44453608D01*
X222623432Y-44235101D01*
X222756682Y-43985808D01*
X222838736Y-43715309D01*
X222866443Y-43434000D01*
X222838736Y-43152691D01*
X222756682Y-42882192D01*
X222623432Y-42632899D01*
X222444108Y-42414392D01*
X222225601Y-42235068D01*
X222092642Y-42164000D01*
X222225601Y-42092932D01*
X222444108Y-41913608D01*
X222623432Y-41695101D01*
X222756682Y-41445808D01*
X222838736Y-41175309D01*
X222866443Y-40894000D01*
X222838736Y-40612691D01*
X222756682Y-40342192D01*
X222623432Y-40092899D01*
X222444108Y-39874392D01*
X222331018Y-39781581D01*
X222348982Y-39779812D01*
X222468680Y-39743502D01*
X222578994Y-39684537D01*
X222675685Y-39605185D01*
X222755037Y-39508494D01*
X222814002Y-39398180D01*
X222850312Y-39278482D01*
X222862572Y-39154000D01*
X222862572Y-37554000D01*
X222850312Y-37429518D01*
X222814002Y-37309820D01*
X222755037Y-37199506D01*
X222675685Y-37102815D01*
X222578994Y-37023463D01*
X222468680Y-36964498D01*
X222348982Y-36928188D01*
X222309500Y-36924299D01*
X222309500Y-35539965D01*
X222313781Y-35496499D01*
X222309500Y-35453033D01*
X222309500Y-35453023D01*
X222296695Y-35323010D01*
X222246089Y-35156187D01*
X222163911Y-35002441D01*
X222053317Y-34867683D01*
X222019549Y-34839970D01*
X218808098Y-31628520D01*
X218834195Y-31542490D01*
X218851282Y-31369000D01*
X218834195Y-31195510D01*
X218783589Y-31028687D01*
X218701411Y-30874941D01*
X218590817Y-30740183D01*
X218589227Y-30738878D01*
X218568680Y-30689273D01*
X218411637Y-30454241D01*
X218211759Y-30254363D01*
X218182000Y-30234479D01*
X218182000Y-28943078D01*
X218316608Y-28832608D01*
X218495932Y-28614101D01*
X218629182Y-28364808D01*
X218711236Y-28094309D01*
X218738943Y-27813000D01*
X218711236Y-27531691D01*
X218629182Y-27261192D01*
X218495932Y-27011899D01*
X218316608Y-26793392D01*
X218098101Y-26614068D01*
X217848808Y-26480818D01*
X217578309Y-26398764D01*
X217367492Y-26378000D01*
X217226508Y-26378000D01*
X217015691Y-26398764D01*
X216745192Y-26480818D01*
X216495899Y-26614068D01*
X216277392Y-26793392D01*
X216098068Y-27011899D01*
X215964818Y-27261192D01*
X215882764Y-27531691D01*
X215855057Y-27813000D01*
X215882764Y-28094309D01*
X215964818Y-28364808D01*
X216098068Y-28614101D01*
X216277392Y-28832608D01*
X216412001Y-28943078D01*
X216412000Y-30230000D01*
X214094554Y-30230000D01*
X214020267Y-30155713D01*
X213817992Y-30020557D01*
X213593236Y-29927460D01*
X213354637Y-29880000D01*
X213111363Y-29880000D01*
X212872764Y-29927460D01*
X212648008Y-30020557D01*
X212445733Y-30155713D01*
X212273713Y-30327733D01*
X212233000Y-30388664D01*
X212192287Y-30327733D01*
X212020267Y-30155713D01*
X211817992Y-30020557D01*
X211593236Y-29927460D01*
X211354637Y-29880000D01*
X211111363Y-29880000D01*
X210872764Y-29927460D01*
X210648008Y-30020557D01*
X210445733Y-30155713D01*
X210273713Y-30327733D01*
X210138557Y-30530008D01*
X210045460Y-30754764D01*
X209998000Y-30993363D01*
X209998000Y-31236637D01*
X210045460Y-31475236D01*
X210138557Y-31699992D01*
X210273713Y-31902267D01*
X210445733Y-32074287D01*
X210648008Y-32209443D01*
X210872764Y-32302540D01*
X211111363Y-32350000D01*
X211354637Y-32350000D01*
X211593236Y-32302540D01*
X211817992Y-32209443D01*
X212020267Y-32074287D01*
X212192287Y-31902267D01*
X212233000Y-31841336D01*
X212273713Y-31902267D01*
X212445733Y-32074287D01*
X212648008Y-32209443D01*
X212872764Y-32302540D01*
X213111363Y-32350000D01*
X213354637Y-32350000D01*
X213593236Y-32302540D01*
X213817992Y-32209443D01*
X214020267Y-32074287D01*
X214094554Y-32000000D01*
X216005137Y-32000000D01*
X216025320Y-32048727D01*
X216182363Y-32283759D01*
X216382241Y-32483637D01*
X216617273Y-32640680D01*
X216878426Y-32748853D01*
X217155665Y-32804000D01*
X217438335Y-32804000D01*
X217473439Y-32797017D01*
X220539501Y-35863080D01*
X220539501Y-36924299D01*
X220500018Y-36928188D01*
X220380320Y-36964498D01*
X220270006Y-37023463D01*
X220173315Y-37102815D01*
X220093963Y-37199506D01*
X220034998Y-37309820D01*
X219998688Y-37429518D01*
X219986428Y-37554000D01*
X219986428Y-39154000D01*
X219998688Y-39278482D01*
X220034998Y-39398180D01*
X220093963Y-39508494D01*
X220173315Y-39605185D01*
X220270006Y-39684537D01*
X220380320Y-39743502D01*
X220500018Y-39779812D01*
X220517982Y-39781581D01*
X220404892Y-39874392D01*
X220294422Y-40009000D01*
X215054465Y-40009000D01*
X215010999Y-40004719D01*
X214967533Y-40009000D01*
X214967523Y-40009000D01*
X214837510Y-40021805D01*
X214670687Y-40072411D01*
X214516941Y-40154589D01*
X214516939Y-40154590D01*
X214516940Y-40154590D01*
X214415953Y-40237468D01*
X214415951Y-40237470D01*
X214382183Y-40265183D01*
X214354470Y-40298951D01*
X213944915Y-40708506D01*
X213934513Y-40602889D01*
X213849599Y-40322966D01*
X213711706Y-40064986D01*
X213526134Y-39838866D01*
X213300014Y-39653294D01*
X213245209Y-39624000D01*
X213300014Y-39594706D01*
X213526134Y-39409134D01*
X213711706Y-39183014D01*
X213849599Y-38925034D01*
X213934513Y-38645111D01*
X213963185Y-38354000D01*
X213934513Y-38062889D01*
X213849599Y-37782966D01*
X213711706Y-37524986D01*
X213526134Y-37298866D01*
X213300014Y-37113294D01*
X213235477Y-37078799D01*
X213352355Y-37009178D01*
X213568588Y-36814269D01*
X213742641Y-36580920D01*
X213867825Y-36318099D01*
X213912476Y-36170890D01*
X213791155Y-35941000D01*
X212598000Y-35941000D01*
X212598000Y-35961000D01*
X212344000Y-35961000D01*
X212344000Y-35941000D01*
X211150845Y-35941000D01*
X211029524Y-36170890D01*
X211074175Y-36318099D01*
X211199359Y-36580920D01*
X211373412Y-36814269D01*
X211589645Y-37009178D01*
X211706523Y-37078799D01*
X211641986Y-37113294D01*
X211415866Y-37298866D01*
X211230294Y-37524986D01*
X211092401Y-37782966D01*
X211007487Y-38062889D01*
X210978815Y-38354000D01*
X211007487Y-38645111D01*
X211092401Y-38925034D01*
X211230294Y-39183014D01*
X211415866Y-39409134D01*
X211641986Y-39594706D01*
X211696791Y-39624000D01*
X211641986Y-39653294D01*
X211415866Y-39838866D01*
X211276241Y-40009000D01*
X207768000Y-40009000D01*
X207768000Y-35457110D01*
X211029524Y-35457110D01*
X211150845Y-35687000D01*
X212344000Y-35687000D01*
X212344000Y-34493186D01*
X212598000Y-34493186D01*
X212598000Y-35687000D01*
X213791155Y-35687000D01*
X213912476Y-35457110D01*
X213867825Y-35309901D01*
X213742641Y-35047080D01*
X213568588Y-34813731D01*
X213352355Y-34618822D01*
X213102252Y-34469843D01*
X212827891Y-34372519D01*
X212598000Y-34493186D01*
X212344000Y-34493186D01*
X212114109Y-34372519D01*
X211839748Y-34469843D01*
X211589645Y-34618822D01*
X211373412Y-34813731D01*
X211199359Y-35047080D01*
X211074175Y-35309901D01*
X211029524Y-35457110D01*
X207768000Y-35457110D01*
X207768000Y-31354578D01*
X210714532Y-28408047D01*
X210714537Y-28408041D01*
X211048782Y-28073796D01*
X213599579Y-25523000D01*
X223153422Y-25523000D01*
X224015360Y-26384938D01*
X224015360Y-26384938D01*
G37*
X224015360Y-26384938D02*
X223992518Y-26387188D01*
X223872820Y-26423498D01*
X223762506Y-26482463D01*
X223665815Y-26561815D01*
X223586463Y-26658506D01*
X223527498Y-26768820D01*
X223491188Y-26888518D01*
X223478928Y-27013000D01*
X223478928Y-28613000D01*
X223491188Y-28737482D01*
X223527498Y-28857180D01*
X223586463Y-28967494D01*
X223665815Y-29064185D01*
X223762506Y-29143537D01*
X223872820Y-29202502D01*
X223992518Y-29238812D01*
X224032001Y-29242701D01*
X224032000Y-30238922D01*
X223897392Y-30349392D01*
X223718068Y-30567899D01*
X223584818Y-30817192D01*
X223502764Y-31087691D01*
X223475057Y-31369000D01*
X223502764Y-31650309D01*
X223584818Y-31920808D01*
X223718068Y-32170101D01*
X223897392Y-32388608D01*
X224115899Y-32567932D01*
X224365192Y-32701182D01*
X224635691Y-32783236D01*
X224846508Y-32804000D01*
X224987492Y-32804000D01*
X225090296Y-32793875D01*
X226546470Y-34250049D01*
X226574183Y-34283817D01*
X226607951Y-34311530D01*
X226607953Y-34311532D01*
X226679452Y-34370210D01*
X226708941Y-34394411D01*
X226862687Y-34476589D01*
X227029510Y-34527195D01*
X227159523Y-34540000D01*
X227159533Y-34540000D01*
X227202999Y-34544281D01*
X227246465Y-34540000D01*
X237678422Y-34540000D01*
X241325470Y-38187049D01*
X241353183Y-38220817D01*
X241386951Y-38248530D01*
X241386953Y-38248532D01*
X241430557Y-38284317D01*
X241487941Y-38331411D01*
X241641687Y-38413589D01*
X241808510Y-38464195D01*
X241846482Y-38467935D01*
X241856188Y-38566482D01*
X241892498Y-38686180D01*
X241951463Y-38796494D01*
X242030815Y-38893185D01*
X242127506Y-38972537D01*
X242237820Y-39031502D01*
X242357518Y-39067812D01*
X242447001Y-39076625D01*
X242447001Y-39390021D01*
X242442719Y-39433500D01*
X242459805Y-39606990D01*
X242510412Y-39773813D01*
X242592590Y-39927559D01*
X242675468Y-40028546D01*
X242675471Y-40028549D01*
X242703184Y-40062317D01*
X242736951Y-40090029D01*
X246066500Y-43419579D01*
X246066501Y-45787500D01*
X241967701Y-45787500D01*
X241963812Y-45748018D01*
X241927502Y-45628320D01*
X241868537Y-45518006D01*
X241789185Y-45421315D01*
X241692494Y-45341963D01*
X241582180Y-45282998D01*
X241462482Y-45246688D01*
X241338000Y-45234428D01*
X241330785Y-45234428D01*
X241351097Y-45165202D01*
X240538000Y-44352105D01*
X239724903Y-45165202D01*
X239745215Y-45234428D01*
X239738000Y-45234428D01*
X239613518Y-45246688D01*
X239493820Y-45282998D01*
X239383506Y-45341963D01*
X239286815Y-45421315D01*
X239207463Y-45518006D01*
X239148498Y-45628320D01*
X239112188Y-45748018D01*
X239099928Y-45872500D01*
X239099928Y-47472500D01*
X239112188Y-47596982D01*
X239148498Y-47716680D01*
X239207463Y-47826994D01*
X239286815Y-47923685D01*
X239383506Y-48003037D01*
X239493820Y-48062002D01*
X239613518Y-48098312D01*
X239738000Y-48110572D01*
X241338000Y-48110572D01*
X241462482Y-48098312D01*
X241582180Y-48062002D01*
X241692494Y-48003037D01*
X241789185Y-47923685D01*
X241868537Y-47826994D01*
X241927502Y-47716680D01*
X241963812Y-47596982D01*
X241967701Y-47557500D01*
X245533304Y-47557500D01*
X245572901Y-47688034D01*
X245710794Y-47946014D01*
X245896366Y-48172134D01*
X246122486Y-48357706D01*
X246177291Y-48387000D01*
X246122486Y-48416294D01*
X245896366Y-48601866D01*
X245756741Y-48772000D01*
X241503965Y-48772000D01*
X241460499Y-48767719D01*
X241417033Y-48772000D01*
X241417023Y-48772000D01*
X241287010Y-48784805D01*
X241120187Y-48835411D01*
X240966441Y-48917589D01*
X240966439Y-48917590D01*
X240966440Y-48917590D01*
X240865453Y-49000468D01*
X240865451Y-49000470D01*
X240831683Y-49028183D01*
X240803970Y-49061951D01*
X240260456Y-49605466D01*
X240226683Y-49633183D01*
X240116089Y-49767942D01*
X240033911Y-49921688D01*
X239983305Y-50088511D01*
X239979075Y-50131455D01*
X239931018Y-50136188D01*
X239811320Y-50172498D01*
X239701006Y-50231463D01*
X239604315Y-50310815D01*
X239524963Y-50407506D01*
X239465998Y-50517820D01*
X239429688Y-50637518D01*
X239417428Y-50762000D01*
X239417428Y-52362000D01*
X239429688Y-52486482D01*
X239465998Y-52606180D01*
X239524963Y-52716494D01*
X239604315Y-52813185D01*
X239701006Y-52892537D01*
X239811320Y-52951502D01*
X239931018Y-52987812D01*
X240055500Y-53000072D01*
X240062715Y-53000072D01*
X240042403Y-53069298D01*
X240855500Y-53882395D01*
X241668597Y-53069298D01*
X241662055Y-53047000D01*
X245463428Y-53047000D01*
X245475688Y-53171482D01*
X245511998Y-53291180D01*
X245570963Y-53401494D01*
X245650315Y-53498185D01*
X245747006Y-53577537D01*
X245857320Y-53636502D01*
X245977018Y-53672812D01*
X246101500Y-53685072D01*
X246665750Y-53682000D01*
X246824500Y-53523250D01*
X246824500Y-52324000D01*
X247078500Y-52324000D01*
X247078500Y-53523250D01*
X247237250Y-53682000D01*
X247801500Y-53685072D01*
X247925982Y-53672812D01*
X248045680Y-53636502D01*
X248155994Y-53577537D01*
X248252685Y-53498185D01*
X248332037Y-53401494D01*
X248391002Y-53291180D01*
X248427312Y-53171482D01*
X248439572Y-53047000D01*
X248436500Y-52482750D01*
X248277750Y-52324000D01*
X247078500Y-52324000D01*
X246824500Y-52324000D01*
X245625250Y-52324000D01*
X245466500Y-52482750D01*
X245463428Y-53047000D01*
X241662055Y-53047000D01*
X241648285Y-53000072D01*
X241655500Y-53000072D01*
X241779982Y-52987812D01*
X241899680Y-52951502D01*
X242009994Y-52892537D01*
X242106685Y-52813185D01*
X242186037Y-52716494D01*
X242245002Y-52606180D01*
X242281312Y-52486482D01*
X242293572Y-52362000D01*
X242293572Y-50762000D01*
X242281312Y-50637518D01*
X242252337Y-50542000D01*
X245756741Y-50542000D01*
X245896366Y-50712134D01*
X245926187Y-50736607D01*
X245857320Y-50757498D01*
X245747006Y-50816463D01*
X245650315Y-50895815D01*
X245570963Y-50992506D01*
X245511998Y-51102820D01*
X245475688Y-51222518D01*
X245463428Y-51347000D01*
X245466500Y-51911250D01*
X245625250Y-52070000D01*
X246824500Y-52070000D01*
X246824500Y-52050000D01*
X247078500Y-52050000D01*
X247078500Y-52070000D01*
X248277750Y-52070000D01*
X248436500Y-51911250D01*
X248439572Y-51347000D01*
X248427312Y-51222518D01*
X248409804Y-51164801D01*
X249686000Y-52440998D01*
X249686001Y-54179920D01*
X243663922Y-60202000D01*
X240737818Y-60202000D01*
X240734120Y-60196465D01*
X240539535Y-60001880D01*
X240310727Y-59848995D01*
X240056490Y-59743686D01*
X239786592Y-59690000D01*
X239511408Y-59690000D01*
X239241510Y-59743686D01*
X238987273Y-59848995D01*
X238758465Y-60001880D01*
X238563880Y-60196465D01*
X238505080Y-60284465D01*
X238496812Y-60200518D01*
X238460502Y-60080820D01*
X238401537Y-59970506D01*
X238322185Y-59873815D01*
X238225494Y-59794463D01*
X238115180Y-59735498D01*
X237995482Y-59699188D01*
X237871000Y-59686928D01*
X237394750Y-59690000D01*
X237236000Y-59848750D01*
X237236000Y-60960000D01*
X237256000Y-60960000D01*
X237256000Y-61214000D01*
X237236000Y-61214000D01*
X237236000Y-61234000D01*
X236982000Y-61234000D01*
X236982000Y-61214000D01*
X235870750Y-61214000D01*
X235712000Y-61372750D01*
X235708928Y-61849000D01*
X235721188Y-61973482D01*
X235757498Y-62093180D01*
X235816463Y-62203494D01*
X235895815Y-62300185D01*
X235992506Y-62379537D01*
X236102820Y-62438502D01*
X236222518Y-62474812D01*
X236306465Y-62483080D01*
X236218465Y-62541880D01*
X236023880Y-62736465D01*
X236020182Y-62742000D01*
X235316579Y-62742000D01*
X235009500Y-62434922D01*
X235009500Y-60325000D01*
X235708928Y-60325000D01*
X235712000Y-60801250D01*
X235870750Y-60960000D01*
X236982000Y-60960000D01*
X236982000Y-59848750D01*
X236823250Y-59690000D01*
X236347000Y-59686928D01*
X236222518Y-59699188D01*
X236102820Y-59735498D01*
X235992506Y-59794463D01*
X235895815Y-59873815D01*
X235816463Y-59970506D01*
X235757498Y-60080820D01*
X235721188Y-60200518D01*
X235708928Y-60325000D01*
X235009500Y-60325000D01*
X235009500Y-55054702D01*
X240042403Y-55054702D01*
X240113986Y-55298671D01*
X240369496Y-55419571D01*
X240643684Y-55488300D01*
X240926012Y-55502217D01*
X241205630Y-55460787D01*
X241471792Y-55365603D01*
X241597014Y-55298671D01*
X241668597Y-55054702D01*
X240855500Y-54241605D01*
X240042403Y-55054702D01*
X235009500Y-55054702D01*
X235009500Y-54860466D01*
X235013781Y-54816999D01*
X235009500Y-54773533D01*
X235009500Y-54773523D01*
X234996695Y-54643510D01*
X234946089Y-54476687D01*
X234863911Y-54322941D01*
X234753317Y-54188183D01*
X234719550Y-54160471D01*
X234691591Y-54132512D01*
X239415283Y-54132512D01*
X239456713Y-54412130D01*
X239551897Y-54678292D01*
X239618829Y-54803514D01*
X239862798Y-54875097D01*
X240675895Y-54062000D01*
X241035105Y-54062000D01*
X241848202Y-54875097D01*
X242092171Y-54803514D01*
X242213071Y-54548004D01*
X242281800Y-54273816D01*
X242295717Y-53991488D01*
X242254287Y-53711870D01*
X242159103Y-53445708D01*
X242092171Y-53320486D01*
X241848202Y-53248903D01*
X241035105Y-54062000D01*
X240675895Y-54062000D01*
X239862798Y-53248903D01*
X239618829Y-53320486D01*
X239497929Y-53575996D01*
X239429200Y-53850184D01*
X239415283Y-54132512D01*
X234691591Y-54132512D01*
X233784127Y-53225049D01*
X233838185Y-53180685D01*
X233917537Y-53083994D01*
X233976502Y-52973680D01*
X234012812Y-52853982D01*
X234025072Y-52729500D01*
X234025072Y-51029500D01*
X234012812Y-50905018D01*
X233976502Y-50785320D01*
X233917537Y-50675006D01*
X233838185Y-50578315D01*
X233741494Y-50498963D01*
X233631180Y-50439998D01*
X233562313Y-50419107D01*
X233592134Y-50394634D01*
X233777706Y-50168514D01*
X233915599Y-49910534D01*
X234000513Y-49630611D01*
X234029185Y-49339500D01*
X234000513Y-49048389D01*
X233915599Y-48768466D01*
X233777706Y-48510486D01*
X233592134Y-48284366D01*
X233366014Y-48098794D01*
X233311209Y-48069500D01*
X233366014Y-48040206D01*
X233592134Y-47854634D01*
X233777706Y-47628514D01*
X233915599Y-47370534D01*
X234000513Y-47090611D01*
X234029185Y-46799500D01*
X234000513Y-46508389D01*
X233915599Y-46228466D01*
X233777706Y-45970486D01*
X233592134Y-45744366D01*
X233366014Y-45558794D01*
X233311209Y-45529500D01*
X233366014Y-45500206D01*
X233592134Y-45314634D01*
X233777706Y-45088514D01*
X233915599Y-44830534D01*
X234000513Y-44550611D01*
X234029185Y-44259500D01*
X234027562Y-44243012D01*
X239097783Y-44243012D01*
X239139213Y-44522630D01*
X239234397Y-44788792D01*
X239301329Y-44914014D01*
X239545298Y-44985597D01*
X240358395Y-44172500D01*
X240717605Y-44172500D01*
X241530702Y-44985597D01*
X241774671Y-44914014D01*
X241895571Y-44658504D01*
X241964300Y-44384316D01*
X241978217Y-44101988D01*
X241936787Y-43822370D01*
X241841603Y-43556208D01*
X241774671Y-43430986D01*
X241530702Y-43359403D01*
X240717605Y-44172500D01*
X240358395Y-44172500D01*
X239545298Y-43359403D01*
X239301329Y-43430986D01*
X239180429Y-43686496D01*
X239111700Y-43960684D01*
X239097783Y-44243012D01*
X234027562Y-44243012D01*
X234000513Y-43968389D01*
X233915599Y-43688466D01*
X233777706Y-43430486D01*
X233592134Y-43204366D01*
X233562198Y-43179798D01*
X239724903Y-43179798D01*
X240538000Y-43992895D01*
X241351097Y-43179798D01*
X241279514Y-42935829D01*
X241024004Y-42814929D01*
X240749816Y-42746200D01*
X240467488Y-42732283D01*
X240187870Y-42773713D01*
X239921708Y-42868897D01*
X239796486Y-42935829D01*
X239724903Y-43179798D01*
X233562198Y-43179798D01*
X233366014Y-43018794D01*
X233311209Y-42989500D01*
X233366014Y-42960206D01*
X233592134Y-42774634D01*
X233777706Y-42548514D01*
X233915599Y-42290534D01*
X234000513Y-42010611D01*
X234029185Y-41719500D01*
X234000513Y-41428389D01*
X233915599Y-41148466D01*
X233777706Y-40890486D01*
X233592134Y-40664366D01*
X233366014Y-40478794D01*
X233311209Y-40449500D01*
X233366014Y-40420206D01*
X233592134Y-40234634D01*
X233777706Y-40008514D01*
X233915599Y-39750534D01*
X234000513Y-39470611D01*
X234029185Y-39179500D01*
X234000513Y-38888389D01*
X233915599Y-38608466D01*
X233777706Y-38350486D01*
X233592134Y-38124366D01*
X233366014Y-37938794D01*
X233108034Y-37800901D01*
X232828111Y-37715987D01*
X232609950Y-37694500D01*
X232464050Y-37694500D01*
X232320194Y-37708669D01*
X232205559Y-37614589D01*
X232051813Y-37532411D01*
X231884990Y-37481805D01*
X231754977Y-37469000D01*
X231754969Y-37469000D01*
X231711500Y-37464719D01*
X231668031Y-37469000D01*
X230174578Y-37469000D01*
X230064108Y-37334392D01*
X229845601Y-37155068D01*
X229596308Y-37021818D01*
X229325809Y-36939764D01*
X229114992Y-36919000D01*
X228974008Y-36919000D01*
X228763191Y-36939764D01*
X228492692Y-37021818D01*
X228243399Y-37155068D01*
X228024892Y-37334392D01*
X227845568Y-37552899D01*
X227712318Y-37802192D01*
X227630264Y-38072691D01*
X227602557Y-38354000D01*
X227630264Y-38635309D01*
X227712318Y-38905808D01*
X227845568Y-39155101D01*
X228024892Y-39373608D01*
X228243399Y-39552932D01*
X228376358Y-39624000D01*
X228243399Y-39695068D01*
X228024892Y-39874392D01*
X227845568Y-40092899D01*
X227712318Y-40342192D01*
X227630264Y-40612691D01*
X227602557Y-40894000D01*
X227630264Y-41175309D01*
X227712318Y-41445808D01*
X227845568Y-41695101D01*
X228024892Y-41913608D01*
X228243399Y-42092932D01*
X228376358Y-42164000D01*
X228243399Y-42235068D01*
X228024892Y-42414392D01*
X227845568Y-42632899D01*
X227712318Y-42882192D01*
X227630264Y-43152691D01*
X227602557Y-43434000D01*
X227630264Y-43715309D01*
X227712318Y-43985808D01*
X227845568Y-44235101D01*
X228024892Y-44453608D01*
X228243399Y-44632932D01*
X228376358Y-44704000D01*
X228243399Y-44775068D01*
X228024892Y-44954392D01*
X227845568Y-45172899D01*
X227712318Y-45422192D01*
X227630264Y-45692691D01*
X227602557Y-45974000D01*
X227630264Y-46255309D01*
X227712318Y-46525808D01*
X227845568Y-46775101D01*
X228024892Y-46993608D01*
X228243399Y-47172932D01*
X228376358Y-47244000D01*
X228243399Y-47315068D01*
X228024892Y-47494392D01*
X227845568Y-47712899D01*
X227712318Y-47962192D01*
X227630264Y-48232691D01*
X227602557Y-48514000D01*
X227630264Y-48795309D01*
X227712318Y-49065808D01*
X227845568Y-49315101D01*
X228024892Y-49533608D01*
X228243399Y-49712932D01*
X228376358Y-49784000D01*
X228243399Y-49855068D01*
X228024892Y-50034392D01*
X227845568Y-50252899D01*
X227712318Y-50502192D01*
X227630264Y-50772691D01*
X227602557Y-51054000D01*
X227630264Y-51335309D01*
X227712318Y-51605808D01*
X227845568Y-51855101D01*
X228024892Y-52073608D01*
X228243399Y-52252932D01*
X228381182Y-52326579D01*
X228189369Y-52441615D01*
X227980981Y-52630586D01*
X227813463Y-52856580D01*
X227693254Y-53110913D01*
X227652596Y-53244961D01*
X227774585Y-53467000D01*
X228917500Y-53467000D01*
X228917500Y-53447000D01*
X229171500Y-53447000D01*
X229171500Y-53467000D01*
X230314415Y-53467000D01*
X230436404Y-53244961D01*
X230395746Y-53110913D01*
X230275537Y-52856580D01*
X230108019Y-52630586D01*
X229899631Y-52441615D01*
X229707818Y-52326579D01*
X229845601Y-52252932D01*
X230064108Y-52073608D01*
X230174578Y-51939000D01*
X231048928Y-51939000D01*
X231048928Y-52729500D01*
X231061188Y-52853982D01*
X231097498Y-52973680D01*
X231156463Y-53083994D01*
X231235815Y-53180685D01*
X231332506Y-53260037D01*
X231442820Y-53319002D01*
X231562518Y-53355312D01*
X231661065Y-53365018D01*
X231664805Y-53402990D01*
X231715412Y-53569813D01*
X231797590Y-53723559D01*
X231880468Y-53824546D01*
X231880471Y-53824549D01*
X231908184Y-53858317D01*
X231941951Y-53886029D01*
X233239500Y-55183579D01*
X233239501Y-62758021D01*
X233235219Y-62801500D01*
X233252305Y-62974990D01*
X233302912Y-63141813D01*
X233385090Y-63295559D01*
X233467968Y-63396546D01*
X233467971Y-63396549D01*
X233495684Y-63430317D01*
X233529451Y-63458029D01*
X234293470Y-64222049D01*
X234321183Y-64255817D01*
X234354951Y-64283530D01*
X234354953Y-64283532D01*
X234426452Y-64342210D01*
X234455941Y-64366411D01*
X234609687Y-64448589D01*
X234776510Y-64499195D01*
X234906523Y-64512000D01*
X234906533Y-64512000D01*
X234949999Y-64516281D01*
X234993465Y-64512000D01*
X236020182Y-64512000D01*
X236023880Y-64517535D01*
X236218465Y-64712120D01*
X236447273Y-64865005D01*
X236524515Y-64897000D01*
X236447273Y-64928995D01*
X236218465Y-65081880D01*
X236023880Y-65276465D01*
X236020182Y-65282000D01*
X234364079Y-65282000D01*
X230469375Y-61387296D01*
X230486443Y-61214000D01*
X230458736Y-60932691D01*
X230376682Y-60662192D01*
X230243432Y-60412899D01*
X230064108Y-60194392D01*
X229845601Y-60015068D01*
X229712642Y-59944000D01*
X229845601Y-59872932D01*
X230064108Y-59693608D01*
X230243432Y-59475101D01*
X230376682Y-59225808D01*
X230458736Y-58955309D01*
X230486443Y-58674000D01*
X230458736Y-58392691D01*
X230376682Y-58122192D01*
X230243432Y-57872899D01*
X230064108Y-57654392D01*
X229845601Y-57475068D01*
X229712642Y-57404000D01*
X229845601Y-57332932D01*
X230064108Y-57153608D01*
X230243432Y-56935101D01*
X230376682Y-56685808D01*
X230458736Y-56415309D01*
X230486443Y-56134000D01*
X230458736Y-55852691D01*
X230376682Y-55582192D01*
X230243432Y-55332899D01*
X230064108Y-55114392D01*
X229845601Y-54935068D01*
X229707818Y-54861421D01*
X229899631Y-54746385D01*
X230108019Y-54557414D01*
X230275537Y-54331420D01*
X230395746Y-54077087D01*
X230436404Y-53943039D01*
X230314415Y-53721000D01*
X229171500Y-53721000D01*
X229171500Y-53741000D01*
X228917500Y-53741000D01*
X228917500Y-53721000D01*
X227774585Y-53721000D01*
X227652596Y-53943039D01*
X227693254Y-54077087D01*
X227813463Y-54331420D01*
X227980981Y-54557414D01*
X228189369Y-54746385D01*
X228381182Y-54861421D01*
X228243399Y-54935068D01*
X228024892Y-55114392D01*
X227845568Y-55332899D01*
X227712318Y-55582192D01*
X227630264Y-55852691D01*
X227602557Y-56134000D01*
X227630264Y-56415309D01*
X227712318Y-56685808D01*
X227845568Y-56935101D01*
X228024892Y-57153608D01*
X228243399Y-57332932D01*
X228376358Y-57404000D01*
X228243399Y-57475068D01*
X228024892Y-57654392D01*
X227914422Y-57789000D01*
X226871079Y-57789000D01*
X222849375Y-53767296D01*
X222866443Y-53594000D01*
X222838736Y-53312691D01*
X222756682Y-53042192D01*
X222623432Y-52792899D01*
X222444108Y-52574392D01*
X222225601Y-52395068D01*
X222092642Y-52324000D01*
X222225601Y-52252932D01*
X222444108Y-52073608D01*
X222623432Y-51855101D01*
X222756682Y-51605808D01*
X222838736Y-51335309D01*
X222866443Y-51054000D01*
X222838736Y-50772691D01*
X222756682Y-50502192D01*
X222623432Y-50252899D01*
X222444108Y-50034392D01*
X222225601Y-49855068D01*
X222092642Y-49784000D01*
X222225601Y-49712932D01*
X222444108Y-49533608D01*
X222623432Y-49315101D01*
X222756682Y-49065808D01*
X222838736Y-48795309D01*
X222866443Y-48514000D01*
X222838736Y-48232691D01*
X222756682Y-47962192D01*
X222623432Y-47712899D01*
X222444108Y-47494392D01*
X222225601Y-47315068D01*
X222092642Y-47244000D01*
X222225601Y-47172932D01*
X222444108Y-46993608D01*
X222623432Y-46775101D01*
X222756682Y-46525808D01*
X222838736Y-46255309D01*
X222866443Y-45974000D01*
X222838736Y-45692691D01*
X222756682Y-45422192D01*
X222623432Y-45172899D01*
X222444108Y-44954392D01*
X222225601Y-44775068D01*
X222092642Y-44704000D01*
X222225601Y-44632932D01*
X222444108Y-44453608D01*
X222623432Y-44235101D01*
X222756682Y-43985808D01*
X222838736Y-43715309D01*
X222866443Y-43434000D01*
X222838736Y-43152691D01*
X222756682Y-42882192D01*
X222623432Y-42632899D01*
X222444108Y-42414392D01*
X222225601Y-42235068D01*
X222092642Y-42164000D01*
X222225601Y-42092932D01*
X222444108Y-41913608D01*
X222623432Y-41695101D01*
X222756682Y-41445808D01*
X222838736Y-41175309D01*
X222866443Y-40894000D01*
X222838736Y-40612691D01*
X222756682Y-40342192D01*
X222623432Y-40092899D01*
X222444108Y-39874392D01*
X222331018Y-39781581D01*
X222348982Y-39779812D01*
X222468680Y-39743502D01*
X222578994Y-39684537D01*
X222675685Y-39605185D01*
X222755037Y-39508494D01*
X222814002Y-39398180D01*
X222850312Y-39278482D01*
X222862572Y-39154000D01*
X222862572Y-37554000D01*
X222850312Y-37429518D01*
X222814002Y-37309820D01*
X222755037Y-37199506D01*
X222675685Y-37102815D01*
X222578994Y-37023463D01*
X222468680Y-36964498D01*
X222348982Y-36928188D01*
X222309500Y-36924299D01*
X222309500Y-35539965D01*
X222313781Y-35496499D01*
X222309500Y-35453033D01*
X222309500Y-35453023D01*
X222296695Y-35323010D01*
X222246089Y-35156187D01*
X222163911Y-35002441D01*
X222053317Y-34867683D01*
X222019549Y-34839970D01*
X218808098Y-31628520D01*
X218834195Y-31542490D01*
X218851282Y-31369000D01*
X218834195Y-31195510D01*
X218783589Y-31028687D01*
X218701411Y-30874941D01*
X218590817Y-30740183D01*
X218589227Y-30738878D01*
X218568680Y-30689273D01*
X218411637Y-30454241D01*
X218211759Y-30254363D01*
X218182000Y-30234479D01*
X218182000Y-28943078D01*
X218316608Y-28832608D01*
X218495932Y-28614101D01*
X218629182Y-28364808D01*
X218711236Y-28094309D01*
X218738943Y-27813000D01*
X218711236Y-27531691D01*
X218629182Y-27261192D01*
X218495932Y-27011899D01*
X218316608Y-26793392D01*
X218098101Y-26614068D01*
X217848808Y-26480818D01*
X217578309Y-26398764D01*
X217367492Y-26378000D01*
X217226508Y-26378000D01*
X217015691Y-26398764D01*
X216745192Y-26480818D01*
X216495899Y-26614068D01*
X216277392Y-26793392D01*
X216098068Y-27011899D01*
X215964818Y-27261192D01*
X215882764Y-27531691D01*
X215855057Y-27813000D01*
X215882764Y-28094309D01*
X215964818Y-28364808D01*
X216098068Y-28614101D01*
X216277392Y-28832608D01*
X216412001Y-28943078D01*
X216412000Y-30230000D01*
X214094554Y-30230000D01*
X214020267Y-30155713D01*
X213817992Y-30020557D01*
X213593236Y-29927460D01*
X213354637Y-29880000D01*
X213111363Y-29880000D01*
X212872764Y-29927460D01*
X212648008Y-30020557D01*
X212445733Y-30155713D01*
X212273713Y-30327733D01*
X212233000Y-30388664D01*
X212192287Y-30327733D01*
X212020267Y-30155713D01*
X211817992Y-30020557D01*
X211593236Y-29927460D01*
X211354637Y-29880000D01*
X211111363Y-29880000D01*
X210872764Y-29927460D01*
X210648008Y-30020557D01*
X210445733Y-30155713D01*
X210273713Y-30327733D01*
X210138557Y-30530008D01*
X210045460Y-30754764D01*
X209998000Y-30993363D01*
X209998000Y-31236637D01*
X210045460Y-31475236D01*
X210138557Y-31699992D01*
X210273713Y-31902267D01*
X210445733Y-32074287D01*
X210648008Y-32209443D01*
X210872764Y-32302540D01*
X211111363Y-32350000D01*
X211354637Y-32350000D01*
X211593236Y-32302540D01*
X211817992Y-32209443D01*
X212020267Y-32074287D01*
X212192287Y-31902267D01*
X212233000Y-31841336D01*
X212273713Y-31902267D01*
X212445733Y-32074287D01*
X212648008Y-32209443D01*
X212872764Y-32302540D01*
X213111363Y-32350000D01*
X213354637Y-32350000D01*
X213593236Y-32302540D01*
X213817992Y-32209443D01*
X214020267Y-32074287D01*
X214094554Y-32000000D01*
X216005137Y-32000000D01*
X216025320Y-32048727D01*
X216182363Y-32283759D01*
X216382241Y-32483637D01*
X216617273Y-32640680D01*
X216878426Y-32748853D01*
X217155665Y-32804000D01*
X217438335Y-32804000D01*
X217473439Y-32797017D01*
X220539501Y-35863080D01*
X220539501Y-36924299D01*
X220500018Y-36928188D01*
X220380320Y-36964498D01*
X220270006Y-37023463D01*
X220173315Y-37102815D01*
X220093963Y-37199506D01*
X220034998Y-37309820D01*
X219998688Y-37429518D01*
X219986428Y-37554000D01*
X219986428Y-39154000D01*
X219998688Y-39278482D01*
X220034998Y-39398180D01*
X220093963Y-39508494D01*
X220173315Y-39605185D01*
X220270006Y-39684537D01*
X220380320Y-39743502D01*
X220500018Y-39779812D01*
X220517982Y-39781581D01*
X220404892Y-39874392D01*
X220294422Y-40009000D01*
X215054465Y-40009000D01*
X215010999Y-40004719D01*
X214967533Y-40009000D01*
X214967523Y-40009000D01*
X214837510Y-40021805D01*
X214670687Y-40072411D01*
X214516941Y-40154589D01*
X214516939Y-40154590D01*
X214516940Y-40154590D01*
X214415953Y-40237468D01*
X214415951Y-40237470D01*
X214382183Y-40265183D01*
X214354470Y-40298951D01*
X213944915Y-40708506D01*
X213934513Y-40602889D01*
X213849599Y-40322966D01*
X213711706Y-40064986D01*
X213526134Y-39838866D01*
X213300014Y-39653294D01*
X213245209Y-39624000D01*
X213300014Y-39594706D01*
X213526134Y-39409134D01*
X213711706Y-39183014D01*
X213849599Y-38925034D01*
X213934513Y-38645111D01*
X213963185Y-38354000D01*
X213934513Y-38062889D01*
X213849599Y-37782966D01*
X213711706Y-37524986D01*
X213526134Y-37298866D01*
X213300014Y-37113294D01*
X213235477Y-37078799D01*
X213352355Y-37009178D01*
X213568588Y-36814269D01*
X213742641Y-36580920D01*
X213867825Y-36318099D01*
X213912476Y-36170890D01*
X213791155Y-35941000D01*
X212598000Y-35941000D01*
X212598000Y-35961000D01*
X212344000Y-35961000D01*
X212344000Y-35941000D01*
X211150845Y-35941000D01*
X211029524Y-36170890D01*
X211074175Y-36318099D01*
X211199359Y-36580920D01*
X211373412Y-36814269D01*
X211589645Y-37009178D01*
X211706523Y-37078799D01*
X211641986Y-37113294D01*
X211415866Y-37298866D01*
X211230294Y-37524986D01*
X211092401Y-37782966D01*
X211007487Y-38062889D01*
X210978815Y-38354000D01*
X211007487Y-38645111D01*
X211092401Y-38925034D01*
X211230294Y-39183014D01*
X211415866Y-39409134D01*
X211641986Y-39594706D01*
X211696791Y-39624000D01*
X211641986Y-39653294D01*
X211415866Y-39838866D01*
X211276241Y-40009000D01*
X207768000Y-40009000D01*
X207768000Y-35457110D01*
X211029524Y-35457110D01*
X211150845Y-35687000D01*
X212344000Y-35687000D01*
X212344000Y-34493186D01*
X212598000Y-34493186D01*
X212598000Y-35687000D01*
X213791155Y-35687000D01*
X213912476Y-35457110D01*
X213867825Y-35309901D01*
X213742641Y-35047080D01*
X213568588Y-34813731D01*
X213352355Y-34618822D01*
X213102252Y-34469843D01*
X212827891Y-34372519D01*
X212598000Y-34493186D01*
X212344000Y-34493186D01*
X212114109Y-34372519D01*
X211839748Y-34469843D01*
X211589645Y-34618822D01*
X211373412Y-34813731D01*
X211199359Y-35047080D01*
X211074175Y-35309901D01*
X211029524Y-35457110D01*
X207768000Y-35457110D01*
X207768000Y-31354578D01*
X210714532Y-28408047D01*
X210714537Y-28408041D01*
X211048782Y-28073796D01*
X213599579Y-25523000D01*
X223153422Y-25523000D01*
X224015360Y-26384938D01*
M02*
