M48
; DRILL file {KiCad (5.1.4)-1} date 27/08/2020 05:36:56
; FORMAT={-:-/ absolute / metric / decimal}
; #@! TF.CreationDate,2020-08-27T05:36:56+02:00
; #@! TF.GenerationSoftware,Kicad,Pcbnew,(5.1.4)-1
; #@! TF.FileFunction,Plated,1,2,PTH
FMAT,2
METRIC
T1C0.600
T2C0.762
T3C0.800
T4C1.000
T5C1.100
%
G90
G05
T1
X211.233Y-31.115
X213.233Y-31.115
T2
X237.109Y-61.087
X237.109Y-63.627
X237.109Y-66.167
X237.109Y-68.707
X239.649Y-61.087
X239.649Y-63.627
X239.649Y-66.167
X239.649Y-68.707
T3
X231.838Y-28.615
X231.838Y-31.115
X240.855Y-51.562
X240.855Y-54.062
X207.558Y-61.658
X210.058Y-61.658
X221.424Y-38.354
X221.424Y-40.894
X221.424Y-43.434
X221.424Y-45.974
X221.424Y-48.514
X221.424Y-51.054
X221.424Y-53.594
X221.424Y-56.134
X221.424Y-58.674
X221.424Y-61.214
X221.424Y-63.754
X221.424Y-66.294
X221.424Y-68.834
X221.424Y-71.374
X229.044Y-38.354
X229.044Y-40.894
X229.044Y-43.434
X229.044Y-45.974
X229.044Y-48.514
X229.044Y-51.054
X229.044Y-53.594
X229.044Y-56.134
X229.044Y-58.674
X229.044Y-61.214
X229.044Y-63.754
X229.044Y-66.294
X229.044Y-68.834
X229.044Y-71.374
X217.297Y-27.813
X224.917Y-27.813
X217.297Y-31.369
X224.917Y-31.369
X207.748Y-58.166
X210.248Y-58.166
X240.538Y-44.172
X240.538Y-46.672
X215.328Y-57.594
X215.328Y-62.494
X247.269Y-24.043
X247.269Y-26.543
T4
X214.947Y-69.088
X214.947Y-71.628
X214.947Y-74.168
X214.947Y-76.708
X249.999Y-41.593
X252.539Y-41.593
X255.079Y-41.593
X257.62Y-41.593
X260.159Y-41.593
X262.7Y-41.593
X249.999Y-37.655
X252.539Y-37.655
X255.079Y-37.655
X257.62Y-37.655
X260.159Y-37.655
X262.7Y-37.655
X246.951Y-47.117
X246.951Y-49.657
X246.951Y-52.197
X239.204Y-25.971
X241.744Y-25.971
X238.125Y-31.623
X240.665Y-31.623
X243.205Y-31.623
X232.537Y-39.179
X232.537Y-41.719
X232.537Y-44.259
X232.537Y-46.799
X232.537Y-49.34
X232.537Y-51.88
X217.297Y-48.514
X217.297Y-51.054
X228.473Y-75.501
X243.332Y-37.592
X212.471Y-35.814
X212.471Y-38.354
X212.471Y-40.894
X212.471Y-43.434
X212.471Y-45.974
X212.471Y-48.514
T5
X246.761Y-31.623
X256.921Y-31.623
T0
M30
