G04 #@! TF.GenerationSoftware,KiCad,Pcbnew,(5.1.4)-1*
G04 #@! TF.CreationDate,2020-08-27T05:36:11+02:00*
G04 #@! TF.ProjectId,transmitter,7472616e-736d-4697-9474-65722e6b6963,v1.0*
G04 #@! TF.SameCoordinates,Original*
G04 #@! TF.FileFunction,Soldermask,Bot*
G04 #@! TF.FilePolarity,Negative*
%FSLAX46Y46*%
G04 Gerber Fmt 4.6, Leading zero omitted, Abs format (unit mm)*
G04 Created by KiCad (PCBNEW (5.1.4)-1) date 2020-08-27 05:36:11*
%MOMM*%
%LPD*%
G04 APERTURE LIST*
%ADD10C,0.100000*%
G04 APERTURE END LIST*
D10*
G36*
X260979256Y-75035798D02*
G01*
X261085579Y-75056947D01*
X261386042Y-75181403D01*
X261656451Y-75362085D01*
X261886415Y-75592049D01*
X262020405Y-75792579D01*
X262067098Y-75862460D01*
X262191553Y-76162922D01*
X262231441Y-76363449D01*
X262255000Y-76481891D01*
X262255000Y-76807109D01*
X262191553Y-77126079D01*
X262067097Y-77426542D01*
X261886415Y-77696951D01*
X261656451Y-77926915D01*
X261386042Y-78107597D01*
X261085579Y-78232053D01*
X260979256Y-78253202D01*
X260766611Y-78295500D01*
X260441389Y-78295500D01*
X260228744Y-78253202D01*
X260122421Y-78232053D01*
X259821958Y-78107597D01*
X259551549Y-77926915D01*
X259321585Y-77696951D01*
X259140903Y-77426542D01*
X259016447Y-77126079D01*
X258953000Y-76807109D01*
X258953000Y-76481891D01*
X258976560Y-76363449D01*
X259016447Y-76162922D01*
X259140902Y-75862460D01*
X259187595Y-75792579D01*
X259321585Y-75592049D01*
X259551549Y-75362085D01*
X259821958Y-75181403D01*
X260122421Y-75056947D01*
X260228744Y-75035798D01*
X260441389Y-74993500D01*
X260766611Y-74993500D01*
X260979256Y-75035798D01*
X260979256Y-75035798D01*
G37*
G36*
X215057942Y-75813518D02*
G01*
X215124127Y-75820037D01*
X215293966Y-75871557D01*
X215450491Y-75955222D01*
X215486229Y-75984552D01*
X215587686Y-76067814D01*
X215665737Y-76162921D01*
X215700278Y-76205009D01*
X215783943Y-76361534D01*
X215835463Y-76531373D01*
X215852859Y-76708000D01*
X215835463Y-76884627D01*
X215783943Y-77054466D01*
X215700278Y-77210991D01*
X215670948Y-77246729D01*
X215587686Y-77348186D01*
X215486229Y-77431448D01*
X215450491Y-77460778D01*
X215293966Y-77544443D01*
X215124127Y-77595963D01*
X215057943Y-77602481D01*
X214991760Y-77609000D01*
X214903240Y-77609000D01*
X214837057Y-77602481D01*
X214770873Y-77595963D01*
X214601034Y-77544443D01*
X214444509Y-77460778D01*
X214408771Y-77431448D01*
X214307314Y-77348186D01*
X214224052Y-77246729D01*
X214194722Y-77210991D01*
X214111057Y-77054466D01*
X214059537Y-76884627D01*
X214042141Y-76708000D01*
X214059537Y-76531373D01*
X214111057Y-76361534D01*
X214194722Y-76205009D01*
X214229263Y-76162921D01*
X214307314Y-76067814D01*
X214408771Y-75984552D01*
X214444509Y-75955222D01*
X214601034Y-75871557D01*
X214770873Y-75820037D01*
X214837058Y-75813518D01*
X214903240Y-75807000D01*
X214991760Y-75807000D01*
X215057942Y-75813518D01*
X215057942Y-75813518D01*
G37*
G36*
X208083756Y-73702298D02*
G01*
X208190079Y-73723447D01*
X208490542Y-73847903D01*
X208760951Y-74028585D01*
X208990915Y-74258549D01*
X209171597Y-74528958D01*
X209287257Y-74808185D01*
X209296053Y-74829422D01*
X209359500Y-75148389D01*
X209359500Y-75473611D01*
X209317202Y-75686256D01*
X209296053Y-75792579D01*
X209267108Y-75862458D01*
X209182047Y-76067815D01*
X209171597Y-76093042D01*
X208990915Y-76363451D01*
X208760951Y-76593415D01*
X208490542Y-76774097D01*
X208190079Y-76898553D01*
X208083756Y-76919702D01*
X207871111Y-76962000D01*
X207545889Y-76962000D01*
X207333244Y-76919702D01*
X207226921Y-76898553D01*
X206926458Y-76774097D01*
X206656049Y-76593415D01*
X206426085Y-76363451D01*
X206245403Y-76093042D01*
X206234954Y-76067815D01*
X206149892Y-75862458D01*
X206120947Y-75792579D01*
X206099798Y-75686256D01*
X206057500Y-75473611D01*
X206057500Y-75148389D01*
X206120947Y-74829422D01*
X206129744Y-74808185D01*
X206245403Y-74528958D01*
X206426085Y-74258549D01*
X206656049Y-74028585D01*
X206926458Y-73847903D01*
X207226921Y-73723447D01*
X207333244Y-73702298D01*
X207545889Y-73660000D01*
X207871111Y-73660000D01*
X208083756Y-73702298D01*
X208083756Y-73702298D01*
G37*
G36*
X229374000Y-76402500D02*
G01*
X227572000Y-76402500D01*
X227572000Y-74600500D01*
X229374000Y-74600500D01*
X229374000Y-76402500D01*
X229374000Y-76402500D01*
G37*
G36*
X215057943Y-73273519D02*
G01*
X215124127Y-73280037D01*
X215293966Y-73331557D01*
X215450491Y-73415222D01*
X215486229Y-73444552D01*
X215587686Y-73527814D01*
X215670948Y-73629271D01*
X215700278Y-73665009D01*
X215783943Y-73821534D01*
X215835463Y-73991373D01*
X215852859Y-74168000D01*
X215835463Y-74344627D01*
X215783943Y-74514466D01*
X215700278Y-74670991D01*
X215670948Y-74706729D01*
X215587686Y-74808186D01*
X215486229Y-74891448D01*
X215450491Y-74920778D01*
X215293966Y-75004443D01*
X215124127Y-75055963D01*
X215057943Y-75062481D01*
X214991760Y-75069000D01*
X214903240Y-75069000D01*
X214837057Y-75062481D01*
X214770873Y-75055963D01*
X214601034Y-75004443D01*
X214444509Y-74920778D01*
X214408771Y-74891448D01*
X214307314Y-74808186D01*
X214224052Y-74706729D01*
X214194722Y-74670991D01*
X214111057Y-74514466D01*
X214059537Y-74344627D01*
X214042141Y-74168000D01*
X214059537Y-73991373D01*
X214111057Y-73821534D01*
X214194722Y-73665009D01*
X214224052Y-73629271D01*
X214307314Y-73527814D01*
X214408771Y-73444552D01*
X214444509Y-73415222D01*
X214601034Y-73331557D01*
X214770873Y-73280037D01*
X214837057Y-73273519D01*
X214903240Y-73267000D01*
X214991760Y-73267000D01*
X215057943Y-73273519D01*
X215057943Y-73273519D01*
G37*
G36*
X215057942Y-70733518D02*
G01*
X215124127Y-70740037D01*
X215293966Y-70791557D01*
X215450491Y-70875222D01*
X215479369Y-70898922D01*
X215587686Y-70987814D01*
X215670948Y-71089271D01*
X215700278Y-71125009D01*
X215783943Y-71281534D01*
X215835463Y-71451373D01*
X215852859Y-71628000D01*
X215835463Y-71804627D01*
X215783943Y-71974466D01*
X215700278Y-72130991D01*
X215670948Y-72166729D01*
X215587686Y-72268186D01*
X215486229Y-72351448D01*
X215450491Y-72380778D01*
X215293966Y-72464443D01*
X215124127Y-72515963D01*
X215057942Y-72522482D01*
X214991760Y-72529000D01*
X214903240Y-72529000D01*
X214837058Y-72522482D01*
X214770873Y-72515963D01*
X214601034Y-72464443D01*
X214444509Y-72380778D01*
X214408771Y-72351448D01*
X214307314Y-72268186D01*
X214224052Y-72166729D01*
X214194722Y-72130991D01*
X214111057Y-71974466D01*
X214059537Y-71804627D01*
X214042141Y-71628000D01*
X214059537Y-71451373D01*
X214111057Y-71281534D01*
X214194722Y-71125009D01*
X214224052Y-71089271D01*
X214307314Y-70987814D01*
X214415631Y-70898922D01*
X214444509Y-70875222D01*
X214601034Y-70791557D01*
X214770873Y-70740037D01*
X214837058Y-70733518D01*
X214903240Y-70727000D01*
X214991760Y-70727000D01*
X215057942Y-70733518D01*
X215057942Y-70733518D01*
G37*
G36*
X221591323Y-70535313D02*
G01*
X221751742Y-70583976D01*
X221884406Y-70654886D01*
X221899578Y-70662996D01*
X222029159Y-70769341D01*
X222135504Y-70898922D01*
X222135505Y-70898924D01*
X222214524Y-71046758D01*
X222263187Y-71207177D01*
X222279617Y-71374000D01*
X222263187Y-71540823D01*
X222214524Y-71701242D01*
X222143614Y-71833906D01*
X222135504Y-71849078D01*
X222029159Y-71978659D01*
X221899578Y-72085004D01*
X221899576Y-72085005D01*
X221751742Y-72164024D01*
X221591323Y-72212687D01*
X221466304Y-72225000D01*
X221382696Y-72225000D01*
X221257677Y-72212687D01*
X221097258Y-72164024D01*
X220949424Y-72085005D01*
X220949422Y-72085004D01*
X220819841Y-71978659D01*
X220713496Y-71849078D01*
X220705386Y-71833906D01*
X220634476Y-71701242D01*
X220585813Y-71540823D01*
X220569383Y-71374000D01*
X220585813Y-71207177D01*
X220634476Y-71046758D01*
X220713495Y-70898924D01*
X220713496Y-70898922D01*
X220819841Y-70769341D01*
X220949422Y-70662996D01*
X220964594Y-70654886D01*
X221097258Y-70583976D01*
X221257677Y-70535313D01*
X221382696Y-70523000D01*
X221466304Y-70523000D01*
X221591323Y-70535313D01*
X221591323Y-70535313D01*
G37*
G36*
X229211323Y-70535313D02*
G01*
X229371742Y-70583976D01*
X229504406Y-70654886D01*
X229519578Y-70662996D01*
X229649159Y-70769341D01*
X229755504Y-70898922D01*
X229755505Y-70898924D01*
X229834524Y-71046758D01*
X229883187Y-71207177D01*
X229899617Y-71374000D01*
X229883187Y-71540823D01*
X229834524Y-71701242D01*
X229763614Y-71833906D01*
X229755504Y-71849078D01*
X229649159Y-71978659D01*
X229519578Y-72085004D01*
X229519576Y-72085005D01*
X229371742Y-72164024D01*
X229211323Y-72212687D01*
X229086304Y-72225000D01*
X229002696Y-72225000D01*
X228877677Y-72212687D01*
X228717258Y-72164024D01*
X228569424Y-72085005D01*
X228569422Y-72085004D01*
X228439841Y-71978659D01*
X228333496Y-71849078D01*
X228325386Y-71833906D01*
X228254476Y-71701242D01*
X228205813Y-71540823D01*
X228189383Y-71374000D01*
X228205813Y-71207177D01*
X228254476Y-71046758D01*
X228333495Y-70898924D01*
X228333496Y-70898922D01*
X228439841Y-70769341D01*
X228569422Y-70662996D01*
X228584594Y-70654886D01*
X228717258Y-70583976D01*
X228877677Y-70535313D01*
X229002696Y-70523000D01*
X229086304Y-70523000D01*
X229211323Y-70535313D01*
X229211323Y-70535313D01*
G37*
G36*
X215848500Y-69989000D02*
G01*
X214046500Y-69989000D01*
X214046500Y-68187000D01*
X215848500Y-68187000D01*
X215848500Y-69989000D01*
X215848500Y-69989000D01*
G37*
G36*
X221591323Y-67995313D02*
G01*
X221751742Y-68043976D01*
X221884406Y-68114886D01*
X221899578Y-68122996D01*
X222029159Y-68229341D01*
X222135504Y-68358922D01*
X222135505Y-68358924D01*
X222214524Y-68506758D01*
X222263187Y-68667177D01*
X222279617Y-68834000D01*
X222263187Y-69000823D01*
X222214524Y-69161242D01*
X222180308Y-69225255D01*
X222135504Y-69309078D01*
X222029159Y-69438659D01*
X221899578Y-69545004D01*
X221899576Y-69545005D01*
X221751742Y-69624024D01*
X221591323Y-69672687D01*
X221466304Y-69685000D01*
X221382696Y-69685000D01*
X221257677Y-69672687D01*
X221097258Y-69624024D01*
X220949424Y-69545005D01*
X220949422Y-69545004D01*
X220819841Y-69438659D01*
X220713496Y-69309078D01*
X220668692Y-69225255D01*
X220634476Y-69161242D01*
X220585813Y-69000823D01*
X220569383Y-68834000D01*
X220585813Y-68667177D01*
X220634476Y-68506758D01*
X220713495Y-68358924D01*
X220713496Y-68358922D01*
X220819841Y-68229341D01*
X220949422Y-68122996D01*
X220964594Y-68114886D01*
X221097258Y-68043976D01*
X221257677Y-67995313D01*
X221382696Y-67983000D01*
X221466304Y-67983000D01*
X221591323Y-67995313D01*
X221591323Y-67995313D01*
G37*
G36*
X229211323Y-67995313D02*
G01*
X229371742Y-68043976D01*
X229504406Y-68114886D01*
X229519578Y-68122996D01*
X229649159Y-68229341D01*
X229755504Y-68358922D01*
X229755505Y-68358924D01*
X229834524Y-68506758D01*
X229883187Y-68667177D01*
X229899617Y-68834000D01*
X229883187Y-69000823D01*
X229834524Y-69161242D01*
X229800308Y-69225255D01*
X229755504Y-69309078D01*
X229649159Y-69438659D01*
X229519578Y-69545004D01*
X229519576Y-69545005D01*
X229371742Y-69624024D01*
X229211323Y-69672687D01*
X229086304Y-69685000D01*
X229002696Y-69685000D01*
X228877677Y-69672687D01*
X228717258Y-69624024D01*
X228569424Y-69545005D01*
X228569422Y-69545004D01*
X228439841Y-69438659D01*
X228333496Y-69309078D01*
X228288692Y-69225255D01*
X228254476Y-69161242D01*
X228205813Y-69000823D01*
X228189383Y-68834000D01*
X228205813Y-68667177D01*
X228254476Y-68506758D01*
X228333495Y-68358924D01*
X228333496Y-68358922D01*
X228439841Y-68229341D01*
X228569422Y-68122996D01*
X228584594Y-68114886D01*
X228717258Y-68043976D01*
X228877677Y-67995313D01*
X229002696Y-67983000D01*
X229086304Y-67983000D01*
X229211323Y-67995313D01*
X229211323Y-67995313D01*
G37*
G36*
X239886142Y-67925242D02*
G01*
X240034101Y-67986529D01*
X240167255Y-68075499D01*
X240280501Y-68188745D01*
X240369471Y-68321899D01*
X240430758Y-68469858D01*
X240462000Y-68626925D01*
X240462000Y-68787075D01*
X240430758Y-68944142D01*
X240369471Y-69092101D01*
X240280501Y-69225255D01*
X240167255Y-69338501D01*
X240034101Y-69427471D01*
X239886142Y-69488758D01*
X239729075Y-69520000D01*
X239568925Y-69520000D01*
X239411858Y-69488758D01*
X239263899Y-69427471D01*
X239130745Y-69338501D01*
X239017499Y-69225255D01*
X238928529Y-69092101D01*
X238867242Y-68944142D01*
X238836000Y-68787075D01*
X238836000Y-68626925D01*
X238867242Y-68469858D01*
X238928529Y-68321899D01*
X239017499Y-68188745D01*
X239130745Y-68075499D01*
X239263899Y-67986529D01*
X239411858Y-67925242D01*
X239568925Y-67894000D01*
X239729075Y-67894000D01*
X239886142Y-67925242D01*
X239886142Y-67925242D01*
G37*
G36*
X237346142Y-67925242D02*
G01*
X237494101Y-67986529D01*
X237627255Y-68075499D01*
X237740501Y-68188745D01*
X237829471Y-68321899D01*
X237890758Y-68469858D01*
X237922000Y-68626925D01*
X237922000Y-68787075D01*
X237890758Y-68944142D01*
X237829471Y-69092101D01*
X237740501Y-69225255D01*
X237627255Y-69338501D01*
X237494101Y-69427471D01*
X237346142Y-69488758D01*
X237189075Y-69520000D01*
X237028925Y-69520000D01*
X236871858Y-69488758D01*
X236723899Y-69427471D01*
X236590745Y-69338501D01*
X236477499Y-69225255D01*
X236388529Y-69092101D01*
X236327242Y-68944142D01*
X236296000Y-68787075D01*
X236296000Y-68626925D01*
X236327242Y-68469858D01*
X236388529Y-68321899D01*
X236477499Y-68188745D01*
X236590745Y-68075499D01*
X236723899Y-67986529D01*
X236871858Y-67925242D01*
X237028925Y-67894000D01*
X237189075Y-67894000D01*
X237346142Y-67925242D01*
X237346142Y-67925242D01*
G37*
G36*
X221591323Y-65455313D02*
G01*
X221751742Y-65503976D01*
X221884406Y-65574886D01*
X221899578Y-65582996D01*
X222029159Y-65689341D01*
X222135504Y-65818922D01*
X222135505Y-65818924D01*
X222214524Y-65966758D01*
X222263187Y-66127177D01*
X222279617Y-66294000D01*
X222263187Y-66460823D01*
X222214524Y-66621242D01*
X222180308Y-66685255D01*
X222135504Y-66769078D01*
X222029159Y-66898659D01*
X221899578Y-67005004D01*
X221899576Y-67005005D01*
X221751742Y-67084024D01*
X221591323Y-67132687D01*
X221466304Y-67145000D01*
X221382696Y-67145000D01*
X221257677Y-67132687D01*
X221097258Y-67084024D01*
X220949424Y-67005005D01*
X220949422Y-67005004D01*
X220819841Y-66898659D01*
X220713496Y-66769078D01*
X220668692Y-66685255D01*
X220634476Y-66621242D01*
X220585813Y-66460823D01*
X220569383Y-66294000D01*
X220585813Y-66127177D01*
X220634476Y-65966758D01*
X220713495Y-65818924D01*
X220713496Y-65818922D01*
X220819841Y-65689341D01*
X220949422Y-65582996D01*
X220964594Y-65574886D01*
X221097258Y-65503976D01*
X221257677Y-65455313D01*
X221382696Y-65443000D01*
X221466304Y-65443000D01*
X221591323Y-65455313D01*
X221591323Y-65455313D01*
G37*
G36*
X229211323Y-65455313D02*
G01*
X229371742Y-65503976D01*
X229504406Y-65574886D01*
X229519578Y-65582996D01*
X229649159Y-65689341D01*
X229755504Y-65818922D01*
X229755505Y-65818924D01*
X229834524Y-65966758D01*
X229883187Y-66127177D01*
X229899617Y-66294000D01*
X229883187Y-66460823D01*
X229834524Y-66621242D01*
X229800308Y-66685255D01*
X229755504Y-66769078D01*
X229649159Y-66898659D01*
X229519578Y-67005004D01*
X229519576Y-67005005D01*
X229371742Y-67084024D01*
X229211323Y-67132687D01*
X229086304Y-67145000D01*
X229002696Y-67145000D01*
X228877677Y-67132687D01*
X228717258Y-67084024D01*
X228569424Y-67005005D01*
X228569422Y-67005004D01*
X228439841Y-66898659D01*
X228333496Y-66769078D01*
X228288692Y-66685255D01*
X228254476Y-66621242D01*
X228205813Y-66460823D01*
X228189383Y-66294000D01*
X228205813Y-66127177D01*
X228254476Y-65966758D01*
X228333495Y-65818924D01*
X228333496Y-65818922D01*
X228439841Y-65689341D01*
X228569422Y-65582996D01*
X228584594Y-65574886D01*
X228717258Y-65503976D01*
X228877677Y-65455313D01*
X229002696Y-65443000D01*
X229086304Y-65443000D01*
X229211323Y-65455313D01*
X229211323Y-65455313D01*
G37*
G36*
X237346142Y-65385242D02*
G01*
X237494101Y-65446529D01*
X237627255Y-65535499D01*
X237740501Y-65648745D01*
X237829471Y-65781899D01*
X237890758Y-65929858D01*
X237922000Y-66086925D01*
X237922000Y-66247075D01*
X237890758Y-66404142D01*
X237829471Y-66552101D01*
X237740501Y-66685255D01*
X237627255Y-66798501D01*
X237494101Y-66887471D01*
X237346142Y-66948758D01*
X237189075Y-66980000D01*
X237028925Y-66980000D01*
X236871858Y-66948758D01*
X236723899Y-66887471D01*
X236590745Y-66798501D01*
X236477499Y-66685255D01*
X236388529Y-66552101D01*
X236327242Y-66404142D01*
X236296000Y-66247075D01*
X236296000Y-66086925D01*
X236327242Y-65929858D01*
X236388529Y-65781899D01*
X236477499Y-65648745D01*
X236590745Y-65535499D01*
X236723899Y-65446529D01*
X236871858Y-65385242D01*
X237028925Y-65354000D01*
X237189075Y-65354000D01*
X237346142Y-65385242D01*
X237346142Y-65385242D01*
G37*
G36*
X239886142Y-65385242D02*
G01*
X240034101Y-65446529D01*
X240167255Y-65535499D01*
X240280501Y-65648745D01*
X240369471Y-65781899D01*
X240430758Y-65929858D01*
X240462000Y-66086925D01*
X240462000Y-66247075D01*
X240430758Y-66404142D01*
X240369471Y-66552101D01*
X240280501Y-66685255D01*
X240167255Y-66798501D01*
X240034101Y-66887471D01*
X239886142Y-66948758D01*
X239729075Y-66980000D01*
X239568925Y-66980000D01*
X239411858Y-66948758D01*
X239263899Y-66887471D01*
X239130745Y-66798501D01*
X239017499Y-66685255D01*
X238928529Y-66552101D01*
X238867242Y-66404142D01*
X238836000Y-66247075D01*
X238836000Y-66086925D01*
X238867242Y-65929858D01*
X238928529Y-65781899D01*
X239017499Y-65648745D01*
X239130745Y-65535499D01*
X239263899Y-65446529D01*
X239411858Y-65385242D01*
X239568925Y-65354000D01*
X239729075Y-65354000D01*
X239886142Y-65385242D01*
X239886142Y-65385242D01*
G37*
G36*
X221591323Y-62915313D02*
G01*
X221751742Y-62963976D01*
X221828694Y-63005108D01*
X221899578Y-63042996D01*
X222029159Y-63149341D01*
X222135504Y-63278922D01*
X222135505Y-63278924D01*
X222214524Y-63426758D01*
X222263187Y-63587177D01*
X222279617Y-63754000D01*
X222263187Y-63920823D01*
X222214524Y-64081242D01*
X222180308Y-64145255D01*
X222135504Y-64229078D01*
X222029159Y-64358659D01*
X221899578Y-64465004D01*
X221899576Y-64465005D01*
X221751742Y-64544024D01*
X221591323Y-64592687D01*
X221466304Y-64605000D01*
X221382696Y-64605000D01*
X221257677Y-64592687D01*
X221097258Y-64544024D01*
X220949424Y-64465005D01*
X220949422Y-64465004D01*
X220819841Y-64358659D01*
X220713496Y-64229078D01*
X220668692Y-64145255D01*
X220634476Y-64081242D01*
X220585813Y-63920823D01*
X220569383Y-63754000D01*
X220585813Y-63587177D01*
X220634476Y-63426758D01*
X220713495Y-63278924D01*
X220713496Y-63278922D01*
X220819841Y-63149341D01*
X220949422Y-63042996D01*
X221020306Y-63005108D01*
X221097258Y-62963976D01*
X221257677Y-62915313D01*
X221382696Y-62903000D01*
X221466304Y-62903000D01*
X221591323Y-62915313D01*
X221591323Y-62915313D01*
G37*
G36*
X229211323Y-62915313D02*
G01*
X229371742Y-62963976D01*
X229448694Y-63005108D01*
X229519578Y-63042996D01*
X229649159Y-63149341D01*
X229755504Y-63278922D01*
X229755505Y-63278924D01*
X229834524Y-63426758D01*
X229883187Y-63587177D01*
X229899617Y-63754000D01*
X229883187Y-63920823D01*
X229834524Y-64081242D01*
X229800308Y-64145255D01*
X229755504Y-64229078D01*
X229649159Y-64358659D01*
X229519578Y-64465004D01*
X229519576Y-64465005D01*
X229371742Y-64544024D01*
X229211323Y-64592687D01*
X229086304Y-64605000D01*
X229002696Y-64605000D01*
X228877677Y-64592687D01*
X228717258Y-64544024D01*
X228569424Y-64465005D01*
X228569422Y-64465004D01*
X228439841Y-64358659D01*
X228333496Y-64229078D01*
X228288692Y-64145255D01*
X228254476Y-64081242D01*
X228205813Y-63920823D01*
X228189383Y-63754000D01*
X228205813Y-63587177D01*
X228254476Y-63426758D01*
X228333495Y-63278924D01*
X228333496Y-63278922D01*
X228439841Y-63149341D01*
X228569422Y-63042996D01*
X228640306Y-63005108D01*
X228717258Y-62963976D01*
X228877677Y-62915313D01*
X229002696Y-62903000D01*
X229086304Y-62903000D01*
X229211323Y-62915313D01*
X229211323Y-62915313D01*
G37*
G36*
X237346142Y-62845242D02*
G01*
X237494101Y-62906529D01*
X237627255Y-62995499D01*
X237740501Y-63108745D01*
X237829471Y-63241899D01*
X237890758Y-63389858D01*
X237922000Y-63546925D01*
X237922000Y-63707075D01*
X237890758Y-63864142D01*
X237829471Y-64012101D01*
X237740501Y-64145255D01*
X237627255Y-64258501D01*
X237494101Y-64347471D01*
X237346142Y-64408758D01*
X237189075Y-64440000D01*
X237028925Y-64440000D01*
X236871858Y-64408758D01*
X236723899Y-64347471D01*
X236590745Y-64258501D01*
X236477499Y-64145255D01*
X236388529Y-64012101D01*
X236327242Y-63864142D01*
X236296000Y-63707075D01*
X236296000Y-63546925D01*
X236327242Y-63389858D01*
X236388529Y-63241899D01*
X236477499Y-63108745D01*
X236590745Y-62995499D01*
X236723899Y-62906529D01*
X236871858Y-62845242D01*
X237028925Y-62814000D01*
X237189075Y-62814000D01*
X237346142Y-62845242D01*
X237346142Y-62845242D01*
G37*
G36*
X239886142Y-62845242D02*
G01*
X240034101Y-62906529D01*
X240167255Y-62995499D01*
X240280501Y-63108745D01*
X240369471Y-63241899D01*
X240430758Y-63389858D01*
X240462000Y-63546925D01*
X240462000Y-63707075D01*
X240430758Y-63864142D01*
X240369471Y-64012101D01*
X240280501Y-64145255D01*
X240167255Y-64258501D01*
X240034101Y-64347471D01*
X239886142Y-64408758D01*
X239729075Y-64440000D01*
X239568925Y-64440000D01*
X239411858Y-64408758D01*
X239263899Y-64347471D01*
X239130745Y-64258501D01*
X239017499Y-64145255D01*
X238928529Y-64012101D01*
X238867242Y-63864142D01*
X238836000Y-63707075D01*
X238836000Y-63546925D01*
X238867242Y-63389858D01*
X238928529Y-63241899D01*
X239017499Y-63108745D01*
X239130745Y-62995499D01*
X239263899Y-62906529D01*
X239411858Y-62845242D01*
X239568925Y-62814000D01*
X239729075Y-62814000D01*
X239886142Y-62845242D01*
X239886142Y-62845242D01*
G37*
G36*
X215562142Y-61724281D02*
G01*
X215707914Y-61784662D01*
X215707916Y-61784663D01*
X215839108Y-61872322D01*
X215950678Y-61983892D01*
X216002598Y-62061597D01*
X216038338Y-62115086D01*
X216098719Y-62260858D01*
X216129500Y-62415607D01*
X216129500Y-62573393D01*
X216098719Y-62728142D01*
X216063155Y-62814000D01*
X216038337Y-62873916D01*
X215950678Y-63005108D01*
X215839108Y-63116678D01*
X215707916Y-63204337D01*
X215707915Y-63204338D01*
X215707914Y-63204338D01*
X215562142Y-63264719D01*
X215407393Y-63295500D01*
X215249607Y-63295500D01*
X215094858Y-63264719D01*
X214949086Y-63204338D01*
X214949085Y-63204338D01*
X214949084Y-63204337D01*
X214817892Y-63116678D01*
X214706322Y-63005108D01*
X214618663Y-62873916D01*
X214593845Y-62814000D01*
X214558281Y-62728142D01*
X214527500Y-62573393D01*
X214527500Y-62415607D01*
X214558281Y-62260858D01*
X214618662Y-62115086D01*
X214654402Y-62061597D01*
X214706322Y-61983892D01*
X214817892Y-61872322D01*
X214949084Y-61784663D01*
X214949086Y-61784662D01*
X215094858Y-61724281D01*
X215249607Y-61693500D01*
X215407393Y-61693500D01*
X215562142Y-61724281D01*
X215562142Y-61724281D01*
G37*
G36*
X210306228Y-60840203D02*
G01*
X210461100Y-60904353D01*
X210600481Y-60997485D01*
X210719015Y-61116019D01*
X210812147Y-61255400D01*
X210876297Y-61410272D01*
X210909000Y-61574684D01*
X210909000Y-61742316D01*
X210876297Y-61906728D01*
X210812147Y-62061600D01*
X210719015Y-62200981D01*
X210600481Y-62319515D01*
X210461100Y-62412647D01*
X210306228Y-62476797D01*
X210141816Y-62509500D01*
X209974184Y-62509500D01*
X209809772Y-62476797D01*
X209654900Y-62412647D01*
X209515519Y-62319515D01*
X209396985Y-62200981D01*
X209303853Y-62061600D01*
X209239703Y-61906728D01*
X209207000Y-61742316D01*
X209207000Y-61574684D01*
X209239703Y-61410272D01*
X209303853Y-61255400D01*
X209396985Y-61116019D01*
X209515519Y-60997485D01*
X209654900Y-60904353D01*
X209809772Y-60840203D01*
X209974184Y-60807500D01*
X210141816Y-60807500D01*
X210306228Y-60840203D01*
X210306228Y-60840203D01*
G37*
G36*
X207806228Y-60840203D02*
G01*
X207961100Y-60904353D01*
X208100481Y-60997485D01*
X208219015Y-61116019D01*
X208312147Y-61255400D01*
X208376297Y-61410272D01*
X208409000Y-61574684D01*
X208409000Y-61742316D01*
X208376297Y-61906728D01*
X208312147Y-62061600D01*
X208219015Y-62200981D01*
X208100481Y-62319515D01*
X207961100Y-62412647D01*
X207806228Y-62476797D01*
X207641816Y-62509500D01*
X207474184Y-62509500D01*
X207309772Y-62476797D01*
X207154900Y-62412647D01*
X207015519Y-62319515D01*
X206896985Y-62200981D01*
X206803853Y-62061600D01*
X206739703Y-61906728D01*
X206707000Y-61742316D01*
X206707000Y-61574684D01*
X206739703Y-61410272D01*
X206803853Y-61255400D01*
X206896985Y-61116019D01*
X207015519Y-60997485D01*
X207154900Y-60904353D01*
X207309772Y-60840203D01*
X207474184Y-60807500D01*
X207641816Y-60807500D01*
X207806228Y-60840203D01*
X207806228Y-60840203D01*
G37*
G36*
X229211323Y-60375313D02*
G01*
X229371742Y-60423976D01*
X229504406Y-60494886D01*
X229519578Y-60502996D01*
X229649159Y-60609341D01*
X229755504Y-60738922D01*
X229755505Y-60738924D01*
X229834524Y-60886758D01*
X229883187Y-61047177D01*
X229899617Y-61214000D01*
X229883187Y-61380823D01*
X229834524Y-61541242D01*
X229816648Y-61574685D01*
X229755504Y-61689078D01*
X229649159Y-61818659D01*
X229519578Y-61925004D01*
X229519576Y-61925005D01*
X229371742Y-62004024D01*
X229211323Y-62052687D01*
X229086304Y-62065000D01*
X229002696Y-62065000D01*
X228877677Y-62052687D01*
X228717258Y-62004024D01*
X228569424Y-61925005D01*
X228569422Y-61925004D01*
X228439841Y-61818659D01*
X228333496Y-61689078D01*
X228272352Y-61574685D01*
X228254476Y-61541242D01*
X228205813Y-61380823D01*
X228189383Y-61214000D01*
X228205813Y-61047177D01*
X228254476Y-60886758D01*
X228333495Y-60738924D01*
X228333496Y-60738922D01*
X228439841Y-60609341D01*
X228569422Y-60502996D01*
X228584594Y-60494886D01*
X228717258Y-60423976D01*
X228877677Y-60375313D01*
X229002696Y-60363000D01*
X229086304Y-60363000D01*
X229211323Y-60375313D01*
X229211323Y-60375313D01*
G37*
G36*
X221591323Y-60375313D02*
G01*
X221751742Y-60423976D01*
X221884406Y-60494886D01*
X221899578Y-60502996D01*
X222029159Y-60609341D01*
X222135504Y-60738922D01*
X222135505Y-60738924D01*
X222214524Y-60886758D01*
X222263187Y-61047177D01*
X222279617Y-61214000D01*
X222263187Y-61380823D01*
X222214524Y-61541242D01*
X222196648Y-61574685D01*
X222135504Y-61689078D01*
X222029159Y-61818659D01*
X221899578Y-61925004D01*
X221899576Y-61925005D01*
X221751742Y-62004024D01*
X221591323Y-62052687D01*
X221466304Y-62065000D01*
X221382696Y-62065000D01*
X221257677Y-62052687D01*
X221097258Y-62004024D01*
X220949424Y-61925005D01*
X220949422Y-61925004D01*
X220819841Y-61818659D01*
X220713496Y-61689078D01*
X220652352Y-61574685D01*
X220634476Y-61541242D01*
X220585813Y-61380823D01*
X220569383Y-61214000D01*
X220585813Y-61047177D01*
X220634476Y-60886758D01*
X220713495Y-60738924D01*
X220713496Y-60738922D01*
X220819841Y-60609341D01*
X220949422Y-60502996D01*
X220964594Y-60494886D01*
X221097258Y-60423976D01*
X221257677Y-60375313D01*
X221382696Y-60363000D01*
X221466304Y-60363000D01*
X221591323Y-60375313D01*
X221591323Y-60375313D01*
G37*
G36*
X237922000Y-61900000D02*
G01*
X236296000Y-61900000D01*
X236296000Y-60274000D01*
X237922000Y-60274000D01*
X237922000Y-61900000D01*
X237922000Y-61900000D01*
G37*
G36*
X239886142Y-60305242D02*
G01*
X240034101Y-60366529D01*
X240167255Y-60455499D01*
X240280501Y-60568745D01*
X240369471Y-60701899D01*
X240430758Y-60849858D01*
X240462000Y-61006925D01*
X240462000Y-61167075D01*
X240430758Y-61324142D01*
X240369471Y-61472101D01*
X240280501Y-61605255D01*
X240167255Y-61718501D01*
X240034101Y-61807471D01*
X239886142Y-61868758D01*
X239729075Y-61900000D01*
X239568925Y-61900000D01*
X239411858Y-61868758D01*
X239263899Y-61807471D01*
X239130745Y-61718501D01*
X239017499Y-61605255D01*
X238928529Y-61472101D01*
X238867242Y-61324142D01*
X238836000Y-61167075D01*
X238836000Y-61006925D01*
X238867242Y-60849858D01*
X238928529Y-60701899D01*
X239017499Y-60568745D01*
X239130745Y-60455499D01*
X239263899Y-60366529D01*
X239411858Y-60305242D01*
X239568925Y-60274000D01*
X239729075Y-60274000D01*
X239886142Y-60305242D01*
X239886142Y-60305242D01*
G37*
G36*
X229211323Y-57835313D02*
G01*
X229371742Y-57883976D01*
X229504406Y-57954886D01*
X229519578Y-57962996D01*
X229649159Y-58069341D01*
X229755504Y-58198922D01*
X229755505Y-58198924D01*
X229834524Y-58346758D01*
X229883187Y-58507177D01*
X229899617Y-58674000D01*
X229883187Y-58840823D01*
X229834524Y-59001242D01*
X229826101Y-59017000D01*
X229755504Y-59149078D01*
X229649159Y-59278659D01*
X229519578Y-59385004D01*
X229519576Y-59385005D01*
X229371742Y-59464024D01*
X229211323Y-59512687D01*
X229086304Y-59525000D01*
X229002696Y-59525000D01*
X228877677Y-59512687D01*
X228717258Y-59464024D01*
X228569424Y-59385005D01*
X228569422Y-59385004D01*
X228439841Y-59278659D01*
X228333496Y-59149078D01*
X228262899Y-59017000D01*
X228254476Y-59001242D01*
X228205813Y-58840823D01*
X228189383Y-58674000D01*
X228205813Y-58507177D01*
X228254476Y-58346758D01*
X228333495Y-58198924D01*
X228333496Y-58198922D01*
X228439841Y-58069341D01*
X228569422Y-57962996D01*
X228584594Y-57954886D01*
X228717258Y-57883976D01*
X228877677Y-57835313D01*
X229002696Y-57823000D01*
X229086304Y-57823000D01*
X229211323Y-57835313D01*
X229211323Y-57835313D01*
G37*
G36*
X221591323Y-57835313D02*
G01*
X221751742Y-57883976D01*
X221884406Y-57954886D01*
X221899578Y-57962996D01*
X222029159Y-58069341D01*
X222135504Y-58198922D01*
X222135505Y-58198924D01*
X222214524Y-58346758D01*
X222263187Y-58507177D01*
X222279617Y-58674000D01*
X222263187Y-58840823D01*
X222214524Y-59001242D01*
X222206101Y-59017000D01*
X222135504Y-59149078D01*
X222029159Y-59278659D01*
X221899578Y-59385004D01*
X221899576Y-59385005D01*
X221751742Y-59464024D01*
X221591323Y-59512687D01*
X221466304Y-59525000D01*
X221382696Y-59525000D01*
X221257677Y-59512687D01*
X221097258Y-59464024D01*
X220949424Y-59385005D01*
X220949422Y-59385004D01*
X220819841Y-59278659D01*
X220713496Y-59149078D01*
X220642899Y-59017000D01*
X220634476Y-59001242D01*
X220585813Y-58840823D01*
X220569383Y-58674000D01*
X220585813Y-58507177D01*
X220634476Y-58346758D01*
X220713495Y-58198924D01*
X220713496Y-58198922D01*
X220819841Y-58069341D01*
X220949422Y-57962996D01*
X220964594Y-57954886D01*
X221097258Y-57883976D01*
X221257677Y-57835313D01*
X221382696Y-57823000D01*
X221466304Y-57823000D01*
X221591323Y-57835313D01*
X221591323Y-57835313D01*
G37*
G36*
X207996728Y-57347703D02*
G01*
X208151600Y-57411853D01*
X208290981Y-57504985D01*
X208409515Y-57623519D01*
X208502647Y-57762900D01*
X208566797Y-57917772D01*
X208599500Y-58082184D01*
X208599500Y-58249816D01*
X208566797Y-58414228D01*
X208502647Y-58569100D01*
X208409515Y-58708481D01*
X208290981Y-58827015D01*
X208151600Y-58920147D01*
X207996728Y-58984297D01*
X207832316Y-59017000D01*
X207664684Y-59017000D01*
X207500272Y-58984297D01*
X207345400Y-58920147D01*
X207206019Y-58827015D01*
X207087485Y-58708481D01*
X206994353Y-58569100D01*
X206930203Y-58414228D01*
X206897500Y-58249816D01*
X206897500Y-58082184D01*
X206930203Y-57917772D01*
X206994353Y-57762900D01*
X207087485Y-57623519D01*
X207206019Y-57504985D01*
X207345400Y-57411853D01*
X207500272Y-57347703D01*
X207664684Y-57315000D01*
X207832316Y-57315000D01*
X207996728Y-57347703D01*
X207996728Y-57347703D01*
G37*
G36*
X210496728Y-57347703D02*
G01*
X210651600Y-57411853D01*
X210790981Y-57504985D01*
X210909515Y-57623519D01*
X211002647Y-57762900D01*
X211066797Y-57917772D01*
X211099500Y-58082184D01*
X211099500Y-58249816D01*
X211066797Y-58414228D01*
X211002647Y-58569100D01*
X210909515Y-58708481D01*
X210790981Y-58827015D01*
X210651600Y-58920147D01*
X210496728Y-58984297D01*
X210332316Y-59017000D01*
X210164684Y-59017000D01*
X210000272Y-58984297D01*
X209845400Y-58920147D01*
X209706019Y-58827015D01*
X209587485Y-58708481D01*
X209494353Y-58569100D01*
X209430203Y-58414228D01*
X209397500Y-58249816D01*
X209397500Y-58082184D01*
X209430203Y-57917772D01*
X209494353Y-57762900D01*
X209587485Y-57623519D01*
X209706019Y-57504985D01*
X209845400Y-57411853D01*
X210000272Y-57347703D01*
X210164684Y-57315000D01*
X210332316Y-57315000D01*
X210496728Y-57347703D01*
X210496728Y-57347703D01*
G37*
G36*
X215562142Y-56824281D02*
G01*
X215707914Y-56884662D01*
X215707916Y-56884663D01*
X215839108Y-56972322D01*
X215950678Y-57083892D01*
X216038337Y-57215084D01*
X216038338Y-57215086D01*
X216098719Y-57360858D01*
X216129500Y-57515607D01*
X216129500Y-57673393D01*
X216098719Y-57828142D01*
X216061593Y-57917771D01*
X216038337Y-57973916D01*
X215950678Y-58105108D01*
X215839108Y-58216678D01*
X215707916Y-58304337D01*
X215707915Y-58304338D01*
X215707914Y-58304338D01*
X215562142Y-58364719D01*
X215407393Y-58395500D01*
X215249607Y-58395500D01*
X215094858Y-58364719D01*
X214949086Y-58304338D01*
X214949085Y-58304338D01*
X214949084Y-58304337D01*
X214817892Y-58216678D01*
X214706322Y-58105108D01*
X214618663Y-57973916D01*
X214595407Y-57917771D01*
X214558281Y-57828142D01*
X214527500Y-57673393D01*
X214527500Y-57515607D01*
X214558281Y-57360858D01*
X214618662Y-57215086D01*
X214618663Y-57215084D01*
X214706322Y-57083892D01*
X214817892Y-56972322D01*
X214949084Y-56884663D01*
X214949086Y-56884662D01*
X215094858Y-56824281D01*
X215249607Y-56793500D01*
X215407393Y-56793500D01*
X215562142Y-56824281D01*
X215562142Y-56824281D01*
G37*
G36*
X229211323Y-55295313D02*
G01*
X229371742Y-55343976D01*
X229504406Y-55414886D01*
X229519578Y-55422996D01*
X229649159Y-55529341D01*
X229755504Y-55658922D01*
X229755505Y-55658924D01*
X229834524Y-55806758D01*
X229883187Y-55967177D01*
X229899617Y-56134000D01*
X229883187Y-56300823D01*
X229834524Y-56461242D01*
X229763614Y-56593906D01*
X229755504Y-56609078D01*
X229649159Y-56738659D01*
X229519578Y-56845004D01*
X229519576Y-56845005D01*
X229371742Y-56924024D01*
X229211323Y-56972687D01*
X229086304Y-56985000D01*
X229002696Y-56985000D01*
X228877677Y-56972687D01*
X228717258Y-56924024D01*
X228569424Y-56845005D01*
X228569422Y-56845004D01*
X228439841Y-56738659D01*
X228333496Y-56609078D01*
X228325386Y-56593906D01*
X228254476Y-56461242D01*
X228205813Y-56300823D01*
X228189383Y-56134000D01*
X228205813Y-55967177D01*
X228254476Y-55806758D01*
X228333495Y-55658924D01*
X228333496Y-55658922D01*
X228439841Y-55529341D01*
X228569422Y-55422996D01*
X228584594Y-55414886D01*
X228717258Y-55343976D01*
X228877677Y-55295313D01*
X229002696Y-55283000D01*
X229086304Y-55283000D01*
X229211323Y-55295313D01*
X229211323Y-55295313D01*
G37*
G36*
X221591323Y-55295313D02*
G01*
X221751742Y-55343976D01*
X221884406Y-55414886D01*
X221899578Y-55422996D01*
X222029159Y-55529341D01*
X222135504Y-55658922D01*
X222135505Y-55658924D01*
X222214524Y-55806758D01*
X222263187Y-55967177D01*
X222279617Y-56134000D01*
X222263187Y-56300823D01*
X222214524Y-56461242D01*
X222143614Y-56593906D01*
X222135504Y-56609078D01*
X222029159Y-56738659D01*
X221899578Y-56845004D01*
X221899576Y-56845005D01*
X221751742Y-56924024D01*
X221591323Y-56972687D01*
X221466304Y-56985000D01*
X221382696Y-56985000D01*
X221257677Y-56972687D01*
X221097258Y-56924024D01*
X220949424Y-56845005D01*
X220949422Y-56845004D01*
X220819841Y-56738659D01*
X220713496Y-56609078D01*
X220705386Y-56593906D01*
X220634476Y-56461242D01*
X220585813Y-56300823D01*
X220569383Y-56134000D01*
X220585813Y-55967177D01*
X220634476Y-55806758D01*
X220713495Y-55658924D01*
X220713496Y-55658922D01*
X220819841Y-55529341D01*
X220949422Y-55422996D01*
X220964594Y-55414886D01*
X221097258Y-55343976D01*
X221257677Y-55295313D01*
X221382696Y-55283000D01*
X221466304Y-55283000D01*
X221591323Y-55295313D01*
X221591323Y-55295313D01*
G37*
G36*
X241103728Y-53243703D02*
G01*
X241258600Y-53307853D01*
X241397981Y-53400985D01*
X241516515Y-53519519D01*
X241609647Y-53658900D01*
X241673797Y-53813772D01*
X241706500Y-53978184D01*
X241706500Y-54145816D01*
X241673797Y-54310228D01*
X241609647Y-54465100D01*
X241516515Y-54604481D01*
X241397981Y-54723015D01*
X241258600Y-54816147D01*
X241103728Y-54880297D01*
X240939316Y-54913000D01*
X240771684Y-54913000D01*
X240607272Y-54880297D01*
X240452400Y-54816147D01*
X240313019Y-54723015D01*
X240194485Y-54604481D01*
X240101353Y-54465100D01*
X240037203Y-54310228D01*
X240004500Y-54145816D01*
X240004500Y-53978184D01*
X240037203Y-53813772D01*
X240101353Y-53658900D01*
X240194485Y-53519519D01*
X240313019Y-53400985D01*
X240452400Y-53307853D01*
X240607272Y-53243703D01*
X240771684Y-53211000D01*
X240939316Y-53211000D01*
X241103728Y-53243703D01*
X241103728Y-53243703D01*
G37*
G36*
X221591323Y-52755313D02*
G01*
X221751742Y-52803976D01*
X221884406Y-52874886D01*
X221899578Y-52882996D01*
X222029159Y-52989341D01*
X222135504Y-53118922D01*
X222135505Y-53118924D01*
X222214524Y-53266758D01*
X222263187Y-53427177D01*
X222279617Y-53594000D01*
X222263187Y-53760823D01*
X222214524Y-53921242D01*
X222184087Y-53978185D01*
X222135504Y-54069078D01*
X222029159Y-54198659D01*
X221899578Y-54305004D01*
X221889803Y-54310229D01*
X221751742Y-54384024D01*
X221591323Y-54432687D01*
X221466304Y-54445000D01*
X221382696Y-54445000D01*
X221257677Y-54432687D01*
X221097258Y-54384024D01*
X220959197Y-54310229D01*
X220949422Y-54305004D01*
X220819841Y-54198659D01*
X220713496Y-54069078D01*
X220664913Y-53978185D01*
X220634476Y-53921242D01*
X220585813Y-53760823D01*
X220569383Y-53594000D01*
X220585813Y-53427177D01*
X220634476Y-53266758D01*
X220713495Y-53118924D01*
X220713496Y-53118922D01*
X220819841Y-52989341D01*
X220949422Y-52882996D01*
X220964594Y-52874886D01*
X221097258Y-52803976D01*
X221257677Y-52755313D01*
X221382696Y-52743000D01*
X221466304Y-52743000D01*
X221591323Y-52755313D01*
X221591323Y-52755313D01*
G37*
G36*
X229211323Y-52755313D02*
G01*
X229371742Y-52803976D01*
X229504406Y-52874886D01*
X229519578Y-52882996D01*
X229649159Y-52989341D01*
X229755504Y-53118922D01*
X229755505Y-53118924D01*
X229834524Y-53266758D01*
X229883187Y-53427177D01*
X229899617Y-53594000D01*
X229883187Y-53760823D01*
X229834524Y-53921242D01*
X229804087Y-53978185D01*
X229755504Y-54069078D01*
X229649159Y-54198659D01*
X229519578Y-54305004D01*
X229509803Y-54310229D01*
X229371742Y-54384024D01*
X229211323Y-54432687D01*
X229086304Y-54445000D01*
X229002696Y-54445000D01*
X228877677Y-54432687D01*
X228717258Y-54384024D01*
X228579197Y-54310229D01*
X228569422Y-54305004D01*
X228439841Y-54198659D01*
X228333496Y-54069078D01*
X228284913Y-53978185D01*
X228254476Y-53921242D01*
X228205813Y-53760823D01*
X228189383Y-53594000D01*
X228205813Y-53427177D01*
X228254476Y-53266758D01*
X228333495Y-53118924D01*
X228333496Y-53118922D01*
X228439841Y-52989341D01*
X228569422Y-52882996D01*
X228584594Y-52874886D01*
X228717258Y-52803976D01*
X228877677Y-52755313D01*
X229002696Y-52743000D01*
X229086304Y-52743000D01*
X229211323Y-52755313D01*
X229211323Y-52755313D01*
G37*
G36*
X247852500Y-53098000D02*
G01*
X246050500Y-53098000D01*
X246050500Y-51296000D01*
X247852500Y-51296000D01*
X247852500Y-53098000D01*
X247852500Y-53098000D01*
G37*
G36*
X233438000Y-52780500D02*
G01*
X231636000Y-52780500D01*
X231636000Y-50978500D01*
X233438000Y-50978500D01*
X233438000Y-52780500D01*
X233438000Y-52780500D01*
G37*
G36*
X241706500Y-52413000D02*
G01*
X240004500Y-52413000D01*
X240004500Y-50711000D01*
X241706500Y-50711000D01*
X241706500Y-52413000D01*
X241706500Y-52413000D01*
G37*
G36*
X217407443Y-50159519D02*
G01*
X217473627Y-50166037D01*
X217643466Y-50217557D01*
X217799991Y-50301222D01*
X217835729Y-50330552D01*
X217937186Y-50413814D01*
X218020448Y-50515271D01*
X218049778Y-50551009D01*
X218133443Y-50707534D01*
X218184963Y-50877373D01*
X218202359Y-51054000D01*
X218184963Y-51230627D01*
X218133443Y-51400466D01*
X218049778Y-51556991D01*
X218020448Y-51592729D01*
X217937186Y-51694186D01*
X217835729Y-51777448D01*
X217799991Y-51806778D01*
X217643466Y-51890443D01*
X217473627Y-51941963D01*
X217407442Y-51948482D01*
X217341260Y-51955000D01*
X217252740Y-51955000D01*
X217186558Y-51948482D01*
X217120373Y-51941963D01*
X216950534Y-51890443D01*
X216794009Y-51806778D01*
X216758271Y-51777448D01*
X216656814Y-51694186D01*
X216573552Y-51592729D01*
X216544222Y-51556991D01*
X216460557Y-51400466D01*
X216409037Y-51230627D01*
X216391641Y-51054000D01*
X216409037Y-50877373D01*
X216460557Y-50707534D01*
X216544222Y-50551009D01*
X216573552Y-50515271D01*
X216656814Y-50413814D01*
X216758271Y-50330552D01*
X216794009Y-50301222D01*
X216950534Y-50217557D01*
X217120373Y-50166037D01*
X217186558Y-50159518D01*
X217252740Y-50153000D01*
X217341260Y-50153000D01*
X217407443Y-50159519D01*
X217407443Y-50159519D01*
G37*
G36*
X221591323Y-50215313D02*
G01*
X221751742Y-50263976D01*
X221813873Y-50297186D01*
X221899578Y-50342996D01*
X222029159Y-50449341D01*
X222135504Y-50578922D01*
X222135505Y-50578924D01*
X222214524Y-50726758D01*
X222263187Y-50887177D01*
X222279617Y-51054000D01*
X222263187Y-51220823D01*
X222214524Y-51381242D01*
X222204247Y-51400468D01*
X222135504Y-51529078D01*
X222029159Y-51658659D01*
X221899578Y-51765004D01*
X221899576Y-51765005D01*
X221751742Y-51844024D01*
X221591323Y-51892687D01*
X221466304Y-51905000D01*
X221382696Y-51905000D01*
X221257677Y-51892687D01*
X221097258Y-51844024D01*
X220949424Y-51765005D01*
X220949422Y-51765004D01*
X220819841Y-51658659D01*
X220713496Y-51529078D01*
X220644753Y-51400468D01*
X220634476Y-51381242D01*
X220585813Y-51220823D01*
X220569383Y-51054000D01*
X220585813Y-50887177D01*
X220634476Y-50726758D01*
X220713495Y-50578924D01*
X220713496Y-50578922D01*
X220819841Y-50449341D01*
X220949422Y-50342996D01*
X221035127Y-50297186D01*
X221097258Y-50263976D01*
X221257677Y-50215313D01*
X221382696Y-50203000D01*
X221466304Y-50203000D01*
X221591323Y-50215313D01*
X221591323Y-50215313D01*
G37*
G36*
X229211323Y-50215313D02*
G01*
X229371742Y-50263976D01*
X229433873Y-50297186D01*
X229519578Y-50342996D01*
X229649159Y-50449341D01*
X229755504Y-50578922D01*
X229755505Y-50578924D01*
X229834524Y-50726758D01*
X229883187Y-50887177D01*
X229899617Y-51054000D01*
X229883187Y-51220823D01*
X229834524Y-51381242D01*
X229824247Y-51400468D01*
X229755504Y-51529078D01*
X229649159Y-51658659D01*
X229519578Y-51765004D01*
X229519576Y-51765005D01*
X229371742Y-51844024D01*
X229211323Y-51892687D01*
X229086304Y-51905000D01*
X229002696Y-51905000D01*
X228877677Y-51892687D01*
X228717258Y-51844024D01*
X228569424Y-51765005D01*
X228569422Y-51765004D01*
X228439841Y-51658659D01*
X228333496Y-51529078D01*
X228264753Y-51400468D01*
X228254476Y-51381242D01*
X228205813Y-51220823D01*
X228189383Y-51054000D01*
X228205813Y-50887177D01*
X228254476Y-50726758D01*
X228333495Y-50578924D01*
X228333496Y-50578922D01*
X228439841Y-50449341D01*
X228569422Y-50342996D01*
X228655127Y-50297186D01*
X228717258Y-50263976D01*
X228877677Y-50215313D01*
X229002696Y-50203000D01*
X229086304Y-50203000D01*
X229211323Y-50215313D01*
X229211323Y-50215313D01*
G37*
G36*
X247061942Y-48762518D02*
G01*
X247128127Y-48769037D01*
X247297966Y-48820557D01*
X247454491Y-48904222D01*
X247490229Y-48933552D01*
X247591686Y-49016814D01*
X247674948Y-49118271D01*
X247704278Y-49154009D01*
X247787943Y-49310534D01*
X247839463Y-49480373D01*
X247856859Y-49657000D01*
X247839463Y-49833627D01*
X247787943Y-50003466D01*
X247704278Y-50159991D01*
X247699316Y-50166037D01*
X247591686Y-50297186D01*
X247490229Y-50380448D01*
X247454491Y-50409778D01*
X247297966Y-50493443D01*
X247128127Y-50544963D01*
X247061942Y-50551482D01*
X246995760Y-50558000D01*
X246907240Y-50558000D01*
X246841058Y-50551482D01*
X246774873Y-50544963D01*
X246605034Y-50493443D01*
X246448509Y-50409778D01*
X246412771Y-50380448D01*
X246311314Y-50297186D01*
X246203684Y-50166037D01*
X246198722Y-50159991D01*
X246115057Y-50003466D01*
X246063537Y-49833627D01*
X246046141Y-49657000D01*
X246063537Y-49480373D01*
X246115057Y-49310534D01*
X246198722Y-49154009D01*
X246228052Y-49118271D01*
X246311314Y-49016814D01*
X246412771Y-48933552D01*
X246448509Y-48904222D01*
X246605034Y-48820557D01*
X246774873Y-48769037D01*
X246841057Y-48762519D01*
X246907240Y-48756000D01*
X246995760Y-48756000D01*
X247061942Y-48762518D01*
X247061942Y-48762518D01*
G37*
G36*
X232647443Y-48445019D02*
G01*
X232713627Y-48451537D01*
X232883466Y-48503057D01*
X233039991Y-48586722D01*
X233075729Y-48616052D01*
X233177186Y-48699314D01*
X233223706Y-48756000D01*
X233289778Y-48836509D01*
X233289779Y-48836511D01*
X233371329Y-48989078D01*
X233373443Y-48993034D01*
X233424963Y-49162873D01*
X233442359Y-49339500D01*
X233424963Y-49516127D01*
X233373443Y-49685966D01*
X233289778Y-49842491D01*
X233260448Y-49878229D01*
X233177186Y-49979686D01*
X233075729Y-50062948D01*
X233039991Y-50092278D01*
X232883466Y-50175943D01*
X232713627Y-50227463D01*
X232647442Y-50233982D01*
X232581260Y-50240500D01*
X232492740Y-50240500D01*
X232426558Y-50233982D01*
X232360373Y-50227463D01*
X232190534Y-50175943D01*
X232034009Y-50092278D01*
X231998271Y-50062948D01*
X231896814Y-49979686D01*
X231813552Y-49878229D01*
X231784222Y-49842491D01*
X231700557Y-49685966D01*
X231649037Y-49516127D01*
X231631641Y-49339500D01*
X231649037Y-49162873D01*
X231700557Y-48993034D01*
X231702672Y-48989078D01*
X231784221Y-48836511D01*
X231784222Y-48836509D01*
X231850294Y-48756000D01*
X231896814Y-48699314D01*
X231998271Y-48616052D01*
X232034009Y-48586722D01*
X232190534Y-48503057D01*
X232360373Y-48451537D01*
X232426558Y-48445018D01*
X232492740Y-48438500D01*
X232581260Y-48438500D01*
X232647443Y-48445019D01*
X232647443Y-48445019D01*
G37*
G36*
X213372000Y-49415000D02*
G01*
X211570000Y-49415000D01*
X211570000Y-47613000D01*
X213372000Y-47613000D01*
X213372000Y-49415000D01*
X213372000Y-49415000D01*
G37*
G36*
X218198000Y-49415000D02*
G01*
X216396000Y-49415000D01*
X216396000Y-47613000D01*
X218198000Y-47613000D01*
X218198000Y-49415000D01*
X218198000Y-49415000D01*
G37*
G36*
X229211323Y-47675313D02*
G01*
X229371742Y-47723976D01*
X229433873Y-47757186D01*
X229519578Y-47802996D01*
X229649159Y-47909341D01*
X229755504Y-48038922D01*
X229755505Y-48038924D01*
X229834524Y-48186758D01*
X229883187Y-48347177D01*
X229899617Y-48514000D01*
X229883187Y-48680823D01*
X229877577Y-48699315D01*
X229840799Y-48820558D01*
X229834524Y-48841242D01*
X229800861Y-48904221D01*
X229755504Y-48989078D01*
X229649159Y-49118659D01*
X229519578Y-49225004D01*
X229519576Y-49225005D01*
X229371742Y-49304024D01*
X229211323Y-49352687D01*
X229086304Y-49365000D01*
X229002696Y-49365000D01*
X228877677Y-49352687D01*
X228717258Y-49304024D01*
X228569424Y-49225005D01*
X228569422Y-49225004D01*
X228439841Y-49118659D01*
X228333496Y-48989078D01*
X228288139Y-48904221D01*
X228254476Y-48841242D01*
X228248202Y-48820558D01*
X228211423Y-48699315D01*
X228205813Y-48680823D01*
X228189383Y-48514000D01*
X228205813Y-48347177D01*
X228254476Y-48186758D01*
X228333495Y-48038924D01*
X228333496Y-48038922D01*
X228439841Y-47909341D01*
X228569422Y-47802996D01*
X228655127Y-47757186D01*
X228717258Y-47723976D01*
X228877677Y-47675313D01*
X229002696Y-47663000D01*
X229086304Y-47663000D01*
X229211323Y-47675313D01*
X229211323Y-47675313D01*
G37*
G36*
X221591323Y-47675313D02*
G01*
X221751742Y-47723976D01*
X221813873Y-47757186D01*
X221899578Y-47802996D01*
X222029159Y-47909341D01*
X222135504Y-48038922D01*
X222135505Y-48038924D01*
X222214524Y-48186758D01*
X222263187Y-48347177D01*
X222279617Y-48514000D01*
X222263187Y-48680823D01*
X222257577Y-48699315D01*
X222220799Y-48820558D01*
X222214524Y-48841242D01*
X222180861Y-48904221D01*
X222135504Y-48989078D01*
X222029159Y-49118659D01*
X221899578Y-49225004D01*
X221899576Y-49225005D01*
X221751742Y-49304024D01*
X221591323Y-49352687D01*
X221466304Y-49365000D01*
X221382696Y-49365000D01*
X221257677Y-49352687D01*
X221097258Y-49304024D01*
X220949424Y-49225005D01*
X220949422Y-49225004D01*
X220819841Y-49118659D01*
X220713496Y-48989078D01*
X220668139Y-48904221D01*
X220634476Y-48841242D01*
X220628202Y-48820558D01*
X220591423Y-48699315D01*
X220585813Y-48680823D01*
X220569383Y-48514000D01*
X220585813Y-48347177D01*
X220634476Y-48186758D01*
X220713495Y-48038924D01*
X220713496Y-48038922D01*
X220819841Y-47909341D01*
X220949422Y-47802996D01*
X221035127Y-47757186D01*
X221097258Y-47723976D01*
X221257677Y-47675313D01*
X221382696Y-47663000D01*
X221466304Y-47663000D01*
X221591323Y-47675313D01*
X221591323Y-47675313D01*
G37*
G36*
X247061943Y-46222519D02*
G01*
X247128127Y-46229037D01*
X247297966Y-46280557D01*
X247454491Y-46364222D01*
X247490229Y-46393552D01*
X247591686Y-46476814D01*
X247674948Y-46578271D01*
X247704278Y-46614009D01*
X247787943Y-46770534D01*
X247839463Y-46940373D01*
X247856859Y-47117000D01*
X247839463Y-47293627D01*
X247787943Y-47463466D01*
X247704278Y-47619991D01*
X247691187Y-47635942D01*
X247591686Y-47757186D01*
X247490229Y-47840448D01*
X247454491Y-47869778D01*
X247297966Y-47953443D01*
X247128127Y-48004963D01*
X247061942Y-48011482D01*
X246995760Y-48018000D01*
X246907240Y-48018000D01*
X246841058Y-48011482D01*
X246774873Y-48004963D01*
X246605034Y-47953443D01*
X246448509Y-47869778D01*
X246412771Y-47840448D01*
X246311314Y-47757186D01*
X246211813Y-47635942D01*
X246198722Y-47619991D01*
X246115057Y-47463466D01*
X246063537Y-47293627D01*
X246046141Y-47117000D01*
X246063537Y-46940373D01*
X246115057Y-46770534D01*
X246198722Y-46614009D01*
X246228052Y-46578271D01*
X246311314Y-46476814D01*
X246412771Y-46393552D01*
X246448509Y-46364222D01*
X246605034Y-46280557D01*
X246774873Y-46229037D01*
X246841057Y-46222519D01*
X246907240Y-46216000D01*
X246995760Y-46216000D01*
X247061943Y-46222519D01*
X247061943Y-46222519D01*
G37*
G36*
X232647442Y-45905018D02*
G01*
X232713627Y-45911537D01*
X232883466Y-45963057D01*
X233039991Y-46046722D01*
X233075729Y-46076052D01*
X233177186Y-46159314D01*
X233223706Y-46216000D01*
X233289778Y-46296509D01*
X233289779Y-46296511D01*
X233371329Y-46449078D01*
X233373443Y-46453034D01*
X233424963Y-46622873D01*
X233442359Y-46799500D01*
X233424963Y-46976127D01*
X233373443Y-47145966D01*
X233289778Y-47302491D01*
X233260448Y-47338229D01*
X233177186Y-47439686D01*
X233075729Y-47522948D01*
X233039991Y-47552278D01*
X232883466Y-47635943D01*
X232713627Y-47687463D01*
X232647442Y-47693982D01*
X232581260Y-47700500D01*
X232492740Y-47700500D01*
X232426558Y-47693982D01*
X232360373Y-47687463D01*
X232190534Y-47635943D01*
X232034009Y-47552278D01*
X231998271Y-47522948D01*
X231896814Y-47439686D01*
X231813552Y-47338229D01*
X231784222Y-47302491D01*
X231700557Y-47145966D01*
X231649037Y-46976127D01*
X231631641Y-46799500D01*
X231649037Y-46622873D01*
X231700557Y-46453034D01*
X231702672Y-46449078D01*
X231784221Y-46296511D01*
X231784222Y-46296509D01*
X231850294Y-46216000D01*
X231896814Y-46159314D01*
X231998271Y-46076052D01*
X232034009Y-46046722D01*
X232190534Y-45963057D01*
X232360373Y-45911537D01*
X232426557Y-45905019D01*
X232492740Y-45898500D01*
X232581260Y-45898500D01*
X232647442Y-45905018D01*
X232647442Y-45905018D01*
G37*
G36*
X241389000Y-47523500D02*
G01*
X239687000Y-47523500D01*
X239687000Y-45821500D01*
X241389000Y-45821500D01*
X241389000Y-47523500D01*
X241389000Y-47523500D01*
G37*
G36*
X212581443Y-45079519D02*
G01*
X212647627Y-45086037D01*
X212817466Y-45137557D01*
X212973991Y-45221222D01*
X213009729Y-45250552D01*
X213111186Y-45333814D01*
X213194448Y-45435271D01*
X213223778Y-45471009D01*
X213307443Y-45627534D01*
X213358963Y-45797373D01*
X213376359Y-45974000D01*
X213358963Y-46150627D01*
X213307443Y-46320466D01*
X213223778Y-46476991D01*
X213194448Y-46512729D01*
X213111186Y-46614186D01*
X213009729Y-46697448D01*
X212973991Y-46726778D01*
X212817466Y-46810443D01*
X212647627Y-46861963D01*
X212581442Y-46868482D01*
X212515260Y-46875000D01*
X212426740Y-46875000D01*
X212360558Y-46868482D01*
X212294373Y-46861963D01*
X212124534Y-46810443D01*
X211968009Y-46726778D01*
X211932271Y-46697448D01*
X211830814Y-46614186D01*
X211747552Y-46512729D01*
X211718222Y-46476991D01*
X211634557Y-46320466D01*
X211583037Y-46150627D01*
X211565641Y-45974000D01*
X211583037Y-45797373D01*
X211634557Y-45627534D01*
X211718222Y-45471009D01*
X211747552Y-45435271D01*
X211830814Y-45333814D01*
X211932271Y-45250552D01*
X211968009Y-45221222D01*
X212124534Y-45137557D01*
X212294373Y-45086037D01*
X212360557Y-45079519D01*
X212426740Y-45073000D01*
X212515260Y-45073000D01*
X212581443Y-45079519D01*
X212581443Y-45079519D01*
G37*
G36*
X221591323Y-45135313D02*
G01*
X221751742Y-45183976D01*
X221821422Y-45221221D01*
X221899578Y-45262996D01*
X222029159Y-45369341D01*
X222135504Y-45498922D01*
X222135505Y-45498924D01*
X222214524Y-45646758D01*
X222263187Y-45807177D01*
X222279617Y-45974000D01*
X222263187Y-46140823D01*
X222257577Y-46159315D01*
X222220799Y-46280558D01*
X222214524Y-46301242D01*
X222204247Y-46320468D01*
X222135504Y-46449078D01*
X222029159Y-46578659D01*
X221899578Y-46685004D01*
X221899576Y-46685005D01*
X221751742Y-46764024D01*
X221591323Y-46812687D01*
X221466304Y-46825000D01*
X221382696Y-46825000D01*
X221257677Y-46812687D01*
X221097258Y-46764024D01*
X220949424Y-46685005D01*
X220949422Y-46685004D01*
X220819841Y-46578659D01*
X220713496Y-46449078D01*
X220644753Y-46320468D01*
X220634476Y-46301242D01*
X220628202Y-46280558D01*
X220591423Y-46159315D01*
X220585813Y-46140823D01*
X220569383Y-45974000D01*
X220585813Y-45807177D01*
X220634476Y-45646758D01*
X220713495Y-45498924D01*
X220713496Y-45498922D01*
X220819841Y-45369341D01*
X220949422Y-45262996D01*
X221027578Y-45221221D01*
X221097258Y-45183976D01*
X221257677Y-45135313D01*
X221382696Y-45123000D01*
X221466304Y-45123000D01*
X221591323Y-45135313D01*
X221591323Y-45135313D01*
G37*
G36*
X229211323Y-45135313D02*
G01*
X229371742Y-45183976D01*
X229441422Y-45221221D01*
X229519578Y-45262996D01*
X229649159Y-45369341D01*
X229755504Y-45498922D01*
X229755505Y-45498924D01*
X229834524Y-45646758D01*
X229883187Y-45807177D01*
X229899617Y-45974000D01*
X229883187Y-46140823D01*
X229877577Y-46159315D01*
X229840799Y-46280558D01*
X229834524Y-46301242D01*
X229824247Y-46320468D01*
X229755504Y-46449078D01*
X229649159Y-46578659D01*
X229519578Y-46685004D01*
X229519576Y-46685005D01*
X229371742Y-46764024D01*
X229211323Y-46812687D01*
X229086304Y-46825000D01*
X229002696Y-46825000D01*
X228877677Y-46812687D01*
X228717258Y-46764024D01*
X228569424Y-46685005D01*
X228569422Y-46685004D01*
X228439841Y-46578659D01*
X228333496Y-46449078D01*
X228264753Y-46320468D01*
X228254476Y-46301242D01*
X228248202Y-46280558D01*
X228211423Y-46159315D01*
X228205813Y-46140823D01*
X228189383Y-45974000D01*
X228205813Y-45807177D01*
X228254476Y-45646758D01*
X228333495Y-45498924D01*
X228333496Y-45498922D01*
X228439841Y-45369341D01*
X228569422Y-45262996D01*
X228647578Y-45221221D01*
X228717258Y-45183976D01*
X228877677Y-45135313D01*
X229002696Y-45123000D01*
X229086304Y-45123000D01*
X229211323Y-45135313D01*
X229211323Y-45135313D01*
G37*
G36*
X232647443Y-43365019D02*
G01*
X232713627Y-43371537D01*
X232883466Y-43423057D01*
X233039991Y-43506722D01*
X233075729Y-43536052D01*
X233177186Y-43619314D01*
X233260448Y-43720771D01*
X233289778Y-43756509D01*
X233289779Y-43756511D01*
X233371329Y-43909078D01*
X233373443Y-43913034D01*
X233424963Y-44082873D01*
X233442359Y-44259500D01*
X233424963Y-44436127D01*
X233373443Y-44605966D01*
X233289778Y-44762491D01*
X233260448Y-44798229D01*
X233177186Y-44899686D01*
X233075729Y-44982948D01*
X233039991Y-45012278D01*
X232883466Y-45095943D01*
X232713627Y-45147463D01*
X232647442Y-45153982D01*
X232581260Y-45160500D01*
X232492740Y-45160500D01*
X232426558Y-45153982D01*
X232360373Y-45147463D01*
X232190534Y-45095943D01*
X232034009Y-45012278D01*
X231998271Y-44982948D01*
X231896814Y-44899686D01*
X231813552Y-44798229D01*
X231784222Y-44762491D01*
X231700557Y-44605966D01*
X231649037Y-44436127D01*
X231631641Y-44259500D01*
X231649037Y-44082873D01*
X231700557Y-43913034D01*
X231702672Y-43909078D01*
X231784221Y-43756511D01*
X231784222Y-43756509D01*
X231813552Y-43720771D01*
X231896814Y-43619314D01*
X231998271Y-43536052D01*
X232034009Y-43506722D01*
X232190534Y-43423057D01*
X232360373Y-43371537D01*
X232426557Y-43365019D01*
X232492740Y-43358500D01*
X232581260Y-43358500D01*
X232647443Y-43365019D01*
X232647443Y-43365019D01*
G37*
G36*
X240786228Y-43354203D02*
G01*
X240941100Y-43418353D01*
X241080481Y-43511485D01*
X241199015Y-43630019D01*
X241292147Y-43769400D01*
X241356297Y-43924272D01*
X241389000Y-44088684D01*
X241389000Y-44256316D01*
X241356297Y-44420728D01*
X241292147Y-44575600D01*
X241199015Y-44714981D01*
X241080481Y-44833515D01*
X240941100Y-44926647D01*
X240786228Y-44990797D01*
X240621816Y-45023500D01*
X240454184Y-45023500D01*
X240289772Y-44990797D01*
X240134900Y-44926647D01*
X239995519Y-44833515D01*
X239876985Y-44714981D01*
X239783853Y-44575600D01*
X239719703Y-44420728D01*
X239687000Y-44256316D01*
X239687000Y-44088684D01*
X239719703Y-43924272D01*
X239783853Y-43769400D01*
X239876985Y-43630019D01*
X239995519Y-43511485D01*
X240134900Y-43418353D01*
X240289772Y-43354203D01*
X240454184Y-43321500D01*
X240621816Y-43321500D01*
X240786228Y-43354203D01*
X240786228Y-43354203D01*
G37*
G36*
X212581442Y-42539518D02*
G01*
X212647627Y-42546037D01*
X212817466Y-42597557D01*
X212973991Y-42681222D01*
X213009729Y-42710552D01*
X213111186Y-42793814D01*
X213194448Y-42895271D01*
X213223778Y-42931009D01*
X213307443Y-43087534D01*
X213358963Y-43257373D01*
X213376359Y-43434000D01*
X213358963Y-43610627D01*
X213307443Y-43780466D01*
X213223778Y-43936991D01*
X213194448Y-43972729D01*
X213111186Y-44074186D01*
X213009729Y-44157448D01*
X212973991Y-44186778D01*
X212973989Y-44186779D01*
X212843898Y-44256315D01*
X212817466Y-44270443D01*
X212647627Y-44321963D01*
X212581443Y-44328481D01*
X212515260Y-44335000D01*
X212426740Y-44335000D01*
X212360558Y-44328482D01*
X212294373Y-44321963D01*
X212124534Y-44270443D01*
X212098103Y-44256315D01*
X211968011Y-44186779D01*
X211968009Y-44186778D01*
X211932271Y-44157448D01*
X211830814Y-44074186D01*
X211747552Y-43972729D01*
X211718222Y-43936991D01*
X211634557Y-43780466D01*
X211583037Y-43610627D01*
X211565641Y-43434000D01*
X211583037Y-43257373D01*
X211634557Y-43087534D01*
X211718222Y-42931009D01*
X211747552Y-42895271D01*
X211830814Y-42793814D01*
X211932271Y-42710552D01*
X211968009Y-42681222D01*
X212124534Y-42597557D01*
X212294373Y-42546037D01*
X212360558Y-42539518D01*
X212426740Y-42533000D01*
X212515260Y-42533000D01*
X212581442Y-42539518D01*
X212581442Y-42539518D01*
G37*
G36*
X229211323Y-42595313D02*
G01*
X229371742Y-42643976D01*
X229441422Y-42681221D01*
X229519578Y-42722996D01*
X229649159Y-42829341D01*
X229755504Y-42958922D01*
X229755505Y-42958924D01*
X229834524Y-43106758D01*
X229883187Y-43267177D01*
X229899617Y-43434000D01*
X229883187Y-43600823D01*
X229834524Y-43761242D01*
X229824247Y-43780468D01*
X229755504Y-43909078D01*
X229649159Y-44038659D01*
X229519578Y-44145004D01*
X229519576Y-44145005D01*
X229371742Y-44224024D01*
X229211323Y-44272687D01*
X229086304Y-44285000D01*
X229002696Y-44285000D01*
X228877677Y-44272687D01*
X228717258Y-44224024D01*
X228569424Y-44145005D01*
X228569422Y-44145004D01*
X228439841Y-44038659D01*
X228333496Y-43909078D01*
X228264753Y-43780468D01*
X228254476Y-43761242D01*
X228205813Y-43600823D01*
X228189383Y-43434000D01*
X228205813Y-43267177D01*
X228254476Y-43106758D01*
X228333495Y-42958924D01*
X228333496Y-42958922D01*
X228439841Y-42829341D01*
X228569422Y-42722996D01*
X228647578Y-42681221D01*
X228717258Y-42643976D01*
X228877677Y-42595313D01*
X229002696Y-42583000D01*
X229086304Y-42583000D01*
X229211323Y-42595313D01*
X229211323Y-42595313D01*
G37*
G36*
X221591323Y-42595313D02*
G01*
X221751742Y-42643976D01*
X221821422Y-42681221D01*
X221899578Y-42722996D01*
X222029159Y-42829341D01*
X222135504Y-42958922D01*
X222135505Y-42958924D01*
X222214524Y-43106758D01*
X222263187Y-43267177D01*
X222279617Y-43434000D01*
X222263187Y-43600823D01*
X222214524Y-43761242D01*
X222204247Y-43780468D01*
X222135504Y-43909078D01*
X222029159Y-44038659D01*
X221899578Y-44145004D01*
X221899576Y-44145005D01*
X221751742Y-44224024D01*
X221591323Y-44272687D01*
X221466304Y-44285000D01*
X221382696Y-44285000D01*
X221257677Y-44272687D01*
X221097258Y-44224024D01*
X220949424Y-44145005D01*
X220949422Y-44145004D01*
X220819841Y-44038659D01*
X220713496Y-43909078D01*
X220644753Y-43780468D01*
X220634476Y-43761242D01*
X220585813Y-43600823D01*
X220569383Y-43434000D01*
X220585813Y-43267177D01*
X220634476Y-43106758D01*
X220713495Y-42958924D01*
X220713496Y-42958922D01*
X220819841Y-42829341D01*
X220949422Y-42722996D01*
X221027578Y-42681221D01*
X221097258Y-42643976D01*
X221257677Y-42595313D01*
X221382696Y-42583000D01*
X221466304Y-42583000D01*
X221591323Y-42595313D01*
X221591323Y-42595313D01*
G37*
G36*
X232647442Y-40825018D02*
G01*
X232713627Y-40831537D01*
X232883466Y-40883057D01*
X233039991Y-40966722D01*
X233075729Y-40996052D01*
X233177186Y-41079314D01*
X233260448Y-41180771D01*
X233289778Y-41216509D01*
X233289779Y-41216511D01*
X233371329Y-41369078D01*
X233373443Y-41373034D01*
X233424963Y-41542873D01*
X233442359Y-41719500D01*
X233424963Y-41896127D01*
X233373443Y-42065966D01*
X233289778Y-42222491D01*
X233281411Y-42232686D01*
X233177186Y-42359686D01*
X233075729Y-42442948D01*
X233039991Y-42472278D01*
X232883466Y-42555943D01*
X232713627Y-42607463D01*
X232647443Y-42613981D01*
X232581260Y-42620500D01*
X232492740Y-42620500D01*
X232426558Y-42613982D01*
X232360373Y-42607463D01*
X232190534Y-42555943D01*
X232034009Y-42472278D01*
X231998271Y-42442948D01*
X231896814Y-42359686D01*
X231792589Y-42232686D01*
X231784222Y-42222491D01*
X231700557Y-42065966D01*
X231649037Y-41896127D01*
X231631641Y-41719500D01*
X231649037Y-41542873D01*
X231700557Y-41373034D01*
X231702672Y-41369078D01*
X231784221Y-41216511D01*
X231784222Y-41216509D01*
X231813552Y-41180771D01*
X231896814Y-41079314D01*
X231998271Y-40996052D01*
X232034009Y-40966722D01*
X232190534Y-40883057D01*
X232360373Y-40831537D01*
X232426558Y-40825018D01*
X232492740Y-40818500D01*
X232581260Y-40818500D01*
X232647442Y-40825018D01*
X232647442Y-40825018D01*
G37*
G36*
X250900500Y-42493500D02*
G01*
X249098500Y-42493500D01*
X249098500Y-40691500D01*
X250900500Y-40691500D01*
X250900500Y-42493500D01*
X250900500Y-42493500D01*
G37*
G36*
X262809943Y-40698019D02*
G01*
X262876127Y-40704537D01*
X263045966Y-40756057D01*
X263202491Y-40839722D01*
X263238229Y-40869052D01*
X263339686Y-40952314D01*
X263422948Y-41053771D01*
X263452278Y-41089509D01*
X263535943Y-41246034D01*
X263587463Y-41415873D01*
X263604859Y-41592500D01*
X263587463Y-41769127D01*
X263535943Y-41938966D01*
X263452278Y-42095491D01*
X263422948Y-42131229D01*
X263339686Y-42232686D01*
X263238229Y-42315948D01*
X263202491Y-42345278D01*
X263045966Y-42428943D01*
X262876127Y-42480463D01*
X262809942Y-42486982D01*
X262743760Y-42493500D01*
X262655240Y-42493500D01*
X262589058Y-42486982D01*
X262522873Y-42480463D01*
X262353034Y-42428943D01*
X262196509Y-42345278D01*
X262160771Y-42315948D01*
X262059314Y-42232686D01*
X261976052Y-42131229D01*
X261946722Y-42095491D01*
X261863057Y-41938966D01*
X261811537Y-41769127D01*
X261794141Y-41592500D01*
X261811537Y-41415873D01*
X261863057Y-41246034D01*
X261946722Y-41089509D01*
X261976052Y-41053771D01*
X262059314Y-40952314D01*
X262160771Y-40869052D01*
X262196509Y-40839722D01*
X262353034Y-40756057D01*
X262522873Y-40704537D01*
X262589058Y-40698018D01*
X262655240Y-40691500D01*
X262743760Y-40691500D01*
X262809943Y-40698019D01*
X262809943Y-40698019D01*
G37*
G36*
X252649943Y-40698019D02*
G01*
X252716127Y-40704537D01*
X252885966Y-40756057D01*
X253042491Y-40839722D01*
X253078229Y-40869052D01*
X253179686Y-40952314D01*
X253262948Y-41053771D01*
X253292278Y-41089509D01*
X253375943Y-41246034D01*
X253427463Y-41415873D01*
X253444859Y-41592500D01*
X253427463Y-41769127D01*
X253375943Y-41938966D01*
X253292278Y-42095491D01*
X253262948Y-42131229D01*
X253179686Y-42232686D01*
X253078229Y-42315948D01*
X253042491Y-42345278D01*
X252885966Y-42428943D01*
X252716127Y-42480463D01*
X252649942Y-42486982D01*
X252583760Y-42493500D01*
X252495240Y-42493500D01*
X252429058Y-42486982D01*
X252362873Y-42480463D01*
X252193034Y-42428943D01*
X252036509Y-42345278D01*
X252000771Y-42315948D01*
X251899314Y-42232686D01*
X251816052Y-42131229D01*
X251786722Y-42095491D01*
X251703057Y-41938966D01*
X251651537Y-41769127D01*
X251634141Y-41592500D01*
X251651537Y-41415873D01*
X251703057Y-41246034D01*
X251786722Y-41089509D01*
X251816052Y-41053771D01*
X251899314Y-40952314D01*
X252000771Y-40869052D01*
X252036509Y-40839722D01*
X252193034Y-40756057D01*
X252362873Y-40704537D01*
X252429058Y-40698018D01*
X252495240Y-40691500D01*
X252583760Y-40691500D01*
X252649943Y-40698019D01*
X252649943Y-40698019D01*
G37*
G36*
X255189943Y-40698019D02*
G01*
X255256127Y-40704537D01*
X255425966Y-40756057D01*
X255582491Y-40839722D01*
X255618229Y-40869052D01*
X255719686Y-40952314D01*
X255802948Y-41053771D01*
X255832278Y-41089509D01*
X255915943Y-41246034D01*
X255967463Y-41415873D01*
X255984859Y-41592500D01*
X255967463Y-41769127D01*
X255915943Y-41938966D01*
X255832278Y-42095491D01*
X255802948Y-42131229D01*
X255719686Y-42232686D01*
X255618229Y-42315948D01*
X255582491Y-42345278D01*
X255425966Y-42428943D01*
X255256127Y-42480463D01*
X255189942Y-42486982D01*
X255123760Y-42493500D01*
X255035240Y-42493500D01*
X254969058Y-42486982D01*
X254902873Y-42480463D01*
X254733034Y-42428943D01*
X254576509Y-42345278D01*
X254540771Y-42315948D01*
X254439314Y-42232686D01*
X254356052Y-42131229D01*
X254326722Y-42095491D01*
X254243057Y-41938966D01*
X254191537Y-41769127D01*
X254174141Y-41592500D01*
X254191537Y-41415873D01*
X254243057Y-41246034D01*
X254326722Y-41089509D01*
X254356052Y-41053771D01*
X254439314Y-40952314D01*
X254540771Y-40869052D01*
X254576509Y-40839722D01*
X254733034Y-40756057D01*
X254902873Y-40704537D01*
X254969058Y-40698018D01*
X255035240Y-40691500D01*
X255123760Y-40691500D01*
X255189943Y-40698019D01*
X255189943Y-40698019D01*
G37*
G36*
X257729943Y-40698019D02*
G01*
X257796127Y-40704537D01*
X257965966Y-40756057D01*
X258122491Y-40839722D01*
X258158229Y-40869052D01*
X258259686Y-40952314D01*
X258342948Y-41053771D01*
X258372278Y-41089509D01*
X258455943Y-41246034D01*
X258507463Y-41415873D01*
X258524859Y-41592500D01*
X258507463Y-41769127D01*
X258455943Y-41938966D01*
X258372278Y-42095491D01*
X258342948Y-42131229D01*
X258259686Y-42232686D01*
X258158229Y-42315948D01*
X258122491Y-42345278D01*
X257965966Y-42428943D01*
X257796127Y-42480463D01*
X257729942Y-42486982D01*
X257663760Y-42493500D01*
X257575240Y-42493500D01*
X257509058Y-42486982D01*
X257442873Y-42480463D01*
X257273034Y-42428943D01*
X257116509Y-42345278D01*
X257080771Y-42315948D01*
X256979314Y-42232686D01*
X256896052Y-42131229D01*
X256866722Y-42095491D01*
X256783057Y-41938966D01*
X256731537Y-41769127D01*
X256714141Y-41592500D01*
X256731537Y-41415873D01*
X256783057Y-41246034D01*
X256866722Y-41089509D01*
X256896052Y-41053771D01*
X256979314Y-40952314D01*
X257080771Y-40869052D01*
X257116509Y-40839722D01*
X257273034Y-40756057D01*
X257442873Y-40704537D01*
X257509058Y-40698018D01*
X257575240Y-40691500D01*
X257663760Y-40691500D01*
X257729943Y-40698019D01*
X257729943Y-40698019D01*
G37*
G36*
X260269943Y-40698019D02*
G01*
X260336127Y-40704537D01*
X260505966Y-40756057D01*
X260662491Y-40839722D01*
X260698229Y-40869052D01*
X260799686Y-40952314D01*
X260882948Y-41053771D01*
X260912278Y-41089509D01*
X260995943Y-41246034D01*
X261047463Y-41415873D01*
X261064859Y-41592500D01*
X261047463Y-41769127D01*
X260995943Y-41938966D01*
X260912278Y-42095491D01*
X260882948Y-42131229D01*
X260799686Y-42232686D01*
X260698229Y-42315948D01*
X260662491Y-42345278D01*
X260505966Y-42428943D01*
X260336127Y-42480463D01*
X260269942Y-42486982D01*
X260203760Y-42493500D01*
X260115240Y-42493500D01*
X260049058Y-42486982D01*
X259982873Y-42480463D01*
X259813034Y-42428943D01*
X259656509Y-42345278D01*
X259620771Y-42315948D01*
X259519314Y-42232686D01*
X259436052Y-42131229D01*
X259406722Y-42095491D01*
X259323057Y-41938966D01*
X259271537Y-41769127D01*
X259254141Y-41592500D01*
X259271537Y-41415873D01*
X259323057Y-41246034D01*
X259406722Y-41089509D01*
X259436052Y-41053771D01*
X259519314Y-40952314D01*
X259620771Y-40869052D01*
X259656509Y-40839722D01*
X259813034Y-40756057D01*
X259982873Y-40704537D01*
X260049058Y-40698018D01*
X260115240Y-40691500D01*
X260203760Y-40691500D01*
X260269943Y-40698019D01*
X260269943Y-40698019D01*
G37*
G36*
X212581443Y-39999519D02*
G01*
X212647627Y-40006037D01*
X212817466Y-40057557D01*
X212973991Y-40141222D01*
X213009729Y-40170552D01*
X213111186Y-40253814D01*
X213194448Y-40355271D01*
X213223778Y-40391009D01*
X213307443Y-40547534D01*
X213358963Y-40717373D01*
X213376359Y-40894000D01*
X213358963Y-41070627D01*
X213307443Y-41240466D01*
X213223778Y-41396991D01*
X213208282Y-41415873D01*
X213111186Y-41534186D01*
X213009729Y-41617448D01*
X212973991Y-41646778D01*
X212817466Y-41730443D01*
X212647627Y-41781963D01*
X212581443Y-41788481D01*
X212515260Y-41795000D01*
X212426740Y-41795000D01*
X212360557Y-41788481D01*
X212294373Y-41781963D01*
X212124534Y-41730443D01*
X211968009Y-41646778D01*
X211932271Y-41617448D01*
X211830814Y-41534186D01*
X211733718Y-41415873D01*
X211718222Y-41396991D01*
X211634557Y-41240466D01*
X211583037Y-41070627D01*
X211565641Y-40894000D01*
X211583037Y-40717373D01*
X211634557Y-40547534D01*
X211718222Y-40391009D01*
X211747552Y-40355271D01*
X211830814Y-40253814D01*
X211932271Y-40170552D01*
X211968009Y-40141222D01*
X212124534Y-40057557D01*
X212294373Y-40006037D01*
X212360557Y-39999519D01*
X212426740Y-39993000D01*
X212515260Y-39993000D01*
X212581443Y-39999519D01*
X212581443Y-39999519D01*
G37*
G36*
X221591323Y-40055313D02*
G01*
X221751742Y-40103976D01*
X221821422Y-40141221D01*
X221899578Y-40182996D01*
X222029159Y-40289341D01*
X222135504Y-40418922D01*
X222135505Y-40418924D01*
X222214524Y-40566758D01*
X222263187Y-40727177D01*
X222279617Y-40894000D01*
X222263187Y-41060823D01*
X222214524Y-41221242D01*
X222204247Y-41240468D01*
X222135504Y-41369078D01*
X222029159Y-41498659D01*
X221899578Y-41605004D01*
X221899576Y-41605005D01*
X221751742Y-41684024D01*
X221591323Y-41732687D01*
X221466304Y-41745000D01*
X221382696Y-41745000D01*
X221257677Y-41732687D01*
X221097258Y-41684024D01*
X220949424Y-41605005D01*
X220949422Y-41605004D01*
X220819841Y-41498659D01*
X220713496Y-41369078D01*
X220644753Y-41240468D01*
X220634476Y-41221242D01*
X220585813Y-41060823D01*
X220569383Y-40894000D01*
X220585813Y-40727177D01*
X220634476Y-40566758D01*
X220713495Y-40418924D01*
X220713496Y-40418922D01*
X220819841Y-40289341D01*
X220949422Y-40182996D01*
X221027578Y-40141221D01*
X221097258Y-40103976D01*
X221257677Y-40055313D01*
X221382696Y-40043000D01*
X221466304Y-40043000D01*
X221591323Y-40055313D01*
X221591323Y-40055313D01*
G37*
G36*
X229211323Y-40055313D02*
G01*
X229371742Y-40103976D01*
X229441422Y-40141221D01*
X229519578Y-40182996D01*
X229649159Y-40289341D01*
X229755504Y-40418922D01*
X229755505Y-40418924D01*
X229834524Y-40566758D01*
X229883187Y-40727177D01*
X229899617Y-40894000D01*
X229883187Y-41060823D01*
X229834524Y-41221242D01*
X229824247Y-41240468D01*
X229755504Y-41369078D01*
X229649159Y-41498659D01*
X229519578Y-41605004D01*
X229519576Y-41605005D01*
X229371742Y-41684024D01*
X229211323Y-41732687D01*
X229086304Y-41745000D01*
X229002696Y-41745000D01*
X228877677Y-41732687D01*
X228717258Y-41684024D01*
X228569424Y-41605005D01*
X228569422Y-41605004D01*
X228439841Y-41498659D01*
X228333496Y-41369078D01*
X228264753Y-41240468D01*
X228254476Y-41221242D01*
X228205813Y-41060823D01*
X228189383Y-40894000D01*
X228205813Y-40727177D01*
X228254476Y-40566758D01*
X228333495Y-40418924D01*
X228333496Y-40418922D01*
X228439841Y-40289341D01*
X228569422Y-40182996D01*
X228647578Y-40141221D01*
X228717258Y-40103976D01*
X228877677Y-40055313D01*
X229002696Y-40043000D01*
X229086304Y-40043000D01*
X229211323Y-40055313D01*
X229211323Y-40055313D01*
G37*
G36*
X232647443Y-38285019D02*
G01*
X232713627Y-38291537D01*
X232883466Y-38343057D01*
X233039991Y-38426722D01*
X233075729Y-38456052D01*
X233177186Y-38539314D01*
X233260448Y-38640771D01*
X233289778Y-38676509D01*
X233289779Y-38676511D01*
X233371329Y-38829078D01*
X233373443Y-38833034D01*
X233424963Y-39002873D01*
X233442359Y-39179500D01*
X233424963Y-39356127D01*
X233373443Y-39525966D01*
X233289778Y-39682491D01*
X233260448Y-39718229D01*
X233177186Y-39819686D01*
X233075729Y-39902948D01*
X233039991Y-39932278D01*
X232883466Y-40015943D01*
X232713627Y-40067463D01*
X232647443Y-40073981D01*
X232581260Y-40080500D01*
X232492740Y-40080500D01*
X232426557Y-40073981D01*
X232360373Y-40067463D01*
X232190534Y-40015943D01*
X232034009Y-39932278D01*
X231998271Y-39902948D01*
X231896814Y-39819686D01*
X231813552Y-39718229D01*
X231784222Y-39682491D01*
X231700557Y-39525966D01*
X231649037Y-39356127D01*
X231631641Y-39179500D01*
X231649037Y-39002873D01*
X231700557Y-38833034D01*
X231702672Y-38829078D01*
X231784221Y-38676511D01*
X231784222Y-38676509D01*
X231813552Y-38640771D01*
X231896814Y-38539314D01*
X231998271Y-38456052D01*
X232034009Y-38426722D01*
X232190534Y-38343057D01*
X232360373Y-38291537D01*
X232426557Y-38285019D01*
X232492740Y-38278500D01*
X232581260Y-38278500D01*
X232647443Y-38285019D01*
X232647443Y-38285019D01*
G37*
G36*
X212581442Y-37459518D02*
G01*
X212647627Y-37466037D01*
X212817466Y-37517557D01*
X212973991Y-37601222D01*
X213009729Y-37630552D01*
X213111186Y-37713814D01*
X213194448Y-37815271D01*
X213223778Y-37851009D01*
X213307443Y-38007534D01*
X213358963Y-38177373D01*
X213376359Y-38354000D01*
X213358963Y-38530627D01*
X213307443Y-38700466D01*
X213223778Y-38856991D01*
X213194448Y-38892729D01*
X213111186Y-38994186D01*
X213009729Y-39077448D01*
X212973991Y-39106778D01*
X212817466Y-39190443D01*
X212647627Y-39241963D01*
X212581442Y-39248482D01*
X212515260Y-39255000D01*
X212426740Y-39255000D01*
X212360558Y-39248482D01*
X212294373Y-39241963D01*
X212124534Y-39190443D01*
X211968009Y-39106778D01*
X211932271Y-39077448D01*
X211830814Y-38994186D01*
X211747552Y-38892729D01*
X211718222Y-38856991D01*
X211634557Y-38700466D01*
X211583037Y-38530627D01*
X211565641Y-38354000D01*
X211583037Y-38177373D01*
X211634557Y-38007534D01*
X211718222Y-37851009D01*
X211747552Y-37815271D01*
X211830814Y-37713814D01*
X211932271Y-37630552D01*
X211968009Y-37601222D01*
X212124534Y-37517557D01*
X212294373Y-37466037D01*
X212360557Y-37459519D01*
X212426740Y-37453000D01*
X212515260Y-37453000D01*
X212581442Y-37459518D01*
X212581442Y-37459518D01*
G37*
G36*
X222275500Y-39205000D02*
G01*
X220573500Y-39205000D01*
X220573500Y-37503000D01*
X222275500Y-37503000D01*
X222275500Y-39205000D01*
X222275500Y-39205000D01*
G37*
G36*
X229211323Y-37515313D02*
G01*
X229371742Y-37563976D01*
X229441422Y-37601221D01*
X229519578Y-37642996D01*
X229649159Y-37749341D01*
X229755504Y-37878922D01*
X229755505Y-37878924D01*
X229834524Y-38026758D01*
X229883187Y-38187177D01*
X229899617Y-38354000D01*
X229883187Y-38520823D01*
X229834524Y-38681242D01*
X229824247Y-38700468D01*
X229755504Y-38829078D01*
X229649159Y-38958659D01*
X229519578Y-39065004D01*
X229519576Y-39065005D01*
X229371742Y-39144024D01*
X229211323Y-39192687D01*
X229086304Y-39205000D01*
X229002696Y-39205000D01*
X228877677Y-39192687D01*
X228717258Y-39144024D01*
X228569424Y-39065005D01*
X228569422Y-39065004D01*
X228439841Y-38958659D01*
X228333496Y-38829078D01*
X228264753Y-38700468D01*
X228254476Y-38681242D01*
X228205813Y-38520823D01*
X228189383Y-38354000D01*
X228205813Y-38187177D01*
X228254476Y-38026758D01*
X228333495Y-37878924D01*
X228333496Y-37878922D01*
X228439841Y-37749341D01*
X228569422Y-37642996D01*
X228647578Y-37601221D01*
X228717258Y-37563976D01*
X228877677Y-37515313D01*
X229002696Y-37503000D01*
X229086304Y-37503000D01*
X229211323Y-37515313D01*
X229211323Y-37515313D01*
G37*
G36*
X262809943Y-36761019D02*
G01*
X262876127Y-36767537D01*
X263045966Y-36819057D01*
X263202491Y-36902722D01*
X263238229Y-36932052D01*
X263339686Y-37015314D01*
X263422948Y-37116771D01*
X263452278Y-37152509D01*
X263535943Y-37309034D01*
X263587463Y-37478873D01*
X263604859Y-37655500D01*
X263587463Y-37832127D01*
X263535943Y-38001966D01*
X263452278Y-38158491D01*
X263436782Y-38177373D01*
X263339686Y-38295686D01*
X263238229Y-38378948D01*
X263202491Y-38408278D01*
X263045966Y-38491943D01*
X262876127Y-38543463D01*
X262809942Y-38549982D01*
X262743760Y-38556500D01*
X262655240Y-38556500D01*
X262589057Y-38549981D01*
X262522873Y-38543463D01*
X262353034Y-38491943D01*
X262196509Y-38408278D01*
X262160771Y-38378948D01*
X262059314Y-38295686D01*
X261962218Y-38177373D01*
X261946722Y-38158491D01*
X261863057Y-38001966D01*
X261811537Y-37832127D01*
X261794141Y-37655500D01*
X261811537Y-37478873D01*
X261863057Y-37309034D01*
X261946722Y-37152509D01*
X261976052Y-37116771D01*
X262059314Y-37015314D01*
X262160771Y-36932052D01*
X262196509Y-36902722D01*
X262353034Y-36819057D01*
X262522873Y-36767537D01*
X262589057Y-36761019D01*
X262655240Y-36754500D01*
X262743760Y-36754500D01*
X262809943Y-36761019D01*
X262809943Y-36761019D01*
G37*
G36*
X260269943Y-36761019D02*
G01*
X260336127Y-36767537D01*
X260505966Y-36819057D01*
X260662491Y-36902722D01*
X260698229Y-36932052D01*
X260799686Y-37015314D01*
X260882948Y-37116771D01*
X260912278Y-37152509D01*
X260995943Y-37309034D01*
X261047463Y-37478873D01*
X261064859Y-37655500D01*
X261047463Y-37832127D01*
X260995943Y-38001966D01*
X260912278Y-38158491D01*
X260896782Y-38177373D01*
X260799686Y-38295686D01*
X260698229Y-38378948D01*
X260662491Y-38408278D01*
X260505966Y-38491943D01*
X260336127Y-38543463D01*
X260269942Y-38549982D01*
X260203760Y-38556500D01*
X260115240Y-38556500D01*
X260049057Y-38549981D01*
X259982873Y-38543463D01*
X259813034Y-38491943D01*
X259656509Y-38408278D01*
X259620771Y-38378948D01*
X259519314Y-38295686D01*
X259422218Y-38177373D01*
X259406722Y-38158491D01*
X259323057Y-38001966D01*
X259271537Y-37832127D01*
X259254141Y-37655500D01*
X259271537Y-37478873D01*
X259323057Y-37309034D01*
X259406722Y-37152509D01*
X259436052Y-37116771D01*
X259519314Y-37015314D01*
X259620771Y-36932052D01*
X259656509Y-36902722D01*
X259813034Y-36819057D01*
X259982873Y-36767537D01*
X260049057Y-36761019D01*
X260115240Y-36754500D01*
X260203760Y-36754500D01*
X260269943Y-36761019D01*
X260269943Y-36761019D01*
G37*
G36*
X250900500Y-38556500D02*
G01*
X249098500Y-38556500D01*
X249098500Y-36754500D01*
X250900500Y-36754500D01*
X250900500Y-38556500D01*
X250900500Y-38556500D01*
G37*
G36*
X255189943Y-36761019D02*
G01*
X255256127Y-36767537D01*
X255425966Y-36819057D01*
X255582491Y-36902722D01*
X255618229Y-36932052D01*
X255719686Y-37015314D01*
X255802948Y-37116771D01*
X255832278Y-37152509D01*
X255915943Y-37309034D01*
X255967463Y-37478873D01*
X255984859Y-37655500D01*
X255967463Y-37832127D01*
X255915943Y-38001966D01*
X255832278Y-38158491D01*
X255816782Y-38177373D01*
X255719686Y-38295686D01*
X255618229Y-38378948D01*
X255582491Y-38408278D01*
X255425966Y-38491943D01*
X255256127Y-38543463D01*
X255189942Y-38549982D01*
X255123760Y-38556500D01*
X255035240Y-38556500D01*
X254969057Y-38549981D01*
X254902873Y-38543463D01*
X254733034Y-38491943D01*
X254576509Y-38408278D01*
X254540771Y-38378948D01*
X254439314Y-38295686D01*
X254342218Y-38177373D01*
X254326722Y-38158491D01*
X254243057Y-38001966D01*
X254191537Y-37832127D01*
X254174141Y-37655500D01*
X254191537Y-37478873D01*
X254243057Y-37309034D01*
X254326722Y-37152509D01*
X254356052Y-37116771D01*
X254439314Y-37015314D01*
X254540771Y-36932052D01*
X254576509Y-36902722D01*
X254733034Y-36819057D01*
X254902873Y-36767537D01*
X254969057Y-36761019D01*
X255035240Y-36754500D01*
X255123760Y-36754500D01*
X255189943Y-36761019D01*
X255189943Y-36761019D01*
G37*
G36*
X252649943Y-36761019D02*
G01*
X252716127Y-36767537D01*
X252885966Y-36819057D01*
X253042491Y-36902722D01*
X253078229Y-36932052D01*
X253179686Y-37015314D01*
X253262948Y-37116771D01*
X253292278Y-37152509D01*
X253375943Y-37309034D01*
X253427463Y-37478873D01*
X253444859Y-37655500D01*
X253427463Y-37832127D01*
X253375943Y-38001966D01*
X253292278Y-38158491D01*
X253276782Y-38177373D01*
X253179686Y-38295686D01*
X253078229Y-38378948D01*
X253042491Y-38408278D01*
X252885966Y-38491943D01*
X252716127Y-38543463D01*
X252649942Y-38549982D01*
X252583760Y-38556500D01*
X252495240Y-38556500D01*
X252429057Y-38549981D01*
X252362873Y-38543463D01*
X252193034Y-38491943D01*
X252036509Y-38408278D01*
X252000771Y-38378948D01*
X251899314Y-38295686D01*
X251802218Y-38177373D01*
X251786722Y-38158491D01*
X251703057Y-38001966D01*
X251651537Y-37832127D01*
X251634141Y-37655500D01*
X251651537Y-37478873D01*
X251703057Y-37309034D01*
X251786722Y-37152509D01*
X251816052Y-37116771D01*
X251899314Y-37015314D01*
X252000771Y-36932052D01*
X252036509Y-36902722D01*
X252193034Y-36819057D01*
X252362873Y-36767537D01*
X252429057Y-36761019D01*
X252495240Y-36754500D01*
X252583760Y-36754500D01*
X252649943Y-36761019D01*
X252649943Y-36761019D01*
G37*
G36*
X257729943Y-36761019D02*
G01*
X257796127Y-36767537D01*
X257965966Y-36819057D01*
X258122491Y-36902722D01*
X258158229Y-36932052D01*
X258259686Y-37015314D01*
X258342948Y-37116771D01*
X258372278Y-37152509D01*
X258455943Y-37309034D01*
X258507463Y-37478873D01*
X258524859Y-37655500D01*
X258507463Y-37832127D01*
X258455943Y-38001966D01*
X258372278Y-38158491D01*
X258356782Y-38177373D01*
X258259686Y-38295686D01*
X258158229Y-38378948D01*
X258122491Y-38408278D01*
X257965966Y-38491943D01*
X257796127Y-38543463D01*
X257729942Y-38549982D01*
X257663760Y-38556500D01*
X257575240Y-38556500D01*
X257509057Y-38549981D01*
X257442873Y-38543463D01*
X257273034Y-38491943D01*
X257116509Y-38408278D01*
X257080771Y-38378948D01*
X256979314Y-38295686D01*
X256882218Y-38177373D01*
X256866722Y-38158491D01*
X256783057Y-38001966D01*
X256731537Y-37832127D01*
X256714141Y-37655500D01*
X256731537Y-37478873D01*
X256783057Y-37309034D01*
X256866722Y-37152509D01*
X256896052Y-37116771D01*
X256979314Y-37015314D01*
X257080771Y-36932052D01*
X257116509Y-36902722D01*
X257273034Y-36819057D01*
X257442873Y-36767537D01*
X257509057Y-36761019D01*
X257575240Y-36754500D01*
X257663760Y-36754500D01*
X257729943Y-36761019D01*
X257729943Y-36761019D01*
G37*
G36*
X244233000Y-38493000D02*
G01*
X242431000Y-38493000D01*
X242431000Y-36691000D01*
X244233000Y-36691000D01*
X244233000Y-38493000D01*
X244233000Y-38493000D01*
G37*
G36*
X212581442Y-34919518D02*
G01*
X212647627Y-34926037D01*
X212817466Y-34977557D01*
X212973991Y-35061222D01*
X213009729Y-35090552D01*
X213111186Y-35173814D01*
X213194448Y-35275271D01*
X213223778Y-35311009D01*
X213307443Y-35467534D01*
X213358963Y-35637373D01*
X213376359Y-35814000D01*
X213358963Y-35990627D01*
X213307443Y-36160466D01*
X213223778Y-36316991D01*
X213194448Y-36352729D01*
X213111186Y-36454186D01*
X213009729Y-36537448D01*
X212973991Y-36566778D01*
X212817466Y-36650443D01*
X212647627Y-36701963D01*
X212581443Y-36708481D01*
X212515260Y-36715000D01*
X212426740Y-36715000D01*
X212360557Y-36708481D01*
X212294373Y-36701963D01*
X212124534Y-36650443D01*
X211968009Y-36566778D01*
X211932271Y-36537448D01*
X211830814Y-36454186D01*
X211747552Y-36352729D01*
X211718222Y-36316991D01*
X211634557Y-36160466D01*
X211583037Y-35990627D01*
X211565641Y-35814000D01*
X211583037Y-35637373D01*
X211634557Y-35467534D01*
X211718222Y-35311009D01*
X211747552Y-35275271D01*
X211830814Y-35173814D01*
X211932271Y-35090552D01*
X211968009Y-35061222D01*
X212124534Y-34977557D01*
X212294373Y-34926037D01*
X212360558Y-34919518D01*
X212426740Y-34913000D01*
X212515260Y-34913000D01*
X212581442Y-34919518D01*
X212581442Y-34919518D01*
G37*
G36*
X246930271Y-30483103D02*
G01*
X246986635Y-30488654D01*
X247203600Y-30554470D01*
X247203602Y-30554471D01*
X247403555Y-30661347D01*
X247578818Y-30805182D01*
X247722653Y-30980445D01*
X247828845Y-31179118D01*
X247829530Y-31180400D01*
X247895346Y-31397365D01*
X247917569Y-31623000D01*
X247895346Y-31848635D01*
X247840325Y-32030015D01*
X247829529Y-32065602D01*
X247722653Y-32265555D01*
X247578818Y-32440818D01*
X247403555Y-32584653D01*
X247203602Y-32691529D01*
X247203600Y-32691530D01*
X246986635Y-32757346D01*
X246930271Y-32762897D01*
X246817545Y-32774000D01*
X246704455Y-32774000D01*
X246591729Y-32762897D01*
X246535365Y-32757346D01*
X246318400Y-32691530D01*
X246318398Y-32691529D01*
X246118445Y-32584653D01*
X245943182Y-32440818D01*
X245799347Y-32265555D01*
X245692471Y-32065602D01*
X245681676Y-32030015D01*
X245626654Y-31848635D01*
X245604431Y-31623000D01*
X245626654Y-31397365D01*
X245692470Y-31180400D01*
X245693155Y-31179118D01*
X245799347Y-30980445D01*
X245943182Y-30805182D01*
X246118445Y-30661347D01*
X246318398Y-30554471D01*
X246318400Y-30554470D01*
X246535365Y-30488654D01*
X246591729Y-30483103D01*
X246704455Y-30472000D01*
X246817545Y-30472000D01*
X246930271Y-30483103D01*
X246930271Y-30483103D01*
G37*
G36*
X258072000Y-32774000D02*
G01*
X255770000Y-32774000D01*
X255770000Y-30472000D01*
X258072000Y-30472000D01*
X258072000Y-32774000D01*
X258072000Y-32774000D01*
G37*
G36*
X244106000Y-32524000D02*
G01*
X242304000Y-32524000D01*
X242304000Y-30722000D01*
X244106000Y-30722000D01*
X244106000Y-32524000D01*
X244106000Y-32524000D01*
G37*
G36*
X240775443Y-30728519D02*
G01*
X240841627Y-30735037D01*
X241011466Y-30786557D01*
X241167991Y-30870222D01*
X241196869Y-30893922D01*
X241305186Y-30982814D01*
X241361046Y-31050881D01*
X241417778Y-31120009D01*
X241501443Y-31276534D01*
X241552963Y-31446373D01*
X241570359Y-31623000D01*
X241552963Y-31799627D01*
X241501443Y-31969466D01*
X241417778Y-32125991D01*
X241388448Y-32161729D01*
X241305186Y-32263186D01*
X241203729Y-32346448D01*
X241167991Y-32375778D01*
X241011466Y-32459443D01*
X240841627Y-32510963D01*
X240775442Y-32517482D01*
X240709260Y-32524000D01*
X240620740Y-32524000D01*
X240554557Y-32517481D01*
X240488373Y-32510963D01*
X240318534Y-32459443D01*
X240162009Y-32375778D01*
X240126271Y-32346448D01*
X240024814Y-32263186D01*
X239941552Y-32161729D01*
X239912222Y-32125991D01*
X239828557Y-31969466D01*
X239777037Y-31799627D01*
X239759641Y-31623000D01*
X239777037Y-31446373D01*
X239828557Y-31276534D01*
X239912222Y-31120009D01*
X239968954Y-31050881D01*
X240024814Y-30982814D01*
X240133131Y-30893922D01*
X240162009Y-30870222D01*
X240318534Y-30786557D01*
X240488373Y-30735037D01*
X240554557Y-30728519D01*
X240620740Y-30722000D01*
X240709260Y-30722000D01*
X240775443Y-30728519D01*
X240775443Y-30728519D01*
G37*
G36*
X238235443Y-30728519D02*
G01*
X238301627Y-30735037D01*
X238471466Y-30786557D01*
X238627991Y-30870222D01*
X238656869Y-30893922D01*
X238765186Y-30982814D01*
X238821046Y-31050881D01*
X238877778Y-31120009D01*
X238961443Y-31276534D01*
X239012963Y-31446373D01*
X239030359Y-31623000D01*
X239012963Y-31799627D01*
X238961443Y-31969466D01*
X238877778Y-32125991D01*
X238848448Y-32161729D01*
X238765186Y-32263186D01*
X238663729Y-32346448D01*
X238627991Y-32375778D01*
X238471466Y-32459443D01*
X238301627Y-32510963D01*
X238235442Y-32517482D01*
X238169260Y-32524000D01*
X238080740Y-32524000D01*
X238014557Y-32517481D01*
X237948373Y-32510963D01*
X237778534Y-32459443D01*
X237622009Y-32375778D01*
X237586271Y-32346448D01*
X237484814Y-32263186D01*
X237401552Y-32161729D01*
X237372222Y-32125991D01*
X237288557Y-31969466D01*
X237237037Y-31799627D01*
X237219641Y-31623000D01*
X237237037Y-31446373D01*
X237288557Y-31276534D01*
X237372222Y-31120009D01*
X237428954Y-31050881D01*
X237484814Y-30982814D01*
X237593131Y-30893922D01*
X237622009Y-30870222D01*
X237778534Y-30786557D01*
X237948373Y-30735037D01*
X238014557Y-30728519D01*
X238080740Y-30722000D01*
X238169260Y-30722000D01*
X238235443Y-30728519D01*
X238235443Y-30728519D01*
G37*
G36*
X217545228Y-30550703D02*
G01*
X217700100Y-30614853D01*
X217839481Y-30707985D01*
X217958015Y-30826519D01*
X218051147Y-30965900D01*
X218115297Y-31120772D01*
X218148000Y-31285184D01*
X218148000Y-31452816D01*
X218115297Y-31617228D01*
X218051147Y-31772100D01*
X217958015Y-31911481D01*
X217839481Y-32030015D01*
X217700100Y-32123147D01*
X217545228Y-32187297D01*
X217380816Y-32220000D01*
X217213184Y-32220000D01*
X217048772Y-32187297D01*
X216893900Y-32123147D01*
X216754519Y-32030015D01*
X216635985Y-31911481D01*
X216542853Y-31772100D01*
X216478703Y-31617228D01*
X216446000Y-31452816D01*
X216446000Y-31285184D01*
X216478703Y-31120772D01*
X216542853Y-30965900D01*
X216635985Y-30826519D01*
X216754519Y-30707985D01*
X216893900Y-30614853D01*
X217048772Y-30550703D01*
X217213184Y-30518000D01*
X217380816Y-30518000D01*
X217545228Y-30550703D01*
X217545228Y-30550703D01*
G37*
G36*
X225083823Y-30530313D02*
G01*
X225244242Y-30578976D01*
X225311361Y-30614852D01*
X225392078Y-30657996D01*
X225521659Y-30764341D01*
X225628004Y-30893922D01*
X225628005Y-30893924D01*
X225707024Y-31041758D01*
X225707025Y-31041761D01*
X225709792Y-31050882D01*
X225755687Y-31202177D01*
X225772117Y-31369000D01*
X225755687Y-31535823D01*
X225707024Y-31696242D01*
X225636114Y-31828906D01*
X225628004Y-31844078D01*
X225521659Y-31973659D01*
X225392078Y-32080004D01*
X225392076Y-32080005D01*
X225244242Y-32159024D01*
X225083823Y-32207687D01*
X224958804Y-32220000D01*
X224875196Y-32220000D01*
X224750177Y-32207687D01*
X224589758Y-32159024D01*
X224441924Y-32080005D01*
X224441922Y-32080004D01*
X224312341Y-31973659D01*
X224205996Y-31844078D01*
X224197886Y-31828906D01*
X224126976Y-31696242D01*
X224078313Y-31535823D01*
X224061883Y-31369000D01*
X224078313Y-31202177D01*
X224124208Y-31050882D01*
X224126975Y-31041761D01*
X224126976Y-31041758D01*
X224205995Y-30893924D01*
X224205996Y-30893922D01*
X224312341Y-30764341D01*
X224441922Y-30657996D01*
X224522639Y-30614852D01*
X224589758Y-30578976D01*
X224750177Y-30530313D01*
X224875196Y-30518000D01*
X224958804Y-30518000D01*
X225083823Y-30530313D01*
X225083823Y-30530313D01*
G37*
G36*
X232689500Y-31966000D02*
G01*
X230987500Y-31966000D01*
X230987500Y-30264000D01*
X232689500Y-30264000D01*
X232689500Y-31966000D01*
X232689500Y-31966000D01*
G37*
G36*
X211422890Y-30489017D02*
G01*
X211522587Y-30530313D01*
X211541364Y-30538091D01*
X211647988Y-30609335D01*
X211738665Y-30700012D01*
X211796493Y-30786557D01*
X211809910Y-30806638D01*
X211858983Y-30925110D01*
X211884000Y-31050881D01*
X211884000Y-31179119D01*
X211858983Y-31304890D01*
X211809909Y-31423364D01*
X211738665Y-31529988D01*
X211647988Y-31620665D01*
X211541364Y-31691909D01*
X211541363Y-31691910D01*
X211541362Y-31691910D01*
X211422890Y-31740983D01*
X211297119Y-31766000D01*
X211168881Y-31766000D01*
X211043110Y-31740983D01*
X210924638Y-31691910D01*
X210924637Y-31691910D01*
X210924636Y-31691909D01*
X210818012Y-31620665D01*
X210727335Y-31529988D01*
X210656091Y-31423364D01*
X210607017Y-31304890D01*
X210582000Y-31179119D01*
X210582000Y-31050881D01*
X210607017Y-30925110D01*
X210656090Y-30806638D01*
X210669508Y-30786557D01*
X210727335Y-30700012D01*
X210818012Y-30609335D01*
X210924636Y-30538091D01*
X210943414Y-30530313D01*
X211043110Y-30489017D01*
X211168881Y-30464000D01*
X211297119Y-30464000D01*
X211422890Y-30489017D01*
X211422890Y-30489017D01*
G37*
G36*
X213422890Y-30489017D02*
G01*
X213522587Y-30530313D01*
X213541364Y-30538091D01*
X213647988Y-30609335D01*
X213738665Y-30700012D01*
X213796493Y-30786557D01*
X213809910Y-30806638D01*
X213858983Y-30925110D01*
X213884000Y-31050881D01*
X213884000Y-31179119D01*
X213858983Y-31304890D01*
X213809909Y-31423364D01*
X213738665Y-31529988D01*
X213647988Y-31620665D01*
X213541364Y-31691909D01*
X213541363Y-31691910D01*
X213541362Y-31691910D01*
X213422890Y-31740983D01*
X213297119Y-31766000D01*
X213168881Y-31766000D01*
X213043110Y-31740983D01*
X212924638Y-31691910D01*
X212924637Y-31691910D01*
X212924636Y-31691909D01*
X212818012Y-31620665D01*
X212727335Y-31529988D01*
X212656091Y-31423364D01*
X212607017Y-31304890D01*
X212582000Y-31179119D01*
X212582000Y-31050881D01*
X212607017Y-30925110D01*
X212656090Y-30806638D01*
X212669508Y-30786557D01*
X212727335Y-30700012D01*
X212818012Y-30609335D01*
X212924636Y-30538091D01*
X212943414Y-30530313D01*
X213043110Y-30489017D01*
X213168881Y-30464000D01*
X213297119Y-30464000D01*
X213422890Y-30489017D01*
X213422890Y-30489017D01*
G37*
G36*
X232086728Y-27796703D02*
G01*
X232241600Y-27860853D01*
X232380981Y-27953985D01*
X232499515Y-28072519D01*
X232592647Y-28211900D01*
X232656797Y-28366772D01*
X232689500Y-28531184D01*
X232689500Y-28698816D01*
X232656797Y-28863228D01*
X232592647Y-29018100D01*
X232499515Y-29157481D01*
X232380981Y-29276015D01*
X232241600Y-29369147D01*
X232086728Y-29433297D01*
X231922316Y-29466000D01*
X231754684Y-29466000D01*
X231590272Y-29433297D01*
X231435400Y-29369147D01*
X231296019Y-29276015D01*
X231177485Y-29157481D01*
X231084353Y-29018100D01*
X231020203Y-28863228D01*
X230987500Y-28698816D01*
X230987500Y-28531184D01*
X231020203Y-28366772D01*
X231084353Y-28211900D01*
X231177485Y-28072519D01*
X231296019Y-27953985D01*
X231435400Y-27860853D01*
X231590272Y-27796703D01*
X231754684Y-27764000D01*
X231922316Y-27764000D01*
X232086728Y-27796703D01*
X232086728Y-27796703D01*
G37*
G36*
X225768000Y-28664000D02*
G01*
X224066000Y-28664000D01*
X224066000Y-26962000D01*
X225768000Y-26962000D01*
X225768000Y-28664000D01*
X225768000Y-28664000D01*
G37*
G36*
X217463823Y-26974313D02*
G01*
X217624242Y-27022976D01*
X217756906Y-27093886D01*
X217772078Y-27101996D01*
X217901659Y-27208341D01*
X218008004Y-27337922D01*
X218008005Y-27337924D01*
X218087024Y-27485758D01*
X218135687Y-27646177D01*
X218152117Y-27813000D01*
X218135687Y-27979823D01*
X218087024Y-28140242D01*
X218048722Y-28211900D01*
X218008004Y-28288078D01*
X217901659Y-28417659D01*
X217772078Y-28524004D01*
X217772076Y-28524005D01*
X217624242Y-28603024D01*
X217463823Y-28651687D01*
X217338804Y-28664000D01*
X217255196Y-28664000D01*
X217130177Y-28651687D01*
X216969758Y-28603024D01*
X216821924Y-28524005D01*
X216821922Y-28524004D01*
X216692341Y-28417659D01*
X216585996Y-28288078D01*
X216545278Y-28211900D01*
X216506976Y-28140242D01*
X216458313Y-27979823D01*
X216441883Y-27813000D01*
X216458313Y-27646177D01*
X216506976Y-27485758D01*
X216585995Y-27337924D01*
X216585996Y-27337922D01*
X216692341Y-27208341D01*
X216821922Y-27101996D01*
X216837094Y-27093886D01*
X216969758Y-27022976D01*
X217130177Y-26974313D01*
X217255196Y-26962000D01*
X217338804Y-26962000D01*
X217463823Y-26974313D01*
X217463823Y-26974313D01*
G37*
G36*
X248120000Y-27394000D02*
G01*
X246418000Y-27394000D01*
X246418000Y-25692000D01*
X248120000Y-25692000D01*
X248120000Y-27394000D01*
X248120000Y-27394000D01*
G37*
G36*
X239314942Y-25077018D02*
G01*
X239381127Y-25083537D01*
X239550966Y-25135057D01*
X239707491Y-25218722D01*
X239743229Y-25248052D01*
X239844686Y-25331314D01*
X239927948Y-25432771D01*
X239957278Y-25468509D01*
X240040943Y-25625034D01*
X240092463Y-25794873D01*
X240109859Y-25971500D01*
X240092463Y-26148127D01*
X240040943Y-26317966D01*
X239957278Y-26474491D01*
X239927948Y-26510229D01*
X239844686Y-26611686D01*
X239743229Y-26694948D01*
X239707491Y-26724278D01*
X239550966Y-26807943D01*
X239381127Y-26859463D01*
X239314943Y-26865981D01*
X239248760Y-26872500D01*
X239160240Y-26872500D01*
X239094057Y-26865981D01*
X239027873Y-26859463D01*
X238858034Y-26807943D01*
X238701509Y-26724278D01*
X238665771Y-26694948D01*
X238564314Y-26611686D01*
X238481052Y-26510229D01*
X238451722Y-26474491D01*
X238368057Y-26317966D01*
X238316537Y-26148127D01*
X238299141Y-25971500D01*
X238316537Y-25794873D01*
X238368057Y-25625034D01*
X238451722Y-25468509D01*
X238481052Y-25432771D01*
X238564314Y-25331314D01*
X238665771Y-25248052D01*
X238701509Y-25218722D01*
X238858034Y-25135057D01*
X239027873Y-25083537D01*
X239094057Y-25077019D01*
X239160240Y-25070500D01*
X239248760Y-25070500D01*
X239314942Y-25077018D01*
X239314942Y-25077018D01*
G37*
G36*
X242645500Y-26872500D02*
G01*
X240843500Y-26872500D01*
X240843500Y-25070500D01*
X242645500Y-25070500D01*
X242645500Y-26872500D01*
X242645500Y-26872500D01*
G37*
G36*
X207448756Y-21695798D02*
G01*
X207555079Y-21716947D01*
X207767537Y-21804950D01*
X207831840Y-21831585D01*
X207855542Y-21841403D01*
X208125951Y-22022085D01*
X208355915Y-22252049D01*
X208409310Y-22331960D01*
X208536598Y-22522460D01*
X208661053Y-22822922D01*
X208724500Y-23141889D01*
X208724500Y-23467111D01*
X208717854Y-23500520D01*
X208661053Y-23786079D01*
X208536597Y-24086542D01*
X208355915Y-24356951D01*
X208125951Y-24586915D01*
X207855542Y-24767597D01*
X207555079Y-24892053D01*
X207448756Y-24913202D01*
X207236111Y-24955500D01*
X206910889Y-24955500D01*
X206698244Y-24913202D01*
X206591921Y-24892053D01*
X206291458Y-24767597D01*
X206021049Y-24586915D01*
X205791085Y-24356951D01*
X205610403Y-24086542D01*
X205485947Y-23786079D01*
X205429146Y-23500520D01*
X205422500Y-23467111D01*
X205422500Y-23141889D01*
X205485947Y-22822922D01*
X205610402Y-22522460D01*
X205737690Y-22331960D01*
X205791085Y-22252049D01*
X206021049Y-22022085D01*
X206291458Y-21841403D01*
X206315161Y-21831585D01*
X206379463Y-21804950D01*
X206591921Y-21716947D01*
X206698244Y-21695798D01*
X206910889Y-21653500D01*
X207236111Y-21653500D01*
X207448756Y-21695798D01*
X207448756Y-21695798D01*
G37*
G36*
X247517228Y-23224703D02*
G01*
X247672100Y-23288853D01*
X247811481Y-23381985D01*
X247930015Y-23500519D01*
X248023147Y-23639900D01*
X248087297Y-23794772D01*
X248120000Y-23959184D01*
X248120000Y-24126816D01*
X248087297Y-24291228D01*
X248023147Y-24446100D01*
X247930015Y-24585481D01*
X247811481Y-24704015D01*
X247672100Y-24797147D01*
X247517228Y-24861297D01*
X247352816Y-24894000D01*
X247185184Y-24894000D01*
X247020772Y-24861297D01*
X246865900Y-24797147D01*
X246726519Y-24704015D01*
X246607985Y-24585481D01*
X246514853Y-24446100D01*
X246450703Y-24291228D01*
X246418000Y-24126816D01*
X246418000Y-23959184D01*
X246450703Y-23794772D01*
X246514853Y-23639900D01*
X246607985Y-23500519D01*
X246726519Y-23381985D01*
X246865900Y-23288853D01*
X247020772Y-23224703D01*
X247185184Y-23192000D01*
X247352816Y-23192000D01*
X247517228Y-23224703D01*
X247517228Y-23224703D01*
G37*
G36*
X261296756Y-21505298D02*
G01*
X261403079Y-21526447D01*
X261703542Y-21650903D01*
X261973951Y-21831585D01*
X262203915Y-22061549D01*
X262384597Y-22331958D01*
X262463506Y-22522460D01*
X262509053Y-22632422D01*
X262572500Y-22951389D01*
X262572500Y-23276611D01*
X262534607Y-23467109D01*
X262509053Y-23595579D01*
X262384597Y-23896042D01*
X262203915Y-24166451D01*
X261973951Y-24396415D01*
X261703542Y-24577097D01*
X261703541Y-24577098D01*
X261703540Y-24577098D01*
X261679837Y-24586916D01*
X261403079Y-24701553D01*
X261296756Y-24722702D01*
X261084111Y-24765000D01*
X260758889Y-24765000D01*
X260546244Y-24722702D01*
X260439921Y-24701553D01*
X260163163Y-24586916D01*
X260139460Y-24577098D01*
X260139459Y-24577098D01*
X260139458Y-24577097D01*
X259869049Y-24396415D01*
X259639085Y-24166451D01*
X259458403Y-23896042D01*
X259333947Y-23595579D01*
X259308393Y-23467109D01*
X259270500Y-23276611D01*
X259270500Y-22951389D01*
X259333947Y-22632422D01*
X259379495Y-22522460D01*
X259458403Y-22331958D01*
X259639085Y-22061549D01*
X259869049Y-21831585D01*
X260139458Y-21650903D01*
X260439921Y-21526447D01*
X260546244Y-21505298D01*
X260758889Y-21463000D01*
X261084111Y-21463000D01*
X261296756Y-21505298D01*
X261296756Y-21505298D01*
G37*
M02*
