G04 #@! TF.GenerationSoftware,KiCad,Pcbnew,(5.1.4)-1*
G04 #@! TF.CreationDate,2020-08-27T05:36:11+02:00*
G04 #@! TF.ProjectId,transmitter,7472616e-736d-4697-9474-65722e6b6963,v1.0*
G04 #@! TF.SameCoordinates,Original*
G04 #@! TF.FileFunction,Legend,Top*
G04 #@! TF.FilePolarity,Positive*
%FSLAX46Y46*%
G04 Gerber Fmt 4.6, Leading zero omitted, Abs format (unit mm)*
G04 Created by KiCad (PCBNEW (5.1.4)-1) date 2020-08-27 05:36:11*
%MOMM*%
%LPD*%
G04 APERTURE LIST*
%ADD10C,0.150000*%
%ADD11C,0.120000*%
G04 APERTURE END LIST*
D10*
X252825428Y-79097214D02*
X253063523Y-79763880D01*
X253301619Y-79097214D01*
X254206380Y-79763880D02*
X253634952Y-79763880D01*
X253920666Y-79763880D02*
X253920666Y-78763880D01*
X253825428Y-78906738D01*
X253730190Y-79001976D01*
X253634952Y-79049595D01*
X254634952Y-79668642D02*
X254682571Y-79716261D01*
X254634952Y-79763880D01*
X254587333Y-79716261D01*
X254634952Y-79668642D01*
X254634952Y-79763880D01*
X255301619Y-78763880D02*
X255396857Y-78763880D01*
X255492095Y-78811500D01*
X255539714Y-78859119D01*
X255587333Y-78954357D01*
X255634952Y-79144833D01*
X255634952Y-79382928D01*
X255587333Y-79573404D01*
X255539714Y-79668642D01*
X255492095Y-79716261D01*
X255396857Y-79763880D01*
X255301619Y-79763880D01*
X255206380Y-79716261D01*
X255158761Y-79668642D01*
X255111142Y-79573404D01*
X255063523Y-79382928D01*
X255063523Y-79144833D01*
X255111142Y-78954357D01*
X255158761Y-78859119D01*
X255206380Y-78811500D01*
X255301619Y-78763880D01*
X235482690Y-78922619D02*
X235530309Y-78875000D01*
X235625547Y-78827380D01*
X235863642Y-78827380D01*
X235958880Y-78875000D01*
X236006500Y-78922619D01*
X236054119Y-79017857D01*
X236054119Y-79113095D01*
X236006500Y-79255952D01*
X235435071Y-79827380D01*
X236054119Y-79827380D01*
X236482690Y-79732142D02*
X236530309Y-79779761D01*
X236482690Y-79827380D01*
X236435071Y-79779761D01*
X236482690Y-79732142D01*
X236482690Y-79827380D01*
X237387452Y-79160714D02*
X237387452Y-79827380D01*
X237149357Y-78779761D02*
X236911261Y-79494047D01*
X237530309Y-79494047D01*
X238435071Y-78875000D02*
X238339833Y-78827380D01*
X238196976Y-78827380D01*
X238054119Y-78875000D01*
X237958880Y-78970238D01*
X237911261Y-79065476D01*
X237863642Y-79255952D01*
X237863642Y-79398809D01*
X237911261Y-79589285D01*
X237958880Y-79684523D01*
X238054119Y-79779761D01*
X238196976Y-79827380D01*
X238292214Y-79827380D01*
X238435071Y-79779761D01*
X238482690Y-79732142D01*
X238482690Y-79398809D01*
X238292214Y-79398809D01*
X238911261Y-79827380D02*
X238911261Y-78827380D01*
X238911261Y-79303571D02*
X239482690Y-79303571D01*
X239482690Y-79827380D02*
X239482690Y-78827380D01*
X239863642Y-79160714D02*
X240387452Y-79160714D01*
X239863642Y-79827380D01*
X240387452Y-79827380D01*
X241387452Y-78827380D02*
X241958880Y-78827380D01*
X241673166Y-79827380D02*
X241673166Y-78827380D01*
X242292214Y-79827380D02*
X242292214Y-79160714D01*
X242292214Y-79351190D02*
X242339833Y-79255952D01*
X242387452Y-79208333D01*
X242482690Y-79160714D01*
X242577928Y-79160714D01*
X243339833Y-79827380D02*
X243339833Y-79303571D01*
X243292214Y-79208333D01*
X243196976Y-79160714D01*
X243006500Y-79160714D01*
X242911261Y-79208333D01*
X243339833Y-79779761D02*
X243244595Y-79827380D01*
X243006500Y-79827380D01*
X242911261Y-79779761D01*
X242863642Y-79684523D01*
X242863642Y-79589285D01*
X242911261Y-79494047D01*
X243006500Y-79446428D01*
X243244595Y-79446428D01*
X243339833Y-79398809D01*
X243816023Y-79160714D02*
X243816023Y-79827380D01*
X243816023Y-79255952D02*
X243863642Y-79208333D01*
X243958880Y-79160714D01*
X244101738Y-79160714D01*
X244196976Y-79208333D01*
X244244595Y-79303571D01*
X244244595Y-79827380D01*
X244673166Y-79779761D02*
X244768404Y-79827380D01*
X244958880Y-79827380D01*
X245054119Y-79779761D01*
X245101738Y-79684523D01*
X245101738Y-79636904D01*
X245054119Y-79541666D01*
X244958880Y-79494047D01*
X244816023Y-79494047D01*
X244720785Y-79446428D01*
X244673166Y-79351190D01*
X244673166Y-79303571D01*
X244720785Y-79208333D01*
X244816023Y-79160714D01*
X244958880Y-79160714D01*
X245054119Y-79208333D01*
X245530309Y-79827380D02*
X245530309Y-79160714D01*
X245530309Y-79255952D02*
X245577928Y-79208333D01*
X245673166Y-79160714D01*
X245816023Y-79160714D01*
X245911261Y-79208333D01*
X245958880Y-79303571D01*
X245958880Y-79827380D01*
X245958880Y-79303571D02*
X246006500Y-79208333D01*
X246101738Y-79160714D01*
X246244595Y-79160714D01*
X246339833Y-79208333D01*
X246387452Y-79303571D01*
X246387452Y-79827380D01*
X246863642Y-79827380D02*
X246863642Y-79160714D01*
X246863642Y-78827380D02*
X246816023Y-78875000D01*
X246863642Y-78922619D01*
X246911261Y-78875000D01*
X246863642Y-78827380D01*
X246863642Y-78922619D01*
X247196976Y-79160714D02*
X247577928Y-79160714D01*
X247339833Y-78827380D02*
X247339833Y-79684523D01*
X247387452Y-79779761D01*
X247482690Y-79827380D01*
X247577928Y-79827380D01*
X247768404Y-79160714D02*
X248149357Y-79160714D01*
X247911261Y-78827380D02*
X247911261Y-79684523D01*
X247958880Y-79779761D01*
X248054119Y-79827380D01*
X248149357Y-79827380D01*
X248863642Y-79779761D02*
X248768404Y-79827380D01*
X248577928Y-79827380D01*
X248482690Y-79779761D01*
X248435071Y-79684523D01*
X248435071Y-79303571D01*
X248482690Y-79208333D01*
X248577928Y-79160714D01*
X248768404Y-79160714D01*
X248863642Y-79208333D01*
X248911261Y-79303571D01*
X248911261Y-79398809D01*
X248435071Y-79494047D01*
X249339833Y-79827380D02*
X249339833Y-79160714D01*
X249339833Y-79351190D02*
X249387452Y-79255952D01*
X249435071Y-79208333D01*
X249530309Y-79160714D01*
X249625547Y-79160714D01*
X237720976Y-77382666D02*
X238197166Y-77382666D01*
X237625738Y-77668380D02*
X237959071Y-76668380D01*
X238292404Y-77668380D01*
X238768595Y-77668380D02*
X238673357Y-77620761D01*
X238625738Y-77525523D01*
X238625738Y-76668380D01*
X239578119Y-77668380D02*
X239578119Y-77144571D01*
X239530500Y-77049333D01*
X239435261Y-77001714D01*
X239244785Y-77001714D01*
X239149547Y-77049333D01*
X239578119Y-77620761D02*
X239482880Y-77668380D01*
X239244785Y-77668380D01*
X239149547Y-77620761D01*
X239101928Y-77525523D01*
X239101928Y-77430285D01*
X239149547Y-77335047D01*
X239244785Y-77287428D01*
X239482880Y-77287428D01*
X239578119Y-77239809D01*
X240482880Y-77668380D02*
X240482880Y-76668380D01*
X240482880Y-77620761D02*
X240387642Y-77668380D01*
X240197166Y-77668380D01*
X240101928Y-77620761D01*
X240054309Y-77573142D01*
X240006690Y-77477904D01*
X240006690Y-77192190D01*
X240054309Y-77096952D01*
X240101928Y-77049333D01*
X240197166Y-77001714D01*
X240387642Y-77001714D01*
X240482880Y-77049333D01*
X241387642Y-77668380D02*
X241387642Y-76668380D01*
X241387642Y-77620761D02*
X241292404Y-77668380D01*
X241101928Y-77668380D01*
X241006690Y-77620761D01*
X240959071Y-77573142D01*
X240911452Y-77477904D01*
X240911452Y-77192190D01*
X240959071Y-77096952D01*
X241006690Y-77049333D01*
X241101928Y-77001714D01*
X241292404Y-77001714D01*
X241387642Y-77049333D01*
X241863833Y-77668380D02*
X241863833Y-77001714D01*
X241863833Y-76668380D02*
X241816214Y-76716000D01*
X241863833Y-76763619D01*
X241911452Y-76716000D01*
X241863833Y-76668380D01*
X241863833Y-76763619D01*
X242340023Y-77001714D02*
X242340023Y-77668380D01*
X242340023Y-77096952D02*
X242387642Y-77049333D01*
X242482880Y-77001714D01*
X242625738Y-77001714D01*
X242720976Y-77049333D01*
X242768595Y-77144571D01*
X242768595Y-77668380D01*
X244340023Y-77144571D02*
X244482880Y-77192190D01*
X244530500Y-77239809D01*
X244578119Y-77335047D01*
X244578119Y-77477904D01*
X244530500Y-77573142D01*
X244482880Y-77620761D01*
X244387642Y-77668380D01*
X244006690Y-77668380D01*
X244006690Y-76668380D01*
X244340023Y-76668380D01*
X244435261Y-76716000D01*
X244482880Y-76763619D01*
X244530500Y-76858857D01*
X244530500Y-76954095D01*
X244482880Y-77049333D01*
X244435261Y-77096952D01*
X244340023Y-77144571D01*
X244006690Y-77144571D01*
X245387642Y-77620761D02*
X245292404Y-77668380D01*
X245101928Y-77668380D01*
X245006690Y-77620761D01*
X244959071Y-77525523D01*
X244959071Y-77144571D01*
X245006690Y-77049333D01*
X245101928Y-77001714D01*
X245292404Y-77001714D01*
X245387642Y-77049333D01*
X245435261Y-77144571D01*
X245435261Y-77239809D01*
X244959071Y-77335047D01*
X245863833Y-77001714D02*
X245863833Y-77668380D01*
X245863833Y-77096952D02*
X245911452Y-77049333D01*
X246006690Y-77001714D01*
X246149547Y-77001714D01*
X246244785Y-77049333D01*
X246292404Y-77144571D01*
X246292404Y-77668380D01*
X247482880Y-77620761D02*
X247625738Y-77668380D01*
X247863833Y-77668380D01*
X247959071Y-77620761D01*
X248006690Y-77573142D01*
X248054309Y-77477904D01*
X248054309Y-77382666D01*
X248006690Y-77287428D01*
X247959071Y-77239809D01*
X247863833Y-77192190D01*
X247673357Y-77144571D01*
X247578119Y-77096952D01*
X247530500Y-77049333D01*
X247482880Y-76954095D01*
X247482880Y-76858857D01*
X247530500Y-76763619D01*
X247578119Y-76716000D01*
X247673357Y-76668380D01*
X247911452Y-76668380D01*
X248054309Y-76716000D01*
X248911452Y-77668380D02*
X248911452Y-77144571D01*
X248863833Y-77049333D01*
X248768595Y-77001714D01*
X248578119Y-77001714D01*
X248482880Y-77049333D01*
X248911452Y-77620761D02*
X248816214Y-77668380D01*
X248578119Y-77668380D01*
X248482880Y-77620761D01*
X248435261Y-77525523D01*
X248435261Y-77430285D01*
X248482880Y-77335047D01*
X248578119Y-77287428D01*
X248816214Y-77287428D01*
X248911452Y-77239809D01*
X249387642Y-77668380D02*
X249387642Y-77001714D01*
X249387642Y-76668380D02*
X249340023Y-76716000D01*
X249387642Y-76763619D01*
X249435261Y-76716000D01*
X249387642Y-76668380D01*
X249387642Y-76763619D01*
X250292404Y-77668380D02*
X250292404Y-76668380D01*
X250292404Y-77620761D02*
X250197166Y-77668380D01*
X250006690Y-77668380D01*
X249911452Y-77620761D01*
X249863833Y-77573142D01*
X249816214Y-77477904D01*
X249816214Y-77192190D01*
X249863833Y-77096952D01*
X249911452Y-77049333D01*
X250006690Y-77001714D01*
X250197166Y-77001714D01*
X250292404Y-77049333D01*
D11*
X226234500Y-37024000D02*
G75*
G02X224234500Y-37024000I-1000000J0D01*
G01*
X224234500Y-37024000D02*
X222584500Y-37024000D01*
X222584500Y-37024000D02*
X222584500Y-72704000D01*
X222584500Y-72704000D02*
X227884500Y-72704000D01*
X227884500Y-72704000D02*
X227884500Y-37024000D01*
X227884500Y-37024000D02*
X226234500Y-37024000D01*
X248669500Y-38985500D02*
X248669500Y-37655500D01*
X249999500Y-38985500D02*
X248669500Y-38985500D01*
X251269500Y-38985500D02*
X251269500Y-36325500D01*
X251269500Y-36325500D02*
X264029500Y-36325500D01*
X251269500Y-38985500D02*
X264029500Y-38985500D01*
X264029500Y-38985500D02*
X264029500Y-36325500D01*
X248669500Y-42922500D02*
X248669500Y-41592500D01*
X249999500Y-42922500D02*
X248669500Y-42922500D01*
X251269500Y-42922500D02*
X251269500Y-40262500D01*
X251269500Y-40262500D02*
X264029500Y-40262500D01*
X251269500Y-42922500D02*
X264029500Y-42922500D01*
X264029500Y-42922500D02*
X264029500Y-40262500D01*
X213617500Y-67758000D02*
X214947500Y-67758000D01*
X213617500Y-69088000D02*
X213617500Y-67758000D01*
X213617500Y-70358000D02*
X216277500Y-70358000D01*
X216277500Y-70358000D02*
X216277500Y-78038000D01*
X213617500Y-70358000D02*
X213617500Y-78038000D01*
X213617500Y-78038000D02*
X216277500Y-78038000D01*
X215967000Y-47184000D02*
X217297000Y-47184000D01*
X215967000Y-48514000D02*
X215967000Y-47184000D01*
X215967000Y-49784000D02*
X218627000Y-49784000D01*
X218627000Y-49784000D02*
X218627000Y-52384000D01*
X215967000Y-49784000D02*
X215967000Y-52384000D01*
X215967000Y-52384000D02*
X218627000Y-52384000D01*
X227143000Y-74171500D02*
X228473000Y-74171500D01*
X227143000Y-75501500D02*
X227143000Y-74171500D01*
X227143000Y-76771500D02*
X229803000Y-76771500D01*
X229803000Y-76771500D02*
X229803000Y-76831500D01*
X227143000Y-76771500D02*
X227143000Y-76831500D01*
X227143000Y-76831500D02*
X229803000Y-76831500D01*
X211428000Y-63028500D02*
X206188000Y-63028500D01*
X211428000Y-60288500D02*
X206188000Y-60288500D01*
X211428000Y-63028500D02*
X211428000Y-60288500D01*
X206188000Y-63028500D02*
X206188000Y-60288500D01*
X206378500Y-59536000D02*
X206378500Y-56796000D01*
X211618500Y-59536000D02*
X211618500Y-56796000D01*
X211618500Y-56796000D02*
X206378500Y-56796000D01*
X211618500Y-59536000D02*
X206378500Y-59536000D01*
X214853000Y-31115000D02*
G75*
G03X214853000Y-31115000I-2620000J0D01*
G01*
X243808000Y-45422500D02*
G75*
G03X243808000Y-45422500I-3270000J0D01*
G01*
X237308000Y-45422500D02*
X243768000Y-45422500D01*
X237308000Y-45382500D02*
X243768000Y-45382500D01*
X237308000Y-45342500D02*
X243768000Y-45342500D01*
X237310000Y-45302500D02*
X243766000Y-45302500D01*
X237311000Y-45262500D02*
X243765000Y-45262500D01*
X237314000Y-45222500D02*
X243762000Y-45222500D01*
X237316000Y-45182500D02*
X239498000Y-45182500D01*
X241578000Y-45182500D02*
X243760000Y-45182500D01*
X237320000Y-45142500D02*
X239498000Y-45142500D01*
X241578000Y-45142500D02*
X243756000Y-45142500D01*
X237323000Y-45102500D02*
X239498000Y-45102500D01*
X241578000Y-45102500D02*
X243753000Y-45102500D01*
X237327000Y-45062500D02*
X239498000Y-45062500D01*
X241578000Y-45062500D02*
X243749000Y-45062500D01*
X237332000Y-45022500D02*
X239498000Y-45022500D01*
X241578000Y-45022500D02*
X243744000Y-45022500D01*
X237337000Y-44982500D02*
X239498000Y-44982500D01*
X241578000Y-44982500D02*
X243739000Y-44982500D01*
X237343000Y-44942500D02*
X239498000Y-44942500D01*
X241578000Y-44942500D02*
X243733000Y-44942500D01*
X237349000Y-44902500D02*
X239498000Y-44902500D01*
X241578000Y-44902500D02*
X243727000Y-44902500D01*
X237356000Y-44862500D02*
X239498000Y-44862500D01*
X241578000Y-44862500D02*
X243720000Y-44862500D01*
X237363000Y-44822500D02*
X239498000Y-44822500D01*
X241578000Y-44822500D02*
X243713000Y-44822500D01*
X237371000Y-44782500D02*
X239498000Y-44782500D01*
X241578000Y-44782500D02*
X243705000Y-44782500D01*
X237379000Y-44742500D02*
X239498000Y-44742500D01*
X241578000Y-44742500D02*
X243697000Y-44742500D01*
X237388000Y-44701500D02*
X239498000Y-44701500D01*
X241578000Y-44701500D02*
X243688000Y-44701500D01*
X237397000Y-44661500D02*
X239498000Y-44661500D01*
X241578000Y-44661500D02*
X243679000Y-44661500D01*
X237407000Y-44621500D02*
X239498000Y-44621500D01*
X241578000Y-44621500D02*
X243669000Y-44621500D01*
X237417000Y-44581500D02*
X239498000Y-44581500D01*
X241578000Y-44581500D02*
X243659000Y-44581500D01*
X237428000Y-44541500D02*
X239498000Y-44541500D01*
X241578000Y-44541500D02*
X243648000Y-44541500D01*
X237440000Y-44501500D02*
X239498000Y-44501500D01*
X241578000Y-44501500D02*
X243636000Y-44501500D01*
X237452000Y-44461500D02*
X239498000Y-44461500D01*
X241578000Y-44461500D02*
X243624000Y-44461500D01*
X237464000Y-44421500D02*
X239498000Y-44421500D01*
X241578000Y-44421500D02*
X243612000Y-44421500D01*
X237477000Y-44381500D02*
X239498000Y-44381500D01*
X241578000Y-44381500D02*
X243599000Y-44381500D01*
X237491000Y-44341500D02*
X239498000Y-44341500D01*
X241578000Y-44341500D02*
X243585000Y-44341500D01*
X237505000Y-44301500D02*
X239498000Y-44301500D01*
X241578000Y-44301500D02*
X243571000Y-44301500D01*
X237520000Y-44261500D02*
X239498000Y-44261500D01*
X241578000Y-44261500D02*
X243556000Y-44261500D01*
X237536000Y-44221500D02*
X239498000Y-44221500D01*
X241578000Y-44221500D02*
X243540000Y-44221500D01*
X237552000Y-44181500D02*
X239498000Y-44181500D01*
X241578000Y-44181500D02*
X243524000Y-44181500D01*
X237568000Y-44141500D02*
X239498000Y-44141500D01*
X241578000Y-44141500D02*
X243508000Y-44141500D01*
X237586000Y-44101500D02*
X239498000Y-44101500D01*
X241578000Y-44101500D02*
X243490000Y-44101500D01*
X237604000Y-44061500D02*
X239498000Y-44061500D01*
X241578000Y-44061500D02*
X243472000Y-44061500D01*
X237622000Y-44021500D02*
X239498000Y-44021500D01*
X241578000Y-44021500D02*
X243454000Y-44021500D01*
X237642000Y-43981500D02*
X239498000Y-43981500D01*
X241578000Y-43981500D02*
X243434000Y-43981500D01*
X237662000Y-43941500D02*
X239498000Y-43941500D01*
X241578000Y-43941500D02*
X243414000Y-43941500D01*
X237682000Y-43901500D02*
X239498000Y-43901500D01*
X241578000Y-43901500D02*
X243394000Y-43901500D01*
X237704000Y-43861500D02*
X239498000Y-43861500D01*
X241578000Y-43861500D02*
X243372000Y-43861500D01*
X237726000Y-43821500D02*
X239498000Y-43821500D01*
X241578000Y-43821500D02*
X243350000Y-43821500D01*
X237748000Y-43781500D02*
X239498000Y-43781500D01*
X241578000Y-43781500D02*
X243328000Y-43781500D01*
X237772000Y-43741500D02*
X239498000Y-43741500D01*
X241578000Y-43741500D02*
X243304000Y-43741500D01*
X237796000Y-43701500D02*
X239498000Y-43701500D01*
X241578000Y-43701500D02*
X243280000Y-43701500D01*
X237822000Y-43661500D02*
X239498000Y-43661500D01*
X241578000Y-43661500D02*
X243254000Y-43661500D01*
X237848000Y-43621500D02*
X239498000Y-43621500D01*
X241578000Y-43621500D02*
X243228000Y-43621500D01*
X237874000Y-43581500D02*
X239498000Y-43581500D01*
X241578000Y-43581500D02*
X243202000Y-43581500D01*
X237902000Y-43541500D02*
X239498000Y-43541500D01*
X241578000Y-43541500D02*
X243174000Y-43541500D01*
X237931000Y-43501500D02*
X239498000Y-43501500D01*
X241578000Y-43501500D02*
X243145000Y-43501500D01*
X237960000Y-43461500D02*
X239498000Y-43461500D01*
X241578000Y-43461500D02*
X243116000Y-43461500D01*
X237990000Y-43421500D02*
X239498000Y-43421500D01*
X241578000Y-43421500D02*
X243086000Y-43421500D01*
X238022000Y-43381500D02*
X239498000Y-43381500D01*
X241578000Y-43381500D02*
X243054000Y-43381500D01*
X238054000Y-43341500D02*
X239498000Y-43341500D01*
X241578000Y-43341500D02*
X243022000Y-43341500D01*
X238088000Y-43301500D02*
X239498000Y-43301500D01*
X241578000Y-43301500D02*
X242988000Y-43301500D01*
X238122000Y-43261500D02*
X239498000Y-43261500D01*
X241578000Y-43261500D02*
X242954000Y-43261500D01*
X238158000Y-43221500D02*
X239498000Y-43221500D01*
X241578000Y-43221500D02*
X242918000Y-43221500D01*
X238195000Y-43181500D02*
X239498000Y-43181500D01*
X241578000Y-43181500D02*
X242881000Y-43181500D01*
X238233000Y-43141500D02*
X239498000Y-43141500D01*
X241578000Y-43141500D02*
X242843000Y-43141500D01*
X238273000Y-43101500D02*
X242803000Y-43101500D01*
X238314000Y-43061500D02*
X242762000Y-43061500D01*
X238356000Y-43021500D02*
X242720000Y-43021500D01*
X238401000Y-42981500D02*
X242675000Y-42981500D01*
X238446000Y-42941500D02*
X242630000Y-42941500D01*
X238494000Y-42901500D02*
X242582000Y-42901500D01*
X238543000Y-42861500D02*
X242533000Y-42861500D01*
X238594000Y-42821500D02*
X242482000Y-42821500D01*
X238648000Y-42781500D02*
X242428000Y-42781500D01*
X238704000Y-42741500D02*
X242372000Y-42741500D01*
X238762000Y-42701500D02*
X242314000Y-42701500D01*
X238824000Y-42661500D02*
X242252000Y-42661500D01*
X238888000Y-42621500D02*
X242188000Y-42621500D01*
X238957000Y-42581500D02*
X242119000Y-42581500D01*
X239029000Y-42541500D02*
X242047000Y-42541500D01*
X239106000Y-42501500D02*
X241970000Y-42501500D01*
X239188000Y-42461500D02*
X241888000Y-42461500D01*
X239276000Y-42421500D02*
X241800000Y-42421500D01*
X239373000Y-42381500D02*
X241703000Y-42381500D01*
X239479000Y-42341500D02*
X241597000Y-42341500D01*
X239598000Y-42301500D02*
X241478000Y-42301500D01*
X239736000Y-42261500D02*
X241340000Y-42261500D01*
X239905000Y-42221500D02*
X241171000Y-42221500D01*
X240136000Y-42181500D02*
X240940000Y-42181500D01*
X238699000Y-48922741D02*
X238699000Y-48292741D01*
X238384000Y-48607741D02*
X239014000Y-48607741D01*
X243009500Y-49626759D02*
X242379500Y-49626759D01*
X242694500Y-49311759D02*
X242694500Y-49941759D01*
X241257500Y-56053000D02*
X240453500Y-56053000D01*
X241488500Y-56013000D02*
X240222500Y-56013000D01*
X241657500Y-55973000D02*
X240053500Y-55973000D01*
X241795500Y-55933000D02*
X239915500Y-55933000D01*
X241914500Y-55893000D02*
X239796500Y-55893000D01*
X242020500Y-55853000D02*
X239690500Y-55853000D01*
X242117500Y-55813000D02*
X239593500Y-55813000D01*
X242205500Y-55773000D02*
X239505500Y-55773000D01*
X242287500Y-55733000D02*
X239423500Y-55733000D01*
X242364500Y-55693000D02*
X239346500Y-55693000D01*
X242436500Y-55653000D02*
X239274500Y-55653000D01*
X242505500Y-55613000D02*
X239205500Y-55613000D01*
X242569500Y-55573000D02*
X239141500Y-55573000D01*
X242631500Y-55533000D02*
X239079500Y-55533000D01*
X242689500Y-55493000D02*
X239021500Y-55493000D01*
X242745500Y-55453000D02*
X238965500Y-55453000D01*
X242799500Y-55413000D02*
X238911500Y-55413000D01*
X242850500Y-55373000D02*
X238860500Y-55373000D01*
X242899500Y-55333000D02*
X238811500Y-55333000D01*
X242947500Y-55293000D02*
X238763500Y-55293000D01*
X242992500Y-55253000D02*
X238718500Y-55253000D01*
X243037500Y-55213000D02*
X238673500Y-55213000D01*
X243079500Y-55173000D02*
X238631500Y-55173000D01*
X243120500Y-55133000D02*
X238590500Y-55133000D01*
X239815500Y-55093000D02*
X238550500Y-55093000D01*
X243160500Y-55093000D02*
X241895500Y-55093000D01*
X239815500Y-55053000D02*
X238512500Y-55053000D01*
X243198500Y-55053000D02*
X241895500Y-55053000D01*
X239815500Y-55013000D02*
X238475500Y-55013000D01*
X243235500Y-55013000D02*
X241895500Y-55013000D01*
X239815500Y-54973000D02*
X238439500Y-54973000D01*
X243271500Y-54973000D02*
X241895500Y-54973000D01*
X239815500Y-54933000D02*
X238405500Y-54933000D01*
X243305500Y-54933000D02*
X241895500Y-54933000D01*
X239815500Y-54893000D02*
X238371500Y-54893000D01*
X243339500Y-54893000D02*
X241895500Y-54893000D01*
X239815500Y-54853000D02*
X238339500Y-54853000D01*
X243371500Y-54853000D02*
X241895500Y-54853000D01*
X239815500Y-54813000D02*
X238307500Y-54813000D01*
X243403500Y-54813000D02*
X241895500Y-54813000D01*
X239815500Y-54773000D02*
X238277500Y-54773000D01*
X243433500Y-54773000D02*
X241895500Y-54773000D01*
X239815500Y-54733000D02*
X238248500Y-54733000D01*
X243462500Y-54733000D02*
X241895500Y-54733000D01*
X239815500Y-54693000D02*
X238219500Y-54693000D01*
X243491500Y-54693000D02*
X241895500Y-54693000D01*
X239815500Y-54653000D02*
X238191500Y-54653000D01*
X243519500Y-54653000D02*
X241895500Y-54653000D01*
X239815500Y-54613000D02*
X238165500Y-54613000D01*
X243545500Y-54613000D02*
X241895500Y-54613000D01*
X239815500Y-54573000D02*
X238139500Y-54573000D01*
X243571500Y-54573000D02*
X241895500Y-54573000D01*
X239815500Y-54533000D02*
X238113500Y-54533000D01*
X243597500Y-54533000D02*
X241895500Y-54533000D01*
X239815500Y-54493000D02*
X238089500Y-54493000D01*
X243621500Y-54493000D02*
X241895500Y-54493000D01*
X239815500Y-54453000D02*
X238065500Y-54453000D01*
X243645500Y-54453000D02*
X241895500Y-54453000D01*
X239815500Y-54413000D02*
X238043500Y-54413000D01*
X243667500Y-54413000D02*
X241895500Y-54413000D01*
X239815500Y-54373000D02*
X238021500Y-54373000D01*
X243689500Y-54373000D02*
X241895500Y-54373000D01*
X239815500Y-54333000D02*
X237999500Y-54333000D01*
X243711500Y-54333000D02*
X241895500Y-54333000D01*
X239815500Y-54293000D02*
X237979500Y-54293000D01*
X243731500Y-54293000D02*
X241895500Y-54293000D01*
X239815500Y-54253000D02*
X237959500Y-54253000D01*
X243751500Y-54253000D02*
X241895500Y-54253000D01*
X239815500Y-54213000D02*
X237939500Y-54213000D01*
X243771500Y-54213000D02*
X241895500Y-54213000D01*
X239815500Y-54173000D02*
X237921500Y-54173000D01*
X243789500Y-54173000D02*
X241895500Y-54173000D01*
X239815500Y-54133000D02*
X237903500Y-54133000D01*
X243807500Y-54133000D02*
X241895500Y-54133000D01*
X239815500Y-54093000D02*
X237885500Y-54093000D01*
X243825500Y-54093000D02*
X241895500Y-54093000D01*
X239815500Y-54053000D02*
X237869500Y-54053000D01*
X243841500Y-54053000D02*
X241895500Y-54053000D01*
X239815500Y-54013000D02*
X237853500Y-54013000D01*
X243857500Y-54013000D02*
X241895500Y-54013000D01*
X239815500Y-53973000D02*
X237837500Y-53973000D01*
X243873500Y-53973000D02*
X241895500Y-53973000D01*
X239815500Y-53933000D02*
X237822500Y-53933000D01*
X243888500Y-53933000D02*
X241895500Y-53933000D01*
X239815500Y-53893000D02*
X237808500Y-53893000D01*
X243902500Y-53893000D02*
X241895500Y-53893000D01*
X239815500Y-53853000D02*
X237794500Y-53853000D01*
X243916500Y-53853000D02*
X241895500Y-53853000D01*
X239815500Y-53813000D02*
X237781500Y-53813000D01*
X243929500Y-53813000D02*
X241895500Y-53813000D01*
X239815500Y-53773000D02*
X237769500Y-53773000D01*
X243941500Y-53773000D02*
X241895500Y-53773000D01*
X239815500Y-53733000D02*
X237757500Y-53733000D01*
X243953500Y-53733000D02*
X241895500Y-53733000D01*
X239815500Y-53693000D02*
X237745500Y-53693000D01*
X243965500Y-53693000D02*
X241895500Y-53693000D01*
X239815500Y-53653000D02*
X237734500Y-53653000D01*
X243976500Y-53653000D02*
X241895500Y-53653000D01*
X239815500Y-53613000D02*
X237724500Y-53613000D01*
X243986500Y-53613000D02*
X241895500Y-53613000D01*
X239815500Y-53573000D02*
X237714500Y-53573000D01*
X243996500Y-53573000D02*
X241895500Y-53573000D01*
X239815500Y-53533000D02*
X237705500Y-53533000D01*
X244005500Y-53533000D02*
X241895500Y-53533000D01*
X239815500Y-53492000D02*
X237696500Y-53492000D01*
X244014500Y-53492000D02*
X241895500Y-53492000D01*
X239815500Y-53452000D02*
X237688500Y-53452000D01*
X244022500Y-53452000D02*
X241895500Y-53452000D01*
X239815500Y-53412000D02*
X237680500Y-53412000D01*
X244030500Y-53412000D02*
X241895500Y-53412000D01*
X239815500Y-53372000D02*
X237673500Y-53372000D01*
X244037500Y-53372000D02*
X241895500Y-53372000D01*
X239815500Y-53332000D02*
X237666500Y-53332000D01*
X244044500Y-53332000D02*
X241895500Y-53332000D01*
X239815500Y-53292000D02*
X237660500Y-53292000D01*
X244050500Y-53292000D02*
X241895500Y-53292000D01*
X239815500Y-53252000D02*
X237654500Y-53252000D01*
X244056500Y-53252000D02*
X241895500Y-53252000D01*
X239815500Y-53212000D02*
X237649500Y-53212000D01*
X244061500Y-53212000D02*
X241895500Y-53212000D01*
X239815500Y-53172000D02*
X237644500Y-53172000D01*
X244066500Y-53172000D02*
X241895500Y-53172000D01*
X239815500Y-53132000D02*
X237640500Y-53132000D01*
X244070500Y-53132000D02*
X241895500Y-53132000D01*
X239815500Y-53092000D02*
X237637500Y-53092000D01*
X244073500Y-53092000D02*
X241895500Y-53092000D01*
X239815500Y-53052000D02*
X237633500Y-53052000D01*
X244077500Y-53052000D02*
X241895500Y-53052000D01*
X244079500Y-53012000D02*
X237631500Y-53012000D01*
X244082500Y-52972000D02*
X237628500Y-52972000D01*
X244083500Y-52932000D02*
X237627500Y-52932000D01*
X244085500Y-52892000D02*
X237625500Y-52892000D01*
X244085500Y-52852000D02*
X237625500Y-52852000D01*
X244085500Y-52812000D02*
X237625500Y-52812000D01*
X244125500Y-52812000D02*
G75*
G03X244125500Y-52812000I-3270000J0D01*
G01*
X235108500Y-29865000D02*
G75*
G03X235108500Y-29865000I-3270000J0D01*
G01*
X228608500Y-29865000D02*
X235068500Y-29865000D01*
X228608500Y-29825000D02*
X235068500Y-29825000D01*
X228608500Y-29785000D02*
X235068500Y-29785000D01*
X228610500Y-29745000D02*
X235066500Y-29745000D01*
X228611500Y-29705000D02*
X235065500Y-29705000D01*
X228614500Y-29665000D02*
X235062500Y-29665000D01*
X228616500Y-29625000D02*
X230798500Y-29625000D01*
X232878500Y-29625000D02*
X235060500Y-29625000D01*
X228620500Y-29585000D02*
X230798500Y-29585000D01*
X232878500Y-29585000D02*
X235056500Y-29585000D01*
X228623500Y-29545000D02*
X230798500Y-29545000D01*
X232878500Y-29545000D02*
X235053500Y-29545000D01*
X228627500Y-29505000D02*
X230798500Y-29505000D01*
X232878500Y-29505000D02*
X235049500Y-29505000D01*
X228632500Y-29465000D02*
X230798500Y-29465000D01*
X232878500Y-29465000D02*
X235044500Y-29465000D01*
X228637500Y-29425000D02*
X230798500Y-29425000D01*
X232878500Y-29425000D02*
X235039500Y-29425000D01*
X228643500Y-29385000D02*
X230798500Y-29385000D01*
X232878500Y-29385000D02*
X235033500Y-29385000D01*
X228649500Y-29345000D02*
X230798500Y-29345000D01*
X232878500Y-29345000D02*
X235027500Y-29345000D01*
X228656500Y-29305000D02*
X230798500Y-29305000D01*
X232878500Y-29305000D02*
X235020500Y-29305000D01*
X228663500Y-29265000D02*
X230798500Y-29265000D01*
X232878500Y-29265000D02*
X235013500Y-29265000D01*
X228671500Y-29225000D02*
X230798500Y-29225000D01*
X232878500Y-29225000D02*
X235005500Y-29225000D01*
X228679500Y-29185000D02*
X230798500Y-29185000D01*
X232878500Y-29185000D02*
X234997500Y-29185000D01*
X228688500Y-29144000D02*
X230798500Y-29144000D01*
X232878500Y-29144000D02*
X234988500Y-29144000D01*
X228697500Y-29104000D02*
X230798500Y-29104000D01*
X232878500Y-29104000D02*
X234979500Y-29104000D01*
X228707500Y-29064000D02*
X230798500Y-29064000D01*
X232878500Y-29064000D02*
X234969500Y-29064000D01*
X228717500Y-29024000D02*
X230798500Y-29024000D01*
X232878500Y-29024000D02*
X234959500Y-29024000D01*
X228728500Y-28984000D02*
X230798500Y-28984000D01*
X232878500Y-28984000D02*
X234948500Y-28984000D01*
X228740500Y-28944000D02*
X230798500Y-28944000D01*
X232878500Y-28944000D02*
X234936500Y-28944000D01*
X228752500Y-28904000D02*
X230798500Y-28904000D01*
X232878500Y-28904000D02*
X234924500Y-28904000D01*
X228764500Y-28864000D02*
X230798500Y-28864000D01*
X232878500Y-28864000D02*
X234912500Y-28864000D01*
X228777500Y-28824000D02*
X230798500Y-28824000D01*
X232878500Y-28824000D02*
X234899500Y-28824000D01*
X228791500Y-28784000D02*
X230798500Y-28784000D01*
X232878500Y-28784000D02*
X234885500Y-28784000D01*
X228805500Y-28744000D02*
X230798500Y-28744000D01*
X232878500Y-28744000D02*
X234871500Y-28744000D01*
X228820500Y-28704000D02*
X230798500Y-28704000D01*
X232878500Y-28704000D02*
X234856500Y-28704000D01*
X228836500Y-28664000D02*
X230798500Y-28664000D01*
X232878500Y-28664000D02*
X234840500Y-28664000D01*
X228852500Y-28624000D02*
X230798500Y-28624000D01*
X232878500Y-28624000D02*
X234824500Y-28624000D01*
X228868500Y-28584000D02*
X230798500Y-28584000D01*
X232878500Y-28584000D02*
X234808500Y-28584000D01*
X228886500Y-28544000D02*
X230798500Y-28544000D01*
X232878500Y-28544000D02*
X234790500Y-28544000D01*
X228904500Y-28504000D02*
X230798500Y-28504000D01*
X232878500Y-28504000D02*
X234772500Y-28504000D01*
X228922500Y-28464000D02*
X230798500Y-28464000D01*
X232878500Y-28464000D02*
X234754500Y-28464000D01*
X228942500Y-28424000D02*
X230798500Y-28424000D01*
X232878500Y-28424000D02*
X234734500Y-28424000D01*
X228962500Y-28384000D02*
X230798500Y-28384000D01*
X232878500Y-28384000D02*
X234714500Y-28384000D01*
X228982500Y-28344000D02*
X230798500Y-28344000D01*
X232878500Y-28344000D02*
X234694500Y-28344000D01*
X229004500Y-28304000D02*
X230798500Y-28304000D01*
X232878500Y-28304000D02*
X234672500Y-28304000D01*
X229026500Y-28264000D02*
X230798500Y-28264000D01*
X232878500Y-28264000D02*
X234650500Y-28264000D01*
X229048500Y-28224000D02*
X230798500Y-28224000D01*
X232878500Y-28224000D02*
X234628500Y-28224000D01*
X229072500Y-28184000D02*
X230798500Y-28184000D01*
X232878500Y-28184000D02*
X234604500Y-28184000D01*
X229096500Y-28144000D02*
X230798500Y-28144000D01*
X232878500Y-28144000D02*
X234580500Y-28144000D01*
X229122500Y-28104000D02*
X230798500Y-28104000D01*
X232878500Y-28104000D02*
X234554500Y-28104000D01*
X229148500Y-28064000D02*
X230798500Y-28064000D01*
X232878500Y-28064000D02*
X234528500Y-28064000D01*
X229174500Y-28024000D02*
X230798500Y-28024000D01*
X232878500Y-28024000D02*
X234502500Y-28024000D01*
X229202500Y-27984000D02*
X230798500Y-27984000D01*
X232878500Y-27984000D02*
X234474500Y-27984000D01*
X229231500Y-27944000D02*
X230798500Y-27944000D01*
X232878500Y-27944000D02*
X234445500Y-27944000D01*
X229260500Y-27904000D02*
X230798500Y-27904000D01*
X232878500Y-27904000D02*
X234416500Y-27904000D01*
X229290500Y-27864000D02*
X230798500Y-27864000D01*
X232878500Y-27864000D02*
X234386500Y-27864000D01*
X229322500Y-27824000D02*
X230798500Y-27824000D01*
X232878500Y-27824000D02*
X234354500Y-27824000D01*
X229354500Y-27784000D02*
X230798500Y-27784000D01*
X232878500Y-27784000D02*
X234322500Y-27784000D01*
X229388500Y-27744000D02*
X230798500Y-27744000D01*
X232878500Y-27744000D02*
X234288500Y-27744000D01*
X229422500Y-27704000D02*
X230798500Y-27704000D01*
X232878500Y-27704000D02*
X234254500Y-27704000D01*
X229458500Y-27664000D02*
X230798500Y-27664000D01*
X232878500Y-27664000D02*
X234218500Y-27664000D01*
X229495500Y-27624000D02*
X230798500Y-27624000D01*
X232878500Y-27624000D02*
X234181500Y-27624000D01*
X229533500Y-27584000D02*
X230798500Y-27584000D01*
X232878500Y-27584000D02*
X234143500Y-27584000D01*
X229573500Y-27544000D02*
X234103500Y-27544000D01*
X229614500Y-27504000D02*
X234062500Y-27504000D01*
X229656500Y-27464000D02*
X234020500Y-27464000D01*
X229701500Y-27424000D02*
X233975500Y-27424000D01*
X229746500Y-27384000D02*
X233930500Y-27384000D01*
X229794500Y-27344000D02*
X233882500Y-27344000D01*
X229843500Y-27304000D02*
X233833500Y-27304000D01*
X229894500Y-27264000D02*
X233782500Y-27264000D01*
X229948500Y-27224000D02*
X233728500Y-27224000D01*
X230004500Y-27184000D02*
X233672500Y-27184000D01*
X230062500Y-27144000D02*
X233614500Y-27144000D01*
X230124500Y-27104000D02*
X233552500Y-27104000D01*
X230188500Y-27064000D02*
X233488500Y-27064000D01*
X230257500Y-27024000D02*
X233419500Y-27024000D01*
X230329500Y-26984000D02*
X233347500Y-26984000D01*
X230406500Y-26944000D02*
X233270500Y-26944000D01*
X230488500Y-26904000D02*
X233188500Y-26904000D01*
X230576500Y-26864000D02*
X233100500Y-26864000D01*
X230673500Y-26824000D02*
X233003500Y-26824000D01*
X230779500Y-26784000D02*
X232897500Y-26784000D01*
X230898500Y-26744000D02*
X232778500Y-26744000D01*
X231036500Y-26704000D02*
X232640500Y-26704000D01*
X231205500Y-26664000D02*
X232471500Y-26664000D01*
X231436500Y-26624000D02*
X232240500Y-26624000D01*
X229999500Y-33365241D02*
X229999500Y-32735241D01*
X229684500Y-33050241D02*
X230314500Y-33050241D01*
X245115000Y-28478241D02*
X245745000Y-28478241D01*
X245430000Y-28793241D02*
X245430000Y-28163241D01*
X246867000Y-22052000D02*
X247671000Y-22052000D01*
X246636000Y-22092000D02*
X247902000Y-22092000D01*
X246467000Y-22132000D02*
X248071000Y-22132000D01*
X246329000Y-22172000D02*
X248209000Y-22172000D01*
X246210000Y-22212000D02*
X248328000Y-22212000D01*
X246104000Y-22252000D02*
X248434000Y-22252000D01*
X246007000Y-22292000D02*
X248531000Y-22292000D01*
X245919000Y-22332000D02*
X248619000Y-22332000D01*
X245837000Y-22372000D02*
X248701000Y-22372000D01*
X245760000Y-22412000D02*
X248778000Y-22412000D01*
X245688000Y-22452000D02*
X248850000Y-22452000D01*
X245619000Y-22492000D02*
X248919000Y-22492000D01*
X245555000Y-22532000D02*
X248983000Y-22532000D01*
X245493000Y-22572000D02*
X249045000Y-22572000D01*
X245435000Y-22612000D02*
X249103000Y-22612000D01*
X245379000Y-22652000D02*
X249159000Y-22652000D01*
X245325000Y-22692000D02*
X249213000Y-22692000D01*
X245274000Y-22732000D02*
X249264000Y-22732000D01*
X245225000Y-22772000D02*
X249313000Y-22772000D01*
X245177000Y-22812000D02*
X249361000Y-22812000D01*
X245132000Y-22852000D02*
X249406000Y-22852000D01*
X245087000Y-22892000D02*
X249451000Y-22892000D01*
X245045000Y-22932000D02*
X249493000Y-22932000D01*
X245004000Y-22972000D02*
X249534000Y-22972000D01*
X248309000Y-23012000D02*
X249574000Y-23012000D01*
X244964000Y-23012000D02*
X246229000Y-23012000D01*
X248309000Y-23052000D02*
X249612000Y-23052000D01*
X244926000Y-23052000D02*
X246229000Y-23052000D01*
X248309000Y-23092000D02*
X249649000Y-23092000D01*
X244889000Y-23092000D02*
X246229000Y-23092000D01*
X248309000Y-23132000D02*
X249685000Y-23132000D01*
X244853000Y-23132000D02*
X246229000Y-23132000D01*
X248309000Y-23172000D02*
X249719000Y-23172000D01*
X244819000Y-23172000D02*
X246229000Y-23172000D01*
X248309000Y-23212000D02*
X249753000Y-23212000D01*
X244785000Y-23212000D02*
X246229000Y-23212000D01*
X248309000Y-23252000D02*
X249785000Y-23252000D01*
X244753000Y-23252000D02*
X246229000Y-23252000D01*
X248309000Y-23292000D02*
X249817000Y-23292000D01*
X244721000Y-23292000D02*
X246229000Y-23292000D01*
X248309000Y-23332000D02*
X249847000Y-23332000D01*
X244691000Y-23332000D02*
X246229000Y-23332000D01*
X248309000Y-23372000D02*
X249876000Y-23372000D01*
X244662000Y-23372000D02*
X246229000Y-23372000D01*
X248309000Y-23412000D02*
X249905000Y-23412000D01*
X244633000Y-23412000D02*
X246229000Y-23412000D01*
X248309000Y-23452000D02*
X249933000Y-23452000D01*
X244605000Y-23452000D02*
X246229000Y-23452000D01*
X248309000Y-23492000D02*
X249959000Y-23492000D01*
X244579000Y-23492000D02*
X246229000Y-23492000D01*
X248309000Y-23532000D02*
X249985000Y-23532000D01*
X244553000Y-23532000D02*
X246229000Y-23532000D01*
X248309000Y-23572000D02*
X250011000Y-23572000D01*
X244527000Y-23572000D02*
X246229000Y-23572000D01*
X248309000Y-23612000D02*
X250035000Y-23612000D01*
X244503000Y-23612000D02*
X246229000Y-23612000D01*
X248309000Y-23652000D02*
X250059000Y-23652000D01*
X244479000Y-23652000D02*
X246229000Y-23652000D01*
X248309000Y-23692000D02*
X250081000Y-23692000D01*
X244457000Y-23692000D02*
X246229000Y-23692000D01*
X248309000Y-23732000D02*
X250103000Y-23732000D01*
X244435000Y-23732000D02*
X246229000Y-23732000D01*
X248309000Y-23772000D02*
X250125000Y-23772000D01*
X244413000Y-23772000D02*
X246229000Y-23772000D01*
X248309000Y-23812000D02*
X250145000Y-23812000D01*
X244393000Y-23812000D02*
X246229000Y-23812000D01*
X248309000Y-23852000D02*
X250165000Y-23852000D01*
X244373000Y-23852000D02*
X246229000Y-23852000D01*
X248309000Y-23892000D02*
X250185000Y-23892000D01*
X244353000Y-23892000D02*
X246229000Y-23892000D01*
X248309000Y-23932000D02*
X250203000Y-23932000D01*
X244335000Y-23932000D02*
X246229000Y-23932000D01*
X248309000Y-23972000D02*
X250221000Y-23972000D01*
X244317000Y-23972000D02*
X246229000Y-23972000D01*
X248309000Y-24012000D02*
X250239000Y-24012000D01*
X244299000Y-24012000D02*
X246229000Y-24012000D01*
X248309000Y-24052000D02*
X250255000Y-24052000D01*
X244283000Y-24052000D02*
X246229000Y-24052000D01*
X248309000Y-24092000D02*
X250271000Y-24092000D01*
X244267000Y-24092000D02*
X246229000Y-24092000D01*
X248309000Y-24132000D02*
X250287000Y-24132000D01*
X244251000Y-24132000D02*
X246229000Y-24132000D01*
X248309000Y-24172000D02*
X250302000Y-24172000D01*
X244236000Y-24172000D02*
X246229000Y-24172000D01*
X248309000Y-24212000D02*
X250316000Y-24212000D01*
X244222000Y-24212000D02*
X246229000Y-24212000D01*
X248309000Y-24252000D02*
X250330000Y-24252000D01*
X244208000Y-24252000D02*
X246229000Y-24252000D01*
X248309000Y-24292000D02*
X250343000Y-24292000D01*
X244195000Y-24292000D02*
X246229000Y-24292000D01*
X248309000Y-24332000D02*
X250355000Y-24332000D01*
X244183000Y-24332000D02*
X246229000Y-24332000D01*
X248309000Y-24372000D02*
X250367000Y-24372000D01*
X244171000Y-24372000D02*
X246229000Y-24372000D01*
X248309000Y-24412000D02*
X250379000Y-24412000D01*
X244159000Y-24412000D02*
X246229000Y-24412000D01*
X248309000Y-24452000D02*
X250390000Y-24452000D01*
X244148000Y-24452000D02*
X246229000Y-24452000D01*
X248309000Y-24492000D02*
X250400000Y-24492000D01*
X244138000Y-24492000D02*
X246229000Y-24492000D01*
X248309000Y-24532000D02*
X250410000Y-24532000D01*
X244128000Y-24532000D02*
X246229000Y-24532000D01*
X248309000Y-24572000D02*
X250419000Y-24572000D01*
X244119000Y-24572000D02*
X246229000Y-24572000D01*
X248309000Y-24613000D02*
X250428000Y-24613000D01*
X244110000Y-24613000D02*
X246229000Y-24613000D01*
X248309000Y-24653000D02*
X250436000Y-24653000D01*
X244102000Y-24653000D02*
X246229000Y-24653000D01*
X248309000Y-24693000D02*
X250444000Y-24693000D01*
X244094000Y-24693000D02*
X246229000Y-24693000D01*
X248309000Y-24733000D02*
X250451000Y-24733000D01*
X244087000Y-24733000D02*
X246229000Y-24733000D01*
X248309000Y-24773000D02*
X250458000Y-24773000D01*
X244080000Y-24773000D02*
X246229000Y-24773000D01*
X248309000Y-24813000D02*
X250464000Y-24813000D01*
X244074000Y-24813000D02*
X246229000Y-24813000D01*
X248309000Y-24853000D02*
X250470000Y-24853000D01*
X244068000Y-24853000D02*
X246229000Y-24853000D01*
X248309000Y-24893000D02*
X250475000Y-24893000D01*
X244063000Y-24893000D02*
X246229000Y-24893000D01*
X248309000Y-24933000D02*
X250480000Y-24933000D01*
X244058000Y-24933000D02*
X246229000Y-24933000D01*
X248309000Y-24973000D02*
X250484000Y-24973000D01*
X244054000Y-24973000D02*
X246229000Y-24973000D01*
X248309000Y-25013000D02*
X250487000Y-25013000D01*
X244051000Y-25013000D02*
X246229000Y-25013000D01*
X248309000Y-25053000D02*
X250491000Y-25053000D01*
X244047000Y-25053000D02*
X246229000Y-25053000D01*
X244045000Y-25093000D02*
X250493000Y-25093000D01*
X244042000Y-25133000D02*
X250496000Y-25133000D01*
X244041000Y-25173000D02*
X250497000Y-25173000D01*
X244039000Y-25213000D02*
X250499000Y-25213000D01*
X244039000Y-25253000D02*
X250499000Y-25253000D01*
X244039000Y-25293000D02*
X250499000Y-25293000D01*
X250539000Y-25293000D02*
G75*
G03X250539000Y-25293000I-3270000J0D01*
G01*
X223227000Y-28933000D02*
X223227000Y-26693000D01*
X223227000Y-26693000D02*
X218987000Y-26693000D01*
X218987000Y-26693000D02*
X218987000Y-28933000D01*
X218987000Y-28933000D02*
X223227000Y-28933000D01*
X223877000Y-27813000D02*
X223227000Y-27813000D01*
X218337000Y-27813000D02*
X218987000Y-27813000D01*
X222507000Y-28933000D02*
X222507000Y-26693000D01*
X222387000Y-28933000D02*
X222387000Y-26693000D01*
X222627000Y-28933000D02*
X222627000Y-26693000D01*
X254561000Y-33093000D02*
X254561000Y-30153000D01*
X254561000Y-30153000D02*
X249121000Y-30153000D01*
X249121000Y-30153000D02*
X249121000Y-33093000D01*
X249121000Y-33093000D02*
X254561000Y-33093000D01*
X255581000Y-31623000D02*
X254561000Y-31623000D01*
X248101000Y-31623000D02*
X249121000Y-31623000D01*
X253661000Y-33093000D02*
X253661000Y-30153000D01*
X253541000Y-33093000D02*
X253541000Y-30153000D01*
X253781000Y-33093000D02*
X253781000Y-30153000D01*
X213801000Y-34484000D02*
X211141000Y-34484000D01*
X213801000Y-47244000D02*
X213801000Y-34484000D01*
X211141000Y-47244000D02*
X211141000Y-34484000D01*
X213801000Y-47244000D02*
X211141000Y-47244000D01*
X213801000Y-48514000D02*
X213801000Y-49844000D01*
X213801000Y-49844000D02*
X212471000Y-49844000D01*
X237874500Y-24641500D02*
X237874500Y-27301500D01*
X240474500Y-24641500D02*
X237874500Y-24641500D01*
X240474500Y-27301500D02*
X237874500Y-27301500D01*
X240474500Y-24641500D02*
X240474500Y-27301500D01*
X241744500Y-24641500D02*
X243074500Y-24641500D01*
X243074500Y-24641500D02*
X243074500Y-25971500D01*
X233867000Y-53209500D02*
X232537000Y-53209500D01*
X233867000Y-51879500D02*
X233867000Y-53209500D01*
X233867000Y-50609500D02*
X231207000Y-50609500D01*
X231207000Y-50609500D02*
X231207000Y-37849500D01*
X233867000Y-50609500D02*
X233867000Y-37849500D01*
X233867000Y-37849500D02*
X231207000Y-37849500D01*
X244662000Y-36262000D02*
X242002000Y-36262000D01*
X244662000Y-36322000D02*
X244662000Y-36262000D01*
X242002000Y-36322000D02*
X242002000Y-36262000D01*
X244662000Y-36322000D02*
X242002000Y-36322000D01*
X244662000Y-37592000D02*
X244662000Y-38922000D01*
X244662000Y-38922000D02*
X243332000Y-38922000D01*
X217837000Y-30329000D02*
X217837000Y-29999000D01*
X217837000Y-29999000D02*
X224377000Y-29999000D01*
X224377000Y-29999000D02*
X224377000Y-30329000D01*
X217837000Y-32409000D02*
X217837000Y-32739000D01*
X217837000Y-32739000D02*
X224377000Y-32739000D01*
X224377000Y-32739000D02*
X224377000Y-32409000D01*
X235839000Y-59563000D02*
X241173000Y-59563000D01*
X241173000Y-59563000D02*
X241173000Y-70231000D01*
X241173000Y-70231000D02*
X235839000Y-70231000D01*
X235839000Y-70231000D02*
X235839000Y-70231000D01*
X238379000Y-60071000D02*
X238379000Y-62357000D01*
X238379000Y-62357000D02*
X236093000Y-62357000D01*
X236093000Y-62357000D02*
X236093000Y-62357000D01*
X235509000Y-58987000D02*
X264709000Y-58987000D01*
X264709000Y-58987000D02*
X264709000Y-74437000D01*
X264709000Y-74437000D02*
X235509000Y-74437000D01*
X235509000Y-74437000D02*
X235509000Y-58987000D01*
X235509000Y-58987000D02*
X235509000Y-58987000D01*
X235839000Y-70231000D02*
X235839000Y-59563000D01*
X235839000Y-59563000D02*
X235839000Y-59563000D01*
X248281500Y-45787000D02*
X245621500Y-45787000D01*
X248281500Y-50927000D02*
X248281500Y-45787000D01*
X245621500Y-50927000D02*
X245621500Y-45787000D01*
X248281500Y-50927000D02*
X245621500Y-50927000D01*
X248281500Y-52197000D02*
X248281500Y-53527000D01*
X248281500Y-53527000D02*
X246951500Y-53527000D01*
X244535000Y-30293000D02*
X244535000Y-31623000D01*
X243205000Y-30293000D02*
X244535000Y-30293000D01*
X241935000Y-30293000D02*
X241935000Y-32953000D01*
X241935000Y-32953000D02*
X236795000Y-32953000D01*
X241935000Y-30293000D02*
X236795000Y-30293000D01*
X236795000Y-30293000D02*
X236795000Y-32953000D01*
X217853500Y-56919500D02*
X217853500Y-63169500D01*
X212803500Y-56919500D02*
X212803500Y-63169500D01*
X212803500Y-56919500D02*
G75*
G02X217853500Y-56919500I2525000J0D01*
G01*
X212803500Y-63169500D02*
G75*
G03X217853500Y-63169500I2525000J0D01*
G01*
D10*
X224472595Y-35476380D02*
X224472595Y-36285904D01*
X224520214Y-36381142D01*
X224567833Y-36428761D01*
X224663071Y-36476380D01*
X224853547Y-36476380D01*
X224948785Y-36428761D01*
X224996404Y-36381142D01*
X225044023Y-36285904D01*
X225044023Y-35476380D01*
X226044023Y-36476380D02*
X225472595Y-36476380D01*
X225758309Y-36476380D02*
X225758309Y-35476380D01*
X225663071Y-35619238D01*
X225567833Y-35714476D01*
X225472595Y-35762095D01*
X259984976Y-34440880D02*
X259984976Y-35155166D01*
X259937357Y-35298023D01*
X259842119Y-35393261D01*
X259699261Y-35440880D01*
X259604023Y-35440880D01*
X260984976Y-35440880D02*
X260413547Y-35440880D01*
X260699261Y-35440880D02*
X260699261Y-34440880D01*
X260604023Y-34583738D01*
X260508785Y-34678976D01*
X260413547Y-34726595D01*
X261318309Y-34440880D02*
X261937357Y-34440880D01*
X261604023Y-34821833D01*
X261746880Y-34821833D01*
X261842119Y-34869452D01*
X261889738Y-34917071D01*
X261937357Y-35012309D01*
X261937357Y-35250404D01*
X261889738Y-35345642D01*
X261842119Y-35393261D01*
X261746880Y-35440880D01*
X261461166Y-35440880D01*
X261365928Y-35393261D01*
X261318309Y-35345642D01*
X259032476Y-43838880D02*
X259032476Y-44553166D01*
X258984857Y-44696023D01*
X258889619Y-44791261D01*
X258746761Y-44838880D01*
X258651523Y-44838880D01*
X260032476Y-44838880D02*
X259461047Y-44838880D01*
X259746761Y-44838880D02*
X259746761Y-43838880D01*
X259651523Y-43981738D01*
X259556285Y-44076976D01*
X259461047Y-44124595D01*
X260413428Y-43934119D02*
X260461047Y-43886500D01*
X260556285Y-43838880D01*
X260794380Y-43838880D01*
X260889619Y-43886500D01*
X260937238Y-43934119D01*
X260984857Y-44029357D01*
X260984857Y-44124595D01*
X260937238Y-44267452D01*
X260365809Y-44838880D01*
X260984857Y-44838880D01*
X211288380Y-72913833D02*
X212002666Y-72913833D01*
X212145523Y-72961452D01*
X212240761Y-73056690D01*
X212288380Y-73199547D01*
X212288380Y-73294785D01*
X211288380Y-72532880D02*
X211288380Y-71866214D01*
X212288380Y-72294785D01*
X215860380Y-45926333D02*
X216574666Y-45926333D01*
X216717523Y-45973952D01*
X216812761Y-46069190D01*
X216860380Y-46212047D01*
X216860380Y-46307285D01*
X216193714Y-45021571D02*
X216860380Y-45021571D01*
X215812761Y-45259666D02*
X216527047Y-45497761D01*
X216527047Y-44878714D01*
X225194880Y-76215833D02*
X225909166Y-76215833D01*
X226052023Y-76263452D01*
X226147261Y-76358690D01*
X226194880Y-76501547D01*
X226194880Y-76596785D01*
X225194880Y-75834880D02*
X225194880Y-75215833D01*
X225575833Y-75549166D01*
X225575833Y-75406309D01*
X225623452Y-75311071D01*
X225671071Y-75263452D01*
X225766309Y-75215833D01*
X226004404Y-75215833D01*
X226099642Y-75263452D01*
X226147261Y-75311071D01*
X226194880Y-75406309D01*
X226194880Y-75692023D01*
X226147261Y-75787261D01*
X226099642Y-75834880D01*
X205589142Y-61888666D02*
X205636761Y-61936285D01*
X205684380Y-62079142D01*
X205684380Y-62174380D01*
X205636761Y-62317238D01*
X205541523Y-62412476D01*
X205446285Y-62460095D01*
X205255809Y-62507714D01*
X205112952Y-62507714D01*
X204922476Y-62460095D01*
X204827238Y-62412476D01*
X204732000Y-62317238D01*
X204684380Y-62174380D01*
X204684380Y-62079142D01*
X204732000Y-61936285D01*
X204779619Y-61888666D01*
X205684380Y-60936285D02*
X205684380Y-61507714D01*
X205684380Y-61222000D02*
X204684380Y-61222000D01*
X204827238Y-61317238D01*
X204922476Y-61412476D01*
X204970095Y-61507714D01*
X205589142Y-58713666D02*
X205636761Y-58761285D01*
X205684380Y-58904142D01*
X205684380Y-58999380D01*
X205636761Y-59142238D01*
X205541523Y-59237476D01*
X205446285Y-59285095D01*
X205255809Y-59332714D01*
X205112952Y-59332714D01*
X204922476Y-59285095D01*
X204827238Y-59237476D01*
X204732000Y-59142238D01*
X204684380Y-58999380D01*
X204684380Y-58904142D01*
X204732000Y-58761285D01*
X204779619Y-58713666D01*
X204779619Y-58332714D02*
X204732000Y-58285095D01*
X204684380Y-58189857D01*
X204684380Y-57951761D01*
X204732000Y-57856523D01*
X204779619Y-57808904D01*
X204874857Y-57761285D01*
X204970095Y-57761285D01*
X205112952Y-57808904D01*
X205684380Y-58380333D01*
X205684380Y-57761285D01*
X214971333Y-28932142D02*
X214923714Y-28979761D01*
X214780857Y-29027380D01*
X214685619Y-29027380D01*
X214542761Y-28979761D01*
X214447523Y-28884523D01*
X214399904Y-28789285D01*
X214352285Y-28598809D01*
X214352285Y-28455952D01*
X214399904Y-28265476D01*
X214447523Y-28170238D01*
X214542761Y-28075000D01*
X214685619Y-28027380D01*
X214780857Y-28027380D01*
X214923714Y-28075000D01*
X214971333Y-28122619D01*
X215304666Y-28027380D02*
X215923714Y-28027380D01*
X215590380Y-28408333D01*
X215733238Y-28408333D01*
X215828476Y-28455952D01*
X215876095Y-28503571D01*
X215923714Y-28598809D01*
X215923714Y-28836904D01*
X215876095Y-28932142D01*
X215828476Y-28979761D01*
X215733238Y-29027380D01*
X215447523Y-29027380D01*
X215352285Y-28979761D01*
X215304666Y-28932142D01*
X243816142Y-42267166D02*
X243863761Y-42314785D01*
X243911380Y-42457642D01*
X243911380Y-42552880D01*
X243863761Y-42695738D01*
X243768523Y-42790976D01*
X243673285Y-42838595D01*
X243482809Y-42886214D01*
X243339952Y-42886214D01*
X243149476Y-42838595D01*
X243054238Y-42790976D01*
X242959000Y-42695738D01*
X242911380Y-42552880D01*
X242911380Y-42457642D01*
X242959000Y-42314785D01*
X243006619Y-42267166D01*
X243244714Y-41410023D02*
X243911380Y-41410023D01*
X242863761Y-41648119D02*
X243578047Y-41886214D01*
X243578047Y-41267166D01*
X244705142Y-56554666D02*
X244752761Y-56602285D01*
X244800380Y-56745142D01*
X244800380Y-56840380D01*
X244752761Y-56983238D01*
X244657523Y-57078476D01*
X244562285Y-57126095D01*
X244371809Y-57173714D01*
X244228952Y-57173714D01*
X244038476Y-57126095D01*
X243943238Y-57078476D01*
X243848000Y-56983238D01*
X243800380Y-56840380D01*
X243800380Y-56745142D01*
X243848000Y-56602285D01*
X243895619Y-56554666D01*
X243800380Y-55649904D02*
X243800380Y-56126095D01*
X244276571Y-56173714D01*
X244228952Y-56126095D01*
X244181333Y-56030857D01*
X244181333Y-55792761D01*
X244228952Y-55697523D01*
X244276571Y-55649904D01*
X244371809Y-55602285D01*
X244609904Y-55602285D01*
X244705142Y-55649904D01*
X244752761Y-55697523D01*
X244800380Y-55792761D01*
X244800380Y-56030857D01*
X244752761Y-56126095D01*
X244705142Y-56173714D01*
X230909833Y-25503142D02*
X230862214Y-25550761D01*
X230719357Y-25598380D01*
X230624119Y-25598380D01*
X230481261Y-25550761D01*
X230386023Y-25455523D01*
X230338404Y-25360285D01*
X230290785Y-25169809D01*
X230290785Y-25026952D01*
X230338404Y-24836476D01*
X230386023Y-24741238D01*
X230481261Y-24646000D01*
X230624119Y-24598380D01*
X230719357Y-24598380D01*
X230862214Y-24646000D01*
X230909833Y-24693619D01*
X231766976Y-24598380D02*
X231576500Y-24598380D01*
X231481261Y-24646000D01*
X231433642Y-24693619D01*
X231338404Y-24836476D01*
X231290785Y-25026952D01*
X231290785Y-25407904D01*
X231338404Y-25503142D01*
X231386023Y-25550761D01*
X231481261Y-25598380D01*
X231671738Y-25598380D01*
X231766976Y-25550761D01*
X231814595Y-25503142D01*
X231862214Y-25407904D01*
X231862214Y-25169809D01*
X231814595Y-25074571D01*
X231766976Y-25026952D01*
X231671738Y-24979333D01*
X231481261Y-24979333D01*
X231386023Y-25026952D01*
X231338404Y-25074571D01*
X231290785Y-25169809D01*
X252071142Y-25312666D02*
X252118761Y-25360285D01*
X252166380Y-25503142D01*
X252166380Y-25598380D01*
X252118761Y-25741238D01*
X252023523Y-25836476D01*
X251928285Y-25884095D01*
X251737809Y-25931714D01*
X251594952Y-25931714D01*
X251404476Y-25884095D01*
X251309238Y-25836476D01*
X251214000Y-25741238D01*
X251166380Y-25598380D01*
X251166380Y-25503142D01*
X251214000Y-25360285D01*
X251261619Y-25312666D01*
X251166380Y-24979333D02*
X251166380Y-24312666D01*
X252166380Y-24741238D01*
X226274404Y-26741380D02*
X226274404Y-25741380D01*
X226512500Y-25741380D01*
X226655357Y-25789000D01*
X226750595Y-25884238D01*
X226798214Y-25979476D01*
X226845833Y-26169952D01*
X226845833Y-26312809D01*
X226798214Y-26503285D01*
X226750595Y-26598523D01*
X226655357Y-26693761D01*
X226512500Y-26741380D01*
X226274404Y-26741380D01*
X227798214Y-26741380D02*
X227226785Y-26741380D01*
X227512500Y-26741380D02*
X227512500Y-25741380D01*
X227417261Y-25884238D01*
X227322023Y-25979476D01*
X227226785Y-26027095D01*
X226623595Y-28519380D02*
X226623595Y-27519380D01*
X227195023Y-28519380D02*
X226766452Y-27947952D01*
X227195023Y-27519380D02*
X226623595Y-28090809D01*
X251102904Y-34545380D02*
X251102904Y-33545380D01*
X251341000Y-33545380D01*
X251483857Y-33593000D01*
X251579095Y-33688238D01*
X251626714Y-33783476D01*
X251674333Y-33973952D01*
X251674333Y-34116809D01*
X251626714Y-34307285D01*
X251579095Y-34402523D01*
X251483857Y-34497761D01*
X251341000Y-34545380D01*
X251102904Y-34545380D01*
X252055285Y-33640619D02*
X252102904Y-33593000D01*
X252198142Y-33545380D01*
X252436238Y-33545380D01*
X252531476Y-33593000D01*
X252579095Y-33640619D01*
X252626714Y-33735857D01*
X252626714Y-33831095D01*
X252579095Y-33973952D01*
X252007666Y-34545380D01*
X252626714Y-34545380D01*
X257484595Y-34361380D02*
X257484595Y-33361380D01*
X258056023Y-34361380D02*
X257627452Y-33789952D01*
X258056023Y-33361380D02*
X257484595Y-33932809D01*
X212137666Y-50296380D02*
X212137666Y-51010666D01*
X212090047Y-51153523D01*
X211994809Y-51248761D01*
X211851952Y-51296380D01*
X211756714Y-51296380D01*
X213137666Y-51296380D02*
X212566238Y-51296380D01*
X212851952Y-51296380D02*
X212851952Y-50296380D01*
X212756714Y-50439238D01*
X212661476Y-50534476D01*
X212566238Y-50582095D01*
X244498880Y-25606333D02*
X245213166Y-25606333D01*
X245356023Y-25653952D01*
X245451261Y-25749190D01*
X245498880Y-25892047D01*
X245498880Y-25987285D01*
X244594119Y-25177761D02*
X244546500Y-25130142D01*
X244498880Y-25034904D01*
X244498880Y-24796809D01*
X244546500Y-24701571D01*
X244594119Y-24653952D01*
X244689357Y-24606333D01*
X244784595Y-24606333D01*
X244927452Y-24653952D01*
X245498880Y-25225380D01*
X245498880Y-24606333D01*
X232203666Y-53661880D02*
X232203666Y-54376166D01*
X232156047Y-54519023D01*
X232060809Y-54614261D01*
X231917952Y-54661880D01*
X231822714Y-54661880D01*
X233156047Y-53661880D02*
X232679857Y-53661880D01*
X232632238Y-54138071D01*
X232679857Y-54090452D01*
X232775095Y-54042833D01*
X233013190Y-54042833D01*
X233108428Y-54090452D01*
X233156047Y-54138071D01*
X233203666Y-54233309D01*
X233203666Y-54471404D01*
X233156047Y-54566642D01*
X233108428Y-54614261D01*
X233013190Y-54661880D01*
X232775095Y-54661880D01*
X232679857Y-54614261D01*
X232632238Y-54566642D01*
X240307880Y-38782523D02*
X241022166Y-38782523D01*
X241165023Y-38830142D01*
X241260261Y-38925380D01*
X241307880Y-39068238D01*
X241307880Y-39163476D01*
X241307880Y-37782523D02*
X241307880Y-38353952D01*
X241307880Y-38068238D02*
X240307880Y-38068238D01*
X240450738Y-38163476D01*
X240545976Y-38258714D01*
X240593595Y-38353952D01*
X240307880Y-37163476D02*
X240307880Y-37068238D01*
X240355500Y-36973000D01*
X240403119Y-36925380D01*
X240498357Y-36877761D01*
X240688833Y-36830142D01*
X240926928Y-36830142D01*
X241117404Y-36877761D01*
X241212642Y-36925380D01*
X241260261Y-36973000D01*
X241307880Y-37068238D01*
X241307880Y-37163476D01*
X241260261Y-37258714D01*
X241212642Y-37306333D01*
X241117404Y-37353952D01*
X240926928Y-37401571D01*
X240688833Y-37401571D01*
X240498357Y-37353952D01*
X240403119Y-37306333D01*
X240355500Y-37258714D01*
X240307880Y-37163476D01*
X226845833Y-31694380D02*
X226512500Y-31218190D01*
X226274404Y-31694380D02*
X226274404Y-30694380D01*
X226655357Y-30694380D01*
X226750595Y-30742000D01*
X226798214Y-30789619D01*
X226845833Y-30884857D01*
X226845833Y-31027714D01*
X226798214Y-31122952D01*
X226750595Y-31170571D01*
X226655357Y-31218190D01*
X226274404Y-31218190D01*
X227798214Y-31694380D02*
X227226785Y-31694380D01*
X227512500Y-31694380D02*
X227512500Y-30694380D01*
X227417261Y-30837238D01*
X227322023Y-30932476D01*
X227226785Y-30980095D01*
X236347095Y-57539380D02*
X236347095Y-58348904D01*
X236394714Y-58444142D01*
X236442333Y-58491761D01*
X236537571Y-58539380D01*
X236728047Y-58539380D01*
X236823285Y-58491761D01*
X236870904Y-58444142D01*
X236918523Y-58348904D01*
X236918523Y-57539380D01*
X237347095Y-57634619D02*
X237394714Y-57587000D01*
X237489952Y-57539380D01*
X237728047Y-57539380D01*
X237823285Y-57587000D01*
X237870904Y-57634619D01*
X237918523Y-57729857D01*
X237918523Y-57825095D01*
X237870904Y-57967952D01*
X237299476Y-58539380D01*
X237918523Y-58539380D01*
X246253095Y-54570380D02*
X246253095Y-55379904D01*
X246300714Y-55475142D01*
X246348333Y-55522761D01*
X246443571Y-55570380D01*
X246634047Y-55570380D01*
X246729285Y-55522761D01*
X246776904Y-55475142D01*
X246824523Y-55379904D01*
X246824523Y-54570380D01*
X247205476Y-54570380D02*
X247824523Y-54570380D01*
X247491190Y-54951333D01*
X247634047Y-54951333D01*
X247729285Y-54998952D01*
X247776904Y-55046571D01*
X247824523Y-55141809D01*
X247824523Y-55379904D01*
X247776904Y-55475142D01*
X247729285Y-55522761D01*
X247634047Y-55570380D01*
X247348333Y-55570380D01*
X247253095Y-55522761D01*
X247205476Y-55475142D01*
X240411095Y-33551880D02*
X240411095Y-34361404D01*
X240458714Y-34456642D01*
X240506333Y-34504261D01*
X240601571Y-34551880D01*
X240792047Y-34551880D01*
X240887285Y-34504261D01*
X240934904Y-34456642D01*
X240982523Y-34361404D01*
X240982523Y-33551880D01*
X241887285Y-33885214D02*
X241887285Y-34551880D01*
X241649190Y-33504261D02*
X241411095Y-34218547D01*
X242030142Y-34218547D01*
X218829690Y-60520690D02*
X219305880Y-60520690D01*
X218305880Y-60854023D02*
X218829690Y-60520690D01*
X218305880Y-60187357D01*
X219305880Y-59330214D02*
X219305880Y-59901642D01*
X219305880Y-59615928D02*
X218305880Y-59615928D01*
X218448738Y-59711166D01*
X218543976Y-59806404D01*
X218591595Y-59901642D01*
M02*
