G04 #@! TF.GenerationSoftware,KiCad,Pcbnew,(5.1.4)-1*
G04 #@! TF.CreationDate,2020-08-27T05:36:11+02:00*
G04 #@! TF.ProjectId,transmitter,7472616e-736d-4697-9474-65722e6b6963,v1.0*
G04 #@! TF.SameCoordinates,Original*
G04 #@! TF.FileFunction,Copper,L1,Top*
G04 #@! TF.FilePolarity,Positive*
%FSLAX46Y46*%
G04 Gerber Fmt 4.6, Leading zero omitted, Abs format (unit mm)*
G04 Created by KiCad (PCBNEW (5.1.4)-1) date 2020-08-27 05:36:11*
%MOMM*%
%LPD*%
G04 APERTURE LIST*
%ADD10R,1.600000X1.600000*%
%ADD11O,1.600000X1.600000*%
%ADD12O,1.700000X1.700000*%
%ADD13R,1.700000X1.700000*%
%ADD14C,1.600000*%
%ADD15C,1.200000*%
%ADD16R,2.200000X2.200000*%
%ADD17O,2.200000X2.200000*%
%ADD18R,1.524000X1.524000*%
%ADD19C,1.524000*%
%ADD20C,1.500000*%
%ADD21C,0.500000*%
G04 APERTURE END LIST*
D10*
X221424500Y-38354000D03*
D11*
X229044500Y-71374000D03*
X221424500Y-40894000D03*
X229044500Y-68834000D03*
X221424500Y-43434000D03*
X229044500Y-66294000D03*
X221424500Y-45974000D03*
X229044500Y-63754000D03*
X221424500Y-48514000D03*
X229044500Y-61214000D03*
X221424500Y-51054000D03*
X229044500Y-58674000D03*
X221424500Y-53594000D03*
X229044500Y-56134000D03*
X221424500Y-56134000D03*
X229044500Y-53594000D03*
X221424500Y-58674000D03*
X229044500Y-51054000D03*
X221424500Y-61214000D03*
X229044500Y-48514000D03*
X221424500Y-63754000D03*
X229044500Y-45974000D03*
X221424500Y-66294000D03*
X229044500Y-43434000D03*
X221424500Y-68834000D03*
X229044500Y-40894000D03*
X221424500Y-71374000D03*
X229044500Y-38354000D03*
D12*
X262699500Y-37655500D03*
X260159500Y-37655500D03*
X257619500Y-37655500D03*
X255079500Y-37655500D03*
X252539500Y-37655500D03*
D13*
X249999500Y-37655500D03*
D12*
X262699500Y-41592500D03*
X260159500Y-41592500D03*
X257619500Y-41592500D03*
X255079500Y-41592500D03*
X252539500Y-41592500D03*
D13*
X249999500Y-41592500D03*
D12*
X214947500Y-76708000D03*
X214947500Y-74168000D03*
X214947500Y-71628000D03*
D13*
X214947500Y-69088000D03*
D12*
X217297000Y-51054000D03*
D13*
X217297000Y-48514000D03*
X228473000Y-75501500D03*
D14*
X210058000Y-61658500D03*
X207558000Y-61658500D03*
X207748500Y-58166000D03*
X210248500Y-58166000D03*
D15*
X213233000Y-31115000D03*
X211233000Y-31115000D03*
D10*
X240538000Y-46672500D03*
D14*
X240538000Y-44172500D03*
X240855500Y-54062000D03*
D10*
X240855500Y-51562000D03*
X231838500Y-31115000D03*
D14*
X231838500Y-28615000D03*
X247269000Y-24043000D03*
D10*
X247269000Y-26543000D03*
X224917000Y-27813000D03*
D11*
X217297000Y-27813000D03*
D16*
X256921000Y-31623000D03*
D17*
X246761000Y-31623000D03*
D13*
X212471000Y-48514000D03*
D12*
X212471000Y-45974000D03*
X212471000Y-43434000D03*
X212471000Y-40894000D03*
X212471000Y-38354000D03*
X212471000Y-35814000D03*
D13*
X241744500Y-25971500D03*
D12*
X239204500Y-25971500D03*
X232537000Y-39179500D03*
X232537000Y-41719500D03*
X232537000Y-44259500D03*
X232537000Y-46799500D03*
X232537000Y-49339500D03*
D13*
X232537000Y-51879500D03*
X243332000Y-37592000D03*
D14*
X217297000Y-31369000D03*
D11*
X224917000Y-31369000D03*
D18*
X237109000Y-61087000D03*
D19*
X239649000Y-61087000D03*
X237109000Y-63627000D03*
X239649000Y-63627000D03*
X237109000Y-66167000D03*
X239649000Y-66167000D03*
X237109000Y-68707000D03*
X239649000Y-68707000D03*
D13*
X246951500Y-52197000D03*
D12*
X246951500Y-49657000D03*
X246951500Y-47117000D03*
X238125000Y-31623000D03*
X240665000Y-31623000D03*
D13*
X243205000Y-31623000D03*
D20*
X215328500Y-57594500D03*
X215328500Y-62494500D03*
D21*
X226504500Y-56134000D02*
X229044500Y-53594000D01*
X221424500Y-56134000D02*
X226504500Y-56134000D01*
M02*
